<?xml version="1.0" encoding="UTF-8"?>
<svg xmlns="http://www.w3.org/2000/svg" xmlns:xlink="http://www.w3.org/1999/xlink" version="1.2" >
<font id="TT Norms Light">
<font-face  font-family="TT Norms" units-per-em="1000" ascent="960" descent="-220" font-style="normal" font-weight="300" font-stretch="normal" cap-height="700" x-height="480" underline-position="-75" underline-thickness="50" />
<missing-glyph  d="" />
<glyph glyph-name=".null" d="" />
<glyph glyph-name="&amp;#x0;" d="" />
<glyph glyph-name="&amp;#xd;" unicode="&#xd;" d="" />
<glyph glyph-name="space" unicode="&#x20;" horiz-adv-x="185" d="" />
<glyph glyph-name="exclam" unicode="&#x21;" horiz-adv-x="300" d="M170 160 L180 700 L120 700 L130 160 L170 160 Z M115 30 C115 10 130 -5 150 -5 C170 -5 185 10 185 30 C185 50 170 65 150 65 C130 65 115 50 115 30 L115 30 Z " />
<glyph glyph-name="quotedbl" unicode="&#x22;" horiz-adv-x="335" d="M115 700 L70 700 L70 490 L115 490 L115 700 Z M265 700 L220 700 L220 490 L265 490 L265 700 Z " />
<glyph glyph-name="numbersign" unicode="&#x23;" horiz-adv-x="715" d="M535 700 L495 485 L275 485 L315 700 L270 700 L230 485 L80 485 L70 440 L220 440 L185 260 L35 260 L25 215 L175 215 L135 0 L180 0 L220 215 L440 215 L400 0 L445 0 L485 215 L635 215 L645 260 L495 260 L530 440 L680 440 L690 485 L540 485 L580 700 L535 700 Z M265 440 L485 440 L450 260 L230 260 L265 440 Z " />
<glyph glyph-name="dollar" unicode="&#x24;" horiz-adv-x="560" d="M455 185 C455 100 395 40 275 40 C140 40 80 130 80 130 L45 95 C45 95 113 -1 255 -9 L255 -110 L305 -110 L305 -8 C431 2 505 83 505 185 C505 425 115 335 115 525 C115 600 175 660 285 660 C395 660 450 590 450 590 L485 625 C485 625 422 701 305 709 L305 810 L255 810 L255 708 C137 697 65 617 65 525 C65 285 455 375 455 185 L455 185 Z " />
<glyph glyph-name="percent" unicode="&#x25;" horiz-adv-x="760" d="M135 0 L185 0 L625 700 L575 700 L135 0 Z M90 555 C90 620 135 665 195 665 C255 665 300 620 300 555 C300 490 255 445 195 445 C135 445 90 490 90 555 L90 555 Z M345 555 C345 645 280 710 195 710 C110 710 45 645 45 555 C45 465 110 400 195 400 C280 400 345 465 345 555 L345 555 Z M460 145 C460 210 505 255 565 255 C625 255 670 210 670 145 C670 80 625 35 565 35 C505 35 460 80 460 145 L460 145 Z M715 145 C715 235 650 300 565 300 C480 300 415 235 415 145 C415 55 480 -10 565 -10 C650 -10 715 55 715 145 L715 145 Z " />
<glyph glyph-name="ampersand" unicode="&#x26;" horiz-adv-x="615" d="M405 560 C405 645 340 710 255 710 C170 710 100 640 100 555 C100 469 210 365 210 365 C210 365 70 285 70 160 C70 70 150 -10 265 -10 C388 -10 450 75 450 75 C450 75 500 -5 570 -5 C585 -5 600 0 600 0 L600 45 C600 45 585 40 570 40 C525 40 480 110 480 110 C480 110 545 201 545 340 L500 340 C500 222 450 145 450 145 L270 365 C270 365 405 453 405 560 L405 560 Z M420 110 C420 110 368 35 265 35 C170 35 115 90 115 160 C115 255 235 335 235 335 L420 110 Z M145 555 C145 615 195 665 255 665 C315 665 360 620 360 560 C360 478 245 395 245 395 C245 395 145 486 145 555 L145 555 Z " />
<glyph glyph-name="quotesingle" unicode="&#x27;" horiz-adv-x="185" d="M115 700 L70 700 L70 490 L115 490 L115 700 Z " />
<glyph glyph-name="parenleft" unicode="&#x28;" horiz-adv-x="330" d="M125 250 C125 520 290 695 290 695 L250 720 C250 720 80 535 80 250 C80 -35 250 -220 250 -220 L290 -195 C290 -195 125 -20 125 250 L125 250 Z " />
<glyph glyph-name="parenright" unicode="&#x29;" horiz-adv-x="330" d="M205 250 C205 -20 40 -195 40 -195 L80 -220 C80 -220 250 -35 250 250 C250 535 80 720 80 720 L40 695 C40 695 205 520 205 250 L205 250 Z " />
<glyph glyph-name="asterisk" unicode="&#x2a;" horiz-adv-x="390" d="M195 515 L275 400 L305 425 L220 535 L350 565 L335 605 L210 565 L215 700 L175 700 L180 565 L55 605 L40 565 L170 535 L85 425 L115 400 L195 515 Z " />
<glyph glyph-name="plus" unicode="&#x2b;" horiz-adv-x="505" d="M230 510 L230 315 L45 315 L45 270 L230 270 L230 75 L275 75 L275 270 L460 270 L460 315 L275 315 L275 510 L230 510 Z " />
<glyph glyph-name="comma" unicode="&#x2c;" horiz-adv-x="195" d="M85 70 L0 -110 L30 -125 L135 40 L85 70 Z " />
<glyph glyph-name="hyphen" unicode="&#x2d;" horiz-adv-x="420" d="M375 320 L45 320 L45 275 L375 275 L375 320 Z " />
<glyph glyph-name="period" unicode="&#x2e;" horiz-adv-x="200" d="M65 30 C65 10 80 -5 100 -5 C120 -5 135 10 135 30 C135 50 120 65 100 65 C80 65 65 50 65 30 L65 30 Z " />
<glyph glyph-name="slash" unicode="&#x2f;" horiz-adv-x="425" d="M390 710 L340 710 L35 -210 L85 -210 L390 710 Z " />
<glyph glyph-name="zero" unicode="0" horiz-adv-x="670" d="M115 350 C115 550 225 660 335 660 C445 660 555 550 555 350 C555 150 445 40 335 40 C225 40 115 150 115 350 L115 350 Z M605 350 C605 575 470 710 335 710 C200 710 65 575 65 350 C65 125 200 -10 335 -10 C470 -10 605 125 605 350 L605 350 Z " />
<glyph glyph-name="one" unicode="1" horiz-adv-x="345" d="M190 700 C190 700 140 595 45 595 L45 555 C140 555 180 610 180 610 L180 0 L230 0 L230 700 L190 700 Z " />
<glyph glyph-name="two" unicode="2" horiz-adv-x="545" d="M485 0 L485 50 L100 50 C145 250 485 285 485 510 C485 620 395 710 265 710 C90 710 55 555 55 555 L100 535 C100 535 125 660 265 660 C370 660 435 595 435 510 C435 300 45 275 45 0 L485 0 Z " />
<glyph glyph-name="three" unicode="3" horiz-adv-x="540" d="M335 370 C335 370 455 400 455 530 C455 625 370 710 250 710 C120 710 50 620 50 620 L85 580 C85 580 145 660 250 660 C345 660 405 600 405 530 C405 450 345 390 250 390 L185 390 L185 340 L250 340 C360 340 430 270 430 190 C430 110 360 40 250 40 C125 40 65 130 65 130 L30 95 C30 95 100 -10 250 -10 C385 -10 480 85 480 190 C480 340 335 370 335 370 L335 370 Z " />
<glyph glyph-name="four" unicode="4" horiz-adv-x="565" d="M435 210 L435 700 L375 700 L25 220 L25 160 L385 160 L385 0 L435 0 L435 160 L525 160 L525 210 L435 210 Z M385 210 L75 210 L385 635 L385 210 Z " />
<glyph glyph-name="five" unicode="5" horiz-adv-x="593" d="M300 445 C211 445 155 390 155 390 L170 650 L480 650 L480 700 L125 700 L100 310 L140 310 C140 310 190 395 300 395 C400 395 475 320 475 215 C475 115 400 40 290 40 C170 40 110 130 110 130 L75 95 C75 95 145 -10 290 -10 C425 -10 525 90 525 215 C525 345 425 445 300 445 L300 445 Z " />
<glyph glyph-name="six" unicode="6" horiz-adv-x="575" d="M285 440 C230 440 195 420 195 420 L370 700 L315 700 L105 365 C105 365 55 300 55 215 C55 90 155 -10 285 -10 C415 -10 515 90 515 215 C515 340 415 440 285 440 L285 440 Z M465 215 C465 115 390 40 285 40 C180 40 105 115 105 215 C105 315 180 390 285 390 C390 390 465 315 465 215 L465 215 Z " />
<glyph glyph-name="seven" unicode="7" horiz-adv-x="475" d="M25 700 L25 650 L405 650 L85 0 L135 0 L455 650 L455 700 L25 700 Z " />
<glyph glyph-name="eight" unicode="8" horiz-adv-x="580" d="M290 405 C205 405 145 460 145 530 C145 600 205 660 290 660 C375 660 435 600 435 530 C435 460 375 405 290 405 L290 405 Z M290 40 C185 40 115 110 115 195 C115 280 190 355 290 355 C390 355 465 280 465 195 C465 110 395 40 290 40 L290 40 Z M290 -10 C420 -10 515 85 515 195 C515 335 380 380 380 380 C380 380 485 415 485 530 C485 625 400 710 290 710 C180 710 95 625 95 530 C95 415 200 380 200 380 C200 380 65 335 65 195 C65 85 160 -10 290 -10 L290 -10 Z " />
<glyph glyph-name="nine" unicode="9" horiz-adv-x="575" d="M290 260 C345 260 380 280 380 280 L205 0 L260 0 L470 335 C470 335 520 400 520 485 C520 610 420 710 290 710 C160 710 60 610 60 485 C60 360 160 260 290 260 L290 260 Z M110 485 C110 585 185 660 290 660 C395 660 470 585 470 485 C470 385 395 310 290 310 C185 310 110 385 110 485 L110 485 Z " />
<glyph glyph-name="colon" unicode="&#x3a;" horiz-adv-x="200" d="M65 30 C65 10 80 -5 100 -5 C120 -5 135 10 135 30 C135 50 120 65 100 65 C80 65 65 50 65 30 L65 30 Z M65 450 C65 430 80 415 100 415 C120 415 135 430 135 450 C135 470 120 485 100 485 C80 485 65 470 65 450 L65 450 Z " />
<glyph glyph-name="semicolon" unicode="&#x3b;" horiz-adv-x="200" d="M65 450 C65 430 80 415 100 415 C120 415 135 430 135 450 C135 470 120 485 100 485 C80 485 65 470 65 450 L65 450 Z M85 70 L0 -110 L30 -125 L135 40 L85 70 Z " />
<glyph glyph-name="less" unicode="&#x3c;" horiz-adv-x="490" d="M50 225 L440 20 L440 70 L105 245 L440 420 L440 470 L50 265 L50 225 Z " />
<glyph glyph-name="equal" unicode="&#x3d;" horiz-adv-x="500" d="M445 230 L50 230 L50 185 L445 185 L445 230 Z M445 405 L50 405 L50 360 L445 360 L445 405 Z " />
<glyph glyph-name="greater" unicode="&#x3e;" horiz-adv-x="490" d="M440 265 L50 470 L50 420 L385 245 L50 70 L50 20 L440 225 L440 265 Z " />
<glyph glyph-name="question" unicode="&#x3f;" horiz-adv-x="515" d="M270 160 L270 185 C270 360 465 340 465 525 C465 625 380 710 255 710 C85 710 45 555 45 555 L90 540 C90 540 115 660 255 660 C355 660 415 600 415 525 C415 380 220 370 220 205 C220 180 225 160 225 160 L270 160 Z M210 30 C210 10 225 -5 245 -5 C265 -5 280 10 280 30 C280 50 265 65 245 65 C225 65 210 50 210 30 L210 30 Z " />
<glyph glyph-name="at" unicode="&#x40;" horiz-adv-x="890" d="M435 385 C505 385 560 330 560 245 C560 160 505 105 435 105 C365 105 310 160 310 245 C310 330 365 385 435 385 L435 385 Z M435 430 C345 430 265 350 265 245 C265 140 345 60 435 60 C535 60 570 145 570 145 C570 145 595 60 680 60 C755 60 820 125 820 270 C820 465 655 630 445 630 C245 630 70 455 70 250 C70 45 245 -130 445 -130 C590 -130 670 -50 670 -50 L645 -15 C645 -15 570 -85 445 -85 C265 -85 115 65 115 250 C115 435 265 585 445 585 C635 585 775 445 775 270 C775 150 730 105 680 105 C635 105 605 135 605 203 L605 425 L560 425 L560 360 C560 360 525 430 435 430 L435 430 Z " />
<glyph glyph-name="A" unicode="A" horiz-adv-x="680" d="M495 255 L185 255 L340 630 L495 255 Z M515 205 L600 0 L655 0 L365 700 L315 700 L25 0 L80 0 L165 205 L515 205 Z " />
<glyph glyph-name="B" unicode="B" horiz-adv-x="660" d="M470 375 C470 375 560 410 560 525 C560 625 485 700 370 700 L110 700 L110 0 L380 0 C510 0 595 85 595 195 C595 335 470 375 470 375 L470 375 Z M160 50 L160 345 L380 345 C485 345 545 285 545 195 C545 110 485 50 380 50 L160 50 Z M370 650 C460 650 510 600 510 525 C510 445 460 395 370 395 L160 395 L160 650 L370 650 Z " />
<glyph glyph-name="C" unicode="C" horiz-adv-x="750" d="M60 350 C60 150 220 -10 415 -10 C605 -10 705 140 705 140 L670 170 C670 170 585 40 415 40 C245 40 110 175 110 350 C110 525 245 660 415 660 C584 660 665 530 665 530 L700 560 C700 560 605 710 415 710 C220 710 60 550 60 350 L60 350 Z " />
<glyph glyph-name="D" unicode="D" horiz-adv-x="740" d="M110 700 L110 0 L315 0 C525 0 680 155 680 350 C680 545 525 700 315 700 L110 700 Z M315 650 C500 650 630 520 630 350 C630 180 500 50 315 50 L160 50 L160 650 L315 650 Z " />
<glyph glyph-name="E" unicode="E" horiz-adv-x="630" d="M160 50 L160 340 L500 340 L500 390 L160 390 L160 650 L580 650 L580 700 L110 700 L110 0 L590 0 L590 50 L160 50 Z " />
<glyph glyph-name="F" unicode="F" horiz-adv-x="610" d="M110 700 L110 0 L160 0 L160 330 L495 330 L495 380 L160 380 L160 650 L575 650 L575 700 L110 700 Z " />
<glyph glyph-name="G" unicode="G" horiz-adv-x="790" d="M60 350 C60 150 220 -10 415 -10 C605 -10 710 140 710 140 L710 350 L480 350 L480 300 L660 300 L660 155 C660 155 575 40 415 40 C245 40 110 175 110 350 C110 525 245 660 415 660 C584 660 665 530 665 530 L700 560 C700 560 605 710 415 710 C220 710 60 550 60 350 L60 350 Z " />
<glyph glyph-name="H" unicode="H" horiz-adv-x="750" d="M110 0 L160 0 L160 330 L585 330 L585 0 L635 0 L635 700 L585 700 L585 380 L160 380 L160 700 L110 700 L110 0 Z " />
<glyph glyph-name="I" unicode="I" horiz-adv-x="270" d="M110 0 L160 0 L160 700 L110 700 L110 0 Z " />
<glyph glyph-name="J" unicode="J" horiz-adv-x="490" d="M335 700 L335 205 C335 105 270 40 175 40 C90 40 45 100 45 100 L10 65 C10 65 70 -10 175 -10 C295 -10 385 80 385 205 L385 700 L335 700 Z " />
<glyph glyph-name="K" unicode="K" horiz-adv-x="655" d="M160 270 L160 700 L110 700 L110 0 L160 0 L160 200 L320 375 L580 0 L640 0 L350 410 L615 700 L550 700 L160 270 Z " />
<glyph glyph-name="L" unicode="L" horiz-adv-x="560" d="M535 0 L535 50 L160 50 L160 700 L110 700 L110 0 L535 0 Z " />
<glyph glyph-name="M" unicode="M" horiz-adv-x="920" d="M460 205 L760 605 L760 0 L810 0 L810 700 L770 700 L460 290 L150 700 L110 700 L110 0 L160 0 L160 605 L460 205 Z " />
<glyph glyph-name="N" unicode="N" horiz-adv-x="775" d="M615 700 L615 95 L150 700 L110 700 L110 0 L160 0 L160 605 L625 0 L665 0 L665 700 L615 700 Z " />
<glyph glyph-name="O" unicode="O" horiz-adv-x="830" d="M720 350 C720 175 585 40 415 40 C245 40 110 175 110 350 C110 525 245 660 415 660 C585 660 720 525 720 350 L720 350 Z M770 350 C770 550 612 710 415 710 C220 710 60 550 60 350 C60 150 219 -10 415 -10 C612 -10 770 150 770 350 L770 350 Z " />
<glyph glyph-name="P" unicode="P" horiz-adv-x="640" d="M110 700 L110 0 L160 0 L160 270 L360 270 C490 270 585 365 585 485 C585 605 490 700 360 700 L110 700 Z M360 650 C465 650 535 580 535 485 C535 390 465 320 360 320 L160 320 L160 650 L360 650 Z " />
<glyph glyph-name="Q" unicode="Q" horiz-adv-x="835" d="M510 3 C510 3 575 -140 755 -140 C790 -140 805 -135 805 -135 L805 -85 C805 -85 790 -90 755 -90 C610 -90 560 20 560 20 C560 20 770 110 770 350 C770 550 612 710 415 710 C220 710 60 550 60 350 C60 150 219 -10 415 -10 C470 -10 510 3 510 3 L510 3 Z M720 350 C720 175 585 40 415 40 C245 40 110 175 110 350 C110 525 245 660 415 660 C585 660 720 525 720 350 L720 350 Z " />
<glyph glyph-name="R" unicode="R" horiz-adv-x="660" d="M110 700 L110 0 L160 0 L160 290 L385 290 L550 0 L605 0 L435 300 C435 300 590 330 590 495 C590 610 500 700 375 700 L110 700 Z M375 650 C475 650 540 585 540 495 C540 405 475 340 375 340 L160 340 L160 650 L375 650 Z " />
<glyph glyph-name="S" unicode="S" horiz-adv-x="560" d="M455 185 C455 100 395 40 275 40 C140 40 80 130 80 130 L45 95 C45 95 120 -10 275 -10 C420 -10 505 75 505 185 C505 425 115 335 115 525 C115 600 175 660 285 660 C395 660 450 590 450 590 L485 625 C485 625 415 710 285 710 C150 710 65 625 65 525 C65 285 455 375 455 185 L455 185 Z " />
<glyph glyph-name="T" unicode="T" horiz-adv-x="550" d="M20 700 L20 650 L250 650 L250 0 L300 0 L300 650 L530 650 L530 700 L20 700 Z " />
<glyph glyph-name="U" unicode="U" horiz-adv-x="750" d="M375 40 C250 40 150 140 150 270 L150 700 L100 700 L100 270 C100 115 225 -10 375 -10 C525 -10 650 115 650 270 L650 700 L600 700 L600 270 C600 140 500 40 375 40 L375 40 Z " />
<glyph glyph-name="V" unicode="V" horiz-adv-x="660" d="M305 0 L355 0 L630 700 L575 700 L330 75 L85 700 L30 700 L305 0 Z " />
<glyph glyph-name="W" unicode="W" horiz-adv-x="1010" d="M505 620 L705 0 L755 0 L980 700 L925 700 L730 80 L530 700 L480 700 L280 80 L85 700 L30 700 L255 0 L305 0 L505 620 Z " />
<glyph glyph-name="X" unicode="X" horiz-adv-x="630" d="M585 700 L525 700 L315 405 L105 700 L45 700 L285 365 L25 0 L85 0 L315 325 L545 0 L605 0 L345 365 L585 700 Z " />
<glyph glyph-name="Y" unicode="Y" horiz-adv-x="620" d="M85 700 L25 700 L285 245 L285 0 L335 0 L335 245 L595 700 L535 700 L310 300 L85 700 Z " />
<glyph glyph-name="Z" unicode="Z" horiz-adv-x="585" d="M470 650 L45 50 L45 0 L540 0 L540 50 L105 50 L530 650 L530 700 L60 700 L60 650 L470 650 Z " />
<glyph glyph-name="bracketleft" unicode="&#x5b;" horiz-adv-x="340" d="M150 660 L295 660 L295 710 L100 710 L100 -210 L295 -210 L295 -160 L150 -160 L150 660 Z " />
<glyph glyph-name="backslash" unicode="&#x5c;" horiz-adv-x="425" d="M340 -210 L390 -210 L85 710 L35 710 L340 -210 Z " />
<glyph glyph-name="bracketright" unicode="&#x5d;" horiz-adv-x="340" d="M190 -160 L45 -160 L45 -210 L240 -210 L240 710 L45 710 L45 660 L190 660 L190 -160 Z " />
<glyph glyph-name="asciicircum" unicode="&#x5e;" horiz-adv-x="390" d="M175 700 L50 425 L95 425 L195 645 L295 425 L340 425 L215 700 L175 700 Z " />
<glyph glyph-name="underscore" unicode="&#x5f;" horiz-adv-x="320" d="M330 -115 L-10 -115 L-10 -160 L330 -160 L330 -115 Z " />
<glyph glyph-name="grave" unicode="&#x60;" horiz-adv-x="190" d="M85 695 L30 695 L120 565 L160 565 L85 695 Z " />
<glyph glyph-name="a" unicode="a" horiz-adv-x="500" d="M180 270 C90 256 35 200 35 125 C35 55 100 -10 195 -10 C315 -10 370 80 370 80 L370 0 L415 0 L415 300 C415 407 338 490 235 490 C127 490 65 405 65 405 L95 375 C95 375 147 445 235 445 C312 445 370 383 370 300 L180 270 Z M195 35 C125 35 80 80 80 125 C80 175 115 213 190 225 L370 255 L370 210 C370 110 295 35 195 35 L195 35 Z " />
<glyph glyph-name="b" unicode="b" horiz-adv-x="595" d="M130 240 C130 355 220 445 315 445 C405 445 495 355 495 240 C495 125 405 35 315 35 C220 35 130 125 130 240 L130 240 Z M130 700 L85 700 L85 0 L130 0 L130 95 C130 95 190 -10 315 -10 C430 -10 540 100 540 240 C540 380 430 490 315 490 C190 490 130 385 130 385 L130 700 Z " />
<glyph glyph-name="c" unicode="c" horiz-adv-x="515" d="M45 240 C45 100 155 -10 280 -10 C405 -10 470 90 470 90 L435 120 C435 120 385 35 280 35 C180 35 90 125 90 240 C90 355 180 445 280 445 C385 445 435 360 435 360 L470 390 C470 390 405 490 280 490 C155 490 45 380 45 240 L45 240 Z " />
<glyph glyph-name="d" unicode="d" horiz-adv-x="595" d="M455 240 C455 125 365 35 270 35 C180 35 90 125 90 240 C90 355 180 445 270 445 C365 445 455 355 455 240 L455 240 Z M455 385 C455 385 395 490 270 490 C155 490 45 380 45 240 C45 100 155 -10 270 -10 C395 -10 455 95 455 95 L455 0 L500 0 L500 700 L455 700 L455 385 Z " />
<glyph glyph-name="e" unicode="e" horiz-adv-x="550" d="M495 220 L495 240 C495 390 395 490 275 490 C155 490 45 380 45 240 C45 100 155 -10 280 -10 C405 -10 470 90 470 90 L440 119 C440 119 385 35 280 35 C180 35 95 120 90 220 L495 220 Z M275 445 C370 445 445 370 450 265 L90 265 C95 360 180 445 275 445 L275 445 Z " />
<glyph glyph-name="f" unicode="f" horiz-adv-x="310" d="M275 480 L155 480 L155 580 C155 635 185 665 230 665 C265 665 295 650 295 650 L295 695 C295 695 265 710 230 710 C155 710 110 665 110 580 L110 480 L30 480 L30 435 L110 435 L110 0 L155 0 L155 435 L275 435 L275 480 Z " />
<glyph glyph-name="g" unicode="g" horiz-adv-x="585" d="M90 250 C90 360 175 445 265 445 C355 445 445 360 445 250 C445 140 355 55 265 55 C175 55 90 140 90 250 L90 250 Z M445 30 C445 -80 360 -165 260 -165 C155 -165 100 -80 100 -80 L70 -110 C70 -110 130 -210 260 -210 C385 -210 490 -105 490 30 L490 480 L445 480 L445 390 C445 390 390 490 265 490 C150 490 45 385 45 250 C45 115 150 10 265 10 C390 10 445 110 445 110 L445 30 Z " />
<glyph glyph-name="h" unicode="h" horiz-adv-x="575" d="M130 700 L85 700 L85 0 L130 0 L130 270 C130 370 205 445 295 445 C380 445 445 380 445 285 L445 0 L490 0 L490 285 C490 405 405 490 295 490 C175 490 130 395 130 395 L130 700 Z " />
<glyph glyph-name="i" unicode="i" horiz-adv-x="225" d="M85 0 L130 0 L130 480 L85 480 L85 0 Z M75 650 C75 630 90 615 110 615 C130 615 145 630 145 650 C145 670 130 685 110 685 C90 685 75 670 75 650 L75 650 Z " />
<glyph glyph-name="j" unicode="j" horiz-adv-x="225" d="M85 -80 C85 -135 55 -165 10 -165 C-25 -165 -50 -150 -50 -150 L-50 -195 C-50 -195 -25 -210 10 -210 C80 -210 130 -160 130 -80 L130 480 L85 480 L85 -80 Z M75 650 C75 630 90 615 110 615 C130 615 145 630 145 650 C145 670 130 685 110 685 C90 685 75 670 75 650 L75 650 Z " />
<glyph glyph-name="k" unicode="k" horiz-adv-x="500" d="M130 130 L240 250 L245 250 L425 0 L480 0 L275 285 L455 480 L395 480 L130 195 L130 700 L85 700 L85 0 L130 0 L130 130 Z " />
<glyph glyph-name="l" unicode="l" horiz-adv-x="225" d="M130 700 L85 700 L85 0 L130 0 L130 700 Z " />
<glyph glyph-name="m" unicode="m" horiz-adv-x="865" d="M735 0 L780 0 L780 285 C780 415 699 490 600 490 C472 490 435 380 435 380 C435 380 395 490 275 490 C170 490 130 410 130 410 L130 480 L85 480 L85 0 L130 0 L130 270 C130 380 195 445 275 445 C350 445 410 385 410 285 L410 0 L455 0 L455 270 C455 380 520 445 600 445 C675 445 735 385 735 285 L735 0 Z " />
<glyph glyph-name="n" unicode="n" horiz-adv-x="575" d="M130 480 L85 480 L85 0 L130 0 L130 270 C130 370 205 445 295 445 C380 445 445 380 445 285 L445 0 L490 0 L490 285 C490 405 405 490 295 490 C175 490 130 395 130 395 L130 480 Z " />
<glyph glyph-name="o" unicode="o" horiz-adv-x="580" d="M45 240 C45 100 155 -10 285 -10 C415 -10 525 100 525 240 C525 380 415 490 285 490 C155 490 45 380 45 240 L45 240 Z M480 240 C480 125 390 35 285 35 C180 35 90 125 90 240 C90 355 180 445 285 445 C390 445 480 355 480 240 L480 240 Z " />
<glyph glyph-name="p" unicode="p" horiz-adv-x="595" d="M130 240 C130 355 220 445 315 445 C405 445 495 355 495 240 C495 125 405 35 315 35 C220 35 130 125 130 240 L130 240 Z M130 95 C130 95 190 -10 315 -10 C430 -10 540 100 540 240 C540 380 430 490 315 490 C190 490 130 385 130 385 L130 480 L85 480 L85 -210 L130 -210 L130 95 Z " />
<glyph glyph-name="q" unicode="q" horiz-adv-x="595" d="M455 240 C455 125 365 35 270 35 C180 35 90 125 90 240 C90 355 180 445 270 445 C365 445 455 355 455 240 L455 240 Z M455 -210 L500 -210 L500 480 L455 480 L455 385 C455 385 395 490 270 490 C155 490 45 380 45 240 C45 100 155 -10 270 -10 C395 -10 455 95 455 95 L455 -210 Z " />
<glyph glyph-name="r" unicode="r" horiz-adv-x="340" d="M320 490 L300 490 C175 490 130 400 130 400 L130 480 L85 480 L85 0 L130 0 L130 270 C130 375 210 445 300 445 L320 445 L320 490 Z " />
<glyph glyph-name="s" unicode="s" horiz-adv-x="430" d="M360 420 C360 420 305 490 210 490 C120 490 55 425 55 360 C55 200 330 255 330 135 C330 80 285 35 205 35 C120 35 70 105 70 105 L35 70 C35 70 95 -10 205 -10 C310 -10 375 55 375 135 C375 300 100 245 100 360 C100 404 140 445 210 445 C285 445 325 385 325 385 L360 420 Z " />
<glyph glyph-name="t" unicode="t" horiz-adv-x="350" d="M125 520 C125 495 110 480 90 480 L25 480 L25 435 L120 435 L120 120 C120 35 165 -10 240 -10 C275 -10 305 5 305 5 L305 50 C305 50 275 35 240 35 C195 35 165 65 165 120 L165 435 L275 435 L275 480 L165 480 L165 640 L125 640 L125 520 Z " />
<glyph glyph-name="u" unicode="u" horiz-adv-x="580" d="M445 0 L490 0 L490 480 L445 480 L445 210 C445 110 370 35 280 35 C195 35 130 100 130 195 L130 480 L85 480 L85 195 C85 75 170 -10 280 -10 C400 -10 445 85 445 85 L445 0 Z " />
<glyph glyph-name="v" unicode="v" horiz-adv-x="480" d="M260 0 L455 480 L405 480 L235 60 L65 480 L15 480 L210 0 L260 0 Z " />
<glyph glyph-name="w" unicode="w" horiz-adv-x="710" d="M330 480 L200 75 L65 480 L15 480 L175 0 L220 0 L350 405 L480 0 L525 0 L685 480 L635 480 L500 70 L370 480 L330 480 Z " />
<glyph glyph-name="x" unicode="x" horiz-adv-x="460" d="M420 480 L365 480 L225 285 L85 480 L30 480 L195 250 L15 0 L70 0 L225 215 L380 0 L435 0 L255 250 L420 480 Z " />
<glyph glyph-name="y" unicode="y" horiz-adv-x="480" d="M175 -90 C155 -140 130 -165 85 -165 C60 -165 40 -155 40 -155 L40 -200 C40 -200 60 -210 85 -210 C155 -210 191 -175 225 -90 L455 480 L405 480 L235 60 L65 480 L15 480 L210 0 L175 -90 Z " />
<glyph glyph-name="z" unicode="z" horiz-adv-x="445" d="M395 480 L40 480 L40 435 L340 435 L30 45 L30 0 L405 0 L405 45 L85 45 L395 435 L395 480 Z " />
<glyph glyph-name="braceleft" unicode="&#x7b;" horiz-adv-x="355" d="M65 230 C115 230 140 205 140 155 L140 -80 C140 -160 190 -210 280 -210 L315 -210 L315 -165 L280 -165 C215 -165 185 -135 185 -80 L185 155 C185 235 120 250 120 250 C120 250 185 265 185 345 L185 580 C185 635 215 665 280 665 L315 665 L315 710 L280 710 C190 710 140 660 140 580 L140 345 C140 295 115 270 65 270 L65 230 Z " />
<glyph glyph-name="bar" unicode="&#x7c;" horiz-adv-x="325" d="M185 710 L140 710 L140 -210 L185 -210 L185 710 Z " />
<glyph glyph-name="braceright" unicode="&#x7d;" horiz-adv-x="355" d="M290 270 C240 270 215 295 215 345 L215 580 C215 660 165 710 75 710 L40 710 L40 665 L75 665 C140 665 170 635 170 580 L170 345 C170 265 235 250 235 250 C235 250 170 235 170 155 L170 -80 C170 -135 140 -165 75 -165 L40 -165 L40 -210 L75 -210 C165 -210 215 -160 215 -80 L215 155 C215 205 240 230 290 230 L290 270 Z " />
<glyph glyph-name="asciitilde" unicode="&#x7e;" horiz-adv-x="520" d="M165 305 C240 305 260 235 355 235 C440 235 480 315 480 315 L445 340 C445 340 420 280 355 280 C280 280 260 350 165 350 C80 350 40 270 40 270 L75 245 C75 245 100 305 165 305 L165 305 Z " />
<glyph glyph-name="nbspace" unicode="&#xa0;" horiz-adv-x="185" d="" />
<glyph glyph-name="exclamdown" unicode="&#xa1;" horiz-adv-x="280" d="M120 320 L110 -210 L170 -210 L160 320 L120 320 Z M105 450 C105 430 120 415 140 415 C160 415 175 430 175 450 C175 470 160 485 140 485 C120 485 105 470 105 450 L105 450 Z " />
<glyph glyph-name="cent" unicode="&#xa2;" horiz-adv-x="515" d="M45 240 C45 105 145 0 260 -9 L260 -110 L305 -110 L305 -8 C415 5 470 90 470 90 L435 120 C435 120 385 35 280 35 C180 35 90 125 90 240 C90 355 180 445 280 445 C385 445 435 360 435 360 L470 390 C470 390 415 475 305 488 L305 590 L260 590 L260 489 C145 480 45 370 45 240 L45 240 Z " />
<glyph glyph-name="sterling" unicode="&#xa3;" horiz-adv-x="550" d="M145 500 L145 350 L75 350 L75 300 L145 300 L145 125 C145 90 110 50 65 50 L65 0 L520 0 L520 50 L150 50 C150 50 195 70 195 125 L195 300 L400 300 L400 350 L195 350 L195 500 C195 595 260 660 345 660 C435 660 485 590 485 590 L520 625 C520 625 460 710 345 710 C230 710 145 625 145 500 L145 500 Z " />
<glyph glyph-name="currency" unicode="&#xa4;" horiz-adv-x="660" d="M50 290 L135 290 L135 190 L50 190 L50 140 L135 140 L135 0 L185 0 L185 140 L444 140 L444 190 L185 190 L185 290 L385 290 C510 290 600 380 600 495 C600 610 510 700 385 700 L135 700 L135 340 L50 340 L50 290 Z M385 650 C485 650 550 585 550 495 C550 405 485 340 385 340 L185 340 L185 650 L385 650 Z " />
<glyph glyph-name="yen" unicode="&#xa5;" horiz-adv-x="620" d="M85 700 L25 700 L250 305 L120 305 L120 260 L275 260 L285 245 L285 170 L120 170 L120 125 L285 125 L285 0 L335 0 L335 125 L500 125 L500 170 L335 170 L335 245 L345 260 L500 260 L500 305 L370 305 L595 700 L535 700 L310 305 L85 700 Z " />
<glyph glyph-name="brokenbar" unicode="&#xa6;" horiz-adv-x="325" d="M140 170 L140 -210 L185 -210 L185 170 L140 170 Z M185 330 L185 710 L140 710 L140 330 L185 330 Z " />
<glyph glyph-name="section" unicode="&#xa7;" horiz-adv-x="528" d="M105 320 C105 405 210 430 210 430 C275 405 415 380 415 285 C415 200 310 175 310 175 C245 200 105 225 105 320 L105 320 Z M460 285 C460 475 140 430 140 565 C140 620 185 665 265 665 C340 665 385 605 385 605 L420 640 C420 640 365 710 265 710 C160 710 95 645 95 565 C95 485 170 455 170 455 C170 455 60 420 60 320 C60 130 380 175 380 40 C380 -15 330 -65 250 -65 C165 -65 115 10 115 10 L80 -25 C80 -25 140 -110 250 -110 C355 -110 425 -40 425 40 C425 120 350 150 350 150 C350 150 460 185 460 285 L460 285 Z " />
<glyph glyph-name="dieresis" unicode="&#xa8;" horiz-adv-x="305" d="M30 635 C30 615 45 600 65 600 C85 600 100 615 100 635 C100 655 85 670 65 670 C45 670 30 655 30 635 L30 635 Z M205 635 C205 615 220 600 240 600 C260 600 275 615 275 635 C275 655 260 670 240 670 C220 670 205 655 205 635 L205 635 Z " />
<glyph glyph-name="copyright" unicode="&#xa9;" horiz-adv-x="870" d="M435 710 C235 710 75 550 75 350 C75 150 235 -10 435 -10 C635 -10 795 150 795 350 C795 550 635 710 435 710 L435 710 Z M435 35 C255 35 120 170 120 350 C120 530 255 665 435 665 C615 665 750 530 750 350 C750 170 615 35 435 35 L435 35 Z M300 350 C300 435 360 495 440 495 C517 495 555 435 555 435 L585 465 C585 465 535 540 440 540 C335 540 255 460 255 350 C255 240 335 160 440 160 C535 160 585 235 585 235 L555 265 C555 265 517 205 440 205 C360 205 300 265 300 350 L300 350 Z " />
<glyph glyph-name="ordfeminine" unicode="&#xaa;" horiz-adv-x="320" d="M125 405 C200 405 230 460 230 460 L230 415 C246 415 270 415 270 415 L270 610 C270 665 225 710 155 710 C90 710 55 655 55 655 L85 630 C85 630 110 670 155 670 C205 670 230 645 230 595 L125 575 C70 565 35 530 35 485 C35 440 70 405 125 405 L125 405 Z M230 555 L230 546 C230 485 190 445 130 445 C95 445 75 465 75 485 C75 510 90 528 125 535 L230 555 Z " />
<glyph glyph-name="guillemotleft" unicode="&#xab;" horiz-adv-x="440" d="M165 80 L220 80 L105 240 L220 400 L165 400 L50 240 L165 80 Z M335 80 L390 80 L275 240 L390 400 L335 400 L220 240 L335 80 Z " />
<glyph glyph-name="logicalnot" unicode="&#xac;" horiz-adv-x="455" d="M410 380 L45 380 L45 335 L360 335 L360 195 L410 195 L410 380 Z " />
<glyph glyph-name="uni00AD" unicode="&#xad;" horiz-adv-x="420" d="M375 315 L45 315 L45 270 L375 270 L375 315 Z " />
<glyph glyph-name="registered" unicode="&#xae;" horiz-adv-x="870" d="M500 325 C500 325 570 350 570 425 C570 485 521 535 445 535 L315 535 L315 165 L360 165 L360 315 L455 315 L535 165 L585 165 L500 325 Z M360 490 L445 490 C500 490 525 465 525 425 C525 385 500 360 445 360 L360 360 L360 490 Z M435 710 C235 710 75 550 75 350 C75 150 235 -10 435 -10 C635 -10 795 150 795 350 C795 550 635 710 435 710 L435 710 Z M435 35 C255 35 120 170 120 350 C120 530 255 665 435 665 C615 665 750 530 750 350 C750 170 615 35 435 35 L435 35 Z " />
<glyph glyph-name="macron" unicode="&#xaf;" horiz-adv-x="330" d="M300 685 L30 685 L30 645 L300 645 L300 685 Z " />
<glyph glyph-name="degree" unicode="&#xb0;" horiz-adv-x="350" d="M90 580 C90 630 125 665 175 665 C225 665 260 630 260 580 C260 530 225 495 175 495 C125 495 90 530 90 580 L90 580 Z M305 580 C305 655 250 710 175 710 C100 710 45 655 45 580 C45 505 100 450 175 450 C250 450 305 505 305 580 L305 580 Z " />
<glyph glyph-name="plusminus" unicode="&#xb1;" horiz-adv-x="505" d="M45 45 L460 45 L460 90 L45 90 L45 45 Z M230 595 L230 400 L45 400 L45 355 L230 355 L230 160 L275 160 L275 355 L460 355 L460 400 L275 400 L275 595 L230 595 Z " />
<glyph glyph-name="twosuperior" unicode="&#xb2;" horiz-adv-x="285" d="M255 450 L255 490 L68 490 C100 580 255 590 255 704 C255 755 215 805 145 805 C55 805 30 720 30 720 L65 705 C65 705 85 765 145 765 C185 765 215 735 215 704 C215 615 25 600 25 450 L255 450 Z " />
<glyph glyph-name="threesuperior" unicode="&#xb3;" horiz-adv-x="295" d="M205 635 C205 635 250 650 250 710 C250 760 205 805 140 805 C68 805 30 750 30 750 L60 720 C60 720 86 765 140 765 C185 765 210 740 210 710 C210 675 190 655 145 655 L100 655 L100 615 L147 615 C197 615 225 587 225 550 C225 512 195 485 145 485 C85 485 50 535 50 535 L20 505 C20 505 65 445 145 445 C215 445 265 493 265 550 C265 625 205 635 205 635 L205 635 Z " />
<glyph glyph-name="acute" unicode="&#xb4;" horiz-adv-x="190" d="M30 565 L70 565 L160 695 L105 695 L30 565 Z " />
<glyph glyph-name="mu" unicode="&#xb5;" horiz-adv-x="580" d="M435 80 C435 35 475 -5 530 -5 C550 -5 560 0 560 0 L560 46 C560 46 550 40 530 40 C500 40 480 60 480 90 L480 480 L435 480 L435 210 C435 110 370 35 280 35 C195 35 130 100 130 195 L130 480 L85 480 L85 -210 L130 -210 L130 60 C130 60 180 -10 280 -10 C395 -10 435 80 435 80 L435 80 Z " />
<glyph glyph-name="paragraph" unicode="&#xb6;" horiz-adv-x="523" d="M210 -100 L255 -100 L255 654 L370 654 L370 -100 L415 -100 L415 700 L210 700 C125 700 50 625 50 540 C50 455 125 380 210 380 L210 -100 Z " />
<glyph glyph-name="periodcentered" unicode="&#xb7;" horiz-adv-x="185" d="M60 250 C60 230 75 215 95 215 C115 215 130 230 130 250 C130 270 115 285 95 285 C75 285 60 270 60 250 L60 250 Z " />
<glyph glyph-name="cedilla" unicode="&#xb8;" horiz-adv-x="230" d="M110 20 L65 -70 L90 -95 C90 -95 105 -85 125 -85 C146 -85 165 -105 165 -125 C165 -150 146 -170 110 -170 C75 -170 45 -145 45 -145 L30 -173 C30 -173 65 -200 110 -200 C165 -200 200 -165 200 -125 C200 -85 170 -55 130 -55 C110 -55 105 -60 105 -60 L145 20 L110 20 Z " />
<glyph glyph-name="onesuperior" unicode="&#xb9;" horiz-adv-x="200" d="M105 800 C105 800 80 745 30 745 L30 710 C80 710 100 740 100 740 L100 450 L140 450 L140 800 L105 800 Z " />
<glyph glyph-name="ordmasculine" unicode="&#xba;" horiz-adv-x="360" d="M180 440 C115 440 70 485 70 555 C70 625 115 670 180 670 C245 670 290 625 290 555 C290 485 245 440 180 440 L180 440 Z M180 400 C265 400 330 465 330 555 C330 645 265 710 180 710 C95 710 30 645 30 555 C30 465 95 400 180 400 L180 400 Z " />
<glyph glyph-name="guillemotright" unicode="&#xbb;" horiz-adv-x="440" d="M390 240 L275 400 L220 400 L335 240 L220 80 L275 80 L390 240 Z M220 240 L105 400 L50 400 L165 240 L50 80 L105 80 L220 240 Z " />
<glyph glyph-name="onequarter" unicode="&#xbc;" horiz-adv-x="665" d="M70 0 L115 0 L550 700 L505 700 L70 0 Z M115 700 C115 700 90 645 40 645 L40 610 C90 610 110 640 110 640 L110 350 L150 350 L150 700 L115 700 Z M575 125 L575 350 L525 350 L365 125 L365 85 L535 85 L535 0 L575 0 L575 85 L620 85 L620 125 L575 125 Z M535 125 L410 125 L535 300 L535 125 Z " />
<glyph glyph-name="onehalf" unicode="&#xbd;" horiz-adv-x="690" d="M70 0 L115 0 L550 700 L505 700 L70 0 Z M115 700 C115 700 90 645 40 645 L40 610 C90 610 110 640 110 640 L110 350 L150 350 L150 700 L115 700 Z M645 0 L645 40 L458 40 C490 130 645 140 645 254 C645 305 605 355 535 355 C445 355 420 270 420 270 L455 255 C455 255 475 315 535 315 C575 315 605 285 605 254 C605 165 415 150 415 0 L645 0 Z " />
<glyph glyph-name="threequarters" unicode="&#xbe;" horiz-adv-x="730" d="M135 0 L180 0 L615 700 L570 700 L135 0 Z M640 125 L640 350 L590 350 L430 125 L430 85 L600 85 L600 0 L640 0 L640 85 L685 85 L685 125 L640 125 Z M600 125 L475 125 L600 300 L600 125 Z M210 535 C210 535 255 550 255 610 C255 660 210 705 145 705 C73 705 35 650 35 650 L65 620 C65 620 91 665 145 665 C190 665 215 640 215 610 C215 575 195 555 150 555 L105 555 L105 515 L152 515 C202 515 230 487 230 450 C230 412 200 385 150 385 C90 385 55 435 55 435 L25 405 C25 405 70 345 150 345 C220 345 270 393 270 450 C270 525 210 535 210 535 L210 535 Z " />
<glyph glyph-name="questiondown" unicode="&#xbf;" horiz-adv-x="450" d="M225 320 L225 295 C225 120 30 150 30 -35 C30 -135 115 -220 240 -220 C410 -220 450 -65 450 -65 L405 -50 C405 -50 380 -170 240 -170 C140 -170 80 -110 80 -35 C80 110 275 110 275 275 C275 300 270 320 270 320 L225 320 Z M285 450 C285 470 270 485 250 485 C230 485 215 470 215 450 C215 430 230 415 250 415 C270 415 285 430 285 450 L285 450 Z " />
<glyph glyph-name="Agrave" unicode="&#xc0;" horiz-adv-x="680" d="M495 255 L185 255 L340 630 L495 255 Z M515 205 L600 0 L655 0 L365 700 L315 700 L25 0 L80 0 L165 205 L515 205 Z M285 925 L230 925 L320 795 L360 795 L285 925 Z " />
<glyph glyph-name="Aacute" unicode="&#xc1;" horiz-adv-x="680" d="M495 255 L185 255 L340 630 L495 255 Z M515 205 L600 0 L655 0 L365 700 L315 700 L25 0 L80 0 L165 205 L515 205 Z M330 795 L370 795 L460 925 L405 925 L330 795 Z " />
<glyph glyph-name="Acircumflex" unicode="&#xc2;" horiz-adv-x="680" d="M495 255 L185 255 L340 630 L495 255 Z M515 205 L600 0 L655 0 L365 700 L315 700 L25 0 L80 0 L165 205 L515 205 Z M365 925 L315 925 L210 795 L255 795 L340 895 L425 795 L470 795 L365 925 Z " />
<glyph glyph-name="Atilde" unicode="&#xc3;" horiz-adv-x="680" d="M495 255 L185 255 L340 630 L495 255 Z M515 205 L600 0 L655 0 L365 700 L315 700 L25 0 L80 0 L165 205 L515 205 Z M277 870 C322 870 337 795 402 795 C447 795 482 830 482 910 L442 910 C442 855 422 835 402 835 C357 835 342 910 277 910 C232 910 197 875 197 795 L237 795 C237 850 257 870 277 870 L277 870 Z " />
<glyph glyph-name="Adieresis" unicode="&#xc4;" horiz-adv-x="680" d="M495 255 L185 255 L340 630 L495 255 Z M515 205 L600 0 L655 0 L365 700 L315 700 L25 0 L80 0 L165 205 L515 205 Z M220 859 C220 839 235 824 255 824 C275 824 290 839 290 859 C290 879 275 894 255 894 C235 894 220 879 220 859 L220 859 Z M395 859 C395 839 410 824 430 824 C450 824 465 839 465 859 C465 879 450 894 430 894 C410 894 395 879 395 859 L395 859 Z " />
<glyph glyph-name="Aring" unicode="&#xc5;" horiz-adv-x="680" d="M495 255 L185 255 L340 630 L495 255 Z M515 205 L600 0 L655 0 L365 700 L315 700 L25 0 L80 0 L165 205 L515 205 Z M285 860 C285 895 305 915 340 915 C375 915 395 895 395 860 C395 825 375 805 340 805 C305 805 285 825 285 860 L285 860 Z M435 860 C435 915 395 955 340 955 C285 955 245 915 245 860 C245 805 285 765 340 765 C395 765 435 805 435 860 L435 860 Z " />
<glyph glyph-name="AE" unicode="&#xc6;" horiz-adv-x="945" d="M525 50 L525 340 L815 340 L815 390 L525 390 L525 650 L895 650 L895 700 L370 700 L-20 0 L35 0 L155 215 L475 215 L475 0 L905 0 L905 50 L525 50 Z M396 650 L475 650 L475 265 L180 265 L396 650 Z " />
<glyph glyph-name="Ccedilla" unicode="&#xc7;" horiz-adv-x="750" d="M60 350 C60 160 204 6 385 -9 L355 -70 L380 -95 C380 -95 395 -85 415 -85 C436 -85 455 -105 455 -125 C455 -150 436 -170 400 -170 C365 -170 335 -145 335 -145 L320 -173 C320 -173 355 -200 400 -200 C455 -200 490 -165 490 -125 C490 -85 460 -55 420 -55 C400 -55 395 -60 395 -60 L420 -10 C606 -7 705 140 705 140 L670 170 C670 170 585 40 415 40 C245 40 110 175 110 350 C110 525 245 660 415 660 C584 660 665 530 665 530 L700 560 C700 560 605 710 415 710 C220 710 60 550 60 350 L60 350 Z " />
<glyph glyph-name="Egrave" unicode="&#xc8;" horiz-adv-x="630" d="M160 50 L160 340 L500 340 L500 390 L160 390 L160 650 L580 650 L580 700 L110 700 L110 0 L590 0 L590 50 L160 50 Z M305 925 L250 925 L340 795 L380 795 L305 925 Z " />
<glyph glyph-name="Eacute" unicode="&#xc9;" horiz-adv-x="630" d="M160 50 L160 340 L500 340 L500 390 L160 390 L160 650 L580 650 L580 700 L110 700 L110 0 L590 0 L590 50 L160 50 Z M320 795 L360 795 L450 925 L395 925 L320 795 Z " />
<glyph glyph-name="Ecircumflex" unicode="&#xca;" horiz-adv-x="630" d="M160 50 L160 340 L500 340 L500 390 L160 390 L160 650 L580 650 L580 700 L110 700 L110 0 L590 0 L590 50 L160 50 Z M370 920 L320 920 L215 790 L260 790 L345 890 L430 790 L475 790 L370 920 Z " />
<glyph glyph-name="Edieresis" unicode="&#xcb;" horiz-adv-x="630" d="M160 50 L160 340 L500 340 L500 390 L160 390 L160 650 L580 650 L580 700 L110 700 L110 0 L590 0 L590 50 L160 50 Z M225 855 C225 835 240 820 260 820 C280 820 295 835 295 855 C295 875 280 890 260 890 C240 890 225 875 225 855 L225 855 Z M400 855 C400 835 415 820 435 820 C455 820 470 835 470 855 C470 875 455 890 435 890 C415 890 400 875 400 855 L400 855 Z " />
<glyph glyph-name="Igrave" unicode="&#xcc;" horiz-adv-x="270" d="M110 0 L160 0 L160 700 L110 700 L110 0 Z M80 925 L25 925 L115 795 L155 795 L80 925 Z " />
<glyph glyph-name="Iacute" unicode="&#xcd;" horiz-adv-x="270" d="M110 0 L160 0 L160 700 L110 700 L110 0 Z M121 795 L161 795 L251 925 L196 925 L121 795 Z " />
<glyph glyph-name="Icircumflex" unicode="&#xce;" horiz-adv-x="270" d="M110 0 L160 0 L160 700 L110 700 L110 0 Z M160 920 L110 920 L5 790 L50 790 L135 890 L220 790 L265 790 L160 920 Z " />
<glyph glyph-name="Idieresis" unicode="&#xcf;" horiz-adv-x="270" d="M110 0 L160 0 L160 700 L110 700 L110 0 Z M15 855 C15 835 30 820 50 820 C70 820 85 835 85 855 C85 875 70 890 50 890 C30 890 15 875 15 855 L15 855 Z M190 855 C190 835 205 820 225 820 C245 820 260 835 260 855 C260 875 245 890 225 890 C205 890 190 875 190 855 L190 855 Z " />
<glyph glyph-name="Eth" unicode="&#xd0;" horiz-adv-x="750" d="M20 325 L120 325 L120 0 L325 0 C535 0 690 155 690 350 C690 545 535 700 325 700 L120 700 L120 375 L20 375 L20 325 Z M325 650 C510 650 640 520 640 350 C640 180 510 50 325 50 L170 50 L170 325 L345 325 L345 375 L170 375 L170 650 L325 650 Z " />
<glyph glyph-name="Ntilde" unicode="&#xd1;" horiz-adv-x="775" d="M615 700 L615 95 L150 700 L110 700 L110 0 L160 0 L160 605 L625 0 L665 0 L665 700 L615 700 Z M325 870 C370 870 385 795 450 795 C495 795 530 830 530 910 L490 910 C490 855 470 835 450 835 C405 835 390 910 325 910 C280 910 245 875 245 795 L285 795 C285 850 305 870 325 870 L325 870 Z " />
<glyph glyph-name="Ograve" unicode="&#xd2;" horiz-adv-x="830" d="M720 350 C720 175 585 40 415 40 C245 40 110 175 110 350 C110 525 245 660 415 660 C585 660 720 525 720 350 L720 350 Z M770 350 C770 550 612 710 415 710 C220 710 60 550 60 350 C60 150 219 -10 415 -10 C612 -10 770 150 770 350 L770 350 Z M360 925 L305 925 L395 795 L435 795 L360 925 Z " />
<glyph glyph-name="Oacute" unicode="&#xd3;" horiz-adv-x="830" d="M720 350 C720 175 585 40 415 40 C245 40 110 175 110 350 C110 525 245 660 415 660 C585 660 720 525 720 350 L720 350 Z M770 350 C770 550 612 710 415 710 C220 710 60 550 60 350 C60 150 219 -10 415 -10 C612 -10 770 150 770 350 L770 350 Z M400 795 L440 795 L530 925 L475 925 L400 795 Z " />
<glyph glyph-name="Ocircumflex" unicode="&#xd4;" horiz-adv-x="830" d="M720 350 C720 175 585 40 415 40 C245 40 110 175 110 350 C110 525 245 660 415 660 C585 660 720 525 720 350 L720 350 Z M770 350 C770 550 612 710 415 710 C220 710 60 550 60 350 C60 150 219 -10 415 -10 C612 -10 770 150 770 350 L770 350 Z M440 920 L390 920 L285 790 L330 790 L415 890 L500 790 L545 790 L440 920 Z " />
<glyph glyph-name="Otilde" unicode="&#xd5;" horiz-adv-x="830" d="M720 350 C720 175 585 40 415 40 C245 40 110 175 110 350 C110 525 245 660 415 660 C585 660 720 525 720 350 L720 350 Z M770 350 C770 550 612 710 415 710 C220 710 60 550 60 350 C60 150 219 -10 415 -10 C612 -10 770 150 770 350 L770 350 Z M355 870 C400 870 415 795 480 795 C525 795 560 830 560 910 L520 910 C520 855 500 835 480 835 C435 835 420 910 355 910 C310 910 275 875 275 795 L315 795 C315 850 335 870 355 870 L355 870 Z " />
<glyph glyph-name="Odieresis" unicode="&#xd6;" horiz-adv-x="830" d="M720 350 C720 175 585 40 415 40 C245 40 110 175 110 350 C110 525 245 660 415 660 C585 660 720 525 720 350 L720 350 Z M770 350 C770 550 612 710 415 710 C220 710 60 550 60 350 C60 150 219 -10 415 -10 C612 -10 770 150 770 350 L770 350 Z M295 855 C295 835 310 820 330 820 C350 820 365 835 365 855 C365 875 350 890 330 890 C310 890 295 875 295 855 L295 855 Z M470 855 C470 835 485 820 505 820 C525 820 540 835 540 855 C540 875 525 890 505 890 C485 890 470 875 470 855 L470 855 Z " />
<glyph glyph-name="multiply" unicode="&#xd7;" horiz-adv-x="450" d="M260 310 L400 450 L365 485 L225 345 L85 485 L50 450 L190 310 L50 170 L85 135 L225 275 L365 135 L400 170 L260 310 Z " />
<glyph glyph-name="Oslash" unicode="&#xd8;" horiz-adv-x="830" d="M720 350 C720 175 585 40 415 40 C290 40 215 115 215 115 L650 550 C650 550 720 470 720 350 L720 350 Z M615 585 L180 150 C180 150 110 230 110 350 C110 525 245 660 415 660 C540 660 615 585 615 585 L615 585 Z M770 350 C770 490 685 585 685 585 L775 680 L740 715 L650 620 C650 620 560 710 415 710 C220 710 60 550 60 350 C60 210 145 115 145 115 L55 20 L90 -15 L180 80 C180 80 270 -10 415 -10 C612 -10 770 150 770 350 L770 350 Z " />
<glyph glyph-name="Ugrave" unicode="&#xd9;" horiz-adv-x="750" d="M375 40 C250 40 150 140 150 270 L150 700 L100 700 L100 270 C100 115 225 -10 375 -10 C525 -10 650 115 650 270 L650 700 L600 700 L600 270 C600 140 500 40 375 40 L375 40 Z M335 925 L280 925 L370 795 L410 795 L335 925 Z " />
<glyph glyph-name="Uacute" unicode="&#xda;" horiz-adv-x="750" d="M375 40 C250 40 150 140 150 270 L150 700 L100 700 L100 270 C100 115 225 -10 375 -10 C525 -10 650 115 650 270 L650 700 L600 700 L600 270 C600 140 500 40 375 40 L375 40 Z M350 795 L390 795 L480 925 L425 925 L350 795 Z " />
<glyph glyph-name="Ucircumflex" unicode="&#xdb;" horiz-adv-x="750" d="M375 40 C250 40 150 140 150 270 L150 700 L100 700 L100 270 C100 115 225 -10 375 -10 C525 -10 650 115 650 270 L650 700 L600 700 L600 270 C600 140 500 40 375 40 L375 40 Z M400 920 L350 920 L245 790 L290 790 L375 890 L460 790 L505 790 L400 920 Z " />
<glyph glyph-name="Udieresis" unicode="&#xdc;" horiz-adv-x="750" d="M375 40 C250 40 150 140 150 270 L150 700 L100 700 L100 270 C100 115 225 -10 375 -10 C525 -10 650 115 650 270 L650 700 L600 700 L600 270 C600 140 500 40 375 40 L375 40 Z M250 855 C250 835 265 820 285 820 C305 820 320 835 320 855 C320 875 305 890 285 890 C265 890 250 875 250 855 L250 855 Z M425 855 C425 835 440 820 460 820 C480 820 495 835 495 855 C495 875 480 890 460 890 C440 890 425 875 425 855 L425 855 Z " />
<glyph glyph-name="Yacute" unicode="&#xdd;" horiz-adv-x="620" d="M85 700 L25 700 L285 245 L285 0 L335 0 L335 245 L595 700 L535 700 L310 300 L85 700 Z M295 795 L335 795 L425 925 L370 925 L295 795 Z " />
<glyph glyph-name="Thorn" unicode="&#xde;" horiz-adv-x="660" d="M110 720 L110 -20 L160 -20 L160 145 L375 145 C505 145 600 240 600 360 C600 480 505 575 375 575 L160 575 L160 720 L110 720 Z M375 525 C480 525 550 455 550 360 C550 265 480 195 375 195 L160 195 L160 525 L375 525 Z " />
<glyph glyph-name="germandbls" unicode="&#xdf;" horiz-adv-x="570" d="M365 385 C365 385 465 430 465 535 C465 630 385 710 275 710 C165 710 85 630 85 530 L85 0 L130 0 L130 530 C130 605 190 665 275 665 C360 665 420 605 420 535 C420 465 355 400 275 400 L270 400 L270 355 L305 355 C400 355 470 285 470 200 C470 115 405 50 305 50 L270 50 L270 0 L305 0 C425 0 515 90 515 200 C515 350 365 385 365 385 L365 385 Z " />
<glyph glyph-name="agrave" unicode="&#xe0;" horiz-adv-x="500" d="M180 270 C90 256 35 200 35 125 C35 55 100 -10 195 -10 C315 -10 370 80 370 80 L370 0 L415 0 L415 300 C415 407 338 490 235 490 C127 490 65 405 65 405 L95 375 C95 375 147 445 235 445 C312 445 370 383 370 300 L180 270 Z M195 35 C125 35 80 80 80 125 C80 175 115 213 190 225 L370 255 L370 210 C370 110 295 35 195 35 L195 35 Z M195 695 L140 695 L230 565 L270 565 L195 695 Z " />
<glyph glyph-name="aacute" unicode="&#xe1;" horiz-adv-x="500" d="M180 270 C90 256 35 200 35 125 C35 55 100 -10 195 -10 C315 -10 370 80 370 80 L370 0 L415 0 L415 300 C415 407 338 490 235 490 C127 490 65 405 65 405 L95 375 C95 375 147 445 235 445 C312 445 370 383 370 300 L180 270 Z M195 35 C125 35 80 80 80 125 C80 175 115 213 190 225 L370 255 L370 210 C370 110 295 35 195 35 L195 35 Z M220 565 L260 565 L350 695 L295 695 L220 565 Z " />
<glyph glyph-name="acircumflex" unicode="&#xe2;" horiz-adv-x="500" d="M180 270 C90 256 35 200 35 125 C35 55 100 -10 195 -10 C315 -10 370 80 370 80 L370 0 L415 0 L415 300 C415 407 338 490 235 490 C127 490 65 405 65 405 L95 375 C95 375 147 445 235 445 C312 445 370 383 370 300 L180 270 Z M195 35 C125 35 80 80 80 125 C80 175 115 213 190 225 L370 255 L370 210 C370 110 295 35 195 35 L195 35 Z M270 695 L220 695 L115 565 L160 565 L245 665 L330 565 L375 565 L270 695 Z " />
<glyph glyph-name="atilde" unicode="&#xe3;" horiz-adv-x="500" d="M180 270 C90 256 35 200 35 125 C35 55 100 -10 195 -10 C315 -10 370 80 370 80 L370 0 L415 0 L415 300 C415 407 338 490 235 490 C127 490 65 405 65 405 L95 375 C95 375 147 445 235 445 C312 445 370 383 370 300 L180 270 Z M195 35 C125 35 80 80 80 125 C80 175 115 213 190 225 L370 255 L370 210 C370 110 295 35 195 35 L195 35 Z M185 640 C230 640 245 565 310 565 C355 565 390 600 390 680 L350 680 C350 625 330 605 310 605 C265 605 250 680 185 680 C140 680 105 645 105 565 L145 565 C145 620 165 640 185 640 L185 640 Z " />
<glyph glyph-name="adieresis" unicode="&#xe4;" horiz-adv-x="500" d="M180 270 C90 256 35 200 35 125 C35 55 100 -10 195 -10 C315 -10 370 80 370 80 L370 0 L415 0 L415 300 C415 407 338 490 235 490 C127 490 65 405 65 405 L95 375 C95 375 147 445 235 445 C312 445 370 383 370 300 L180 270 Z M195 35 C125 35 80 80 80 125 C80 175 115 213 190 225 L370 255 L370 210 C370 110 295 35 195 35 L195 35 Z M125 635 C125 615 140 600 160 600 C180 600 195 615 195 635 C195 655 180 670 160 670 C140 670 125 655 125 635 L125 635 Z M300 635 C300 615 315 600 335 600 C355 600 370 615 370 635 C370 655 355 670 335 670 C315 670 300 655 300 635 L300 635 Z " />
<glyph glyph-name="aring" unicode="&#xe5;" horiz-adv-x="500" d="M180 270 C90 256 35 200 35 125 C35 55 100 -10 195 -10 C315 -10 370 80 370 80 L370 0 L415 0 L415 300 C415 407 338 490 235 490 C127 490 65 405 65 405 L95 375 C95 375 147 445 235 445 C312 445 370 383 370 300 L180 270 Z M195 35 C125 35 80 80 80 125 C80 175 115 213 190 225 L370 255 L370 210 C370 110 295 35 195 35 L195 35 Z M190 640 C190 675 210 695 245 695 C280 695 300 675 300 640 C300 605 280 585 245 585 C210 585 190 605 190 640 L190 640 Z M340 640 C340 695 300 735 245 735 C190 735 150 695 150 640 C150 585 190 545 245 545 C300 545 340 585 340 640 L340 640 Z " />
<glyph glyph-name="ae" unicode="&#xe6;" horiz-adv-x="855" d="M800 225 L800 240 C800 390 700 490 590 490 C470 490 400 370 400 370 C400 370 365 490 235 490 C127 490 65 405 65 405 L95 375 C95 375 147 445 235 445 C312 445 370 383 370 300 L370 270 L190 270 C95 270 35 210 35 125 C35 55 100 -10 195 -10 C355 -10 395 130 395 130 C395 130 455 -10 595 -10 C720 -10 780 90 780 90 L750 120 C750 120 700 35 595 35 C505 35 420 120 415 225 L800 225 Z M590 445 C675 445 750 370 755 270 L415 270 C420 360 505 445 590 445 L590 445 Z M195 35 C125 35 80 80 80 125 C80 184 120 225 190 225 L370 225 L370 210 C370 110 295 35 195 35 L195 35 Z " />
<glyph glyph-name="ccedilla" unicode="&#xe7;" horiz-adv-x="515" d="M45 240 C45 109 141 4 256 -8 L225 -70 L250 -95 C250 -95 265 -85 285 -85 C306 -85 325 -105 325 -125 C325 -150 306 -170 270 -170 C235 -170 205 -145 205 -145 L190 -173 C190 -173 225 -200 270 -200 C325 -200 360 -165 360 -125 C360 -85 330 -55 290 -55 C270 -55 265 -60 265 -60 L290 -10 C408 -5 470 90 470 90 L435 120 C435 120 385 35 280 35 C180 35 90 125 90 240 C90 355 180 445 280 445 C385 445 435 360 435 360 L470 390 C470 390 405 490 280 490 C155 490 45 380 45 240 L45 240 Z " />
<glyph glyph-name="egrave" unicode="&#xe8;" horiz-adv-x="550" d="M495 220 L495 240 C495 390 395 490 275 490 C155 490 45 380 45 240 C45 100 155 -10 280 -10 C405 -10 470 90 470 90 L440 119 C440 119 385 35 280 35 C180 35 95 120 90 220 L495 220 Z M275 445 C370 445 445 370 450 265 L90 265 C95 360 180 445 275 445 L275 445 Z M225 695 L170 695 L260 565 L300 565 L225 695 Z " />
<glyph glyph-name="eacute" unicode="&#xe9;" horiz-adv-x="550" d="M495 220 L495 240 C495 390 395 490 275 490 C155 490 45 380 45 240 C45 100 155 -10 280 -10 C405 -10 470 90 470 90 L440 119 C440 119 385 35 280 35 C180 35 95 120 90 220 L495 220 Z M275 445 C370 445 445 370 450 265 L90 265 C95 360 180 445 275 445 L275 445 Z M255 565 L295 565 L385 695 L330 695 L255 565 Z " />
<glyph glyph-name="ecircumflex" unicode="&#xea;" horiz-adv-x="550" d="M495 220 L495 240 C495 390 395 490 275 490 C155 490 45 380 45 240 C45 100 155 -10 280 -10 C405 -10 470 90 470 90 L440 119 C440 119 385 35 280 35 C180 35 95 120 90 220 L495 220 Z M275 445 C370 445 445 370 450 265 L90 265 C95 360 180 445 275 445 L275 445 Z M300 695 L250 695 L145 565 L190 565 L275 665 L360 565 L405 565 L300 695 Z " />
<glyph glyph-name="edieresis" unicode="&#xeb;" horiz-adv-x="550" d="M495 220 L495 240 C495 390 395 490 275 490 C155 490 45 380 45 240 C45 100 155 -10 280 -10 C405 -10 470 90 470 90 L440 119 C440 119 385 35 280 35 C180 35 95 120 90 220 L495 220 Z M275 445 C370 445 445 370 450 265 L90 265 C95 360 180 445 275 445 L275 445 Z M155 635 C155 615 170 600 190 600 C210 600 225 615 225 635 C225 655 210 670 190 670 C170 670 155 655 155 635 L155 635 Z M330 635 C330 615 345 600 365 600 C385 600 400 615 400 635 C400 655 385 670 365 670 C345 670 330 655 330 635 L330 635 Z " />
<glyph glyph-name="igrave" unicode="&#xec;" horiz-adv-x="225" d="M85 0 L130 0 L130 480 L85 480 L85 0 Z M50 695 L-5 695 L85 565 L125 565 L50 695 Z " />
<glyph glyph-name="iacute" unicode="&#xed;" horiz-adv-x="225" d="M85 0 L130 0 L130 480 L85 480 L85 0 Z M85 565 L125 565 L215 695 L160 695 L85 565 Z " />
<glyph glyph-name="icircumflex" unicode="&#xee;" horiz-adv-x="225" d="M85 0 L130 0 L130 480 L85 480 L85 0 Z M130 695 L80 695 L-25 565 L20 565 L105 665 L190 565 L235 565 L130 695 Z " />
<glyph glyph-name="idieresis" unicode="&#xef;" horiz-adv-x="225" d="M85 0 L130 0 L130 480 L85 480 L85 0 Z M-15 635 C-15 615 0 600 20 600 C40 600 55 615 55 635 C55 655 40 670 20 670 C0 670 -15 655 -15 635 L-15 635 Z M160 635 C160 615 175 600 195 600 C215 600 230 615 230 635 C230 655 215 670 195 670 C175 670 160 655 160 635 L160 635 Z " />
<glyph glyph-name="eth" unicode="&#xf0;" horiz-adv-x="585" d="M185 585 L290 640 C290 640 400 530 445 405 L440 405 C440 405 385 470 280 470 C150 470 45 365 45 230 C45 95 150 -10 280 -10 C410 -10 520 100 520 240 C520 490 330 665 330 665 L430 720 L405 750 L305 695 C305 695 265 735 200 775 L155 755 C210 725 265 670 265 670 L160 615 L185 585 Z M470 230 C470 120 385 35 280 35 C175 35 90 120 90 230 C90 340 175 425 280 425 C385 425 470 340 470 230 L470 230 Z " />
<glyph glyph-name="ntilde" unicode="&#xf1;" horiz-adv-x="575" d="M130 480 L85 480 L85 0 L130 0 L130 270 C130 370 205 445 295 445 C380 445 445 380 445 285 L445 0 L490 0 L490 285 C490 405 405 490 295 490 C175 490 130 395 130 395 L130 480 Z M225 640 C270 640 285 565 350 565 C395 565 430 600 430 680 L390 680 C390 625 370 605 350 605 C305 605 290 680 225 680 C180 680 145 645 145 565 L185 565 C185 620 205 640 225 640 L225 640 Z " />
<glyph glyph-name="ograve" unicode="&#xf2;" horiz-adv-x="580" d="M45 240 C45 100 155 -10 285 -10 C415 -10 525 100 525 240 C525 380 415 490 285 490 C155 490 45 380 45 240 L45 240 Z M480 240 C480 125 390 35 285 35 C180 35 90 125 90 240 C90 355 180 445 285 445 C390 445 480 355 480 240 L480 240 Z M230 695 L175 695 L265 565 L305 565 L230 695 Z " />
<glyph glyph-name="oacute" unicode="&#xf3;" horiz-adv-x="580" d="M45 240 C45 100 155 -10 285 -10 C415 -10 525 100 525 240 C525 380 415 490 285 490 C155 490 45 380 45 240 L45 240 Z M480 240 C480 125 390 35 285 35 C180 35 90 125 90 240 C90 355 180 445 285 445 C390 445 480 355 480 240 L480 240 Z M265 565 L305 565 L395 695 L340 695 L265 565 Z " />
<glyph glyph-name="ocircumflex" unicode="&#xf4;" horiz-adv-x="580" d="M45 240 C45 100 155 -10 285 -10 C415 -10 525 100 525 240 C525 380 415 490 285 490 C155 490 45 380 45 240 L45 240 Z M480 240 C480 125 390 35 285 35 C180 35 90 125 90 240 C90 355 180 445 285 445 C390 445 480 355 480 240 L480 240 Z M310 695 L260 695 L155 565 L200 565 L285 665 L370 565 L415 565 L310 695 Z " />
<glyph glyph-name="otilde" unicode="&#xf5;" horiz-adv-x="580" d="M45 240 C45 100 155 -10 285 -10 C415 -10 525 100 525 240 C525 380 415 490 285 490 C155 490 45 380 45 240 L45 240 Z M480 240 C480 125 390 35 285 35 C180 35 90 125 90 240 C90 355 180 445 285 445 C390 445 480 355 480 240 L480 240 Z M220 640 C265 640 280 565 345 565 C390 565 425 600 425 680 L385 680 C385 625 365 605 345 605 C300 605 285 680 220 680 C175 680 140 645 140 565 L180 565 C180 620 200 640 220 640 L220 640 Z " />
<glyph glyph-name="odieresis" unicode="&#xf6;" horiz-adv-x="580" d="M45 240 C45 100 155 -10 285 -10 C415 -10 525 100 525 240 C525 380 415 490 285 490 C155 490 45 380 45 240 L45 240 Z M480 240 C480 125 390 35 285 35 C180 35 90 125 90 240 C90 355 180 445 285 445 C390 445 480 355 480 240 L480 240 Z M160 635 C160 615 175 600 195 600 C215 600 230 615 230 635 C230 655 215 670 195 670 C175 670 160 655 160 635 L160 635 Z M335 635 C335 615 350 600 370 600 C390 600 405 615 405 635 C405 655 390 670 370 670 C350 670 335 655 335 635 L335 635 Z " />
<glyph glyph-name="divide" unicode="&#xf7;" horiz-adv-x="500" d="M455 315 L45 315 L45 270 L455 270 L455 315 Z M215 475 C215 455 230 440 250 440 C270 440 285 455 285 475 C285 495 270 510 250 510 C230 510 215 495 215 475 L215 475 Z M285 110 C285 130 270 145 250 145 C230 145 215 130 215 110 C215 90 230 75 250 75 C270 75 285 90 285 110 L285 110 Z " />
<glyph glyph-name="oslash" unicode="&#xf8;" horiz-adv-x="580" d="M130 115 C130 115 90 165 90 240 C90 355 180 445 285 445 C355 445 410 400 410 400 L130 115 Z M525 240 C525 335 470 400 470 400 L535 470 L505 500 L440 430 C440 430 380 490 285 490 C155 490 45 380 45 240 C45 145 100 80 100 80 L35 10 L65 -20 L130 50 C130 50 190 -10 285 -10 C415 -10 525 100 525 240 L525 240 Z M440 365 C440 365 480 315 480 240 C480 125 390 35 285 35 C215 35 160 80 160 80 L440 365 Z " />
<glyph glyph-name="ugrave" unicode="&#xf9;" horiz-adv-x="580" d="M445 0 L490 0 L490 480 L445 480 L445 210 C445 110 370 35 280 35 C195 35 130 100 130 195 L130 480 L85 480 L85 195 C85 75 170 -10 280 -10 C400 -10 445 85 445 85 L445 0 Z M240 695 L185 695 L275 565 L315 565 L240 695 Z " />
<glyph glyph-name="uacute" unicode="&#xfa;" horiz-adv-x="580" d="M445 0 L490 0 L490 480 L445 480 L445 210 C445 110 370 35 280 35 C195 35 130 100 130 195 L130 480 L85 480 L85 195 C85 75 170 -10 280 -10 C400 -10 445 85 445 85 L445 0 Z M260 565 L300 565 L390 695 L335 695 L260 565 Z " />
<glyph glyph-name="ucircumflex" unicode="&#xfb;" horiz-adv-x="580" d="M445 0 L490 0 L490 480 L445 480 L445 210 C445 110 370 35 280 35 C195 35 130 100 130 195 L130 480 L85 480 L85 195 C85 75 170 -10 280 -10 C400 -10 445 85 445 85 L445 0 Z M310 695 L260 695 L155 565 L200 565 L285 665 L370 565 L415 565 L310 695 Z " />
<glyph glyph-name="udieresis" unicode="&#xfc;" horiz-adv-x="580" d="M445 0 L490 0 L490 480 L445 480 L445 210 C445 110 370 35 280 35 C195 35 130 100 130 195 L130 480 L85 480 L85 195 C85 75 170 -10 280 -10 C400 -10 445 85 445 85 L445 0 Z M160 625 C160 605 175 590 195 590 C215 590 230 605 230 625 C230 645 215 660 195 660 C175 660 160 645 160 625 L160 625 Z M335 625 C335 605 350 590 370 590 C390 590 405 605 405 625 C405 645 390 660 370 660 C350 660 335 645 335 625 L335 625 Z " />
<glyph glyph-name="yacute" unicode="&#xfd;" horiz-adv-x="480" d="M175 -90 C155 -140 130 -165 85 -165 C60 -165 40 -155 40 -155 L40 -200 C40 -200 60 -210 85 -210 C155 -210 191 -175 225 -90 L455 480 L405 480 L235 60 L65 480 L15 480 L210 0 L175 -90 Z M225 565 L265 565 L355 695 L300 695 L225 565 Z " />
<glyph glyph-name="thorn" unicode="&#xfe;" horiz-adv-x="595" d="M130 240 C130 355 220 445 315 445 C405 445 495 355 495 240 C495 125 405 35 315 35 C220 35 130 125 130 240 L130 240 Z M130 95 C130 95 190 -10 315 -10 C430 -10 540 100 540 240 C540 380 430 490 315 490 C190 490 130 385 130 385 L130 700 L85 700 L85 -210 L130 -210 L130 95 Z " />
<glyph glyph-name="ydieresis" unicode="&#xff;" horiz-adv-x="480" d="M175 -90 C155 -140 130 -165 85 -165 C60 -165 40 -155 40 -155 L40 -200 C40 -200 60 -210 85 -210 C155 -210 191 -175 225 -90 L455 480 L405 480 L235 60 L65 480 L15 480 L210 0 L175 -90 Z M110 635 C110 615 125 600 145 600 C165 600 180 615 180 635 C180 655 165 670 145 670 C125 670 110 655 110 635 L110 635 Z M285 635 C285 615 300 600 320 600 C340 600 355 615 355 635 C355 655 340 670 320 670 C300 670 285 655 285 635 L285 635 Z " />
<glyph glyph-name="Amacron" unicode="&#x100;" horiz-adv-x="680" d="M495 255 L185 255 L340 630 L495 255 Z M515 205 L600 0 L655 0 L365 700 L315 700 L25 0 L80 0 L165 205 L515 205 Z M475 880 L205 880 L205 840 L475 840 L475 880 Z " />
<glyph glyph-name="amacron" unicode="&#x101;" horiz-adv-x="500" d="M180 270 C90 256 35 200 35 125 C35 55 100 -10 195 -10 C315 -10 370 80 370 80 L370 0 L415 0 L415 300 C415 407 338 490 235 490 C127 490 65 405 65 405 L95 375 C95 375 147 445 235 445 C312 445 370 383 370 300 L180 270 Z M195 35 C125 35 80 80 80 125 C80 175 115 213 190 225 L370 255 L370 210 C370 110 295 35 195 35 L195 35 Z M380 660 L110 660 L110 620 L380 620 L380 660 Z " />
<glyph glyph-name="Abreve" unicode="&#x102;" horiz-adv-x="680" d="M495 255 L185 255 L340 630 L495 255 Z M515 205 L600 0 L655 0 L365 700 L315 700 L25 0 L80 0 L165 205 L515 205 Z M340 835 C285 835 250 870 250 925 L210 925 C210 850 265 795 340 795 C415 795 470 850 470 925 L430 925 C430 870 395 835 340 835 L340 835 Z " />
<glyph glyph-name="abreve" unicode="&#x103;" horiz-adv-x="500" d="M180 270 C90 256 35 200 35 125 C35 55 100 -10 195 -10 C315 -10 370 80 370 80 L370 0 L415 0 L415 300 C415 407 338 490 235 490 C127 490 65 405 65 405 L95 375 C95 375 147 445 235 445 C312 445 370 383 370 300 L180 270 Z M195 35 C125 35 80 80 80 125 C80 175 115 213 190 225 L370 255 L370 210 C370 110 295 35 195 35 L195 35 Z M245 605 C190 605 155 640 155 695 L115 695 C115 620 170 565 245 565 C320 565 375 620 375 695 L335 695 C335 640 300 605 245 605 L245 605 Z " />
<glyph glyph-name="Aogonek" unicode="&#x104;" horiz-adv-x="680" d="M655 0 L365 700 L315 700 L25 0 L80 0 L165 205 L515 205 L600 0 C600 0 535 -50 535 -115 C535 -165 570 -200 625 -200 C655 -200 685 -185 685 -185 L685 -150 C685 -150 655 -165 625 -165 C590 -165 570 -145 570 -115 C570 -60 635 0 635 0 L655 0 Z M495 255 L185 255 L340 630 L495 255 Z " />
<glyph glyph-name="aogonek" unicode="&#x105;" horiz-adv-x="500" d="M415 0 L415 300 C415 407 338 490 235 490 C127 490 65 405 65 405 L95 375 C95 375 147 445 235 445 C312 445 370 383 370 300 L180 270 C90 256 35 200 35 125 C35 55 100 -10 195 -10 C315 -10 370 80 370 80 L370 0 C370 0 305 -50 305 -115 C305 -165 340 -200 395 -200 C425 -200 455 -185 455 -185 L455 -150 C455 -150 425 -165 395 -165 C360 -165 340 -145 340 -115 C340 -60 405 0 405 0 L415 0 Z M195 35 C125 35 80 80 80 125 C80 175 115 213 190 225 L370 255 L370 210 C370 110 295 35 195 35 L195 35 Z " />
<glyph glyph-name="Cacute" unicode="&#x106;" horiz-adv-x="750" d="M60 350 C60 150 220 -10 415 -10 C605 -10 705 140 705 140 L670 170 C670 170 585 40 415 40 C245 40 110 175 110 350 C110 525 245 660 415 660 C584 660 665 530 665 530 L700 560 C700 560 605 710 415 710 C220 710 60 550 60 350 L60 350 Z M385 795 L425 795 L515 925 L460 925 L385 795 Z " />
<glyph glyph-name="cacute" unicode="&#x107;" horiz-adv-x="515" d="M45 240 C45 100 155 -10 280 -10 C405 -10 470 90 470 90 L435 120 C435 120 385 35 280 35 C180 35 90 125 90 240 C90 355 180 445 280 445 C385 445 435 360 435 360 L470 390 C470 390 405 490 280 490 C155 490 45 380 45 240 L45 240 Z M260 565 L300 565 L390 695 L335 695 L260 565 Z " />
<glyph glyph-name="Ccircumflex" unicode="&#x108;" horiz-adv-x="750" d="M60 350 C60 150 220 -10 415 -10 C605 -10 705 140 705 140 L670 170 C670 170 585 40 415 40 C245 40 110 175 110 350 C110 525 245 660 415 660 C584 660 665 530 665 530 L700 560 C700 560 605 710 415 710 C220 710 60 550 60 350 L60 350 Z M435 925 L385 925 L280 795 L325 795 L410 895 L495 795 L540 795 L435 925 Z " />
<glyph glyph-name="ccircumflex" unicode="&#x109;" horiz-adv-x="515" d="M45 240 C45 100 155 -10 280 -10 C405 -10 470 90 470 90 L435 120 C435 120 385 35 280 35 C180 35 90 125 90 240 C90 355 180 445 280 445 C385 445 435 360 435 360 L470 390 C470 390 405 490 280 490 C155 490 45 380 45 240 L45 240 Z M300 695 L250 695 L145 565 L190 565 L275 665 L360 565 L405 565 L300 695 Z " />
<glyph glyph-name="Ccaron" unicode="&#x10c;" horiz-adv-x="750" d="M60 350 C60 150 220 -10 415 -10 C605 -10 705 140 705 140 L670 170 C670 170 585 40 415 40 C245 40 110 175 110 350 C110 525 245 660 415 660 C584 660 665 530 665 530 L700 560 C700 560 605 710 415 710 C220 710 60 550 60 350 L60 350 Z M535 925 L490 925 L405 825 L320 925 L275 925 L380 795 L430 795 L535 925 Z " />
<glyph glyph-name="ccaron" unicode="&#x10d;" horiz-adv-x="515" d="M45 240 C45 100 155 -10 280 -10 C405 -10 470 90 470 90 L435 120 C435 120 385 35 280 35 C180 35 90 125 90 240 C90 355 180 445 280 445 C385 445 435 360 435 360 L470 390 C470 390 405 490 280 490 C155 490 45 380 45 240 L45 240 Z M405 695 L360 695 L275 595 L190 695 L145 695 L250 565 L300 565 L405 695 Z " />
<glyph glyph-name="Dcaron" unicode="&#x10e;" horiz-adv-x="740" d="M110 700 L110 0 L315 0 C525 0 680 155 680 350 C680 545 525 700 315 700 L110 700 Z M315 650 C500 650 630 520 630 350 C630 180 500 50 315 50 L160 50 L160 650 L315 650 Z M490 925 L445 925 L360 825 L275 925 L230 925 L335 795 L385 795 L490 925 Z " />
<glyph glyph-name="dcaron" unicode="&#x10f;" horiz-adv-x="630" d="M455 240 C455 125 365 35 270 35 C180 35 90 125 90 240 C90 355 180 445 270 445 C365 445 455 355 455 240 L455 240 Z M455 385 C455 385 395 490 270 490 C155 490 45 380 45 240 C45 100 155 -10 270 -10 C395 -10 455 95 455 95 L455 0 L500 0 L500 700 L455 700 L455 385 Z M575 565 L610 565 L670 700 L620 700 L575 565 Z " />
<glyph glyph-name="Dcroat" unicode="&#x110;" horiz-adv-x="750" d="M20 325 L120 325 L120 0 L325 0 C535 0 690 155 690 350 C690 545 535 700 325 700 L120 700 L120 375 L20 375 L20 325 Z M325 650 C510 650 640 520 640 350 C640 180 510 50 325 50 L170 50 L170 325 L345 325 L345 375 L170 375 L170 650 L325 650 Z " />
<glyph glyph-name="dcroat" unicode="&#x111;" horiz-adv-x="600" d="M455 365 C455 365 395 470 270 470 C155 470 45 360 45 230 C45 100 155 -10 270 -10 C395 -10 455 95 455 95 L455 0 L500 0 L500 555 L580 555 L580 600 L500 600 L500 700 L455 700 L455 600 L310 600 L310 555 L455 555 L455 365 Z M455 230 C455 125 365 35 270 35 C180 35 90 125 90 230 C90 335 180 425 270 425 C365 425 455 335 455 230 L455 230 Z " />
<glyph glyph-name="Emacron" unicode="&#x112;" horiz-adv-x="630" d="M160 50 L160 340 L500 340 L500 390 L160 390 L160 650 L580 650 L580 700 L110 700 L110 0 L590 0 L590 50 L160 50 Z M480 880 L210 880 L210 840 L480 840 L480 880 Z " />
<glyph glyph-name="emacron" unicode="&#x113;" horiz-adv-x="550" d="M495 220 L495 240 C495 390 395 490 275 490 C155 490 45 380 45 240 C45 100 155 -10 280 -10 C405 -10 470 90 470 90 L440 119 C440 119 385 35 280 35 C180 35 95 120 90 220 L495 220 Z M275 445 C370 445 445 370 450 265 L90 265 C95 360 180 445 275 445 L275 445 Z M410 650 L140 650 L140 610 L410 610 L410 650 Z " />
<glyph glyph-name="Edotaccent" unicode="&#x116;" horiz-adv-x="630" d="M160 50 L160 340 L500 340 L500 390 L160 390 L160 650 L580 650 L580 700 L110 700 L110 0 L590 0 L590 50 L160 50 Z M310 860 C310 840 325 825 345 825 C365 825 380 840 380 860 C380 880 365 895 345 895 C325 895 310 880 310 860 L310 860 Z " />
<glyph glyph-name="edotaccent" unicode="&#x117;" horiz-adv-x="550" d="M495 220 L495 240 C495 390 395 490 275 490 C155 490 45 380 45 240 C45 100 155 -10 280 -10 C405 -10 470 90 470 90 L440 119 C440 119 385 35 280 35 C180 35 95 120 90 220 L495 220 Z M275 445 C370 445 445 370 450 265 L90 265 C95 360 180 445 275 445 L275 445 Z M240 630 C240 610 255 595 275 595 C295 595 310 610 310 630 C310 650 295 665 275 665 C255 665 240 650 240 630 L240 630 Z " />
<glyph glyph-name="Eogonek" unicode="&#x118;" horiz-adv-x="630" d="M555 0 C555 0 490 -50 490 -115 C490 -165 525 -200 580 -200 C610 -200 640 -185 640 -185 L640 -150 C640 -150 610 -165 580 -165 C545 -165 525 -145 525 -115 C525 -60 590 0 590 0 L590 50 L160 50 L160 340 L500 340 L500 390 L160 390 L160 650 L580 650 L580 700 L110 700 L110 0 L555 0 Z " />
<glyph glyph-name="eogonek" unicode="&#x119;" horiz-adv-x="550" d="M495 220 L495 240 C495 390 395 490 275 490 C155 490 45 380 45 240 C45 104 148 -3 268 -10 C250 -27 215 -67 215 -115 C215 -165 250 -200 305 -200 C335 -200 365 -185 365 -185 L365 -150 C365 -150 335 -165 305 -165 C270 -165 250 -145 250 -115 C250 -71 289 -26 306 -8 C413 4 470 90 470 90 L440 119 C440 119 385 35 280 35 C180 35 95 120 90 220 L495 220 Z M275 445 C370 445 445 370 450 265 L90 265 C95 360 180 445 275 445 L275 445 Z " />
<glyph glyph-name="Ecaron" unicode="&#x11a;" horiz-adv-x="630" d="M160 50 L160 340 L500 340 L500 390 L160 390 L160 650 L580 650 L580 700 L110 700 L110 0 L590 0 L590 50 L160 50 Z M475 920 L430 920 L345 820 L260 920 L215 920 L320 790 L370 790 L475 920 Z " />
<glyph glyph-name="ecaron" unicode="&#x11b;" horiz-adv-x="550" d="M495 220 L495 240 C495 390 395 490 275 490 C155 490 45 380 45 240 C45 100 155 -10 280 -10 C405 -10 470 90 470 90 L440 119 C440 119 385 35 280 35 C180 35 95 120 90 220 L495 220 Z M275 445 C370 445 445 370 450 265 L90 265 C95 360 180 445 275 445 L275 445 Z M405 695 L360 695 L275 595 L190 695 L145 695 L250 565 L300 565 L405 695 Z " />
<glyph glyph-name="Gcircumflex" unicode="&#x11c;" horiz-adv-x="790" d="M60 350 C60 150 220 -10 415 -10 C605 -10 710 140 710 140 L710 350 L480 350 L480 300 L660 300 L660 155 C660 155 575 40 415 40 C245 40 110 175 110 350 C110 525 245 660 415 660 C584 660 665 530 665 530 L700 560 C700 560 605 710 415 710 C220 710 60 550 60 350 L60 350 Z M420 915 L370 915 L265 785 L310 785 L395 885 L480 785 L525 785 L420 915 Z " />
<glyph glyph-name="gcircumflex" unicode="&#x11d;" horiz-adv-x="585" d="M90 250 C90 360 175 445 265 445 C355 445 445 360 445 250 C445 140 355 55 265 55 C175 55 90 140 90 250 L90 250 Z M445 30 C445 -80 360 -165 260 -165 C155 -165 100 -80 100 -80 L70 -110 C70 -110 130 -210 260 -210 C385 -210 490 -105 490 30 L490 480 L445 480 L445 390 C445 390 390 490 265 490 C150 490 45 385 45 250 C45 115 150 10 265 10 C390 10 445 110 445 110 L445 30 Z M317 695 L267 695 L162 565 L207 565 L292 665 L377 565 L422 565 L317 695 Z " />
<glyph glyph-name="Gbreve" unicode="&#x11e;" horiz-adv-x="790" d="M60 350 C60 150 220 -10 415 -10 C605 -10 710 140 710 140 L710 350 L480 350 L480 300 L660 300 L660 155 C660 155 575 40 415 40 C245 40 110 175 110 350 C110 525 245 660 415 660 C584 660 665 530 665 530 L700 560 C700 560 605 710 415 710 C220 710 60 550 60 350 L60 350 Z M405 830 C350 830 315 865 315 920 L275 920 C275 845 330 790 405 790 C480 790 535 845 535 920 L495 920 C495 865 460 830 405 830 L405 830 Z " />
<glyph glyph-name="gbreve" unicode="&#x11f;" horiz-adv-x="585" d="M90 250 C90 360 175 445 265 445 C355 445 445 360 445 250 C445 140 355 55 265 55 C175 55 90 140 90 250 L90 250 Z M445 30 C445 -80 360 -165 260 -165 C155 -165 100 -80 100 -80 L70 -110 C70 -110 130 -210 260 -210 C385 -210 490 -105 490 30 L490 480 L445 480 L445 390 C445 390 390 490 265 490 C150 490 45 385 45 250 C45 115 150 10 265 10 C390 10 445 110 445 110 L445 30 Z M280 605 C225 605 190 640 190 695 L150 695 C150 620 205 565 280 565 C355 565 410 620 410 695 L370 695 C370 640 335 605 280 605 L280 605 Z " />
<glyph glyph-name="Gcommaaccent" unicode="&#x122;" horiz-adv-x="790" d="M60 350 C60 150 220 -10 415 -10 C605 -10 710 140 710 140 L710 350 L480 350 L480 300 L660 300 L660 155 C660 155 575 40 415 40 C245 40 110 175 110 350 C110 525 245 660 415 660 C584 660 665 530 665 530 L700 560 C700 560 605 710 415 710 C220 710 60 550 60 350 L60 350 Z M347 -215 L382 -215 L442 -80 L392 -80 L347 -215 Z " />
<glyph glyph-name="gcommaaccent" unicode="&#x123;" horiz-adv-x="585" d="M90 250 C90 360 175 445 265 445 C355 445 445 360 445 250 C445 140 355 55 265 55 C175 55 90 140 90 250 L90 250 Z M445 30 C445 -80 360 -165 260 -165 C155 -165 100 -80 100 -80 L70 -110 C70 -110 130 -210 260 -210 C385 -210 490 -105 490 30 L490 480 L445 480 L445 390 C445 390 390 490 265 490 C150 490 45 385 45 250 C45 115 150 10 265 10 C390 10 445 110 445 110 L445 30 Z M345 695 L310 695 L250 560 L300 560 L345 695 Z " />
<glyph glyph-name="Hcircumflex" unicode="&#x124;" horiz-adv-x="750" d="M110 0 L160 0 L160 330 L585 330 L585 0 L635 0 L635 700 L585 700 L585 380 L160 380 L160 700 L110 700 L110 0 Z M400 915 L350 915 L245 785 L290 785 L375 885 L460 785 L505 785 L400 915 Z " />
<glyph glyph-name="hcircumflex" unicode="&#x125;" horiz-adv-x="575" d="M130 700 L85 700 L85 0 L130 0 L130 270 C130 370 205 445 295 445 C380 445 445 380 445 285 L445 0 L490 0 L490 285 C490 405 405 490 295 490 C175 490 130 395 130 395 L130 700 Z M310 915 L260 915 L155 785 L200 785 L285 885 L370 785 L415 785 L310 915 Z " />
<glyph glyph-name="Imacron" unicode="&#x12a;" horiz-adv-x="270" d="M110 0 L160 0 L160 700 L110 700 L110 0 Z M270 880 L0 880 L0 840 L270 840 L270 880 Z " />
<glyph glyph-name="imacron" unicode="&#x12b;" horiz-adv-x="225" d="M85 0 L130 0 L130 480 L85 480 L85 0 Z M240 650 L-30 650 L-30 610 L240 610 L240 650 Z " />
<glyph glyph-name="Ibreve" unicode="&#x12c;" horiz-adv-x="270" d="M110 0 L160 0 L160 700 L110 700 L110 0 Z M135 825 C80 825 45 860 45 915 L5 915 C5 840 60 785 135 785 C210 785 265 840 265 915 L225 915 C225 860 190 825 135 825 L135 825 Z " />
<glyph glyph-name="ibreve" unicode="&#x12d;" horiz-adv-x="225" d="M85 0 L130 0 L130 480 L85 480 L85 0 Z M113 605 C58 605 23 640 23 695 L-17 695 C-17 620 38 565 113 565 C188 565 243 620 243 695 L203 695 C203 640 168 605 113 605 L113 605 Z " />
<glyph glyph-name="Iogonek" unicode="&#x12e;" horiz-adv-x="270" d="M160 0 L160 700 L110 700 L110 0 C110 0 45 -50 45 -115 C45 -165 80 -200 135 -200 C165 -200 195 -185 195 -185 L195 -150 C195 -150 165 -165 135 -165 C100 -165 80 -145 80 -115 C80 -60 145 0 145 0 L160 0 Z " />
<glyph glyph-name="iogonek" unicode="&#x12f;" horiz-adv-x="225" d="M130 0 L130 480 L85 480 L85 0 C85 0 20 -50 20 -115 C20 -165 55 -200 110 -200 C140 -200 170 -185 170 -185 L170 -150 C170 -150 140 -165 110 -165 C75 -165 55 -145 55 -115 C55 -60 120 0 120 0 L130 0 Z M75 650 C75 630 90 615 110 615 C130 615 145 630 145 650 C145 670 130 685 110 685 C90 685 75 670 75 650 L75 650 Z " />
<glyph glyph-name="Idotaccent" unicode="&#x130;" horiz-adv-x="270" d="M110 0 L160 0 L160 700 L110 700 L110 0 Z M100 860 C100 840 115 825 135 825 C155 825 170 840 170 860 C170 880 155 895 135 895 C115 895 100 880 100 860 L100 860 Z " />
<glyph glyph-name="dotlessi" unicode="&#x131;" horiz-adv-x="225" d="M85 0 L130 0 L130 480 L85 480 L85 0 Z " />
<glyph glyph-name="i_j" unicode="&#x133;" horiz-adv-x="470" d="M330 -80 C330 -135 300 -165 255 -165 C220 -165 195 -150 195 -150 L195 -196 C195 -196 220 -210 255 -210 C325 -210 375 -160 375 -80 L375 480 L330 480 L330 65 C330 65 295 35 245 35 C180 35 130 85 130 155 L130 480 L85 480 L85 155 C85 60 155 -10 245 -10 C295 -10 330 15 330 15 L330 -80 Z M75 650 C75 630 90 615 110 615 C130 615 145 630 145 650 C145 670 130 685 110 685 C90 685 75 670 75 650 L75 650 Z M315 650 C315 630 330 615 350 615 C370 615 385 630 385 650 C385 670 370 685 350 685 C330 685 315 670 315 650 L315 650 Z " />
<glyph glyph-name="Jcircumflex" unicode="&#x134;" horiz-adv-x="490" d="M335 700 L335 205 C335 105 270 40 175 40 C90 40 45 100 45 100 L10 65 C10 65 70 -10 175 -10 C295 -10 385 80 385 205 L385 700 L335 700 Z M385 915 L335 915 L230 785 L275 785 L360 885 L445 785 L490 785 L385 915 Z " />
<glyph glyph-name="jcircumflex" unicode="&#x135;" horiz-adv-x="225" d="M85 -80 C85 -135 55 -165 10 -165 C-25 -165 -50 -150 -50 -150 L-50 -195 C-50 -195 -25 -210 10 -210 C80 -210 130 -160 130 -80 L130 480 L85 480 L85 -80 Z M138 695 L88 695 L-17 565 L28 565 L113 665 L198 565 L243 565 L138 695 Z " />
<glyph glyph-name="Kcommaaccent" unicode="&#x136;" horiz-adv-x="655" d="M160 270 L160 700 L110 700 L110 0 L160 0 L160 200 L320 375 L580 0 L640 0 L350 410 L615 700 L550 700 L160 270 Z M285 -215 L320 -215 L380 -80 L330 -80 L285 -215 Z " />
<glyph glyph-name="kcommaaccent" unicode="&#x137;" horiz-adv-x="500" d="M130 130 L240 250 L245 250 L425 0 L480 0 L275 285 L455 480 L395 480 L130 195 L130 700 L85 700 L85 0 L130 0 L130 130 Z M205 -215 L240 -215 L300 -80 L250 -80 L205 -215 Z " />
<glyph glyph-name="Lacute" unicode="&#x139;" horiz-adv-x="560" d="M535 0 L535 50 L160 50 L160 700 L110 700 L110 0 L535 0 Z M120 795 L160 795 L250 925 L195 925 L120 795 Z " />
<glyph glyph-name="lacute" unicode="&#x13a;" horiz-adv-x="225" d="M130 700 L85 700 L85 0 L130 0 L130 700 Z M95 795 L135 795 L225 925 L170 925 L95 795 Z " />
<glyph glyph-name="Lcommaaccent" unicode="&#x13b;" horiz-adv-x="560" d="M535 0 L535 50 L160 50 L160 700 L110 700 L110 0 L535 0 Z M265 -215 L300 -215 L360 -80 L310 -80 L265 -215 Z " />
<glyph glyph-name="lcommaaccent" unicode="&#x13c;" horiz-adv-x="225" d="M130 700 L85 700 L85 0 L130 0 L130 700 Z M35 -215 L70 -215 L130 -80 L80 -80 L35 -215 Z " />
<glyph glyph-name="Lcaron" unicode="&#x13d;" horiz-adv-x="560" d="M535 0 L535 50 L160 50 L160 700 L110 700 L110 0 L535 0 Z M270 565 L305 565 L365 700 L315 700 L270 565 Z " />
<glyph glyph-name="lcaron" unicode="&#x13e;" horiz-adv-x="264" d="M130 700 L85 700 L85 0 L130 0 L130 700 Z M204 565 L239 565 L299 700 L249 700 L204 565 Z " />
<glyph glyph-name="Ldot" unicode="&#x13f;" horiz-adv-x="560" d="M330 360 C330 340 345 325 365 325 C385 325 400 340 400 360 C400 380 385 395 365 395 C345 395 330 380 330 360 L330 360 Z M535 0 L535 50 L160 50 L160 700 L110 700 L110 0 L535 0 Z " />
<glyph glyph-name="ldot" unicode="&#x140;" horiz-adv-x="350" d="M130 700 L85 700 L85 0 L130 0 L130 700 Z M235 250 C235 230 250 215 270 215 C290 215 305 230 305 250 C305 270 290 285 270 285 C250 285 235 270 235 250 L235 250 Z " />
<glyph glyph-name="Lslash" unicode="&#x141;" horiz-adv-x="600" d="M580 0 L580 50 L205 50 L205 330 L385 435 L360 477 L205 385 L205 700 L155 700 L155 355 L10 270 L35 230 L155 300 L155 0 L580 0 Z " />
<glyph glyph-name="lslash" unicode="&#x142;" horiz-adv-x="335" d="M185 700 L140 700 L140 380 L-10 290 L10 255 L140 335 L140 0 L185 0 L185 360 L335 450 L315 485 L185 405 L185 700 Z " />
<glyph glyph-name="Nacute" unicode="&#x143;" horiz-adv-x="775" d="M615 700 L615 95 L150 700 L110 700 L110 0 L160 0 L160 605 L625 0 L665 0 L665 700 L615 700 Z M370 795 L410 795 L500 925 L445 925 L370 795 Z " />
<glyph glyph-name="nacute" unicode="&#x144;" horiz-adv-x="575" d="M130 480 L85 480 L85 0 L130 0 L130 270 C130 370 205 445 295 445 C380 445 445 380 445 285 L445 0 L490 0 L490 285 C490 405 405 490 295 490 C175 490 130 395 130 395 L130 480 Z M270 565 L310 565 L400 695 L345 695 L270 565 Z " />
<glyph glyph-name="Ncommaaccent" unicode="&#x145;" horiz-adv-x="775" d="M615 700 L615 95 L150 700 L110 700 L110 0 L160 0 L160 605 L625 0 L665 0 L665 700 L615 700 Z M335 -215 L370 -215 L430 -80 L380 -80 L335 -215 Z " />
<glyph glyph-name="ncommaaccent" unicode="&#x146;" horiz-adv-x="575" d="M130 480 L85 480 L85 0 L130 0 L130 270 C130 370 205 445 295 445 C380 445 445 380 445 285 L445 0 L490 0 L490 285 C490 405 405 490 295 490 C175 490 130 395 130 395 L130 480 Z M225 -215 L260 -215 L320 -80 L270 -80 L225 -215 Z " />
<glyph glyph-name="Ncaron" unicode="&#x147;" horiz-adv-x="775" d="M615 700 L615 95 L150 700 L110 700 L110 0 L160 0 L160 605 L625 0 L665 0 L665 700 L615 700 Z M515 920 L470 920 L385 820 L300 920 L255 920 L360 790 L410 790 L515 920 Z " />
<glyph glyph-name="ncaron" unicode="&#x148;" horiz-adv-x="575" d="M130 480 L85 480 L85 0 L130 0 L130 270 C130 370 205 445 295 445 C380 445 445 380 445 285 L445 0 L490 0 L490 285 C490 405 405 490 295 490 C175 490 130 395 130 395 L130 480 Z M415 695 L370 695 L285 595 L200 695 L155 695 L260 565 L310 565 L415 695 Z " />
<glyph glyph-name="napostrophe" unicode="&#x149;" horiz-adv-x="590" d="M145 480 L100 480 L100 0 L145 0 L145 270 C145 370 220 445 310 445 C395 445 460 380 460 285 L460 0 L505 0 L505 285 C505 405 420 490 310 490 C190 490 145 395 145 395 L145 480 Z M15 550 L50 550 L110 685 L60 685 L15 550 Z " />
<glyph glyph-name="Omacron" unicode="&#x14c;" horiz-adv-x="830" d="M720 350 C720 175 585 40 415 40 C245 40 110 175 110 350 C110 525 245 660 415 660 C585 660 720 525 720 350 L720 350 Z M770 350 C770 550 612 710 415 710 C220 710 60 550 60 350 C60 150 219 -10 415 -10 C612 -10 770 150 770 350 L770 350 Z M550 880 L280 880 L280 840 L550 840 L550 880 Z " />
<glyph glyph-name="omacron" unicode="&#x14d;" horiz-adv-x="580" d="M45 240 C45 100 155 -10 285 -10 C415 -10 525 100 525 240 C525 380 415 490 285 490 C155 490 45 380 45 240 L45 240 Z M480 240 C480 125 390 35 285 35 C180 35 90 125 90 240 C90 355 180 445 285 445 C390 445 480 355 480 240 L480 240 Z M420 650 L150 650 L150 610 L420 610 L420 650 Z " />
<glyph glyph-name="Obreve" unicode="&#x14e;" horiz-adv-x="830" d="M720 350 C720 175 585 40 415 40 C245 40 110 175 110 350 C110 525 245 660 415 660 C585 660 720 525 720 350 L720 350 Z M770 350 C770 550 612 710 415 710 C220 710 60 550 60 350 C60 150 219 -10 415 -10 C612 -10 770 150 770 350 L770 350 Z M415 825 C360 825 325 860 325 915 L285 915 C285 840 340 785 415 785 C490 785 545 840 545 915 L505 915 C505 860 470 825 415 825 L415 825 Z " />
<glyph glyph-name="obreve" unicode="&#x14f;" horiz-adv-x="580" d="M45 240 C45 100 155 -10 285 -10 C415 -10 525 100 525 240 C525 380 415 490 285 490 C155 490 45 380 45 240 L45 240 Z M480 240 C480 125 390 35 285 35 C180 35 90 125 90 240 C90 355 180 445 285 445 C390 445 480 355 480 240 L480 240 Z M290 605 C235 605 200 640 200 695 L160 695 C160 620 215 565 290 565 C365 565 420 620 420 695 L380 695 C380 640 345 605 290 605 L290 605 Z " />
<glyph glyph-name="Ohungarumlaut" unicode="&#x150;" horiz-adv-x="830" d="M720 350 C720 175 585 40 415 40 C245 40 110 175 110 350 C110 525 245 660 415 660 C585 660 720 525 720 350 L720 350 Z M770 350 C770 550 612 710 415 710 C220 710 60 550 60 350 C60 150 219 -10 415 -10 C612 -10 770 150 770 350 L770 350 Z M320 790 L360 790 L450 920 L395 920 L320 790 Z M465 790 L505 790 L595 920 L540 920 L465 790 Z " />
<glyph glyph-name="ohungarumlaut" unicode="&#x151;" horiz-adv-x="580" d="M45 240 C45 100 155 -10 285 -10 C415 -10 525 100 525 240 C525 380 415 490 285 490 C155 490 45 380 45 240 L45 240 Z M480 240 C480 125 390 35 285 35 C180 35 90 125 90 240 C90 355 180 445 285 445 C390 445 480 355 480 240 L480 240 Z M190 565 L230 565 L320 695 L265 695 L190 565 Z M335 565 L375 565 L465 695 L410 695 L335 565 Z " />
<glyph glyph-name="OE" unicode="&#x152;" horiz-adv-x="990" d="M570 50 L570 340 L860 340 L860 390 L570 390 L570 650 L940 650 L940 700 L420 700 C215 700 60 545 60 350 C60 155 215 0 420 0 L950 0 L950 50 L570 50 Z M110 350 C110 520 240 650 420 650 L520 650 L520 50 L420 50 C240 50 110 180 110 350 L110 350 Z " />
<glyph glyph-name="oe" unicode="&#x153;" horiz-adv-x="940" d="M885 220 L885 240 C885 390 785 490 675 490 C530 490 475 340 475 340 C475 340 420 490 275 490 C160 490 50 380 50 240 C50 100 160 -10 275 -10 C420 -10 477 138 477 138 C477 138 533 -10 680 -10 C805 -10 865 90 865 90 L835 120 C835 120 785 35 680 35 C590 35 510 115 500 220 L885 220 Z M95 240 C95 355 185 445 275 445 C365 445 455 355 455 240 C455 125 365 35 275 35 C185 35 95 125 95 240 L95 240 Z M675 445 C760 445 835 370 840 265 L500 265 C505 360 590 445 675 445 L675 445 Z " />
<glyph glyph-name="Racute" unicode="&#x154;" horiz-adv-x="660" d="M110 700 L110 0 L160 0 L160 290 L385 290 L550 0 L605 0 L435 300 C435 300 590 330 590 495 C590 610 500 700 375 700 L110 700 Z M375 650 C475 650 540 585 540 495 C540 405 475 340 375 340 L160 340 L160 650 L375 650 Z M315 795 L355 795 L445 925 L390 925 L315 795 Z " />
<glyph glyph-name="racute" unicode="&#x155;" horiz-adv-x="340" d="M320 490 L300 490 C175 490 130 400 130 400 L130 480 L85 480 L85 0 L130 0 L130 270 C130 375 210 445 300 445 L320 445 L320 490 Z M180 565 L220 565 L310 695 L255 695 L180 565 Z " />
<glyph glyph-name="Rcommaaccent" unicode="&#x156;" horiz-adv-x="660" d="M110 700 L110 0 L160 0 L160 290 L385 290 L550 0 L605 0 L435 300 C435 300 590 330 590 495 C590 610 500 700 375 700 L110 700 Z M375 650 C475 650 540 585 540 495 C540 405 475 340 375 340 L160 340 L160 650 L375 650 Z M280 -215 L315 -215 L375 -80 L325 -80 L280 -215 Z " />
<glyph glyph-name="rcommaaccent" unicode="&#x157;" horiz-adv-x="340" d="M320 490 L300 490 C175 490 130 400 130 400 L130 480 L85 480 L85 0 L130 0 L130 270 C130 375 210 445 300 445 L320 445 L320 490 Z M35 -215 L70 -215 L130 -80 L80 -80 L35 -215 Z " />
<glyph glyph-name="Rcaron" unicode="&#x158;" horiz-adv-x="660" d="M110 700 L110 0 L160 0 L160 290 L385 290 L550 0 L605 0 L435 300 C435 300 590 330 590 495 C590 610 500 700 375 700 L110 700 Z M375 650 C475 650 540 585 540 495 C540 405 475 340 375 340 L160 340 L160 650 L375 650 Z M465 920 L420 920 L335 820 L250 920 L205 920 L310 790 L360 790 L465 920 Z " />
<glyph glyph-name="rcaron" unicode="&#x159;" horiz-adv-x="340" d="M320 490 L300 490 C175 490 130 400 130 400 L130 480 L85 480 L85 0 L130 0 L130 270 C130 375 210 445 300 445 L320 445 L320 490 Z M330 695 L285 695 L200 595 L115 695 L70 695 L175 565 L225 565 L330 695 Z " />
<glyph glyph-name="Sacute" unicode="&#x15a;" horiz-adv-x="560" d="M455 185 C455 100 395 40 275 40 C140 40 80 130 80 130 L45 95 C45 95 120 -10 275 -10 C420 -10 505 75 505 185 C505 425 115 335 115 525 C115 600 175 660 285 660 C395 660 450 590 450 590 L485 625 C485 625 415 710 285 710 C150 710 65 625 65 525 C65 285 455 375 455 185 L455 185 Z M260 795 L300 795 L390 925 L335 925 L260 795 Z " />
<glyph glyph-name="sacute" unicode="&#x15b;" horiz-adv-x="430" d="M360 420 C360 420 305 490 210 490 C120 490 55 425 55 360 C55 200 330 255 330 135 C330 80 285 35 205 35 C120 35 70 105 70 105 L35 70 C35 70 95 -10 205 -10 C310 -10 375 55 375 135 C375 300 100 245 100 360 C100 404 140 445 210 445 C285 445 325 385 325 385 L360 420 Z M185 565 L225 565 L315 695 L260 695 L185 565 Z " />
<glyph glyph-name="Scircumflex" unicode="&#x15c;" horiz-adv-x="560" d="M455 185 C455 100 395 40 275 40 C140 40 80 130 80 130 L45 95 C45 95 120 -10 275 -10 C420 -10 505 75 505 185 C505 425 115 335 115 525 C115 600 175 660 285 660 C395 660 450 590 450 590 L485 625 C485 625 415 710 285 710 C150 710 65 625 65 525 C65 285 455 375 455 185 L455 185 Z M305 915 L255 915 L150 785 L195 785 L280 885 L365 785 L410 785 L305 915 Z " />
<glyph glyph-name="scircumflex" unicode="&#x15d;" horiz-adv-x="430" d="M360 420 C360 420 305 490 210 490 C120 490 55 425 55 360 C55 200 330 255 330 135 C330 80 285 35 205 35 C120 35 70 105 70 105 L35 70 C35 70 95 -10 205 -10 C310 -10 375 55 375 135 C375 300 100 245 100 360 C100 404 140 445 210 445 C285 445 325 385 325 385 L360 420 Z M240 695 L190 695 L85 565 L130 565 L215 665 L300 565 L345 565 L240 695 Z " />
<glyph glyph-name="Scedilla" unicode="&#x15e;" horiz-adv-x="560" d="M455 185 C455 100 395 40 275 40 C140 40 80 130 80 130 L45 95 C45 95 114 -1 255 -9 L225 -70 L250 -95 C250 -95 265 -85 285 -85 C306 -85 325 -105 325 -125 C325 -150 306 -170 270 -170 C235 -170 205 -145 205 -145 L190 -173 C190 -173 225 -200 270 -200 C325 -200 360 -165 360 -125 C360 -85 330 -55 290 -55 C270 -55 265 -60 265 -60 L290 -10 C426 -4 505 79 505 185 C505 425 115 335 115 525 C115 600 175 660 285 660 C395 660 450 590 450 590 L485 625 C485 625 415 710 285 710 C150 710 65 625 65 525 C65 285 455 375 455 185 L455 185 Z " />
<glyph glyph-name="scedilla" unicode="&#x15f;" horiz-adv-x="430" d="M360 420 C360 420 305 490 210 490 C120 490 55 425 55 360 C55 200 330 255 330 135 C330 80 285 35 205 35 C120 35 70 105 70 105 L35 70 C35 70 88 0 185 -9 L155 -70 L180 -95 C180 -95 195 -85 215 -85 C236 -85 255 -105 255 -125 C255 -150 236 -170 200 -170 C165 -170 135 -145 135 -145 L120 -173 C120 -173 155 -200 200 -200 C255 -200 290 -165 290 -125 C290 -85 260 -55 220 -55 C200 -55 195 -60 195 -60 L220 -9 C316 -3 375 59 375 135 C375 300 100 245 100 360 C100 404 140 445 210 445 C285 445 325 385 325 385 L360 420 Z " />
<glyph glyph-name="Scaron" unicode="&#x160;" horiz-adv-x="560" d="M455 185 C455 100 395 40 275 40 C140 40 80 130 80 130 L45 95 C45 95 120 -10 275 -10 C420 -10 505 75 505 185 C505 425 115 335 115 525 C115 600 175 660 285 660 C395 660 450 590 450 590 L485 625 C485 625 415 710 285 710 C150 710 65 625 65 525 C65 285 455 375 455 185 L455 185 Z M410 920 L365 920 L280 820 L195 920 L150 920 L255 790 L305 790 L410 920 Z " />
<glyph glyph-name="scaron" unicode="&#x161;" horiz-adv-x="430" d="M360 420 C360 420 305 490 210 490 C120 490 55 425 55 360 C55 200 330 255 330 135 C330 80 285 35 205 35 C120 35 70 105 70 105 L35 70 C35 70 95 -10 205 -10 C310 -10 375 55 375 135 C375 300 100 245 100 360 C100 404 140 445 210 445 C285 445 325 385 325 385 L360 420 Z M335 695 L290 695 L205 595 L120 695 L75 695 L180 565 L230 565 L335 695 Z " />
<glyph glyph-name="Tcommaaccent" unicode="&#x162;" horiz-adv-x="550" d="M20 700 L20 650 L250 650 L250 0 L300 0 L300 650 L530 650 L530 700 L20 700 Z M205 -215 L240 -215 L300 -80 L250 -80 L205 -215 Z " />
<glyph glyph-name="tcommaaccent" unicode="&#x163;" horiz-adv-x="350" d="M125 520 C125 495 110 480 90 480 L25 480 L25 435 L120 435 L120 120 C120 35 165 -10 240 -10 C275 -10 305 5 305 5 L305 50 C305 50 275 35 240 35 C195 35 165 65 165 120 L165 435 L275 435 L275 480 L165 480 L165 640 L125 640 L125 520 Z M145 -215 L180 -215 L240 -80 L190 -80 L145 -215 Z " />
<glyph glyph-name="Tcaron" unicode="&#x164;" horiz-adv-x="550" d="M20 700 L20 650 L250 650 L250 0 L300 0 L300 650 L530 650 L530 700 L20 700 Z M405 920 L360 920 L275 820 L190 920 L145 920 L250 790 L300 790 L405 920 Z " />
<glyph glyph-name="tcaron" unicode="&#x165;" horiz-adv-x="358" d="M125 520 C125 495 110 480 90 480 L25 480 L25 435 L120 435 L120 120 C120 35 165 -10 240 -10 C275 -10 305 5 305 5 L305 50 C305 50 275 35 240 35 C195 35 165 65 165 120 L165 435 L275 435 L275 480 L165 480 L165 640 L125 640 L125 520 Z M298 565 L333 565 L393 700 L343 700 L298 565 Z " />
<glyph glyph-name="Umacron" unicode="&#x16a;" horiz-adv-x="750" d="M375 40 C250 40 150 140 150 270 L150 700 L100 700 L100 270 C100 115 225 -10 375 -10 C525 -10 650 115 650 270 L650 700 L600 700 L600 270 C600 140 500 40 375 40 L375 40 Z M510 880 L240 880 L240 840 L510 840 L510 880 Z " />
<glyph glyph-name="umacron" unicode="&#x16b;" horiz-adv-x="580" d="M445 0 L490 0 L490 480 L445 480 L445 210 C445 110 370 35 280 35 C195 35 130 100 130 195 L130 480 L85 480 L85 195 C85 75 170 -10 280 -10 C400 -10 445 85 445 85 L445 0 Z M420 650 L150 650 L150 610 L420 610 L420 650 Z " />
<glyph glyph-name="Ubreve" unicode="&#x16c;" horiz-adv-x="750" d="M375 40 C250 40 150 140 150 270 L150 700 L100 700 L100 270 C100 115 225 -10 375 -10 C525 -10 650 115 650 270 L650 700 L600 700 L600 270 C600 140 500 40 375 40 L375 40 Z M375 825 C320 825 285 860 285 915 L245 915 C245 840 300 785 375 785 C450 785 505 840 505 915 L465 915 C465 860 430 825 375 825 L375 825 Z " />
<glyph glyph-name="ubreve" unicode="&#x16d;" horiz-adv-x="580" d="M445 0 L490 0 L490 480 L445 480 L445 210 C445 110 370 35 280 35 C195 35 130 100 130 195 L130 480 L85 480 L85 195 C85 75 170 -10 280 -10 C400 -10 445 85 445 85 L445 0 Z M290 605 C235 605 200 640 200 695 L160 695 C160 620 215 565 290 565 C365 565 420 620 420 695 L380 695 C380 640 345 605 290 605 L290 605 Z " />
<glyph glyph-name="Uring" unicode="&#x16e;" horiz-adv-x="750" d="M375 40 C250 40 150 140 150 270 L150 700 L100 700 L100 270 C100 115 225 -10 375 -10 C525 -10 650 115 650 270 L650 700 L600 700 L600 270 C600 140 500 40 375 40 L375 40 Z M325 870 C325 905 345 925 380 925 C415 925 435 905 435 870 C435 835 415 815 380 815 C345 815 325 835 325 870 L325 870 Z M475 870 C475 925 435 965 380 965 C325 965 285 925 285 870 C285 815 325 775 380 775 C435 775 475 815 475 870 L475 870 Z " />
<glyph glyph-name="uring" unicode="&#x16f;" horiz-adv-x="580" d="M445 0 L490 0 L490 480 L445 480 L445 210 C445 110 370 35 280 35 C195 35 130 100 130 195 L130 480 L85 480 L85 195 C85 75 170 -10 280 -10 C400 -10 445 85 445 85 L445 0 Z M230 640 C230 675 250 695 285 695 C320 695 340 675 340 640 C340 605 320 585 285 585 C250 585 230 605 230 640 L230 640 Z M380 640 C380 695 340 735 285 735 C230 735 190 695 190 640 C190 585 230 545 285 545 C340 545 380 585 380 640 L380 640 Z " />
<glyph glyph-name="Uhungarumlaut" unicode="&#x170;" horiz-adv-x="750" d="M375 40 C250 40 150 140 150 270 L150 700 L100 700 L100 270 C100 115 225 -10 375 -10 C525 -10 650 115 650 270 L650 700 L600 700 L600 270 C600 140 500 40 375 40 L375 40 Z M275 790 L315 790 L405 920 L350 920 L275 790 Z M420 790 L460 790 L550 920 L495 920 L420 790 Z " />
<glyph glyph-name="uhungarumlaut" unicode="&#x171;" horiz-adv-x="580" d="M445 0 L490 0 L490 480 L445 480 L445 210 C445 110 370 35 280 35 C195 35 130 100 130 195 L130 480 L85 480 L85 195 C85 75 170 -10 280 -10 C400 -10 445 85 445 85 L445 0 Z M185 560 L225 560 L315 690 L260 690 L185 560 Z M330 560 L370 560 L460 690 L405 690 L330 560 Z " />
<glyph glyph-name="Uogonek" unicode="&#x172;" horiz-adv-x="750" d="M375 40 C250 40 150 140 150 270 L150 700 L100 700 L100 270 C100 115 224 -9 373 -10 C355 -27 320 -67 320 -115 C320 -165 355 -200 410 -200 C440 -200 470 -185 470 -185 L470 -150 C470 -150 440 -165 410 -165 C375 -165 355 -145 355 -115 C355 -70 395 -24 412 -7 C545 11 650 128 650 270 L650 700 L600 700 L600 270 C600 140 500 40 375 40 L375 40 Z " />
<glyph glyph-name="uogonek" unicode="&#x173;" horiz-adv-x="580" d="M490 0 L490 480 L445 480 L445 210 C445 110 370 35 280 35 C195 35 130 100 130 195 L130 480 L85 480 L85 195 C85 75 170 -10 280 -10 C400 -10 445 85 445 85 L445 0 C445 0 380 -50 380 -115 C380 -165 415 -200 470 -200 C500 -200 530 -185 530 -185 L530 -150 C530 -150 500 -165 470 -165 C435 -165 415 -145 415 -115 C415 -60 480 0 480 0 L490 0 Z " />
<glyph glyph-name="Wcircumflex" unicode="&#x174;" horiz-adv-x="1010" d="M505 620 L705 0 L755 0 L980 700 L925 700 L730 80 L530 700 L480 700 L280 80 L85 700 L30 700 L255 0 L305 0 L505 620 Z M530 915 L480 915 L375 785 L420 785 L505 885 L590 785 L635 785 L530 915 Z " />
<glyph glyph-name="wcircumflex" unicode="&#x175;" horiz-adv-x="710" d="M330 480 L200 75 L65 480 L15 480 L175 0 L220 0 L350 405 L480 0 L525 0 L685 480 L635 480 L500 70 L370 480 L330 480 Z M380 695 L330 695 L225 565 L270 565 L355 665 L440 565 L485 565 L380 695 Z " />
<glyph glyph-name="Ycircumflex" unicode="&#x176;" horiz-adv-x="620" d="M85 700 L25 700 L285 245 L285 0 L335 0 L335 245 L595 700 L535 700 L310 300 L85 700 Z M335 915 L285 915 L180 785 L225 785 L310 885 L395 785 L440 785 L335 915 Z " />
<glyph glyph-name="ycircumflex" unicode="&#x177;" horiz-adv-x="480" d="M175 -90 C155 -140 130 -165 85 -165 C60 -165 40 -155 40 -155 L40 -200 C40 -200 60 -210 85 -210 C155 -210 191 -175 225 -90 L455 480 L405 480 L235 60 L65 480 L15 480 L210 0 L175 -90 Z M265 695 L215 695 L110 565 L155 565 L240 665 L325 565 L370 565 L265 695 Z " />
<glyph glyph-name="Ydieresis" unicode="&#x178;" horiz-adv-x="620" d="M85 700 L25 700 L285 245 L285 0 L335 0 L335 245 L595 700 L535 700 L310 300 L85 700 Z M190 855 C190 835 205 820 225 820 C245 820 260 835 260 855 C260 875 245 890 225 890 C205 890 190 875 190 855 L190 855 Z M365 855 C365 835 380 820 400 820 C420 820 435 835 435 855 C435 875 420 890 400 890 C380 890 365 875 365 855 L365 855 Z " />
<glyph glyph-name="Zacute" unicode="&#x179;" horiz-adv-x="585" d="M470 650 L45 50 L45 0 L540 0 L540 50 L105 50 L530 650 L530 700 L60 700 L60 650 L470 650 Z M275 795 L315 795 L405 925 L350 925 L275 795 Z " />
<glyph glyph-name="zacute" unicode="&#x17a;" horiz-adv-x="445" d="M395 480 L40 480 L40 435 L340 435 L30 45 L30 0 L405 0 L405 45 L85 45 L395 435 L395 480 Z M195 565 L235 565 L325 695 L270 695 L195 565 Z " />
<glyph glyph-name="Zdotaccent" unicode="&#x17b;" horiz-adv-x="585" d="M470 650 L45 50 L45 0 L540 0 L540 50 L105 50 L530 650 L530 700 L60 700 L60 650 L470 650 Z M255 860 C255 840 270 825 290 825 C310 825 325 840 325 860 C325 880 310 895 290 895 C270 895 255 880 255 860 L255 860 Z " />
<glyph glyph-name="zdotaccent" unicode="&#x17c;" horiz-adv-x="445" d="M395 480 L40 480 L40 435 L340 435 L30 45 L30 0 L405 0 L405 45 L85 45 L395 435 L395 480 Z M180 625 C180 605 195 590 215 590 C235 590 250 605 250 625 C250 645 235 660 215 660 C195 660 180 645 180 625 L180 625 Z " />
<glyph glyph-name="Zcaron" unicode="&#x17d;" horiz-adv-x="585" d="M470 650 L45 50 L45 0 L540 0 L540 50 L105 50 L530 650 L530 700 L60 700 L60 650 L470 650 Z M425 920 L380 920 L295 820 L210 920 L165 920 L270 790 L320 790 L425 920 Z " />
<glyph glyph-name="zcaron" unicode="&#x17e;" horiz-adv-x="445" d="M395 480 L40 480 L40 435 L340 435 L30 45 L30 0 L405 0 L405 45 L85 45 L395 435 L395 480 Z M344 695 L299 695 L214 595 L129 695 L84 695 L189 565 L239 565 L344 695 Z " />
<glyph glyph-name="florin" unicode="&#x192;" horiz-adv-x="345" d="M195 345 L320 345 L320 390 L205 390 L240 580 C250 635 280 665 325 665 C360 665 390 650 390 650 L390 695 C390 695 360 710 325 710 C250 710 212 670 195 580 L160 390 L65 390 L65 345 L150 345 L70 -85 C60 -140 30 -170 -15 -170 C-50 -170 -80 -155 -80 -155 L-80 -200 C-80 -200 -50 -215 -15 -215 C60 -215 98 -175 115 -85 L195 345 Z " />
<glyph glyph-name="Scommaaccent" unicode="&#x218;" horiz-adv-x="560" d="M455 185 C455 100 395 40 275 40 C140 40 80 130 80 130 L45 95 C45 95 120 -10 275 -10 C420 -10 505 75 505 185 C505 425 115 335 115 525 C115 600 175 660 285 660 C395 660 450 590 450 590 L485 625 C485 625 415 710 285 710 C150 710 65 625 65 525 C65 285 455 375 455 185 L455 185 Z M215 -215 L250 -215 L310 -80 L260 -80 L215 -215 Z " />
<glyph glyph-name="scommaaccent" unicode="&#x219;" horiz-adv-x="430" d="M360 420 C360 420 305 490 210 490 C120 490 55 425 55 360 C55 200 330 255 330 135 C330 80 285 35 205 35 C120 35 70 105 70 105 L35 70 C35 70 95 -10 205 -10 C310 -10 375 55 375 135 C375 300 100 245 100 360 C100 404 140 445 210 445 C285 445 325 385 325 385 L360 420 Z M140 -215 L175 -215 L235 -80 L185 -80 L140 -215 Z " />
<glyph glyph-name="uni021A" unicode="&#x21a;" horiz-adv-x="550" d="M20 700 L20 650 L250 650 L250 0 L300 0 L300 650 L530 650 L530 700 L20 700 Z M205 -215 L240 -215 L300 -80 L250 -80 L205 -215 Z " />
<glyph glyph-name="uni021B" unicode="&#x21b;" horiz-adv-x="350" d="M125 520 C125 495 110 480 90 480 L25 480 L25 435 L120 435 L120 120 C120 35 165 -10 240 -10 C275 -10 305 5 305 5 L305 50 C305 50 275 35 240 35 C195 35 165 65 165 120 L165 435 L275 435 L275 480 L165 480 L165 640 L125 640 L125 520 Z M145 -215 L180 -215 L240 -80 L190 -80 L145 -215 Z " />
<glyph glyph-name="afii57929" unicode="&#x2bc;" horiz-adv-x="155" d="M30 565 L65 565 L125 700 L75 700 L30 565 Z " />
<glyph glyph-name="circumflex" unicode="&#x2c6;" horiz-adv-x="320" d="M185 695 L135 695 L30 565 L75 565 L160 665 L245 565 L290 565 L185 695 Z " />
<glyph glyph-name="caron" unicode="&#x2c7;" horiz-adv-x="320" d="M290 695 L245 695 L160 595 L75 695 L30 695 L135 565 L185 565 L290 695 Z " />
<glyph glyph-name="breve" unicode="&#x2d8;" horiz-adv-x="320" d="M160 605 C105 605 70 640 70 695 L30 695 C30 620 85 565 160 565 C235 565 290 620 290 695 L250 695 C250 640 215 605 160 605 L160 605 Z " />
<glyph glyph-name="dotaccent" unicode="&#x2d9;" horiz-adv-x="130" d="M30 640 C30 620 45 605 65 605 C85 605 100 620 100 640 C100 660 85 675 65 675 C45 675 30 660 30 640 L30 640 Z " />
<glyph glyph-name="ring" unicode="&#x2da;" horiz-adv-x="250" d="M70 600 C70 635 90 655 125 655 C160 655 180 635 180 600 C180 565 160 545 125 545 C90 545 70 565 70 600 L70 600 Z M220 600 C220 655 180 695 125 695 C70 695 30 655 30 600 C30 545 70 505 125 505 C180 505 220 545 220 600 L220 600 Z " />
<glyph glyph-name="ogonek" unicode="&#x2db;" horiz-adv-x="210" d="M95 0 C95 0 30 -50 30 -115 C30 -165 65 -200 120 -200 C150 -200 180 -185 180 -185 L180 -150 C180 -150 150 -165 120 -165 C85 -165 65 -145 65 -115 C65 -60 130 0 130 0 L95 0 Z " />
<glyph glyph-name="tilde" unicode="&#x2dc;" horiz-adv-x="345" d="M110 650 C155 650 170 575 235 575 C280 575 315 610 315 690 L275 690 C275 635 255 615 235 615 C190 615 175 690 110 690 C65 690 30 655 30 575 L70 575 C70 630 90 650 110 650 L110 650 Z " />
<glyph glyph-name="hungarumlaut" unicode="&#x2dd;" horiz-adv-x="335" d="M30 565 L70 565 L160 695 L105 695 L30 565 Z M175 565 L215 565 L305 695 L250 695 L175 565 Z " />
<glyph glyph-name="afii10023" unicode="&#x401;" horiz-adv-x="630" d="M160 50 L160 340 L500 340 L500 390 L160 390 L160 650 L580 650 L580 700 L110 700 L110 0 L590 0 L590 50 L160 50 Z M220 855 C220 835 235 820 255 820 C275 820 290 835 290 855 C290 875 275 890 255 890 C235 890 220 875 220 855 L220 855 Z M395 855 C395 835 410 820 430 820 C450 820 465 835 465 855 C465 875 450 890 430 890 C410 890 395 875 395 855 L395 855 Z " />
<glyph glyph-name="afii10051" unicode="&#x402;" horiz-adv-x="710" d="M0 650 L185 650 L185 0 L235 0 L235 315 C235 315 315 395 435 395 C520 395 590 325 590 220 C590 105 525 40 420 40 L420 -10 C555 -10 640 75 640 220 C640 355 550 445 435 445 C315 445 235 375 235 375 L235 650 L420 650 L420 700 L0 700 L0 650 Z " />
<glyph glyph-name="afii10052" unicode="&#x403;" horiz-adv-x="550" d="M110 0 L160 0 L160 650 L535 650 L535 700 L110 700 L110 0 Z M300 795 L340 795 L430 925 L375 925 L300 795 Z " />
<glyph glyph-name="afii10053" unicode="&#x404;" horiz-adv-x="750" d="M60 350 C60 150 220 -10 415 -10 C605 -10 705 140 705 140 L670 170 C670 170 585 40 415 40 C250 40 120 170 110 330 L495 330 L495 380 L110 380 C125 535 250 660 415 660 C584 660 665 530 665 530 L700 560 C700 560 605 710 415 710 C220 710 60 550 60 350 L60 350 Z " />
<glyph glyph-name="afii10054" unicode="&#x405;" horiz-adv-x="560" d="M455 185 C455 100 395 40 275 40 C140 40 80 130 80 130 L45 95 C45 95 120 -10 275 -10 C420 -10 505 75 505 185 C505 425 115 335 115 525 C115 600 175 660 285 660 C395 660 450 590 450 590 L485 625 C485 625 415 710 285 710 C150 710 65 625 65 525 C65 285 455 375 455 185 L455 185 Z " />
<glyph glyph-name="afii10055" unicode="&#x406;" horiz-adv-x="270" d="M110 0 L160 0 L160 700 L110 700 L110 0 Z " />
<glyph glyph-name="afii10056" unicode="&#x407;" horiz-adv-x="270" d="M110 0 L160 0 L160 700 L110 700 L110 0 Z M15 855 C15 835 30 820 50 820 C70 820 85 835 85 855 C85 875 70 890 50 890 C30 890 15 875 15 855 L15 855 Z M190 855 C190 835 205 820 225 820 C245 820 260 835 260 855 C260 875 245 890 225 890 C205 890 190 875 190 855 L190 855 Z " />
<glyph glyph-name="afii10057" unicode="&#x408;" horiz-adv-x="490" d="M335 700 L335 205 C335 105 270 40 175 40 C90 40 45 100 45 100 L10 65 C10 65 70 -10 175 -10 C295 -10 385 80 385 205 L385 700 L335 700 Z " />
<glyph glyph-name="afii10058" unicode="&#x409;" horiz-adv-x="1070" d="M785 0 C915 0 1010 95 1010 215 C1010 335 915 430 785 430 L600 430 L600 700 L185 700 L185 490 C185 105 120 40 50 40 C25 40 -5 50 -5 50 L-5 2 C-5 2 25 -10 55 -10 C155 -10 235 70 235 490 L235 650 L550 650 L550 0 L785 0 Z M600 50 L600 380 L785 380 C890 380 960 310 960 215 C960 120 890 50 785 50 L600 50 Z " />
<glyph glyph-name="afii10059" unicode="&#x40a;" horiz-adv-x="1065" d="M780 0 C910 0 1005 95 1005 215 C1005 335 910 430 780 430 L595 430 L595 700 L545 700 L545 430 L160 430 L160 700 L110 700 L110 0 L160 0 L160 380 L545 380 L545 0 L780 0 Z M595 50 L595 380 L780 380 C885 380 955 310 955 215 C955 120 885 50 780 50 L595 50 Z " />
<glyph glyph-name="afii10060" unicode="&#x40b;" horiz-adv-x="730" d="M0 650 L185 650 L185 0 L235 0 L235 315 C235 315 315 395 435 395 C520 395 590 325 590 230 L590 0 L640 0 L640 230 C640 355 550 445 435 445 C315 445 235 375 235 375 L235 650 L420 650 L420 700 L0 700 L0 650 Z " />
<glyph glyph-name="afii10061" unicode="&#x40c;" horiz-adv-x="655" d="M160 270 L160 700 L110 700 L110 0 L160 0 L160 200 L320 375 L580 0 L640 0 L350 410 L615 700 L550 700 L160 270 Z M325 795 L365 795 L455 925 L400 925 L325 795 Z " />
<glyph glyph-name="afii10062" unicode="&#x40e;" horiz-adv-x="605" d="M310 795 C385 795 440 850 440 925 L395 925 C395 875 360 840 310 840 C260 840 225 875 225 925 L180 925 C180 850 235 795 310 795 L310 795 Z M320 260 L85 700 L30 700 L295 205 L265 145 C230 75 195 40 130 40 C100 40 75 50 75 50 L75 0 C75 0 100 -10 130 -10 C220 -10 270 40 320 145 L585 700 L530 700 L320 260 Z " />
<glyph glyph-name="afii10145" unicode="&#x40f;" horiz-adv-x="740" d="M630 700 L580 700 L580 50 L160 50 L160 700 L110 700 L110 0 L345 0 L345 -150 L395 -150 L395 0 L630 0 L630 700 Z " />
<glyph glyph-name="afii10017" unicode="&#x410;" horiz-adv-x="680" d="M495 255 L185 255 L340 630 L495 255 Z M515 205 L600 0 L655 0 L365 700 L315 700 L25 0 L80 0 L165 205 L515 205 Z " />
<glyph glyph-name="afii10018" unicode="&#x411;" horiz-adv-x="645" d="M160 650 L530 650 L530 700 L110 700 L110 0 L365 0 C490 0 585 95 585 205 C585 315 490 410 365 410 L160 410 L160 650 Z M160 50 L160 360 L365 360 C465 360 535 290 535 205 C535 120 465 50 365 50 L160 50 Z " />
<glyph glyph-name="afii10019" unicode="&#x412;" horiz-adv-x="660" d="M470 375 C470 375 560 410 560 525 C560 625 485 700 370 700 L110 700 L110 0 L380 0 C510 0 595 85 595 195 C595 335 470 375 470 375 L470 375 Z M160 50 L160 345 L380 345 C485 345 545 285 545 195 C545 110 485 50 380 50 L160 50 Z M370 650 C460 650 510 600 510 525 C510 445 460 395 370 395 L160 395 L160 650 L370 650 Z " />
<glyph glyph-name="afii10020" unicode="&#x413;" horiz-adv-x="550" d="M110 0 L160 0 L160 650 L535 650 L535 700 L110 700 L110 0 Z " />
<glyph glyph-name="afii10021" unicode="&#x414;" horiz-adv-x="705" d="M0 50 L0 -150 L50 -150 L50 0 L620 0 L620 -150 L670 -150 L670 50 L580 50 L580 700 L165 700 L165 490 C165 160 40 50 40 50 L0 50 Z M215 490 L215 650 L530 650 L530 50 L100 50 C100 50 215 170 215 490 L215 490 Z " />
<glyph glyph-name="afii10022" unicode="&#x415;" horiz-adv-x="630" d="M160 50 L160 340 L500 340 L500 390 L160 390 L160 650 L580 650 L580 700 L110 700 L110 0 L590 0 L590 50 L160 50 Z " />
<glyph glyph-name="afii10024" unicode="&#x416;" horiz-adv-x="940" d="M605 375 L865 0 L925 0 L635 410 L900 700 L835 700 L495 325 L495 700 L445 700 L445 325 L105 700 L40 700 L305 410 L15 0 L75 0 L335 375 L445 255 L445 0 L495 0 L495 255 L605 375 Z " />
<glyph glyph-name="afii10025" unicode="&#x417;" horiz-adv-x="570" d="M355 370 C355 370 485 400 485 525 C485 625 400 710 265 710 C130 710 55 615 55 615 L90 580 C90 580 150 660 265 660 C375 660 435 600 435 525 C435 456 375 395 265 395 L185 395 L185 345 L265 345 C385 345 455 274 455 190 C455 110 385 40 265 40 C130 40 70 130 70 130 L35 95 C35 95 110 -10 265 -10 C410 -10 505 85 505 190 C505 335 355 370 355 370 L355 370 Z " />
<glyph glyph-name="afii10026" unicode="&#x418;" horiz-adv-x="775" d="M665 0 L665 700 L625 700 L160 95 L160 700 L110 700 L110 0 L150 0 L615 605 L615 0 L665 0 Z " />
<glyph glyph-name="afii10027" unicode="&#x419;" horiz-adv-x="775" d="M390 795 C465 795 520 850 520 925 L475 925 C475 875 440 840 390 840 C340 840 305 875 305 925 L260 925 C260 850 315 795 390 795 L390 795 Z M665 0 L665 700 L625 700 L160 95 L160 700 L110 700 L110 0 L150 0 L615 605 L615 0 L665 0 Z " />
<glyph glyph-name="afii10028" unicode="&#x41a;" horiz-adv-x="655" d="M160 270 L160 700 L110 700 L110 0 L160 0 L160 200 L320 375 L580 0 L640 0 L350 410 L615 700 L550 700 L160 270 Z " />
<glyph glyph-name="afii10029" unicode="&#x41b;" horiz-adv-x="730" d="M620 700 L185 700 L185 490 C185 105 120 40 50 40 C25 40 -5 50 -5 50 L-5 2 C-5 2 25 -10 55 -10 C155 -10 235 70 235 490 L235 650 L570 650 L570 0 L620 0 L620 700 Z " />
<glyph glyph-name="afii10030" unicode="&#x41c;" horiz-adv-x="920" d="M460 205 L760 605 L760 0 L810 0 L810 700 L770 700 L460 290 L150 700 L110 700 L110 0 L160 0 L160 605 L460 205 Z " />
<glyph glyph-name="afii10031" unicode="&#x41d;" horiz-adv-x="745" d="M110 0 L160 0 L160 330 L585 330 L585 0 L635 0 L635 700 L585 700 L585 380 L160 380 L160 700 L110 700 L110 0 Z " />
<glyph glyph-name="afii10032" unicode="&#x41e;" horiz-adv-x="830" d="M720 350 C720 175 585 40 415 40 C245 40 110 175 110 350 C110 525 245 660 415 660 C585 660 720 525 720 350 L720 350 Z M770 350 C770 550 612 710 415 710 C220 710 60 550 60 350 C60 150 219 -10 415 -10 C612 -10 770 150 770 350 L770 350 Z " />
<glyph glyph-name="afii10033" unicode="&#x41f;" horiz-adv-x="745" d="M635 700 L110 700 L110 0 L160 0 L160 650 L585 650 L585 0 L635 0 L635 700 Z " />
<glyph glyph-name="afii10034" unicode="&#x420;" horiz-adv-x="640" d="M110 700 L110 0 L160 0 L160 270 L360 270 C490 270 585 365 585 485 C585 605 490 700 360 700 L110 700 Z M360 650 C465 650 535 580 535 485 C535 390 465 320 360 320 L160 320 L160 650 L360 650 Z " />
<glyph glyph-name="afii10035" unicode="&#x421;" horiz-adv-x="750" d="M60 350 C60 150 220 -10 415 -10 C605 -10 705 140 705 140 L670 170 C670 170 585 40 415 40 C245 40 110 175 110 350 C110 525 245 660 415 660 C584 660 665 530 665 530 L700 560 C700 560 605 710 415 710 C220 710 60 550 60 350 L60 350 Z " />
<glyph glyph-name="afii10036" unicode="&#x422;" horiz-adv-x="550" d="M20 700 L20 650 L250 650 L250 0 L300 0 L300 650 L530 650 L530 700 L20 700 Z " />
<glyph glyph-name="afii10037" unicode="&#x423;" horiz-adv-x="605" d="M320 260 L85 700 L30 700 L295 205 L265 145 C230 75 195 40 130 40 C100 40 75 50 75 50 L75 0 C75 0 100 -10 130 -10 C220 -10 270 40 320 145 L585 700 L530 700 L320 260 Z " />
<glyph glyph-name="afii10038" unicode="&#x424;" horiz-adv-x="840" d="M105 360 C105 485 210 590 395 595 L395 125 C210 130 105 235 105 360 L105 360 Z M445 75 C655 80 785 210 785 360 C785 510 655 640 445 645 L445 720 L395 720 L395 645 C185 640 55 510 55 360 C55 210 185 80 395 75 L395 -20 L445 -20 L445 75 Z M735 360 C735 235 630 130 445 125 L445 595 C630 590 735 485 735 360 L735 360 Z " />
<glyph glyph-name="afii10039" unicode="&#x425;" horiz-adv-x="630" d="M585 700 L525 700 L315 405 L105 700 L45 700 L285 365 L25 0 L85 0 L315 325 L545 0 L605 0 L345 365 L585 700 Z " />
<glyph glyph-name="afii10040" unicode="&#x426;" horiz-adv-x="750" d="M110 0 L665 0 L665 -150 L715 -150 L715 50 L625 50 L625 700 L575 700 L575 50 L160 50 L160 700 L110 700 L110 0 Z " />
<glyph glyph-name="afii10041" unicode="&#x427;" horiz-adv-x="700" d="M150 700 L100 700 L100 490 C100 345 195 250 340 250 C460 250 540 320 540 320 L540 0 L590 0 L590 700 L540 700 L540 380 C540 380 460 300 340 300 C220 300 150 370 150 490 L150 700 Z " />
<glyph glyph-name="afii10042" unicode="&#x428;" horiz-adv-x="1010" d="M110 0 L900 0 L900 700 L850 700 L850 50 L530 50 L530 700 L480 700 L480 50 L160 50 L160 700 L110 700 L110 0 Z " />
<glyph glyph-name="afii10043" unicode="&#x429;" horiz-adv-x="1025" d="M940 0 L940 -150 L990 -150 L990 50 L900 50 L900 700 L850 700 L850 50 L530 50 L530 700 L480 700 L480 50 L160 50 L160 700 L110 700 L110 0 L940 0 Z " />
<glyph glyph-name="afii10044" unicode="&#x42a;" horiz-adv-x="700" d="M415 0 C545 0 640 95 640 215 C640 335 545 430 415 430 L225 430 L225 700 L0 700 L0 650 L175 650 L175 0 L415 0 Z M225 50 L225 380 L415 380 C520 380 590 310 590 215 C590 120 520 50 415 50 L225 50 Z " />
<glyph glyph-name="afii10045" unicode="&#x42b;" horiz-adv-x="865" d="M755 0 L755 700 L705 700 L705 0 L755 0 Z M350 0 C480 0 575 95 575 215 C575 335 480 430 350 430 L160 430 L160 700 L110 700 L110 0 L350 0 Z M160 50 L160 380 L350 380 C455 380 525 310 525 215 C525 120 455 50 350 50 L160 50 Z " />
<glyph glyph-name="afii10046" unicode="&#x42c;" horiz-adv-x="645" d="M360 0 C490 0 585 95 585 215 C585 335 490 430 360 430 L160 430 L160 700 L110 700 L110 0 L360 0 Z M160 50 L160 380 L360 380 C465 380 535 310 535 215 C535 120 465 50 360 50 L160 50 Z " />
<glyph glyph-name="afii10047" unicode="&#x42d;" horiz-adv-x="745" d="M685 350 C685 550 525 710 330 710 C140 710 45 560 45 560 L80 530 C80 530 161 660 330 660 C495 660 620 535 635 380 L250 380 L250 330 L635 330 C625 170 495 40 330 40 C160 40 75 170 75 170 L40 140 C40 140 140 -10 330 -10 C525 -10 685 150 685 350 L685 350 Z " />
<glyph glyph-name="afii10048" unicode="&#x42e;" horiz-adv-x="1040" d="M160 700 L110 700 L110 0 L160 0 L160 330 L310 330 C320 140 470 -10 645 -10 C825 -10 980 145 980 350 C980 555 825 710 645 710 C470 710 320 560 310 380 L160 380 L160 700 Z M360 350 C360 530 490 660 645 660 C800 660 930 530 930 350 C930 170 800 40 645 40 C490 40 360 170 360 350 L360 350 Z " />
<glyph glyph-name="afii10049" unicode="&#x42f;" horiz-adv-x="660" d="M285 700 C160 700 70 610 70 495 C70 330 225 300 225 300 L55 0 L110 0 L275 290 L500 290 L500 0 L550 0 L550 700 L285 700 Z M500 650 L500 340 L285 340 C185 340 120 405 120 495 C120 585 185 650 285 650 L500 650 Z " />
<glyph glyph-name="afii10065" unicode="&#x430;" horiz-adv-x="500" d="M180 270 C90 256 35 200 35 125 C35 55 100 -10 195 -10 C315 -10 370 80 370 80 L370 0 L415 0 L415 300 C415 407 338 490 235 490 C127 490 65 405 65 405 L95 375 C95 375 147 445 235 445 C312 445 370 383 370 300 L180 270 Z M195 35 C125 35 80 80 80 125 C80 175 115 213 190 225 L370 255 L370 210 C370 110 295 35 195 35 L195 35 Z " />
<glyph glyph-name="afii10066" unicode="&#x431;" horiz-adv-x="570" d="M515 230 C515 365 410 470 290 470 C165 470 105 350 105 350 C110 520 200 610 305 630 C435 655 485 695 485 695 L460 730 C460 730 415 695 300 675 C160 650 55 545 55 300 C55 100 165 -10 290 -10 C410 -10 515 95 515 230 L515 230 Z M110 230 C110 340 195 425 290 425 C385 425 470 340 470 230 C470 120 385 35 290 35 C195 35 110 120 110 230 L110 230 Z " />
<glyph glyph-name="afii10067" unicode="&#x432;" horiz-adv-x="510" d="M85 480 L85 0 L305 0 C400 0 455 57 455 135 C455 235 375 255 375 255 C375 255 435 285 435 355 C435 425 380 480 295 480 L85 480 Z M305 230 C375 230 410 195 410 135 C410 80 375 45 305 45 L130 45 L130 230 L305 230 Z M390 355 C390 305 360 275 295 275 L130 275 L130 435 L295 435 C360 435 390 405 390 355 L390 355 Z " />
<glyph glyph-name="afii10068" unicode="&#x433;" horiz-adv-x="410" d="M390 480 L85 480 L85 0 L130 0 L130 435 L390 435 L390 480 Z " />
<glyph glyph-name="afii10069" unicode="&#x434;" horiz-adv-x="545" d="M510 45 L435 45 L435 480 L120 480 L120 340 C120 135 35 45 35 45 L-5 45 L-5 -120 L40 -120 L40 0 L465 0 L465 -120 L510 -120 L510 45 Z M165 435 L390 435 L390 45 L85 45 C85 45 165 145 165 340 L165 435 Z " />
<glyph glyph-name="afii10070" unicode="&#x435;" horiz-adv-x="550" d="M495 220 L495 240 C495 390 395 490 275 490 C155 490 45 380 45 240 C45 100 155 -10 280 -10 C405 -10 470 90 470 90 L440 119 C440 119 385 35 280 35 C180 35 95 120 90 220 L495 220 Z M275 445 C370 445 445 370 450 265 L90 265 C95 360 180 445 275 445 L275 445 Z " />
<glyph glyph-name="afii10072" unicode="&#x436;" horiz-adv-x="715" d="M375 160 L455 250 L460 250 L640 0 L695 0 L490 285 L670 480 L610 480 L375 225 L375 480 L330 480 L330 225 L95 480 L35 480 L215 285 L10 0 L65 0 L245 250 L250 250 L330 160 L330 0 L375 0 L375 160 Z " />
<glyph glyph-name="afii10073" unicode="&#x437;" horiz-adv-x="430" d="M355 360 C355 430 295 490 200 490 C100 490 40 420 40 420 L75 385 C75 385 120 445 200 445 C270 445 310 405 310 360 C310 310 270 270 200 270 L150 270 L150 225 L200 225 C285 225 330 180 330 130 C330 80 285 35 200 35 C110 35 60 105 60 105 L30 75 C30 75 85 -10 200 -10 C310 -10 375 55 375 130 C375 230 270 250 270 250 C270 250 355 270 355 360 L355 360 Z " />
<glyph glyph-name="afii10074" unicode="&#x438;" horiz-adv-x="585" d="M450 480 L130 80 L130 480 L85 480 L85 0 L125 0 L445 400 L445 0 L490 0 L490 480 L450 480 Z " />
<glyph glyph-name="afii10075" unicode="&#x439;" horiz-adv-x="585" d="M290 605 C235 605 200 640 200 695 L160 695 C160 620 215 565 290 565 C365 565 420 620 420 695 L380 695 C380 640 345 605 290 605 L290 605 Z M450 480 L130 80 L130 480 L85 480 L85 0 L125 0 L445 400 L445 0 L490 0 L490 480 L450 480 Z " />
<glyph glyph-name="afii10076" unicode="&#x43a;" horiz-adv-x="500" d="M130 130 L240 250 L245 250 L425 0 L480 0 L275 285 L455 480 L395 480 L130 195 L130 480 L85 480 L85 0 L130 0 L130 130 Z " />
<glyph glyph-name="afii10077" unicode="&#x43b;" horiz-adv-x="560" d="M130 480 L130 340 C130 80 85 35 35 35 C15 35 -5 43 -5 43 L-5 0 C-5 0 15 -10 40 -10 C115 -10 175 50 175 340 L175 435 L420 435 L420 0 L465 0 L465 480 L130 480 Z " />
<glyph glyph-name="afii10078" unicode="&#x43c;" horiz-adv-x="660" d="M325 140 L520 390 L520 0 L565 0 L565 480 L530 480 L325 215 L120 480 L85 480 L85 0 L130 0 L130 390 L325 140 Z " />
<glyph glyph-name="afii10079" unicode="&#x43d;" horiz-adv-x="580" d="M440 0 L485 0 L485 480 L440 480 L440 265 L130 265 L130 480 L85 480 L85 0 L130 0 L130 220 L440 220 L440 0 Z " />
<glyph glyph-name="afii10080" unicode="&#x43e;" horiz-adv-x="580" d="M45 240 C45 100 155 -10 285 -10 C415 -10 525 100 525 240 C525 380 415 490 285 490 C155 490 45 380 45 240 L45 240 Z M480 240 C480 125 390 35 285 35 C180 35 90 125 90 240 C90 355 180 445 285 445 C390 445 480 355 480 240 L480 240 Z " />
<glyph glyph-name="afii10081" unicode="&#x43f;" horiz-adv-x="580" d="M440 0 L485 0 L485 480 L85 480 L85 0 L130 0 L130 435 L440 435 L440 0 Z " />
<glyph glyph-name="afii10082" unicode="&#x440;" horiz-adv-x="595" d="M130 240 C130 355 220 445 315 445 C405 445 495 355 495 240 C495 125 405 35 315 35 C220 35 130 125 130 240 L130 240 Z M130 95 C130 95 190 -10 315 -10 C430 -10 540 100 540 240 C540 380 430 490 315 490 C190 490 130 385 130 385 L130 480 L85 480 L85 -210 L130 -210 L130 95 Z " />
<glyph glyph-name="afii10083" unicode="&#x441;" horiz-adv-x="515" d="M45 240 C45 100 155 -10 280 -10 C405 -10 470 90 470 90 L435 120 C435 120 385 35 280 35 C180 35 90 125 90 240 C90 355 180 445 280 445 C385 445 435 360 435 360 L470 390 C470 390 405 490 280 490 C155 490 45 380 45 240 L45 240 Z " />
<glyph glyph-name="afii10084" unicode="&#x442;" horiz-adv-x="435" d="M10 435 L190 435 L190 0 L235 0 L235 435 L415 435 L415 480 L10 480 L10 435 Z " />
<glyph glyph-name="afii10085" unicode="&#x443;" horiz-adv-x="480" d="M175 -90 C155 -140 130 -165 85 -165 C60 -165 40 -155 40 -155 L40 -200 C40 -200 60 -210 85 -210 C155 -210 191 -175 225 -90 L455 480 L405 480 L235 60 L65 480 L15 480 L210 0 L175 -90 Z " />
<glyph glyph-name="afii10086" unicode="&#x444;" horiz-adv-x="695" d="M90 240 C90 355 180 445 320 445 L320 35 C180 35 90 125 90 240 L90 240 Z M595 240 C595 125 505 35 365 35 L365 445 C505 445 595 355 595 240 L595 240 Z M365 -10 C530 -10 640 100 640 240 C640 380 530 490 365 490 L365 700 L320 700 L320 490 C155 490 45 380 45 240 C45 100 155 -10 320 -10 L320 -210 L365 -210 L365 -10 Z " />
<glyph glyph-name="afii10087" unicode="&#x445;" horiz-adv-x="460" d="M420 480 L365 480 L225 285 L85 480 L30 480 L195 250 L15 0 L70 0 L225 215 L380 0 L435 0 L255 250 L420 480 Z " />
<glyph glyph-name="afii10088" unicode="&#x446;" horiz-adv-x="590" d="M85 0 L510 0 L510 -120 L555 -120 L555 45 L475 45 L475 480 L430 480 L430 45 L130 45 L130 480 L85 480 L85 0 Z " />
<glyph glyph-name="afii10089" unicode="&#x447;" horiz-adv-x="545" d="M405 0 L450 0 L450 480 L405 480 L405 255 C405 255 345 210 255 210 C170 210 120 260 120 340 L120 480 L75 480 L75 340 C75 235 145 165 255 165 C345 165 405 205 405 205 L405 0 Z " />
<glyph glyph-name="afii10090" unicode="&#x448;" horiz-adv-x="785" d="M85 0 L690 0 L690 480 L645 480 L645 45 L410 45 L410 480 L365 480 L365 45 L130 45 L130 480 L85 480 L85 0 Z " />
<glyph glyph-name="afii10091" unicode="&#x449;" horiz-adv-x="805" d="M85 0 L725 0 L725 -120 L770 -120 L770 45 L690 45 L690 480 L645 480 L645 45 L410 45 L410 480 L365 480 L365 45 L130 45 L130 480 L85 480 L85 0 Z " />
<glyph glyph-name="afii10092" unicode="&#x44a;" horiz-adv-x="525" d="M475 155 C475 245 410 310 305 310 L175 310 L175 480 L-5 480 L-5 435 L130 435 L130 0 L305 0 C410 0 475 65 475 155 L475 155 Z M175 45 L175 265 L305 265 C385 265 430 220 430 155 C430 90 385 45 305 45 L175 45 Z " />
<glyph glyph-name="afii10093" unicode="&#x44b;" horiz-adv-x="680" d="M585 480 L540 480 L540 0 L585 0 L585 480 Z M130 45 L130 265 L260 265 C340 265 385 220 385 155 C385 90 340 45 260 45 L130 45 Z M430 155 C430 245 365 310 260 310 L130 310 L130 480 L85 480 L85 0 L260 0 C365 0 430 65 430 155 L430 155 Z " />
<glyph glyph-name="afii10094" unicode="&#x44c;" horiz-adv-x="490" d="M130 45 L130 265 L270 265 C350 265 395 220 395 155 C395 90 350 45 270 45 L130 45 Z M440 155 C440 245 375 310 270 310 L130 310 L130 480 L85 480 L85 0 L270 0 C375 0 440 65 440 155 L440 155 Z " />
<glyph glyph-name="afii10095" unicode="&#x44d;" horiz-adv-x="515" d="M460 240 C460 380 350 490 225 490 C100 490 35 390 35 390 L70 360 C70 360 120 445 225 445 C320 445 400 365 415 270 L160 270 L160 225 L415 225 C410 120 320 35 225 35 C120 35 70 120 70 120 L35 90 C35 90 100 -10 225 -10 C350 -10 460 100 460 240 L460 240 Z " />
<glyph glyph-name="afii10096" unicode="&#x44e;" horiz-adv-x="765" d="M705 240 C705 385 600 490 475 490 C355 490 255 390 245 265 L130 265 L130 480 L85 480 L85 0 L130 0 L130 220 L245 220 C255 90 355 -10 475 -10 C600 -10 705 95 705 240 L705 240 Z M290 240 C290 359 375 445 475 445 C575 445 660 360 660 240 C660 120 575 35 475 35 C375 35 290 120 290 240 L290 240 Z " />
<glyph glyph-name="afii10097" unicode="&#x44f;" horiz-adv-x="510" d="M50 330 C50 210 160 185 160 185 L45 0 L100 0 L200 175 L370 175 L370 0 L415 0 L415 480 L220 480 C115 480 50 415 50 330 L50 330 Z M370 435 L370 220 L220 220 C140 220 95 265 95 330 C95 390 140 435 220 435 L370 435 Z " />
<glyph glyph-name="afii10071" unicode="&#x451;" horiz-adv-x="550" d="M495 220 L495 240 C495 390 395 490 275 490 C155 490 45 380 45 240 C45 100 155 -10 280 -10 C405 -10 470 90 470 90 L440 119 C440 119 385 35 280 35 C180 35 95 120 90 220 L495 220 Z M275 445 C370 445 445 370 450 265 L90 265 C95 360 180 445 275 445 L275 445 Z M150 628 C150 608 165 593 185 593 C205 593 220 608 220 628 C220 648 205 663 185 663 C165 663 150 648 150 628 L150 628 Z M325 628 C325 608 340 593 360 593 C380 593 395 608 395 628 C395 648 380 663 360 663 C340 663 325 648 325 628 L325 628 Z " />
<glyph glyph-name="afii10099" unicode="&#x452;" horiz-adv-x="575" d="M145 700 L100 700 L100 600 L10 600 L10 555 L100 555 L100 0 L145 0 L145 215 C145 330 220 405 310 405 C405 405 470 340 470 225 C470 110 395 35 305 35 L305 -10 C420 -10 515 85 515 225 C515 365 430 450 310 450 C190 450 145 355 145 355 L145 555 L295 555 L295 600 L145 600 L145 700 Z " />
<glyph glyph-name="afii10100" unicode="&#x453;" horiz-adv-x="410" d="M215 565 L255 565 L345 695 L290 695 L215 565 Z M390 480 L85 480 L85 0 L130 0 L130 435 L390 435 L390 480 Z " />
<glyph glyph-name="afii10101" unicode="&#x454;" horiz-adv-x="515" d="M45 240 C45 100 155 -10 280 -10 C405 -10 470 90 470 90 L435 120 C435 120 385 35 280 35 C185 35 95 120 90 225 L345 225 L345 270 L90 270 C105 365 185 445 280 445 C385 445 435 360 435 360 L470 390 C470 390 405 490 280 490 C155 490 45 380 45 240 L45 240 Z " />
<glyph glyph-name="afii10102" unicode="&#x455;" horiz-adv-x="430" d="M360 420 C360 420 305 490 210 490 C120 490 55 425 55 360 C55 200 330 255 330 135 C330 80 285 35 205 35 C120 35 70 105 70 105 L35 70 C35 70 95 -10 205 -10 C310 -10 375 55 375 135 C375 300 100 245 100 360 C100 404 140 445 210 445 C285 445 325 385 325 385 L360 420 Z " />
<glyph glyph-name="afii10103" unicode="&#x456;" horiz-adv-x="225" d="M85 0 L130 0 L130 480 L85 480 L85 0 Z M75 650 C75 630 90 615 110 615 C130 615 145 630 145 650 C145 670 130 685 110 685 C90 685 75 670 75 650 L75 650 Z " />
<glyph glyph-name="afii10104" unicode="&#x457;" horiz-adv-x="245" d="M-5 630 C-5 610 10 595 30 595 C50 595 65 610 65 630 C65 650 50 665 30 665 C10 665 -5 650 -5 630 L-5 630 Z M170 630 C170 610 185 595 205 595 C225 595 240 610 240 630 C240 650 225 665 205 665 C185 665 170 650 170 630 L170 630 Z M94 0 L139 0 L139 480 L94 480 L94 0 Z " />
<glyph glyph-name="afii10105" unicode="&#x458;" horiz-adv-x="225" d="M85 -80 C85 -135 55 -165 10 -165 C-25 -165 -50 -150 -50 -150 L-50 -195 C-50 -195 -25 -210 10 -210 C80 -210 130 -160 130 -80 L130 480 L85 480 L85 -80 Z M75 650 C75 630 90 615 110 615 C130 615 145 630 145 650 C145 670 130 685 110 685 C90 685 75 670 75 650 L75 650 Z " />
<glyph glyph-name="afii10106" unicode="&#x459;" horiz-adv-x="795" d="M745 145 C745 230 685 290 575 290 L445 290 L445 480 L130 480 L130 340 C130 80 85 35 35 35 C15 35 -5 43 -5 43 L-5 0 C-5 0 15 -10 40 -10 C115 -10 175 50 175 340 L175 435 L400 435 L400 0 L575 0 C685 0 745 60 745 145 L745 145 Z M445 45 L445 245 L575 245 C660 245 700 205 700 145 C700 85 660 45 575 45 L445 45 Z " />
<glyph glyph-name="afii10107" unicode="&#x45a;" horiz-adv-x="805" d="M755 145 C755 230 695 290 585 290 L455 290 L455 480 L410 480 L410 290 L130 290 L130 480 L85 480 L85 0 L130 0 L130 245 L410 245 L410 0 L585 0 C695 0 755 60 755 145 L755 145 Z M455 45 L455 245 L585 245 C670 245 710 205 710 145 C710 85 670 45 585 45 L455 45 Z " />
<glyph glyph-name="afii10108" unicode="&#x45b;" horiz-adv-x="595" d="M145 700 L100 700 L100 600 L10 600 L10 555 L100 555 L100 0 L145 0 L145 230 C145 330 220 405 310 405 C395 405 460 340 460 245 L460 0 L505 0 L505 245 C505 365 420 450 310 450 C190 450 145 355 145 355 L145 555 L295 555 L295 600 L145 600 L145 700 Z " />
<glyph glyph-name="afii10109" unicode="&#x45c;" horiz-adv-x="500" d="M235 565 L275 565 L365 695 L310 695 L235 565 Z M130 130 L240 250 L245 250 L425 0 L480 0 L275 285 L455 480 L395 480 L130 195 L130 480 L85 480 L85 0 L130 0 L130 130 Z " />
<glyph glyph-name="afii10110" unicode="&#x45e;" horiz-adv-x="480" d="M175 -90 C155 -140 130 -165 85 -165 C60 -165 40 -155 40 -155 L40 -200 C40 -200 60 -210 85 -210 C155 -210 191 -175 225 -90 L455 480 L405 480 L235 60 L65 480 L15 480 L210 0 L175 -90 Z M235 605 C180 605 145 640 145 695 L105 695 C105 620 160 565 235 565 C310 565 365 620 365 695 L325 695 C325 640 290 605 235 605 L235 605 Z " />
<glyph glyph-name="afii10193" unicode="&#x45f;" horiz-adv-x="575" d="M85 0 L260 0 L260 -120 L305 -120 L305 0 L480 0 L480 480 L435 480 L435 45 L130 45 L130 480 L85 480 L85 0 Z " />
<glyph glyph-name="afii10050" unicode="&#x490;" horiz-adv-x="550" d="M485 700 L110 700 L110 0 L160 0 L160 650 L535 650 L535 840 L485 840 L485 700 Z " />
<glyph glyph-name="afii10098" unicode="&#x491;" horiz-adv-x="410" d="M85 0 L130 0 L130 435 L390 435 L390 600 L345 600 L345 480 L85 480 L85 0 Z " />
<glyph glyph-name="Wgrave" unicode="&#x1e80;" horiz-adv-x="1010" d="M505 620 L705 0 L755 0 L980 700 L925 700 L730 80 L530 700 L480 700 L280 80 L85 700 L30 700 L255 0 L305 0 L505 620 Z M495 915 L440 915 L530 785 L570 785 L495 915 Z " />
<glyph glyph-name="wgrave" unicode="&#x1e81;" horiz-adv-x="710" d="M330 480 L200 75 L65 480 L15 480 L175 0 L220 0 L350 405 L480 0 L525 0 L685 480 L635 480 L500 70 L370 480 L330 480 Z M345 695 L290 695 L380 565 L420 565 L345 695 Z " />
<glyph glyph-name="Wacute" unicode="&#x1e82;" horiz-adv-x="1010" d="M505 620 L705 0 L755 0 L980 700 L925 700 L730 80 L530 700 L480 700 L280 80 L85 700 L30 700 L255 0 L305 0 L505 620 Z M440 785 L480 785 L570 915 L515 915 L440 785 Z " />
<glyph glyph-name="wacute" unicode="&#x1e83;" horiz-adv-x="710" d="M330 480 L200 75 L65 480 L15 480 L175 0 L220 0 L350 405 L480 0 L525 0 L685 480 L635 480 L500 70 L370 480 L330 480 Z M290 565 L330 565 L420 695 L365 695 L290 565 Z " />
<glyph glyph-name="Wdieresis" unicode="&#x1e84;" horiz-adv-x="1010" d="M505 620 L705 0 L755 0 L980 700 L925 700 L730 80 L530 700 L480 700 L280 80 L85 700 L30 700 L255 0 L305 0 L505 620 Z M382 855 C382 835 397 820 417 820 C437 820 452 835 452 855 C452 875 437 890 417 890 C397 890 382 875 382 855 L382 855 Z M557 855 C557 835 572 820 592 820 C612 820 627 835 627 855 C627 875 612 890 592 890 C572 890 557 875 557 855 L557 855 Z " />
<glyph glyph-name="wdieresis" unicode="&#x1e85;" horiz-adv-x="710" d="M330 480 L200 75 L65 480 L15 480 L175 0 L220 0 L350 405 L480 0 L525 0 L685 480 L635 480 L500 70 L370 480 L330 480 Z M232 635 C232 615 247 600 267 600 C287 600 302 615 302 635 C302 655 287 670 267 670 C247 670 232 655 232 635 L232 635 Z M407 635 C407 615 422 600 442 600 C462 600 477 615 477 635 C477 655 462 670 442 670 C422 670 407 655 407 635 L407 635 Z " />
<glyph glyph-name="uni1E9E" unicode="&#x1e9e;" horiz-adv-x="650" d="M545 650 L545 700 L310 700 C195 700 110 615 110 490 L110 0 L160 0 L160 490 C160 595 215 650 310 650 L495 650 L315 415 L315 365 L365 365 C467 365 535 292 535 205 C535 115 470 50 360 50 L315 50 L315 0 L360 0 C495 0 585 90 585 205 C585 336 474 415 365 415 L545 650 Z " />
<glyph glyph-name="endash" unicode="&#x2013;" horiz-adv-x="465" d="M425 315 L40 315 L40 270 L425 270 L425 315 Z " />
<glyph glyph-name="emdash" unicode="&#x2014;" horiz-adv-x="705" d="M665 315 L40 315 L40 270 L665 270 L665 315 Z " />
<glyph glyph-name="quoteleft" unicode="&#x2018;" horiz-adv-x="195" d="M80 525 L165 705 L135 720 L30 555 L80 525 Z " />
<glyph glyph-name="quoteright" unicode="&#x2019;" horiz-adv-x="195" d="M115 720 L30 540 L60 525 L165 690 L115 720 Z " />
<glyph glyph-name="quotesinglbase" unicode="&#x201a;" horiz-adv-x="195" d="M85 70 L0 -110 L30 -125 L135 40 L85 70 Z " />
<glyph glyph-name="quotedblleft" unicode="&#x201c;" horiz-adv-x="335" d="M80 525 L165 705 L135 720 L30 555 L80 525 Z M220 525 L305 705 L275 720 L170 555 L220 525 Z " />
<glyph glyph-name="quotedblright" unicode="&#x201d;" horiz-adv-x="335" d="M255 720 L170 540 L200 525 L305 690 L255 720 Z M115 720 L30 540 L60 525 L165 690 L115 720 Z " />
<glyph glyph-name="quotedblbase" unicode="&#x201e;" horiz-adv-x="335" d="M85 70 L0 -110 L30 -125 L135 40 L85 70 Z M225 70 L140 -110 L170 -125 L275 40 L225 70 Z " />
<glyph glyph-name="dagger" unicode="&#x2020;" horiz-adv-x="415" d="M185 560 L60 560 L60 515 L185 515 L185 200 L230 200 L230 515 L355 515 L355 560 L230 560 L230 700 L185 700 L185 560 Z " />
<glyph glyph-name="daggerdbl" unicode="&#x2021;" horiz-adv-x="415" d="M185 560 L60 560 L60 515 L185 515 L185 385 L60 385 L60 340 L185 340 L185 200 L230 200 L230 340 L355 340 L355 385 L230 385 L230 515 L355 515 L355 560 L230 560 L230 700 L185 700 L185 560 Z " />
<glyph glyph-name="bullet" unicode="&#x2022;" horiz-adv-x="380" d="M110 240 C110 195 145 160 190 160 C235 160 270 194 270 240 C270 285 235 320 190 320 C145 320 110 285 110 240 L110 240 Z " />
<glyph glyph-name="ellipsis" unicode="&#x2026;" horiz-adv-x="620" d="M275 30 C275 10 290 -5 310 -5 C330 -5 345 10 345 30 C345 50 330 65 310 65 C290 65 275 50 275 30 L275 30 Z M485 30 C485 10 500 -5 520 -5 C540 -5 555 10 555 30 C555 50 540 65 520 65 C500 65 485 50 485 30 L485 30 Z M65 30 C65 10 80 -5 100 -5 C120 -5 135 10 135 30 C135 50 120 65 100 65 C80 65 65 50 65 30 L65 30 Z " />
<glyph glyph-name="perthousand" unicode="&#x2030;" horiz-adv-x="1110" d="M135 0 L185 0 L625 700 L575 700 L135 0 Z M90 555 C90 620 135 665 195 665 C255 665 300 620 300 555 C300 490 255 445 195 445 C135 445 90 490 90 555 L90 555 Z M345 555 C345 645 280 710 195 710 C110 710 45 645 45 555 C45 465 110 400 195 400 C280 400 345 465 345 555 L345 555 Z M460 145 C460 210 505 255 565 255 C625 255 670 210 670 145 C670 80 625 35 565 35 C505 35 460 80 460 145 L460 145 Z M715 145 C715 235 650 300 565 300 C480 300 415 235 415 145 C415 55 480 -10 565 -10 C650 -10 715 55 715 145 L715 145 Z M810 145 C810 210 855 255 915 255 C975 255 1020 210 1020 145 C1020 80 975 35 915 35 C855 35 810 80 810 145 L810 145 Z M1065 145 C1065 235 1000 300 915 300 C830 300 765 235 765 145 C765 55 830 -10 915 -10 C1000 -10 1065 55 1065 145 L1065 145 Z " />
<glyph glyph-name="guilsinglleft" unicode="&#x2039;" horiz-adv-x="270" d="M220 400 L165 400 L50 240 L165 80 L220 80 L105 240 L220 400 Z " />
<glyph glyph-name="guilsinglright" unicode="&#x203a;" horiz-adv-x="270" d="M165 240 L50 80 L105 80 L220 240 L105 400 L50 400 L165 240 Z " />
<glyph glyph-name="fraction" unicode="&#x2044;" horiz-adv-x="240" d="M-120 0 L-75 0 L360 700 L315 700 L-120 0 Z " />
<glyph glyph-name="zerosuperior" unicode="&#x2070;" horiz-adv-x="350" d="M75 625 C75 715 125 765 175 765 C225 765 275 715 275 625 C275 535 225 485 175 485 C125 485 75 535 75 625 L75 625 Z M315 625 C315 740 250 805 175 805 C100 805 35 740 35 625 C35 510 100 445 175 445 C250 445 315 510 315 625 L315 625 Z " />
<glyph glyph-name="foursuperior" unicode="&#x2074;" horiz-adv-x="300" d="M230 575 L230 800 L180 800 L20 575 L20 535 L190 535 L190 450 L230 450 L230 535 L275 535 L275 575 L230 575 Z M190 575 L65 575 L190 750 L190 575 Z " />
<glyph glyph-name="fivesuperior" unicode="&#x2075;" horiz-adv-x="280" d="M140 670 C100 670 75 650 75 650 L85 760 L240 760 L240 800 L50 800 L35 605 L70 605 C70 605 90 630 140 630 C190 630 220 600 220 555 C220 515 190 485 135 485 C70 485 40 530 40 530 L10 500 C10 500 50 445 135 445 C210 445 260 495 260 555 C260 620 210 670 140 670 L140 670 Z " />
<glyph glyph-name="sixsuperior" unicode="&#x2076;" horiz-adv-x="290" d="M145 685 C130 685 115 680 115 680 L195 800 L150 800 L50 650 C50 650 20 610 20 565 C20 500 75 445 145 445 C215 445 270 500 270 565 C270 630 215 685 145 685 L145 685 Z M230 565 C230 520 195 485 145 485 C95 485 60 520 60 565 C60 610 95 645 145 645 C195 645 230 610 230 565 L230 565 Z " />
<glyph glyph-name="sevensuperior" unicode="&#x2077;" horiz-adv-x="265" d="M20 800 L20 760 L205 760 L70 450 L110 450 L245 760 L245 800 L20 800 Z " />
<glyph glyph-name="eightsuperior" unicode="&#x2078;" horiz-adv-x="270" d="M135 485 C90 485 60 515 60 550 C60 585 90 615 135 615 C180 615 210 585 210 550 C210 515 180 485 135 485 L135 485 Z M135 655 C95 655 70 680 70 710 C70 740 95 765 135 765 C175 765 200 740 200 710 C200 680 175 655 135 655 L135 655 Z M135 445 C200 445 250 495 250 550 C250 615 190 635 190 635 C190 635 240 655 240 710 C240 760 195 805 135 805 C75 805 30 760 30 710 C30 656 80 635 80 635 C80 635 20 615 20 550 C20 495 70 445 135 445 L135 445 Z " />
<glyph glyph-name="ninesuperior" unicode="&#x2079;" horiz-adv-x="290" d="M145 565 C160 565 175 570 175 570 L95 450 L140 450 L240 600 C240 600 270 640 270 685 C270 750 215 805 145 805 C75 805 20 750 20 685 C20 620 75 565 145 565 L145 565 Z M60 685 C60 730 95 765 145 765 C195 765 230 730 230 685 C230 640 195 605 145 605 C95 605 60 640 60 685 L60 685 Z " />
<glyph glyph-name="zeroinferior" unicode="&#x2080;" horiz-adv-x="350" d="M75 75 C75 165 125 215 175 215 C225 215 275 165 275 75 C275 -15 225 -65 175 -65 C125 -65 75 -15 75 75 L75 75 Z M315 75 C315 190 250 255 175 255 C100 255 35 190 35 75 C35 -40 100 -105 175 -105 C250 -105 315 -40 315 75 L315 75 Z " />
<glyph glyph-name="oneinferior" unicode="&#x2081;" horiz-adv-x="200" d="M105 250 C105 250 80 195 30 195 L30 160 C80 160 100 190 100 190 L100 -100 L140 -100 L140 250 L105 250 Z " />
<glyph glyph-name="twoinferior" unicode="&#x2082;" horiz-adv-x="285" d="M255 -100 L255 -60 L68 -60 C100 30 255 40 255 154 C255 205 215 255 145 255 C55 255 30 170 30 170 L65 155 C65 155 85 215 145 215 C185 215 215 185 215 154 C215 65 25 50 25 -100 L255 -100 Z " />
<glyph glyph-name="threeinferior" unicode="&#x2083;" horiz-adv-x="295" d="M205 85 C205 85 250 100 250 160 C250 210 205 255 140 255 C68 255 30 200 30 200 L60 170 C60 170 86 215 140 215 C185 215 210 190 210 160 C210 125 190 105 145 105 L100 105 L100 65 L147 65 C197 65 225 37 225 0 C225 -38 195 -65 145 -65 C85 -65 50 -15 50 -15 L20 -45 C20 -45 65 -105 145 -105 C215 -105 265 -57 265 0 C265 75 205 85 205 85 L205 85 Z " />
<glyph glyph-name="fourinferior" unicode="&#x2084;" horiz-adv-x="300" d="M230 25 L230 250 L180 250 L20 25 L20 -15 L190 -15 L190 -100 L230 -100 L230 -15 L275 -15 L275 25 L230 25 Z M190 25 L65 25 L190 200 L190 25 Z " />
<glyph glyph-name="fiveinferior" unicode="&#x2085;" horiz-adv-x="280" d="M140 120 C100 120 75 100 75 100 L85 210 L240 210 L240 250 L50 250 L35 55 L70 55 C70 55 90 80 140 80 C190 80 220 50 220 5 C220 -35 190 -65 135 -65 C70 -65 40 -20 40 -20 L10 -50 C10 -50 50 -105 135 -105 C210 -105 260 -55 260 5 C260 70 210 120 140 120 L140 120 Z " />
<glyph glyph-name="sixinferior" unicode="&#x2086;" horiz-adv-x="290" d="M145 135 C130 135 115 130 115 130 L195 250 L150 250 L50 100 C50 100 20 60 20 15 C20 -50 75 -105 145 -105 C215 -105 270 -50 270 15 C270 80 215 135 145 135 L145 135 Z M230 15 C230 -30 195 -65 145 -65 C95 -65 60 -30 60 15 C60 60 95 95 145 95 C195 95 230 60 230 15 L230 15 Z " />
<glyph glyph-name="seveninferior" unicode="&#x2087;" horiz-adv-x="265" d="M20 250 L20 210 L205 210 L70 -100 L110 -100 L245 210 L245 250 L20 250 Z " />
<glyph glyph-name="eightinferior" unicode="&#x2088;" horiz-adv-x="270" d="M135 -65 C90 -65 60 -35 60 0 C60 35 90 65 135 65 C180 65 210 35 210 0 C210 -35 180 -65 135 -65 L135 -65 Z M135 105 C95 105 70 130 70 160 C70 190 95 215 135 215 C175 215 200 190 200 160 C200 130 175 105 135 105 L135 105 Z M135 -105 C200 -105 250 -55 250 0 C250 65 190 85 190 85 C190 85 240 105 240 160 C240 210 195 255 135 255 C75 255 30 210 30 160 C30 106 80 85 80 85 C80 85 20 65 20 0 C20 -55 70 -105 135 -105 L135 -105 Z " />
<glyph glyph-name="nineinferior" unicode="&#x2089;" horiz-adv-x="290" d="M145 15 C160 15 175 20 175 20 L95 -100 L140 -100 L240 50 C240 50 270 90 270 135 C270 200 215 255 145 255 C75 255 20 200 20 135 C20 70 75 15 145 15 L145 15 Z M60 135 C60 180 95 215 145 215 C195 215 230 180 230 135 C230 90 195 55 145 55 C95 55 60 90 60 135 L60 135 Z " />
<glyph glyph-name="Euro" unicode="&#x20ac;" horiz-adv-x="740" d="M195 455 C210 545 325 660 455 660 C580 660 660 565 660 565 L695 600 C695 600 605 710 455 710 C300 710 170 580 140 455 L40 455 L40 410 L135 410 C135 410 130 380 130 350 C130 320 135 290 135 290 L40 290 L40 245 L140 245 C170 120 300 -10 455 -10 C605 -10 695 100 695 100 L660 135 C660 135 580 40 455 40 C325 40 210 155 195 245 L445 245 L445 290 L185 290 C185 290 180 320 180 350 C180 380 185 410 185 410 L445 410 L445 455 L195 455 Z " />
<glyph glyph-name="uni20B4" unicode="&#x20b4;" horiz-adv-x="630" d="M70 405 L560 405 L560 455 L505 455 C505 455 520 480 520 525 C520 625 435 710 300 710 C170 710 100 625 100 625 L135 590 C135 590 190 660 300 660 C410 660 470 600 470 525 C470 480 440 455 440 455 L70 455 L70 405 Z M560 295 L70 295 L70 245 L125 245 C125 245 110 220 110 175 C110 75 195 -10 330 -10 C460 -10 530 75 530 75 L495 110 C495 110 440 40 330 40 C220 40 160 100 160 175 C160 220 190 245 190 245 L560 245 L560 295 Z " />
<glyph glyph-name="uni20BD" unicode="&#x20bd;" horiz-adv-x="660" d="M50 290 L135 290 L135 190 L50 190 L50 140 L135 140 L135 0 L185 0 L185 140 L444 140 L444 190 L185 190 L185 290 L385 290 C510 290 600 380 600 495 C600 610 510 700 385 700 L135 700 L135 340 L50 340 L50 290 Z M385 650 C485 650 550 585 550 495 C550 405 485 340 385 340 L185 340 L185 650 L385 650 Z " />
<glyph glyph-name="afii61352" unicode="&#x2116;" horiz-adv-x="1110" d="M770 0 L1050 0 L1050 45 L770 45 L770 0 Z M605 700 L605 95 L150 700 L110 700 L110 0 L160 0 L160 605 L615 0 L655 0 L655 700 L605 700 Z M805 325 C805 390 850 435 910 435 C970 435 1015 390 1015 325 C1015 260 970 215 910 215 C850 215 805 260 805 325 L805 325 Z M1060 325 C1060 415 995 480 910 480 C825 480 760 415 760 325 C760 235 825 170 910 170 C995 170 1060 235 1060 325 L1060 325 Z " />
<glyph glyph-name="trademark" unicode="&#x2122;" horiz-adv-x="670" d="M455 475 L560 620 L560 400 L605 400 L605 700 L565 700 L455 550 L345 700 L305 700 L305 400 L350 400 L350 620 L455 475 Z M15 660 L110 660 L110 400 L155 400 L155 660 L250 660 L250 700 L15 700 L15 660 Z " />
<glyph glyph-name="arrowleft" unicode="&#x2190;" horiz-adv-x="1000" d="M875 305 L875 355 L220 355 L395 530 L360 565 L125 330 L360 95 L395 130 L220 305 L875 305 Z " />
<glyph glyph-name="arrowup" unicode="&#x2191;" horiz-adv-x="1000" d="M525 630 L700 455 L735 490 L500 725 L265 490 L300 455 L475 630 L475 -25 L525 -25 L525 630 Z " />
<glyph glyph-name="arrowright" unicode="&#x2192;" horiz-adv-x="1000" d="M780 305 L605 130 L640 95 L875 330 L640 565 L605 530 L780 355 L125 355 L125 305 L780 305 Z " />
<glyph glyph-name="arrowdown" unicode="&#x2193;" horiz-adv-x="1000" d="M525 725 L475 725 L475 70 L300 245 L265 210 L500 -25 L735 210 L700 245 L525 70 L525 725 Z " />
<glyph glyph-name="arrowboth" unicode="&#x2194;" horiz-adv-x="1000" d="M780 305 L605 130 L640 95 L875 330 L640 565 L605 530 L780 355 L220 355 L395 530 L360 565 L125 330 L360 95 L395 130 L220 305 L780 305 Z " />
<glyph glyph-name="arrowupdn" unicode="&#x2195;" horiz-adv-x="1000" d="M525 630 L700 455 L735 490 L500 725 L265 490 L300 455 L475 630 L475 70 L300 245 L265 210 L500 -25 L735 210 L700 245 L525 70 L525 630 Z " />
<glyph glyph-name="uni2196" unicode="&#x2196;" horiz-adv-x="1000" d="M310 555 L555 555 L555 605 L225 605 L225 275 L275 275 L275 520 L740 55 L775 90 L310 555 Z " />
<glyph glyph-name="uni2197" unicode="&#x2197;" horiz-adv-x="1000" d="M225 90 L260 55 L725 520 L725 275 L775 275 L775 605 L445 605 L445 555 L690 555 L225 90 Z " />
<glyph glyph-name="uni2198" unicode="&#x2198;" horiz-adv-x="1000" d="M690 105 L445 105 L445 55 L775 55 L775 385 L725 385 L725 140 L260 605 L225 570 L690 105 Z " />
<glyph glyph-name="uni2199" unicode="&#x2199;" horiz-adv-x="1000" d="M775 570 L740 605 L275 140 L275 385 L225 385 L225 55 L555 55 L555 105 L310 105 L775 570 Z " />
<glyph glyph-name="minus" unicode="&#x2212;" horiz-adv-x="505" d="M460 315 L45 315 L45 270 L460 270 L460 315 Z " />
<glyph glyph-name="approxequal" unicode="&#x2248;" horiz-adv-x="540" d="M175 395 C255 395 265 325 365 325 C450 325 495 405 495 405 L460 430 C460 430 430 365 365 365 C285 365 275 435 175 435 C90 435 45 355 45 355 L80 330 C80 330 110 395 175 395 L175 395 Z M175 225 C255 225 265 155 365 155 C450 155 495 235 495 235 L460 260 C460 260 430 195 365 195 C285 195 275 265 175 265 C90 265 45 185 45 185 L80 160 C80 160 110 225 175 225 L175 225 Z " />
<glyph glyph-name="notequal" unicode="&#x2260;" horiz-adv-x="495" d="M50 360 L255 360 L190 230 L50 230 L50 185 L165 185 L110 70 L160 70 L215 185 L445 185 L445 230 L240 230 L305 360 L445 360 L445 405 L325 405 L385 520 L335 520 L275 405 L50 405 L50 360 Z " />
<glyph glyph-name="lessequal" unicode="&#x2264;" horiz-adv-x="490" d="M50 335 L440 150 L440 200 L110 350 L440 500 L440 550 L50 365 L50 335 Z M50 25 L440 25 L440 70 L50 70 L50 25 Z " />
<glyph glyph-name="greaterequal" unicode="&#x2265;" horiz-adv-x="490" d="M440 365 L50 550 L50 500 L380 350 L50 200 L50 150 L440 335 L440 365 Z M440 70 L50 70 L50 25 L440 25 L440 70 Z " />
<glyph glyph-name="uni2460" unicode="&#x2460;" horiz-adv-x="1000" d="M500 790 C255 790 60 595 60 350 C60 105 255 -90 500 -90 C745 -90 940 106 940 350 C940 595 745 790 500 790 L500 790 Z M500 740 C715 740 890 565 890 350 C890 133 715 -40 500 -40 C285 -40 110 135 110 350 C110 565 285 740 500 740 L500 740 Z M505 560 C505 560 470 475 380 465 L380 420 C470 430 500 480 500 480 L500 140 L550 140 L550 560 L505 560 Z " />
<glyph glyph-name="uni2461" unicode="&#x2461;" horiz-adv-x="1000" d="M635 140 L635 190 L415 190 C445 290 635 310 635 445 C635 510 580 565 500 565 C385 565 355 470 355 470 L400 450 C400 450 420 515 500 515 C555 515 585 485 585 445 C585 335 355 305 355 140 L635 140 Z M500 790 C255 790 60 595 60 350 C60 105 255 -90 500 -90 C745 -90 940 106 940 350 C940 595 745 790 500 790 L500 790 Z M500 740 C715 740 890 565 890 350 C890 133 715 -40 500 -40 C285 -40 110 135 110 350 C110 565 285 740 500 740 L500 740 Z " />
<glyph glyph-name="uni2462" unicode="&#x2462;" horiz-adv-x="1000" d="M630 450 C630 510 575 565 495 565 C415 565 370 510 370 510 L405 475 C405 475 435 515 495 515 C550 515 580 485 580 450 C580 410 550 380 490 380 L450 380 L450 330 L490 330 C560 330 590 300 590 255 C590 215 560 185 500 185 C425 185 395 236 395 236 L360 200 C360 200 405 135 500 135 C585 135 640 190 640 255 C640 335 565 355 565 355 C565 355 630 375 630 450 L630 450 Z M500 790 C255 790 60 595 60 350 C60 105 255 -90 500 -90 C745 -90 940 106 940 350 C940 595 745 790 500 790 L500 790 Z M500 740 C715 740 890 565 890 350 C890 133 715 -40 500 -40 C285 -40 110 135 110 350 C110 565 285 740 500 740 L500 740 Z " />
<glyph glyph-name="uni2463" unicode="&#x2463;" horiz-adv-x="1000" d="M580 280 L580 560 L530 560 L325 280 L325 230 L530 230 L530 140 L580 140 L580 230 L635 230 L635 280 L580 280 Z M530 280 L375 280 L530 490 L530 280 Z M500 790 C255 790 60 595 60 350 C60 105 255 -90 500 -90 C745 -90 940 106 940 350 C940 595 745 790 500 790 L500 790 Z M500 740 C715 740 890 565 890 350 C890 133 715 -40 500 -40 C285 -40 110 135 110 350 C110 565 285 740 500 740 L500 740 Z " />
<glyph glyph-name="uni2464" unicode="&#x2464;" horiz-adv-x="1000" d="M505 410 C455 410 430 387 430 387 L437 515 L617 515 L617 560 L392 560 L377 332 L412 327 C412 327 440 365 500 365 C557 365 592 330 592 272 C592 215 557 180 496 180 C430 180 392 230 392 230 L360 200 C360 200 405 135 496 135 C585 135 642 192 642 272 C642 352 585 410 505 410 L505 410 Z M500 790 C255 790 60 595 60 350 C60 105 255 -90 500 -90 C745 -90 940 106 940 350 C940 595 745 790 500 790 L500 790 Z M500 740 C715 740 890 565 890 350 C890 133 715 -40 500 -40 C285 -40 110 135 110 350 C110 565 285 740 500 740 L500 740 Z " />
<glyph glyph-name="uni2465" unicode="&#x2465;" horiz-adv-x="1000" d="M500 415 C480 415 470 410 470 410 L565 560 L510 560 L380 365 C380 365 350 325 350 275 C350 200 415 135 500 135 C585 135 650 200 650 275 C650 350 585 415 500 415 L500 415 Z M600 275 C600 225 560 185 500 185 C440 185 400 225 400 275 C400 331 441 365 500 365 C560 365 600 325 600 275 L600 275 Z M500 790 C255 790 60 595 60 350 C60 105 255 -90 500 -90 C745 -90 940 106 940 350 C940 595 745 790 500 790 L500 790 Z M500 740 C715 740 890 565 890 350 C890 133 715 -40 500 -40 C285 -40 110 135 110 350 C110 565 285 740 500 740 L500 740 Z " />
<glyph glyph-name="uni2466" unicode="&#x2466;" horiz-adv-x="1000" d="M375 560 L375 510 L595 510 L410 140 L460 140 L645 515 L645 560 L375 560 Z M500 790 C255 790 60 595 60 350 C60 105 255 -90 500 -90 C745 -90 940 106 940 350 C940 595 745 790 500 790 L500 790 Z M500 740 C715 740 890 565 890 350 C890 133 715 -40 500 -40 C285 -40 110 135 110 350 C110 565 285 740 500 740 L500 740 Z " />
<glyph glyph-name="uni2467" unicode="&#x2467;" horiz-adv-x="1000" d="M500 385 C450 385 420 415 420 450 C420 485 450 515 500 515 C550 515 580 485 580 450 C580 415 550 385 500 385 L500 385 Z M500 184 C440 184 405 220 405 260 C405 300 440 335 500 335 C560 335 595 300 595 260 C595 220 560 184 500 184 L500 184 Z M500 790 C255 790 60 595 60 350 C60 105 255 -90 500 -90 C745 -90 940 106 940 350 C940 595 745 790 500 790 L500 790 Z M500 740 C715 740 890 565 890 350 C890 133 715 -40 500 -40 C285 -40 110 135 110 350 C110 565 285 740 500 740 L500 740 Z M500 135 C590 135 645 190 645 260 C645 340 570 365 570 365 C570 365 630 385 630 455 C630 512 578 565 500 565 C422 565 370 512 370 455 C370 385 430 365 430 365 C430 365 355 340 355 260 C355 190 410 135 500 135 L500 135 Z " />
<glyph glyph-name="uni2468" unicode="&#x2468;" horiz-adv-x="1000" d="M500 285 C520 285 530 290 530 290 L435 140 L490 140 L620 335 C620 335 650 375 650 425 C650 500 585 565 500 565 C415 565 350 500 350 425 C350 350 415 285 500 285 L500 285 Z M400 425 C400 475 440 515 500 515 C560 515 600 475 600 425 C600 369 559 335 500 335 C440 335 400 375 400 425 L400 425 Z M500 -90 C745 -90 940 105 940 350 C940 595 745 790 500 790 C255 790 60 594 60 350 C60 105 255 -90 500 -90 L500 -90 Z M500 -40 C285 -40 110 135 110 350 C110 567 285 740 500 740 C715 740 890 565 890 350 C890 135 715 -40 500 -40 L500 -40 Z " />
<glyph glyph-name="uni24EA" unicode="&#x24ea;" horiz-adv-x="1000" d="M385 350 C385 460 445 520 500 520 C555 520 615 460 615 350 C615 240 555 180 500 180 C445 180 385 240 385 350 L385 350 Z M665 350 C665 485 585 565 500 565 C415 565 335 485 335 350 C335 215 415 135 500 135 C585 135 665 215 665 350 L665 350 Z M500 790 C255 790 60 595 60 350 C60 105 255 -90 500 -90 C745 -90 940 106 940 350 C940 595 745 790 500 790 L500 790 Z M500 740 C715 740 890 565 890 350 C890 133 715 -40 500 -40 C285 -40 110 135 110 350 C110 565 285 740 500 740 L500 740 Z " />
<glyph glyph-name="uni24FF" unicode="&#x24ff;" horiz-adv-x="1000" d="M385 350 C385 240 445 180 500 180 C555 180 615 240 615 350 C615 460 555 520 500 520 C445 520 385 460 385 350 L385 350 Z M665 350 C665 215 585 135 500 135 C415 135 335 215 335 350 C335 485 415 565 500 565 C585 565 665 485 665 350 L665 350 Z M500 790 C255 790 60 595 60 350 C60 105 255 -90 500 -90 C745 -90 940 106 940 350 C940 595 745 790 500 790 L500 790 Z " />
<glyph glyph-name="uni2776" unicode="&#x2776;" horiz-adv-x="1000" d="M500 790 C255 790 60 595 60 350 C60 105 255 -90 500 -90 C745 -90 940 106 940 350 C940 595 745 790 500 790 L500 790 Z M550 560 L550 140 L500 140 L500 480 C500 480 470 430 380 420 L380 465 C470 475 505 560 505 560 L550 560 Z " />
<glyph glyph-name="uni2777" unicode="&#x2777;" horiz-adv-x="1000" d="M355 140 C355 305 585 335 585 445 C585 485 555 515 500 515 C420 515 400 450 400 450 L355 470 C355 470 385 565 500 565 C580 565 635 510 635 445 C635 310 445 290 415 190 L635 190 L635 140 L355 140 Z M500 790 C255 790 60 595 60 350 C60 105 255 -90 500 -90 C745 -90 940 106 940 350 C940 595 745 790 500 790 L500 790 Z " />
<glyph glyph-name="uni2778" unicode="&#x2778;" horiz-adv-x="1000" d="M500 790 C255 790 60 595 60 350 C60 105 255 -90 500 -90 C745 -90 940 106 940 350 C940 595 745 790 500 790 L500 790 Z M630 450 C630 375 565 355 565 355 C565 355 640 335 640 255 C640 190 585 135 500 135 C405 135 360 200 360 200 L395 236 C395 236 425 185 500 185 C560 185 590 215 590 255 C590 300 560 330 490 330 L450 330 L450 380 L490 380 C550 380 580 410 580 450 C580 485 550 515 495 515 C435 515 405 475 405 475 L370 510 C370 510 415 565 495 565 C575 565 630 510 630 450 L630 450 Z " />
<glyph glyph-name="uni2779" unicode="&#x2779;" horiz-adv-x="1000" d="M635 280 L635 230 L580 230 L580 140 L530 140 L530 230 L325 230 L325 280 L530 560 L580 560 L580 280 L635 280 Z M530 490 L375 280 L530 280 L530 490 Z M500 790 C255 790 60 595 60 350 C60 105 255 -90 500 -90 C745 -90 940 106 940 350 C940 595 745 790 500 790 L500 790 Z " />
<glyph glyph-name="uni277A" unicode="&#x277a;" horiz-adv-x="1000" d="M505 410 C585 410 642 352 642 272 C642 192 585 135 496 135 C405 135 360 200 360 200 L392 230 C392 230 430 180 496 180 C557 180 592 215 592 272 C592 330 557 365 500 365 C440 365 412 327 412 327 L377 332 L392 560 L617 560 L617 515 L437 515 L430 387 C430 387 455 410 505 410 L505 410 Z M500 790 C255 790 60 595 60 350 C60 105 255 -90 500 -90 C745 -90 940 106 940 350 C940 595 745 790 500 790 L500 790 Z " />
<glyph glyph-name="uni277B" unicode="&#x277b;" horiz-adv-x="1000" d="M500 415 C585 415 650 350 650 275 C650 200 585 135 500 135 C415 135 350 200 350 275 C350 325 380 365 380 365 L510 560 L565 560 L470 410 C470 410 480 415 500 415 L500 415 Z M600 275 C600 325 560 365 500 365 C441 365 400 331 400 275 C400 225 440 185 500 185 C560 185 600 225 600 275 L600 275 Z M500 790 C255 790 60 595 60 350 C60 105 255 -90 500 -90 C745 -90 940 106 940 350 C940 595 745 790 500 790 L500 790 Z " />
<glyph glyph-name="uni277C" unicode="&#x277c;" horiz-adv-x="1000" d="M645 560 L645 515 L460 140 L410 140 L595 510 L375 510 L375 560 L645 560 Z M500 790 C255 790 60 595 60 350 C60 105 255 -90 500 -90 C745 -90 940 106 940 350 C940 595 745 790 500 790 L500 790 Z " />
<glyph glyph-name="uni277D" unicode="&#x277d;" horiz-adv-x="1000" d="M500 385 C550 385 580 415 580 450 C580 485 550 515 500 515 C450 515 420 485 420 450 C420 415 450 385 500 385 L500 385 Z M500 184 C560 184 595 220 595 260 C595 300 560 335 500 335 C440 335 405 300 405 260 C405 220 440 184 500 184 L500 184 Z M500 790 C255 790 60 595 60 350 C60 105 255 -90 500 -90 C745 -90 940 106 940 350 C940 595 745 790 500 790 L500 790 Z M500 135 C410 135 355 190 355 260 C355 340 430 365 430 365 C430 365 370 385 370 455 C370 512 422 565 500 565 C578 565 630 512 630 455 C630 385 570 365 570 365 C570 365 645 340 645 260 C645 190 590 135 500 135 L500 135 Z " />
<glyph glyph-name="uni277E" unicode="&#x277e;" horiz-adv-x="1000" d="M500 285 C415 285 350 350 350 425 C350 500 415 565 500 565 C585 565 650 500 650 425 C650 375 620 335 620 335 L490 140 L435 140 L530 290 C530 290 520 285 500 285 L500 285 Z M400 425 C400 375 440 335 500 335 C559 335 600 369 600 425 C600 475 560 515 500 515 C440 515 400 475 400 425 L400 425 Z M500 -90 C745 -90 940 105 940 350 C940 595 745 790 500 790 C255 790 60 594 60 350 C60 105 255 -90 500 -90 L500 -90 Z " />
<glyph glyph-name="commaaccent" unicode="&#xf6c3;" horiz-adv-x="155" d="M30 -215 L65 -215 L125 -80 L75 -80 L30 -215 Z " />
<glyph glyph-name="cyrBreve" unicode="&#xf6d1;" horiz-adv-x="320" d="M160 795 C235 795 290 850 290 925 L245 925 C245 875 210 840 160 840 C110 840 75 875 75 925 L30 925 C30 850 85 795 160 795 L160 795 Z " />
<glyph glyph-name="cyrbreve" unicode="&#xf6d4;" horiz-adv-x="320" d="M160 605 C105 605 70 640 70 695 L30 695 C30 620 85 565 160 565 C235 565 290 620 290 695 L250 695 C250 640 215 605 160 605 L160 605 Z " />
<glyph glyph-name="zerooldstyle" unicode="&#xf730;" horiz-adv-x="640" d="M125 240 C125 355 210 440 320 440 C430 440 515 355 515 240 C515 125 430 40 320 40 C210 40 125 125 125 240 L125 240 Z M565 240 C565 380 455 490 320 490 C185 490 75 380 75 240 C75 100 185 -10 320 -10 C455 -10 565 100 565 240 L565 240 Z " />
<glyph glyph-name="oneoldstyle" unicode="&#xf731;" horiz-adv-x="345" d="M190 480 C190 480 140 375 45 375 L45 335 C140 335 180 390 180 390 L180 0 L230 0 L230 480 L190 480 Z " />
<glyph glyph-name="twooldstyle" unicode="&#xf732;" horiz-adv-x="505" d="M450 0 L450 50 L110 50 C145 175 445 155 445 345 C445 420 375 490 265 490 C105 490 55 365 55 365 L95 340 C95 340 135 440 265 440 C350 440 395 395 395 345 C395 180 50 225 50 0 L450 0 Z " />
<glyph glyph-name="threeoldstyle" unicode="&#xf733;" horiz-adv-x="540" d="M175 130 C175 130 200 140 250 140 C360 140 430 65 430 -15 C430 -100 360 -170 250 -170 C125 -170 65 -80 65 -80 L30 -115 C30 -115 100 -220 250 -220 C385 -220 480 -125 480 -15 C480 95 385 190 260 190 C235 190 220 185 220 185 L440 435 L440 480 L65 480 L65 430 L372 430 L145 175 L175 130 Z " />
<glyph glyph-name="fouroldstyle" unicode="&#xf734;" horiz-adv-x="565" d="M435 50 L435 480 L375 480 L25 60 L25 0 L385 0 L385 -210 L435 -210 L435 0 L525 0 L525 50 L435 50 Z M385 50 L80 50 L385 415 L385 50 Z " />
<glyph glyph-name="fiveoldstyle" unicode="&#xf735;" horiz-adv-x="593" d="M300 235 C211 235 155 180 155 180 L170 430 L480 430 L480 480 L125 480 L100 100 L140 100 C140 100 190 185 300 185 C400 185 475 110 475 5 C475 -95 400 -170 290 -170 C170 -170 110 -80 110 -80 L75 -115 C75 -115 145 -220 290 -220 C425 -220 525 -120 525 5 C525 135 425 235 300 235 L300 235 Z " />
<glyph glyph-name="sixoldstyle" unicode="&#xf736;" horiz-adv-x="575" d="M285 440 C230 440 195 420 195 420 L370 700 L315 700 L105 365 C105 365 55 300 55 215 C55 90 155 -10 285 -10 C415 -10 515 90 515 215 C515 340 415 440 285 440 L285 440 Z M465 215 C465 115 390 40 285 40 C180 40 105 115 105 215 C105 315 180 390 285 390 C390 390 465 315 465 215 L465 215 Z " />
<glyph glyph-name="sevenoldstyle" unicode="&#xf737;" horiz-adv-x="475" d="M25 480 L25 430 L405 430 L85 -210 L135 -210 L455 430 L455 480 L25 480 Z " />
<glyph glyph-name="eightoldstyle" unicode="&#xf738;" horiz-adv-x="580" d="M290 405 C205 405 145 460 145 530 C145 600 205 660 290 660 C375 660 435 600 435 530 C435 460 375 405 290 405 L290 405 Z M290 40 C185 40 115 110 115 195 C115 280 190 355 290 355 C390 355 465 280 465 195 C465 110 395 40 290 40 L290 40 Z M290 -10 C420 -10 515 85 515 195 C515 335 380 380 380 380 C380 380 485 415 485 530 C485 625 400 710 290 710 C180 710 95 625 95 530 C95 415 200 380 200 380 C200 380 65 335 65 195 C65 85 160 -10 290 -10 L290 -10 Z " />
<glyph glyph-name="nineoldstyle" unicode="&#xf739;" horiz-adv-x="575" d="M290 40 C345 40 380 60 380 60 L205 -210 L260 -210 L470 115 C470 115 520 180 520 265 C520 390 420 490 290 490 C160 490 60 390 60 265 C60 140 160 40 290 40 L290 40 Z M110 265 C110 365 185 440 290 440 C395 440 470 365 470 265 C470 165 395 90 290 90 C185 90 110 165 110 265 L110 265 Z " />
<glyph glyph-name="f_f" unicode="&#xfb00;" horiz-adv-x="580" d="M545 480 L425 480 L425 580 C425 635 455 665 500 665 C535 665 565 650 565 650 L565 695 C565 695 535 710 500 710 C425 710 380 665 380 580 L380 480 L155 480 L155 560 C155 615 185 645 230 645 C265 645 295 630 295 630 L295 675 C295 675 265 690 230 690 C155 690 110 645 110 560 L110 480 L30 480 L30 435 L110 435 L110 0 L155 0 L155 435 L380 435 L380 0 L425 0 L425 435 L545 435 L545 480 Z " />
<glyph glyph-name="uniFB01" unicode="&#xfb01;" horiz-adv-x="520" d="M155 435 L380 435 L380 0 L425 0 L425 480 L155 480 L155 580 C155 635 185 665 230 665 C265 665 295 650 295 650 L295 695 C295 695 265 710 230 710 C155 710 110 665 110 580 L110 480 L30 480 L30 435 L110 435 L110 0 L155 0 L155 435 Z M370 650 C370 630 385 615 405 615 C425 615 440 630 440 650 C440 670 425 685 405 685 C385 685 370 670 370 650 L370 650 Z " />
<glyph glyph-name="uniFB02" unicode="&#xfb02;" horiz-adv-x="535" d="M395 0 L440 0 L440 540 C440 635 365 710 275 710 C185 710 110 635 110 540 L110 480 L30 480 L30 435 L110 435 L110 0 L155 0 L155 435 L275 435 L275 480 L155 480 L155 540 C155 610 210 665 275 665 C340 665 395 610 395 540 L395 0 Z " />
<glyph glyph-name="f_f_i" unicode="&#xfb03;" horiz-adv-x="795" d="M425 435 L655 435 L655 0 L700 0 L700 480 L425 480 L425 580 C425 635 455 665 500 665 C535 665 565 650 565 650 L565 695 C565 695 535 710 500 710 C425 710 380 665 380 580 L380 480 L155 480 L155 560 C155 615 185 645 230 645 C265 645 295 630 295 630 L295 675 C295 675 265 690 230 690 C155 690 110 645 110 560 L110 480 L30 480 L30 435 L110 435 L110 0 L155 0 L155 435 L380 435 L380 0 L425 0 L425 435 Z M645 650 C645 630 660 615 680 615 C700 615 715 630 715 650 C715 670 700 685 680 685 C660 685 645 670 645 650 L645 650 Z " />
<glyph glyph-name="s_t" unicode="&#xfb06;" horiz-adv-x="770" d="M540 480 L445 480 L445 435 L540 435 L540 120 C540 35 585 -10 660 -10 C695 -10 725 5 725 5 L725 50 C725 50 695 35 660 35 C615 35 585 65 585 120 L585 435 L695 435 L695 480 L585 480 L585 540 C585 640 515 710 420 710 C325 710 255 640 255 550 C255 510 265 480 265 480 C265 480 240 490 210 490 C120 490 55 425 55 360 C55 200 330 255 330 135 C330 80 285 35 205 35 C120 35 70 105 70 105 L35 70 C35 70 95 -10 205 -10 C310 -10 375 55 375 135 C375 300 100 245 100 360 C100 404 140 445 210 445 C285 445 325 385 325 385 L360 420 L335 445 C335 445 295 485 295 550 C295 620 345 670 420 670 C490 670 540 620 540 540 L540 480 Z " />
</font>
</svg>
