<?xml version="1.0" encoding="UTF-8"?>
<svg xmlns="http://www.w3.org/2000/svg" xmlns:xlink="http://www.w3.org/1999/xlink" version="1.2" >
<font id="TT Norms ExtraBold">
<font-face  font-family="TT Norms" units-per-em="1000" ascent="960" descent="-220" font-style="normal" font-weight="800" font-stretch="normal" cap-height="700" x-height="490" underline-position="-75" underline-thickness="50" />
<missing-glyph  d="" />
<glyph glyph-name=".null" d="" />
<glyph glyph-name="&amp;#x0;" d="" />
<glyph glyph-name="&amp;#xd;" unicode="&#xd;" d="" />
<glyph glyph-name="space" unicode="&#x20;" horiz-adv-x="210" d="" />
<glyph glyph-name="exclam" unicode="&#x21;" horiz-adv-x="350" d="M245 220 L275 700 L75 700 L105 220 L245 220 Z M80 80 C80 30 120 -10 175 -10 C230 -10 270 30 270 80 C270 130 230 170 175 170 C120 170 80 130 80 80 L80 80 Z " />
<glyph glyph-name="quotedbl" unicode="&#x22;" horiz-adv-x="460" d="M200 700 L50 700 L50 450 L200 450 L200 700 Z M410 700 L260 700 L260 450 L410 450 L410 700 Z " />
<glyph glyph-name="numbersign" unicode="&#x23;" horiz-adv-x="760" d="M15 170 L135 170 L100 0 L250 0 L285 170 L400 170 L365 0 L515 0 L550 170 L665 170 L690 290 L575 290 L600 410 L720 410 L745 530 L625 530 L660 700 L510 700 L475 530 L360 530 L395 700 L245 700 L210 530 L95 530 L70 410 L185 410 L160 290 L40 290 L15 170 Z M335 410 L450 410 L425 290 L310 290 L335 410 Z " />
<glyph glyph-name="dollar" unicode="&#x24;" horiz-adv-x="610" d="M370 215 C370 175 335 140 280 140 C190 140 130 215 130 215 L20 100 C20 100 93 8 235 -15 L235 -100 L395 -100 L395 -8 C512 22 580 109 580 210 C580 455 255 405 255 500 C255 530 285 560 330 560 C399 560 445 505 445 505 L555 620 C555 620 505 686 395 711 L395 800 L235 800 L235 712 C118 685 45 596 45 505 C45 260 370 310 370 215 L370 215 Z " />
<glyph glyph-name="percent" unicode="&#x25;" horiz-adv-x="860" d="M130 0 L290 0 L730 700 L570 700 L130 0 Z M145 545 C145 580 170 605 205 605 C240 605 265 580 265 545 C265 510 240 485 205 485 C170 485 145 510 145 545 L145 545 Z M385 545 C385 635 305 715 205 715 C105 715 25 635 25 545 C25 455 105 375 205 375 C305 375 385 455 385 545 L385 545 Z M595 155 C595 190 620 215 655 215 C690 215 715 190 715 155 C715 120 690 95 655 95 C620 95 595 120 595 155 L595 155 Z M835 155 C835 245 755 325 655 325 C555 325 475 245 475 155 C475 65 555 -15 655 -15 C755 -15 835 65 835 155 L835 155 Z " />
<glyph glyph-name="ampersand" unicode="&#x26;" horiz-adv-x="675" d="M580 160 C580 160 640 240 640 355 L480 355 C480 310 455 280 455 280 L375 375 C375 375 490 445 490 545 C490 635 405 720 285 720 C170 720 85 635 85 540 C85 455 170 375 170 375 C170 375 35 305 35 175 C35 70 125 -20 265 -20 C385 -20 445 50 445 50 C445 50 495 -20 575 -20 C620 -20 655 0 655 0 L655 140 C655 140 642 135 630 135 C600 135 580 160 580 160 L580 160 Z M280 120 C235 120 210 145 210 185 C210 235 265 270 265 270 L360 155 C360 155 330 120 280 120 L280 120 Z M335 530 C335 490 285 450 285 450 C285 450 235 490 235 530 C235 560 255 580 285 580 C315 580 335 560 335 530 L335 530 Z " />
<glyph glyph-name="quotesingle" unicode="&#x27;" horiz-adv-x="250" d="M200 700 L50 700 L50 450 L200 450 L200 700 Z " />
<glyph glyph-name="parenleft" unicode="&#x28;" horiz-adv-x="390" d="M235 250 C235 480 370 655 370 655 L240 735 C240 735 60 540 60 250 C60 -40 240 -235 240 -235 L370 -155 C370 -155 235 20 235 250 L235 250 Z " />
<glyph glyph-name="parenright" unicode="&#x29;" horiz-adv-x="390" d="M155 250 C155 20 20 -155 20 -155 L150 -235 C150 -235 330 -40 330 250 C330 540 150 735 150 735 L20 655 C20 655 155 480 155 250 L155 250 Z " />
<glyph glyph-name="asterisk" unicode="&#x2a;" horiz-adv-x="410" d="M270 700 L140 700 L150 600 L55 635 L20 525 L115 500 L50 425 L145 350 L205 440 L265 350 L360 425 L295 500 L390 525 L355 635 L260 600 L270 700 Z " />
<glyph glyph-name="plus" unicode="&#x2b;" horiz-adv-x="530" d="M340 525 L190 525 L190 370 L35 370 L35 215 L190 215 L190 60 L340 60 L340 215 L495 215 L495 370 L340 370 L340 525 Z " />
<glyph glyph-name="comma" unicode="&#x2c;" horiz-adv-x="285" d="M110 170 L-5 -70 L105 -130 L245 90 L110 170 Z " />
<glyph glyph-name="hyphen" unicode="&#x2d;" horiz-adv-x="435" d="M400 370 L35 370 L35 220 L400 220 L400 370 Z " />
<glyph glyph-name="period" unicode="&#x2e;" horiz-adv-x="270" d="M40 80 C40 30 80 -10 135 -10 C190 -10 230 30 230 80 C230 130 190 170 135 170 C80 170 40 130 40 80 L40 80 Z " />
<glyph glyph-name="slash" unicode="&#x2f;" horiz-adv-x="525" d="M495 710 L330 710 L30 -210 L195 -210 L495 710 Z " />
<glyph glyph-name="zero" unicode="0" horiz-adv-x="710" d="M235 350 C235 490 295 550 355 550 C415 550 475 490 475 350 C475 210 415 150 355 150 C295 150 235 210 235 350 L235 350 Z M665 350 C665 575 520 720 355 720 C190 720 45 575 45 350 C45 125 190 -20 355 -20 C520 -20 665 125 665 350 L665 350 Z " />
<glyph glyph-name="one" unicode="1" horiz-adv-x="415" d="M170 700 C170 700 130 620 30 605 L30 490 L145 490 L145 0 L335 0 L335 700 L170 700 Z " />
<glyph glyph-name="two" unicode="2" horiz-adv-x="605" d="M550 0 L550 180 L290 180 C360 275 550 310 550 490 C550 615 445 720 295 720 C90 720 25 550 25 550 L185 475 C185 475 210 540 275 540 C325 540 350 515 350 475 C350 350 30 340 30 0 L550 0 Z " />
<glyph glyph-name="three" unicode="3" horiz-adv-x="590" d="M435 370 C435 370 535 410 535 520 C535 625 440 720 285 720 C111 720 35 615 35 615 L145 505 C145 505 190 560 260 560 C305 560 335 530 335 495 C335 460 305 430 260 430 L190 430 L190 280 L265 280 C325 280 355 250 355 215 C355 175 320 140 260 140 C175 140 120 210 120 210 L10 95 C10 95 101 -20 285 -20 C450 -20 555 85 555 195 C555 330 435 370 435 370 L435 370 Z " />
<glyph glyph-name="four" unicode="4" horiz-adv-x="625" d="M530 275 L530 700 L320 700 L25 290 L25 115 L340 115 L340 0 L530 0 L530 115 L605 115 L605 275 L530 275 Z M340 275 L195 275 L340 480 L340 275 Z " />
<glyph glyph-name="five" unicode="5" horiz-adv-x="625" d="M360 460 C295 460 255 440 255 440 L265 540 L545 540 L545 700 L95 700 L70 300 L200 280 C200 280 230 320 290 320 C350 320 385 285 385 235 C385 185 350 150 285 150 C205 150 150 210 150 210 L40 95 C40 95 125 -20 310 -20 C475 -20 585 90 585 230 C585 365 490 460 360 460 L360 460 Z " />
<glyph glyph-name="six" unicode="6" horiz-adv-x="635" d="M495 700 L295 700 L105 410 C105 410 40 330 40 230 C40 95 155 -20 320 -20 C485 -20 600 95 600 230 C600 360 495 465 350 480 L495 700 Z M410 230 C410 180 370 140 320 140 C270 140 230 180 230 230 C230 280 270 320 320 320 C370 320 410 280 410 230 L410 230 Z " />
<glyph glyph-name="seven" unicode="7" horiz-adv-x="555" d="M30 700 L30 530 L315 530 L65 0 L265 0 L525 550 L525 700 L30 700 Z " />
<glyph glyph-name="eight" unicode="8" horiz-adv-x="630" d="M315 140 C260 140 225 175 225 215 C225 255 260 290 315 290 C370 290 405 255 405 215 C405 175 370 140 315 140 L315 140 Z M315 440 C270 440 240 470 240 500 C240 530 270 560 315 560 C360 560 390 530 390 500 C390 470 360 440 315 440 L315 440 Z M315 -20 C485 -20 590 85 590 205 C590 325 480 375 480 375 C480 375 565 420 565 520 C565 620 465 720 315 720 C165 720 65 620 65 520 C65 420 150 375 150 375 C150 375 40 325 40 205 C40 85 145 -20 315 -20 L315 -20 Z " />
<glyph glyph-name="nine" unicode="9" horiz-adv-x="635" d="M140 0 L340 0 L530 290 C530 290 595 370 595 470 C595 605 480 720 315 720 C150 720 35 605 35 470 C35 340 140 235 285 220 L140 0 Z M225 470 C225 520 265 560 315 560 C365 560 405 520 405 470 C405 420 365 380 315 380 C265 380 225 420 225 470 L225 470 Z " />
<glyph glyph-name="colon" unicode="&#x3a;" horiz-adv-x="270" d="M40 80 C40 30 80 -10 135 -10 C190 -10 230 30 230 80 C230 130 190 170 135 170 C80 170 40 130 40 80 L40 80 Z M40 410 C40 360 80 320 135 320 C190 320 230 360 230 410 C230 460 190 500 135 500 C80 500 40 460 40 410 L40 410 Z " />
<glyph glyph-name="semicolon" unicode="&#x3b;" horiz-adv-x="295" d="M65 410 C65 360 105 320 160 320 C215 320 255 360 255 410 C255 460 215 500 160 500 C105 500 65 460 65 410 L65 410 Z M110 170 L-5 -70 L105 -130 L245 90 L110 170 Z " />
<glyph glyph-name="less" unicode="&#x3c;" horiz-adv-x="520" d="M35 185 L485 -5 L485 150 L245 245 L485 340 L485 495 L35 305 L35 185 Z " />
<glyph glyph-name="equal" unicode="&#x3d;" horiz-adv-x="495" d="M460 260 L35 260 L35 120 L460 120 L460 260 Z M460 470 L35 470 L35 330 L460 330 L460 470 Z " />
<glyph glyph-name="greater" unicode="&#x3e;" horiz-adv-x="520" d="M485 305 L35 495 L35 340 L275 245 L35 150 L35 -5 L485 185 L485 305 Z " />
<glyph glyph-name="question" unicode="&#x3f;" horiz-adv-x="565" d="M180 265 C180 245 190 220 190 220 L365 220 C365 310 540 335 540 510 C540 615 435 720 280 720 C70 720 15 550 15 550 L175 475 C175 475 195 535 270 535 C310 535 335 510 335 480 C335 405 180 399 180 265 L180 265 Z M170 80 C170 30 210 -10 265 -10 C320 -10 360 30 360 80 C360 130 320 170 265 170 C210 170 170 130 170 80 L170 80 Z " />
<glyph glyph-name="at" unicode="&#x40;" horiz-adv-x="900" d="M440 315 C475 315 505 285 505 245 C505 205 475 175 440 175 C405 175 375 205 375 245 C375 285 405 315 440 315 L440 315 Z M420 430 C335 430 260 355 260 245 C260 135 335 60 430 60 C520 60 555 120 555 120 C555 120 592 60 675 60 C775 60 850 135 850 270 C850 473 680 645 450 645 C230 645 50 465 50 250 C50 35 230 -145 450 -145 C605 -145 695 -55 695 -55 L625 25 C625 25 560 -35 450 -35 C295 -35 165 95 165 250 C165 405 295 535 450 535 C614 535 730 416 730 270 C730 195 705 170 670 170 C645 170 620 195 620 225 L620 425 L505 425 L505 395 C505 395 475 430 420 430 L420 430 Z " />
<glyph glyph-name="A" unicode="A" horiz-adv-x="740" d="M435 300 L305 300 L370 505 L435 300 Z M485 150 L535 0 L740 0 L475 700 L265 700 L0 0 L205 0 L255 150 L485 150 Z " />
<glyph glyph-name="B" unicode="B" horiz-adv-x="710" d="M415 0 C570 0 670 100 670 205 C670 330 545 370 545 370 C545 370 635 410 635 515 C635 610 545 700 395 700 L80 700 L80 0 L415 0 Z M270 150 L270 290 L400 290 C445 290 475 260 475 220 C475 180 445 150 400 150 L270 150 Z M375 550 C415 550 440 525 440 490 C440 455 416 430 375 430 L270 430 L270 550 L375 550 Z " />
<glyph glyph-name="C" unicode="C" horiz-adv-x="750" d="M230 350 C230 465 315 550 430 550 C545 550 610 460 610 460 L725 580 C725 580 630 720 430 720 C210 720 40 550 40 350 C40 150 210 -20 430 -20 C635 -20 730 120 730 120 L620 240 C620 240 550 150 430 150 C315 150 230 235 230 350 L230 350 Z " />
<glyph glyph-name="D" unicode="D" horiz-adv-x="760" d="M80 700 L80 0 L350 0 C565 0 720 155 720 350 C720 545 565 700 350 700 L80 700 Z M350 530 C455 530 530 455 530 350 C530 245 445 170 350 170 L270 170 L270 530 L350 530 Z " />
<glyph glyph-name="E" unicode="E" horiz-adv-x="670" d="M270 160 L270 280 L540 280 L540 430 L270 430 L270 540 L620 540 L620 700 L80 700 L80 0 L630 0 L630 160 L270 160 Z " />
<glyph glyph-name="F" unicode="F" horiz-adv-x="650" d="M80 700 L80 0 L270 0 L270 245 L540 245 L540 415 L270 415 L270 530 L620 530 L620 700 L80 700 Z " />
<glyph glyph-name="G" unicode="G" horiz-adv-x="810" d="M430 -20 C630 -20 740 120 740 120 L740 390 L440 390 L440 270 L550 270 L550 195 C550 195 510 150 430 150 C315 150 230 235 230 350 C230 465 315 550 430 550 C545 550 610 460 610 460 L725 580 C725 580 630 720 430 720 C210 720 40 550 40 350 C40 150 210 -20 430 -20 L430 -20 Z " />
<glyph glyph-name="H" unicode="H" horiz-adv-x="795" d="M715 700 L525 700 L525 440 L270 440 L270 700 L80 700 L80 0 L270 0 L270 270 L525 270 L525 0 L715 0 L715 700 Z " />
<glyph glyph-name="I" unicode="I" horiz-adv-x="350" d="M80 0 L270 0 L270 700 L80 700 L80 0 Z " />
<glyph glyph-name="J" unicode="J" horiz-adv-x="525" d="M260 700 L260 240 C260 185 225 150 180 150 C130 150 105 185 105 185 L-10 70 C-10 70 60 -20 195 -20 C345 -20 450 85 450 240 L450 700 L260 700 Z " />
<glyph glyph-name="K" unicode="K" horiz-adv-x="730" d="M345 265 L520 0 L740 0 L470 410 L720 700 L500 700 L270 430 L270 700 L80 700 L80 0 L270 0 L270 180 L345 265 Z " />
<glyph glyph-name="L" unicode="L" horiz-adv-x="600" d="M580 0 L580 170 L270 170 L270 700 L80 700 L80 0 L580 0 Z " />
<glyph glyph-name="M" unicode="M" horiz-adv-x="930" d="M465 170 L660 415 L660 0 L850 0 L850 700 L680 700 L465 425 L250 700 L80 700 L80 0 L270 0 L270 415 L465 170 Z " />
<glyph glyph-name="N" unicode="N" horiz-adv-x="815" d="M545 700 L545 310 L245 700 L80 700 L80 0 L270 0 L270 390 L571 0 L735 0 L735 700 L545 700 Z " />
<glyph glyph-name="O" unicode="O" horiz-adv-x="860" d="M235 350 C235 465 320 550 430 550 C540 550 625 465 625 350 C625 235 540 150 430 150 C320 150 235 235 235 350 L235 350 Z M820 350 C820 550 650 720 430 720 C210 720 40 550 40 350 C40 150 210 -20 430 -20 C650 -20 820 150 820 350 L820 350 Z " />
<glyph glyph-name="P" unicode="P" horiz-adv-x="695" d="M80 700 L80 0 L270 0 L270 210 L395 210 C550 210 655 315 655 455 C655 595 550 700 395 700 L80 700 Z M385 530 C430 530 465 495 465 455 C465 415 430 380 385 380 L270 380 L270 530 L385 530 Z " />
<glyph glyph-name="Q" unicode="Q" horiz-adv-x="860" d="M820 350 C820 550 650 720 430 720 C210 720 40 550 40 350 C40 150 210 -20 430 -20 L470 -20 C470 -20 561 -175 780 -175 L815 -175 L815 -25 L790 -25 C676 -25 635 35 635 35 C635 35 820 135 820 350 L820 350 Z M235 350 C235 465 320 550 430 550 C540 550 625 465 625 350 C625 235 540 150 430 150 C320 150 235 235 235 350 L235 350 Z " />
<glyph glyph-name="R" unicode="R" horiz-adv-x="720" d="M80 0 L270 0 L270 220 L370 220 L490 0 L690 0 L545 255 C545 255 665 310 665 460 C665 595 560 700 410 700 L80 700 L80 0 Z M475 460 C475 420 445 390 400 390 L270 390 L270 530 L400 530 C445 530 475 500 475 460 L475 460 Z " />
<glyph glyph-name="S" unicode="S" horiz-adv-x="610" d="M370 215 C370 175 335 140 280 140 C190 140 130 215 130 215 L20 100 C20 100 115 -20 300 -20 C475 -20 580 85 580 210 C580 455 255 405 255 500 C255 530 285 560 330 560 C399 560 445 505 445 505 L555 620 C555 620 480 720 310 720 C150 720 45 615 45 505 C45 260 370 310 370 215 L370 215 Z " />
<glyph glyph-name="T" unicode="T" horiz-adv-x="620" d="M20 700 L20 530 L215 530 L215 0 L405 0 L405 530 L600 530 L600 700 L20 700 Z " />
<glyph glyph-name="U" unicode="U" horiz-adv-x="790" d="M395 150 C325 150 265 210 265 290 L265 700 L75 700 L75 290 C75 115 210 -20 395 -20 C580 -20 715 115 715 290 L715 700 L525 700 L525 290 C525 210 465 150 395 150 L395 150 Z " />
<glyph glyph-name="V" unicode="V" horiz-adv-x="730" d="M260 0 L470 0 L720 700 L515 700 L365 220 L215 700 L10 700 L260 0 Z " />
<glyph glyph-name="W" unicode="W" horiz-adv-x="1080" d="M540 405 L670 0 L840 0 L1070 700 L865 700 L745 275 L620 700 L460 700 L335 275 L215 700 L10 700 L240 0 L410 0 L540 405 Z " />
<glyph glyph-name="X" unicode="X" horiz-adv-x="710" d="M355 235 L495 0 L705 0 L475 365 L685 700 L475 700 L355 495 L235 700 L25 700 L235 365 L5 0 L215 0 L355 235 Z " />
<glyph glyph-name="Y" unicode="Y" horiz-adv-x="690" d="M485 700 L345 430 L205 700 L0 700 L250 250 L250 0 L440 0 L440 250 L690 700 L485 700 Z " />
<glyph glyph-name="Z" unicode="Z" horiz-adv-x="660" d="M355 530 L45 170 L45 0 L615 0 L615 170 L295 170 L605 530 L605 700 L60 700 L60 530 L355 530 Z " />
<glyph glyph-name="bracketleft" unicode="&#x5b;" horiz-adv-x="395" d="M250 560 L360 560 L360 710 L80 710 L80 -210 L360 -210 L360 -60 L250 -60 L250 560 Z " />
<glyph glyph-name="backslash" unicode="&#x5c;" horiz-adv-x="525" d="M330 -210 L495 -210 L195 710 L30 710 L330 -210 Z " />
<glyph glyph-name="bracketright" unicode="&#x5d;" horiz-adv-x="395" d="M145 -60 L35 -60 L35 -210 L315 -210 L315 710 L35 710 L35 560 L145 560 L145 -60 Z " />
<glyph glyph-name="asciicircum" unicode="&#x5e;" horiz-adv-x="450" d="M160 700 L25 395 L165 395 L225 535 L285 395 L425 395 L290 700 L160 700 Z " />
<glyph glyph-name="underscore" unicode="&#x5f;" horiz-adv-x="350" d="M360 -80 L-10 -80 L-10 -235 L360 -235 L360 -80 Z " />
<glyph glyph-name="grave" unicode="&#x60;" horiz-adv-x="325" d="M210 711 L30 711 L150 550 L295 550 L210 711 Z " />
<glyph glyph-name="a" unicode="a" horiz-adv-x="550" d="M485 0 L485 304 C485 410 394 500 260 500 C122 500 55 405 55 405 L140 315 C140 315 179 365 245 365 C294 365 315 338 315 315 L175 285 C80 265 25 210 25 130 C25 55 90 -10 185 -10 C270 -10 315 55 315 55 L315 0 L485 0 Z M240 120 C210 120 195 135 195 160 C195 180 215 200 240 205 L315 220 L315 205 C315 155 280 120 240 120 L240 120 Z " />
<glyph glyph-name="b" unicode="b" horiz-adv-x="635" d="M230 245 C230 305 275 350 325 350 C375 350 420 305 420 245 C420 185 375 140 325 140 C275 140 230 185 230 245 L230 245 Z M230 700 L60 700 L60 0 L230 0 L230 60 C230 60 275 -10 370 -10 C490 -10 595 95 595 245 C595 395 490 500 370 500 C275 500 230 430 230 430 L230 700 Z " />
<glyph glyph-name="c" unicode="c" horiz-adv-x="540" d="M30 245 C30 110 150 -10 300 -10 C440 -10 510 90 510 90 L410 195 C410 195 375 140 310 140 C250 140 205 185 205 245 C205 305 250 350 310 350 C375 350 410 295 410 295 L510 400 C510 400 440 500 300 500 C150 500 30 380 30 245 L30 245 Z " />
<glyph glyph-name="d" unicode="d" horiz-adv-x="635" d="M395 245 C395 185 350 140 300 140 C250 140 205 185 205 245 C205 305 250 350 300 350 C350 350 395 305 395 245 L395 245 Z M395 430 C395 430 350 500 255 500 C135 500 30 395 30 245 C30 95 135 -10 255 -10 C350 -10 395 60 395 60 L395 0 L565 0 L565 700 L395 700 L395 430 Z " />
<glyph glyph-name="e" unicode="e" horiz-adv-x="580" d="M540 200 C540 200 545 220 545 255 C545 390 435 500 290 500 C145 500 30 385 30 245 C30 105 145 -10 300 -10 C430 -10 505 65 505 65 L430 175 C430 175 390 125 320 125 C250 125 210 165 205 200 L540 200 Z M290 370 C335 370 365 340 375 300 L205 300 C215 340 245 370 290 370 L290 370 Z " />
<glyph glyph-name="f" unicode="f" horiz-adv-x="385" d="M360 470 L255 470 L255 510 C255 540 275 560 310 560 C340 560 360 550 360 550 L360 695 C360 695 315 710 260 710 C150 710 85 645 85 520 L85 470 L20 470 L20 320 L85 320 L85 0 L255 0 L255 320 L360 320 L360 470 Z " />
<glyph glyph-name="g" unicode="g" horiz-adv-x="620" d="M385 55 C385 -15 335 -65 260 -65 C180 -65 140 -10 140 -10 L45 -105 C45 -105 119 -210 275 -210 C435 -210 555 -90 555 55 L555 490 L385 490 L385 430 C385 430 330 500 240 500 C135 500 30 395 30 260 C30 125 135 20 240 20 C330 20 385 90 385 90 L385 55 Z M205 260 C205 310 245 350 295 350 C345 350 385 310 385 258 C385 210 345 170 295 170 C245 170 205 210 205 260 L205 260 Z " />
<glyph glyph-name="h" unicode="h" horiz-adv-x="615" d="M230 700 L60 700 L60 0 L230 0 L230 245 C230 305 265 340 310 340 C350 340 380 310 380 260 L380 0 L550 0 L550 290 C550 417 474 500 370 500 C280 500 230 430 230 430 L230 700 Z " />
<glyph glyph-name="i" unicode="i" horiz-adv-x="300" d="M230 490 L60 490 L60 0 L230 0 L230 490 Z M240 635 C240 685 200 725 145 725 C90 725 50 685 50 635 C50 585 90 545 145 545 C200 545 240 585 240 635 L240 635 Z " />
<glyph glyph-name="j" unicode="j" horiz-adv-x="300" d="M60 0 C60 -30 35 -55 5 -55 C-20 -55 -45 -45 -45 -45 L-45 -195 C-45 -195 -5 -210 55 -210 C160 -210 230 -140 230 -25 L230 490 L60 490 L60 0 Z M240 635 C240 685 200 725 145 725 C90 725 50 685 50 635 C50 585 90 545 145 545 C200 545 240 585 240 635 L240 635 Z " />
<glyph glyph-name="k" unicode="k" horiz-adv-x="575" d="M390 280 L570 490 L375 490 L230 320 L230 700 L60 700 L60 0 L230 0 L230 125 L275 175 L390 0 L575 0 L390 280 Z " />
<glyph glyph-name="l" unicode="l" horiz-adv-x="300" d="M230 700 L60 700 L60 0 L230 0 L230 700 Z " />
<glyph glyph-name="m" unicode="m" horiz-adv-x="890" d="M655 0 L825 0 L825 290 C825 424 752 500 650 500 C545 500 490 420 490 420 C490 420 450 500 350 500 C265 500 225 430 225 430 L225 490 L55 490 L55 0 L225 0 L225 245 C225 305 255 335 290 335 C330 335 355 310 355 260 L355 0 L525 0 L525 245 C525 305 555 335 590 335 C630 335 655 310 655 260 L655 0 Z " />
<glyph glyph-name="n" unicode="n" horiz-adv-x="610" d="M225 490 L55 490 L55 0 L225 0 L225 245 C225 305 260 340 305 340 C345 340 375 310 375 260 L375 0 L545 0 L545 290 C545 417 469 500 365 500 C275 500 225 430 225 430 L225 490 Z " />
<glyph glyph-name="o" unicode="o" horiz-adv-x="610" d="M205 245 C205 305 250 350 300 350 C350 350 395 305 395 245 C395 185 350 140 300 140 C250 140 205 185 205 245 L205 245 Z M570 245 C570 380 450 500 300 500 C150 500 30 380 30 245 C30 110 150 -10 300 -10 C450 -10 570 110 570 245 L570 245 Z " />
<glyph glyph-name="p" unicode="p" horiz-adv-x="630" d="M225 245 C225 305 270 350 320 350 C370 350 415 305 415 245 C415 185 370 140 320 140 C270 140 225 185 225 245 L225 245 Z M225 60 C225 60 270 -10 365 -10 C485 -10 590 95 590 245 C590 395 485 500 365 500 C270 500 225 430 225 430 L225 490 L55 490 L55 -210 L225 -210 L225 60 Z " />
<glyph glyph-name="q" unicode="q" horiz-adv-x="630" d="M395 245 C395 185 350 140 300 140 C250 140 205 185 205 245 C205 305 250 350 300 350 C350 350 395 305 395 245 L395 245 Z M395 -210 L565 -210 L565 490 L395 490 L395 430 C395 430 350 500 255 500 C135 500 30 395 30 245 C30 95 135 -10 255 -10 C350 -10 395 60 395 60 L395 -210 Z " />
<glyph glyph-name="r" unicode="r" horiz-adv-x="395" d="M380 320 L380 495 L360 495 C270 495 225 430 225 430 L225 490 L55 490 L55 0 L225 0 L225 210 C225 290 265 330 330 330 C360 330 380 320 380 320 L380 320 Z " />
<glyph glyph-name="s" unicode="s" horiz-adv-x="470" d="M435 425 C435 425 370 500 240 500 C105 500 30 425 30 340 C30 180 235 200 235 155 C235 140 220 125 190 125 C130 125 95 175 95 175 L10 85 C10 85 75 -10 230 -10 C365 -10 440 65 440 150 C440 310 235 290 235 335 C235 350 250 365 280 365 C320 365 350 335 350 335 L435 425 Z " />
<glyph glyph-name="t" unicode="t" horiz-adv-x="425" d="M115 545 C115 505 90 480 55 480 L20 480 L20 330 L95 330 L95 180 C95 55 160 -10 270 -10 C325 -10 370 5 370 5 L370 150 C370 150 348 140 320 140 C288 140 265 158 265 190 L265 330 L365 330 L365 480 L265 480 L265 630 L115 630 L115 545 Z " />
<glyph glyph-name="u" unicode="u" horiz-adv-x="615" d="M375 0 L545 0 L545 490 L375 490 L375 240 C375 185 340 150 295 150 C255 150 225 180 225 225 L225 490 L55 490 L55 195 C55 70 135 -10 240 -10 C330 -10 375 55 375 55 L375 0 Z " />
<glyph glyph-name="v" unicode="v" horiz-adv-x="540" d="M355 0 L535 490 L355 490 L265 205 L175 490 L-5 490 L175 0 L355 0 Z " />
<glyph glyph-name="w" unicode="w" horiz-adv-x="790" d="M330 490 L250 240 L170 490 L-5 490 L165 0 L305 0 L390 240 L475 0 L615 0 L785 490 L610 490 L530 240 L450 490 L330 490 Z " />
<glyph glyph-name="x" unicode="x" horiz-adv-x="530" d="M260 140 L345 0 L525 0 L370 250 L515 490 L330 490 L260 360 L190 490 L5 490 L150 250 L-5 0 L175 0 L260 140 Z " />
<glyph glyph-name="y" unicode="y" horiz-adv-x="540" d="M165 -10 C155 -30 130 -55 90 -55 C60 -55 40 -45 40 -45 L40 -195 C40 -195 80 -210 135 -210 C230 -210 295 -145 350 0 L535 490 L355 490 L265 205 L175 490 L-5 490 L175 10 L165 -10 Z " />
<glyph glyph-name="z" unicode="z" horiz-adv-x="510" d="M460 490 L40 490 L40 340 L240 340 L30 150 L30 0 L470 0 L470 150 L250 150 L460 340 L460 490 Z " />
<glyph glyph-name="braceleft" unicode="&#x7b;" horiz-adv-x="430" d="M50 175 C90 175 120 145 120 105 L120 -15 C120 -145 185 -210 295 -210 L395 -210 L395 -50 L350 -50 C320 -50 295 -25 295 10 L295 120 C295 230 210 250 210 250 C210 250 295 270 295 380 L295 490 C295 525 320 550 350 550 L395 550 L395 710 L295 710 C185 710 120 645 120 515 L120 395 C120 355 90 325 50 325 L50 175 Z " />
<glyph glyph-name="bar" unicode="&#x7c;" horiz-adv-x="405" d="M290 710 L115 710 L115 -210 L290 -210 L290 710 Z " />
<glyph glyph-name="braceright" unicode="&#x7d;" horiz-adv-x="430" d="M380 325 C340 325 310 355 310 395 L310 515 C310 645 245 710 135 710 L35 710 L35 550 L80 550 C110 550 135 525 135 490 L135 380 C135 270 220 250 220 250 C220 250 135 230 135 120 L135 10 C135 -25 110 -50 80 -50 L35 -50 L35 -210 L135 -210 C245 -210 310 -145 310 -15 L310 105 C310 145 340 175 380 175 L380 325 Z " />
<glyph glyph-name="asciitilde" unicode="&#x7e;" horiz-adv-x="580" d="M220 250 C285 250 310 200 400 200 C515 200 555 315 555 315 L450 390 C450 390 415 345 360 345 C295 345 270 395 180 395 C65 395 25 280 25 280 L130 205 C130 205 165 250 220 250 L220 250 Z " />
<glyph glyph-name="nbspace" unicode="&#xa0;" horiz-adv-x="210" d="" />
<glyph glyph-name="exclamdown" unicode="&#xa1;" horiz-adv-x="330" d="M95 270 L65 -210 L265 -210 L235 270 L95 270 Z M70 410 C70 360 110 320 165 320 C220 320 260 360 260 410 C260 460 220 500 165 500 C110 500 70 460 70 410 L70 410 Z " />
<glyph glyph-name="cent" unicode="&#xa2;" horiz-adv-x="530" d="M220 -100 L375 -100 L375 0 C460 25 500 80 500 80 L400 185 C400 185 375 140 310 140 C250 140 205 185 205 245 C205 305 250 350 310 350 C375 350 400 305 400 305 L500 410 C500 410 460 465 375 490 L375 585 L220 585 L220 490 C110 455 30 355 30 245 C30 135 110 35 220 0 L220 -100 Z " />
<glyph glyph-name="sterling" unicode="&#xa3;" horiz-adv-x="600" d="M115 480 L115 400 L55 400 L55 280 L115 280 L115 220 C115 187 93 165 55 165 L55 0 L575 0 L575 165 L270 165 C270 165 295 180 295 220 L295 280 L450 280 L450 400 L295 400 L295 461 C295 505 330 540 375 540 C425 540 450 500 450 500 L580 625 C580 625 506 720 365 720 C210 720 115 625 115 480 L115 480 Z " />
<glyph glyph-name="currency" unicode="&#xa4;" horiz-adv-x="720" d="M305 400 L305 540 L420 540 C465 540 495 510 495 470 C495 430 465 400 420 400 L305 400 Z M427 265 C590 265 685 360 685 480 C685 600 585 700 425 700 L115 700 L115 400 L45 400 L45 265 L115 265 L115 220 L45 220 L45 85 L115 85 L115 0 L305 0 L305 85 L505 85 L505 220 L305 220 L305 265 L427 265 Z " />
<glyph glyph-name="yen" unicode="&#xa5;" horiz-adv-x="690" d="M580 245 L580 370 L506 370 L690 700 L485 700 L345 430 L205 700 L0 700 L183 370 L110 370 L110 245 L250 245 L250 205 L110 205 L110 80 L250 80 L250 0 L440 0 L440 80 L580 80 L580 205 L440 205 L440 245 L580 245 Z " />
<glyph glyph-name="brokenbar" unicode="&#xa6;" horiz-adv-x="405" d="M115 170 L115 -210 L290 -210 L290 170 L115 170 Z M290 330 L290 710 L115 710 L115 330 L290 330 Z " />
<glyph glyph-name="section" unicode="&#xa7;" horiz-adv-x="565" d="M485 640 C485 640 425 720 290 720 C155 720 75 640 75 560 C75 485 140 445 140 445 C140 445 50 405 50 315 C50 141 305 145 305 65 C305 35 285 15 240 15 C175 15 135 70 135 70 L50 -15 C50 -15 115 -120 275 -120 C420 -120 500 -40 500 50 C500 130 425 170 425 170 C425 170 515 215 515 305 C515 480 275 480 275 545 C275 566 289 586 330 586 C369 586 400 555 400 555 L485 640 Z M355 295 C355 250 315 240 315 240 C315 240 210 265 210 325 C210 370 250 380 250 380 C250 380 355 355 355 295 L355 295 Z " />
<glyph glyph-name="dieresis" unicode="&#xa8;" horiz-adv-x="460" d="M30 635 C30 590 70 550 115 550 C160 550 200 590 200 635 C200 680 160 720 115 720 C70 720 30 680 30 635 L30 635 Z M260 635 C260 590 300 550 345 550 C390 550 430 590 430 635 C430 680 390 720 345 720 C300 720 260 680 260 635 L260 635 Z " />
<glyph glyph-name="copyright" unicode="&#xa9;" horiz-adv-x="870" d="M155 350 C155 500 285 630 435 630 C585 630 715 500 715 350 C715 200 585 70 435 70 C285 70 155 200 155 350 L155 350 Z M815 350 C815 555 650 720 435 720 C220 720 55 555 55 350 C55 145 220 -20 435 -20 C650 -20 815 145 815 350 L815 350 Z M240 350 C240 240 330 150 445 150 C558 150 605 235 605 235 L535 305 C535 305 510 255 450 255 C400 255 355 300 355 350 C355 400 400 445 450 445 C510 445 535 400 535 400 L605 470 C605 470 558 550 445 550 C330 550 240 460 240 350 L240 350 Z " />
<glyph glyph-name="ordfeminine" unicode="&#xaa;" horiz-adv-x="390" d="M140 370 C205 370 235 415 235 415 L235 380 C270 380 345 380 345 380 L345 565 C345 655 290 710 195 710 C94 710 50 650 50 650 L115 585 C115 585 140 615 190 615 C220 615 235 600 235 585 L140 570 C75 560 35 520 35 470 C35 415 75 370 140 370 L140 370 Z M235 520 L235 510 C235 480 205 450 180 450 C160 450 150 460 150 475 C150 490 160 501 175 505 L235 520 Z " />
<glyph glyph-name="guillemotleft" unicode="&#xab;" horiz-adv-x="595" d="M325 420 L165 420 L35 240 L165 60 L325 60 L195 240 L325 420 Z M560 420 L400 420 L270 240 L400 60 L560 60 L430 240 L560 420 Z " />
<glyph glyph-name="logicalnot" unicode="&#xac;" horiz-adv-x="490" d="M455 425 L35 425 L35 275 L305 275 L305 160 L455 160 L455 425 Z " />
<glyph glyph-name="uni00AD" unicode="&#xad;" horiz-adv-x="435" d="M400 370 L35 370 L35 220 L400 220 L400 370 Z " />
<glyph glyph-name="registered" unicode="&#xae;" horiz-adv-x="870" d="M530 305 C530 305 595 335 595 410 C595 480 535 540 455 540 L280 540 L280 160 L395 160 L395 270 L430 270 L490 160 L610 160 L530 305 Z M395 435 L445 435 C465 435 480 420 480 405 C480 390 465 375 445 375 L395 375 L395 435 Z M155 350 C155 500 285 630 435 630 C585 630 713 503 713 353 C713 203 585 70 435 70 C285 70 155 200 155 350 L155 350 Z M815 350 C815 555 650 720 435 720 C220 720 55 555 55 350 C55 145 220 -20 435 -20 C650 -20 815 145 815 350 L815 350 Z " />
<glyph glyph-name="macron" unicode="&#xaf;" horiz-adv-x="390" d="M360 730 L30 730 L30 600 L360 600 L360 730 Z " />
<glyph glyph-name="degree" unicode="&#xb0;" horiz-adv-x="400" d="M145 555 C145 585 170 610 200 610 C230 610 255 585 255 555 C255 525 230 500 200 500 C170 500 145 525 145 555 L145 555 Z M365 555 C365 635 290 710 200 710 C110 710 35 635 35 555 C35 475 110 400 200 400 C290 400 365 475 365 555 L365 555 Z " />
<glyph glyph-name="plusminus" unicode="&#xb1;" horiz-adv-x="530" d="M190 330 L190 185 L340 185 L340 330 L495 330 L495 485 L340 485 L340 630 L190 630 L190 485 L35 485 L35 330 L190 330 Z M35 0 L495 0 L495 140 L35 140 L35 0 Z " />
<glyph glyph-name="twosuperior" unicode="&#xb2;" horiz-adv-x="340" d="M310 690 C310 755 260 805 170 805 C55 805 25 707 25 707 L115 670 C115 670 130 700 155 700 C174 700 185 690 185 675 C185 620 30 610 30 440 L305 440 L305 545 L185 545 C220 580 310 610 310 690 L310 690 Z " />
<glyph glyph-name="threesuperior" unicode="&#xb3;" horiz-adv-x="345" d="M255 630 C255 630 305 650 305 705 C305 755 255 805 168 805 C69 805 30 750 30 750 L90 685 C90 685 115 715 145 715 C170 715 180 705 180 690 C180 680 170 670 145 670 L110 670 L110 590 L145 590 C180 590 190 580 190 560 C190 545 175 530 155 530 C110 530 80 565 80 565 L20 500 C20 500 60 435 170 435 C260 435 315 490 315 550 C315 615 255 630 255 630 L255 630 Z " />
<glyph glyph-name="acute" unicode="&#xb4;" horiz-adv-x="325" d="M30 550 L175 550 L295 711 L115 711 L30 550 Z " />
<glyph glyph-name="mu" unicode="&#xb5;" horiz-adv-x="610" d="M540 490 L370 490 L370 240 C370 185 335 150 295 150 C255 150 225 180 225 230 L225 490 L55 490 L55 -210 L225 -210 L225 -10 L235 -10 C345 -10 395 65 395 65 C395 65 420 -10 525 -10 C565 -10 590 5 590 5 L590 150 C590 150 580 145 570 145 C550 145 540 155 540 175 L540 490 Z " />
<glyph glyph-name="paragraph" unicode="&#xb6;" horiz-adv-x="670" d="M220 -100 L370 -100 L370 530 L440 530 L440 -100 L590 -100 L590 700 L220 700 C117 700 30 611 30 510 C30 409 117 320 220 320 L220 -100 Z " />
<glyph glyph-name="periodcentered" unicode="&#xb7;" horiz-adv-x="210" d="M10 250 C10 200 50 160 105 160 C160 160 200 200 200 250 C200 300 160 340 105 340 C50 340 10 300 10 250 L10 250 Z " />
<glyph glyph-name="cedilla" unicode="&#xb8;" horiz-adv-x="310" d="M130 20 L85 -80 L115 -115 C115 -115 125 -110 140 -110 C160 -110 170 -120 170 -135 C170 -150 160 -160 135 -160 C100 -160 70 -130 70 -130 L30 -195 C30 -195 80 -245 155 -245 C235 -245 280 -200 280 -140 C280 -50 175 -45 175 -45 L210 20 L130 20 Z " />
<glyph glyph-name="onesuperior" unicode="&#xb9;" horiz-adv-x="240" d="M95 800 C95 800 70 755 20 750 L20 665 L80 665 L80 440 L200 440 L200 800 L95 800 Z " />
<glyph glyph-name="ordmasculine" unicode="&#xba;" horiz-adv-x="400" d="M200 480 C165 480 140 505 140 540 C140 575 165 600 200 600 C235 600 260 575 260 540 C260 505 235 480 200 480 L200 480 Z M200 370 C295 370 375 450 375 540 C375 630 295 710 200 710 C105 710 25 630 25 540 C25 450 105 370 200 370 L200 370 Z " />
<glyph glyph-name="guillemotright" unicode="&#xbb;" horiz-adv-x="595" d="M400 240 L270 60 L430 60 L560 240 L430 420 L270 420 L400 240 Z M165 240 L35 60 L195 60 L325 240 L195 420 L35 420 L165 240 Z " />
<glyph glyph-name="onequarter" unicode="&#xbc;" horiz-adv-x="750" d="M70 0 L230 0 L665 700 L505 700 L70 0 Z M105 700 C105 700 80 655 30 650 L30 565 L90 565 L90 340 L210 340 L210 700 L105 700 Z M695 360 L580 360 L425 160 L425 65 L580 65 L580 0 L695 0 L695 65 L730 65 L730 165 L695 165 L695 360 Z M525 160 L585 240 L585 160 L525 160 Z " />
<glyph glyph-name="onehalf" unicode="&#xbd;" horiz-adv-x="790" d="M70 0 L230 0 L665 700 L505 700 L70 0 Z M105 700 C105 700 80 655 30 650 L30 565 L90 565 L90 340 L210 340 L210 700 L105 700 Z M760 250 C760 315 710 365 620 365 C505 365 475 267 475 267 L565 230 C565 230 580 260 605 260 C624 260 635 250 635 235 C635 180 480 170 480 0 L755 0 L755 105 L635 105 C670 140 760 170 760 250 L760 250 Z " />
<glyph glyph-name="threequarters" unicode="&#xbe;" horiz-adv-x="805" d="M125 0 L285 0 L720 700 L560 700 L125 0 Z M750 360 L635 360 L480 160 L480 65 L635 65 L635 0 L750 0 L750 65 L785 65 L785 165 L750 165 L750 360 Z M580 160 L640 240 L640 160 L580 160 Z M250 530 C250 530 300 550 300 605 C300 655 250 705 163 705 C64 705 25 650 25 650 L85 585 C85 585 110 615 140 615 C165 615 175 605 175 590 C175 580 165 570 140 570 L105 570 L105 490 L140 490 C175 490 185 480 185 460 C185 445 170 430 150 430 C105 430 75 465 75 465 L15 400 C15 400 55 335 165 335 C255 335 310 390 310 450 C310 515 250 530 250 530 L250 530 Z " />
<glyph glyph-name="questiondown" unicode="&#xbf;" horiz-adv-x="500" d="M375 225 C375 245 365 270 365 270 L190 270 C190 180 15 155 15 -20 C15 -125 120 -230 275 -230 C485 -230 540 -60 540 -60 L380 15 C380 15 360 -45 285 -45 C245 -45 220 -20 220 10 C220 85 375 91 375 225 L375 225 Z M385 410 C385 460 345 500 290 500 C235 500 195 460 195 410 C195 360 235 320 290 320 C345 320 385 360 385 410 L385 410 Z " />
<glyph glyph-name="Agrave" unicode="&#xc0;" horiz-adv-x="740" d="M435 300 L305 300 L370 505 L435 300 Z M485 150 L535 0 L740 0 L475 700 L265 700 L0 0 L205 0 L255 150 L485 150 Z M350 941 L170 941 L290 780 L435 780 L350 941 Z " />
<glyph glyph-name="Aacute" unicode="&#xc1;" horiz-adv-x="740" d="M435 300 L305 300 L370 505 L435 300 Z M485 150 L535 0 L740 0 L475 700 L265 700 L0 0 L205 0 L255 150 L485 150 Z M300 780 L445 780 L565 941 L385 941 L300 780 Z " />
<glyph glyph-name="Acircumflex" unicode="&#xc2;" horiz-adv-x="740" d="M435 300 L305 300 L370 505 L435 300 Z M485 150 L535 0 L740 0 L475 700 L265 700 L0 0 L205 0 L255 150 L485 150 Z M415 780 L570 780 L440 940 L290 940 L160 780 L315 780 L365 850 L415 780 Z " />
<glyph glyph-name="Atilde" unicode="&#xc3;" horiz-adv-x="740" d="M435 300 L305 300 L370 505 L435 300 Z M485 150 L535 0 L740 0 L475 700 L265 700 L0 0 L205 0 L255 150 L485 150 Z M325 820 C360 820 380 770 445 770 C505 770 555 820 555 940 L450 940 C450 905 435 890 415 890 C380 890 360 940 295 940 C235 940 185 890 185 770 L290 770 C290 805 305 820 325 820 L325 820 Z " />
<glyph glyph-name="Adieresis" unicode="&#xc4;" horiz-adv-x="740" d="M435 300 L305 300 L370 505 L435 300 Z M485 150 L535 0 L740 0 L475 700 L265 700 L0 0 L205 0 L255 150 L485 150 Z M170 855 C170 810 210 770 255 770 C300 770 340 810 340 855 C340 900 300 940 255 940 C210 940 170 900 170 855 L170 855 Z M400 855 C400 810 440 770 485 770 C530 770 570 810 570 855 C570 900 530 940 485 940 C440 940 400 900 400 855 L400 855 Z " />
<glyph glyph-name="Aring" unicode="&#xc5;" horiz-adv-x="740" d="M435 300 L305 300 L370 505 L435 300 Z M485 150 L535 0 L740 0 L475 700 L265 700 L0 0 L205 0 L255 150 L485 150 Z M335 870 C335 895 350 910 375 910 C400 910 415 895 415 870 C415 845 400 830 375 830 C350 830 335 845 335 870 L335 870 Z M505 870 C505 935 450 990 375 990 C300 990 245 935 245 870 C245 805 300 750 375 750 C450 750 505 805 505 870 L505 870 Z " />
<glyph glyph-name="AE" unicode="&#xc6;" horiz-adv-x="1020" d="M655 160 L655 280 L890 280 L890 430 L655 430 L655 540 L970 540 L970 700 L350 700 L-40 0 L155 0 L240 155 L465 155 L465 0 L980 0 L980 160 L655 160 Z M450 540 L465 540 L465 310 L325 310 L450 540 Z " />
<glyph glyph-name="Ccedilla" unicode="&#xc7;" horiz-adv-x="750" d="M230 350 C230 465 315 550 430 550 C545 550 610 460 610 460 L725 580 C725 580 630 720 430 720 C210 720 40 550 40 350 C40 169 179 12 369 -15 L340 -80 L370 -115 C370 -115 380 -110 395 -110 C415 -110 425 -120 425 -135 C425 -150 415 -160 390 -160 C355 -160 325 -130 325 -130 L285 -195 C285 -195 335 -245 410 -245 C490 -245 535 -200 535 -140 C535 -50 430 -45 430 -45 L443 -19 C639 -13 730 120 730 120 L620 240 C620 240 550 150 430 150 C315 150 230 235 230 350 L230 350 Z " />
<glyph glyph-name="Egrave" unicode="&#xc8;" horiz-adv-x="670" d="M270 160 L270 280 L540 280 L540 430 L270 430 L270 540 L620 540 L620 700 L80 700 L80 0 L630 0 L630 160 L270 160 Z M350 941 L170 941 L290 780 L435 780 L350 941 Z " />
<glyph glyph-name="Eacute" unicode="&#xc9;" horiz-adv-x="670" d="M270 160 L270 280 L540 280 L540 430 L270 430 L270 540 L620 540 L620 700 L80 700 L80 0 L630 0 L630 160 L270 160 Z M280 780 L425 780 L545 941 L365 941 L280 780 Z " />
<glyph glyph-name="Ecircumflex" unicode="&#xca;" horiz-adv-x="670" d="M270 160 L270 280 L540 280 L540 430 L270 430 L270 540 L620 540 L620 700 L80 700 L80 0 L630 0 L630 160 L270 160 Z M400 780 L555 780 L425 940 L275 940 L145 780 L300 780 L350 850 L400 780 Z " />
<glyph glyph-name="Edieresis" unicode="&#xcb;" horiz-adv-x="670" d="M270 160 L270 280 L540 280 L540 430 L270 430 L270 540 L620 540 L620 700 L80 700 L80 0 L630 0 L630 160 L270 160 Z M155 855 C155 810 195 770 240 770 C285 770 325 810 325 855 C325 900 285 940 240 940 C195 940 155 900 155 855 L155 855 Z M385 855 C385 810 425 770 470 770 C515 770 555 810 555 855 C555 900 515 940 470 940 C425 940 385 900 385 855 L385 855 Z " />
<glyph glyph-name="Igrave" unicode="&#xcc;" horiz-adv-x="350" d="M80 0 L270 0 L270 700 L80 700 L80 0 Z M165 941 L-15 941 L105 780 L250 780 L165 941 Z " />
<glyph glyph-name="Iacute" unicode="&#xcd;" horiz-adv-x="350" d="M80 0 L270 0 L270 700 L80 700 L80 0 Z M100 780 L245 780 L365 941 L185 941 L100 780 Z " />
<glyph glyph-name="Icircumflex" unicode="&#xce;" horiz-adv-x="350" d="M80 0 L270 0 L270 700 L80 700 L80 0 Z M225 780 L380 780 L250 940 L100 940 L-30 780 L125 780 L175 850 L225 780 Z " />
<glyph glyph-name="Idieresis" unicode="&#xcf;" horiz-adv-x="350" d="M80 0 L270 0 L270 700 L80 700 L80 0 Z M-25 855 C-25 810 15 770 60 770 C105 770 145 810 145 855 C145 900 105 940 60 940 C15 940 -25 900 -25 855 L-25 855 Z M205 855 C205 810 245 770 290 770 C335 770 375 810 375 855 C375 900 335 940 290 940 C245 940 205 900 205 855 L205 855 Z " />
<glyph glyph-name="Eth" unicode="&#xd0;" horiz-adv-x="780" d="M100 700 L100 420 L25 420 L25 280 L100 280 L100 0 L370 0 C585 0 740 155 740 350 C740 545 585 700 370 700 L100 700 Z M370 530 C475 530 550 455 550 350 C550 245 465 170 370 170 L290 170 L290 280 L405 280 L405 420 L290 420 L290 530 L370 530 Z " />
<glyph glyph-name="Ntilde" unicode="&#xd1;" horiz-adv-x="815" d="M545 700 L545 310 L245 700 L80 700 L80 0 L270 0 L270 390 L571 0 L735 0 L735 700 L545 700 Z M365 820 C400 820 420 770 485 770 C545 770 595 820 595 940 L490 940 C490 905 475 890 455 890 C420 890 400 940 335 940 C275 940 225 890 225 770 L330 770 C330 805 345 820 365 820 L365 820 Z " />
<glyph glyph-name="Ograve" unicode="&#xd2;" horiz-adv-x="860" d="M235 350 C235 465 320 550 430 550 C540 550 625 465 625 350 C625 235 540 150 430 150 C320 150 235 235 235 350 L235 350 Z M820 350 C820 550 650 720 430 720 C210 720 40 550 40 350 C40 150 210 -20 430 -20 C650 -20 820 150 820 350 L820 350 Z M420 941 L240 941 L360 780 L505 780 L420 941 Z " />
<glyph glyph-name="Oacute" unicode="&#xd3;" horiz-adv-x="860" d="M235 350 C235 465 320 550 430 550 C540 550 625 465 625 350 C625 235 540 150 430 150 C320 150 235 235 235 350 L235 350 Z M820 350 C820 550 650 720 430 720 C210 720 40 550 40 350 C40 150 210 -20 430 -20 C650 -20 820 150 820 350 L820 350 Z M360 780 L505 780 L625 941 L445 941 L360 780 Z " />
<glyph glyph-name="Ocircumflex" unicode="&#xd4;" horiz-adv-x="860" d="M235 350 C235 465 320 550 430 550 C540 550 625 465 625 350 C625 235 540 150 430 150 C320 150 235 235 235 350 L235 350 Z M820 350 C820 550 650 720 430 720 C210 720 40 550 40 350 C40 150 210 -20 430 -20 C650 -20 820 150 820 350 L820 350 Z M480 780 L635 780 L505 940 L355 940 L225 780 L380 780 L430 850 L480 780 Z " />
<glyph glyph-name="Otilde" unicode="&#xd5;" horiz-adv-x="860" d="M235 350 C235 465 320 550 430 550 C540 550 625 465 625 350 C625 235 540 150 430 150 C320 150 235 235 235 350 L235 350 Z M820 350 C820 550 650 720 430 720 C210 720 40 550 40 350 C40 150 210 -20 430 -20 C650 -20 820 150 820 350 L820 350 Z M392 825 C427 825 447 775 512 775 C572 775 622 825 622 945 L517 945 C517 910 502 895 482 895 C447 895 427 945 362 945 C302 945 252 895 252 775 L357 775 C357 810 372 825 392 825 L392 825 Z " />
<glyph glyph-name="Odieresis" unicode="&#xd6;" horiz-adv-x="860" d="M235 350 C235 465 320 550 430 550 C540 550 625 465 625 350 C625 235 540 150 430 150 C320 150 235 235 235 350 L235 350 Z M820 350 C820 550 650 720 430 720 C210 720 40 550 40 350 C40 150 210 -20 430 -20 C650 -20 820 150 820 350 L820 350 Z M230 855 C230 810 270 770 315 770 C360 770 400 810 400 855 C400 900 360 940 315 940 C270 940 230 900 230 855 L230 855 Z M460 855 C460 810 500 770 545 770 C590 770 630 810 630 855 C630 900 590 940 545 940 C500 940 460 900 460 855 L460 855 Z " />
<glyph glyph-name="multiply" unicode="&#xd7;" horiz-adv-x="510" d="M35 190 L135 90 L255 210 L375 90 L475 190 L355 310 L475 430 L375 530 L255 410 L135 530 L35 430 L155 310 L35 190 Z " />
<glyph glyph-name="Oslash" unicode="&#xd8;" horiz-adv-x="860" d="M250 270 C250 270 235 300 235 350 C235 465 320 550 430 550 C490 550 520 530 520 530 L250 270 Z M820 350 C820 480 750 565 750 565 L830 640 L735 735 L650 655 C650 655 565 720 430 720 C210 720 40 550 40 350 C40 220 110 135 110 135 L30 60 L125 -35 L210 45 C210 45 295 -20 430 -20 C650 -20 820 150 820 350 L820 350 Z M610 430 C610 430 625 400 625 350 C625 235 540 150 430 150 C370 150 340 170 340 170 L610 430 Z " />
<glyph glyph-name="Ugrave" unicode="&#xd9;" horiz-adv-x="790" d="M395 150 C325 150 265 210 265 290 L265 700 L75 700 L75 290 C75 115 210 -20 395 -20 C580 -20 715 115 715 290 L715 700 L525 700 L525 290 C525 210 465 150 395 150 L395 150 Z M395 941 L215 941 L335 780 L480 780 L395 941 Z " />
<glyph glyph-name="Uacute" unicode="&#xda;" horiz-adv-x="790" d="M395 150 C325 150 265 210 265 290 L265 700 L75 700 L75 290 C75 115 210 -20 395 -20 C580 -20 715 115 715 290 L715 700 L525 700 L525 290 C525 210 465 150 395 150 L395 150 Z M325 780 L470 780 L590 941 L410 941 L325 780 Z " />
<glyph glyph-name="Ucircumflex" unicode="&#xdb;" horiz-adv-x="790" d="M395 150 C325 150 265 210 265 290 L265 700 L75 700 L75 290 C75 115 210 -20 395 -20 C580 -20 715 115 715 290 L715 700 L525 700 L525 290 C525 210 465 150 395 150 L395 150 Z M445 780 L600 780 L470 940 L320 940 L190 780 L345 780 L395 850 L445 780 Z " />
<glyph glyph-name="Udieresis" unicode="&#xdc;" horiz-adv-x="790" d="M395 150 C325 150 265 210 265 290 L265 700 L75 700 L75 290 C75 115 210 -20 395 -20 C580 -20 715 115 715 290 L715 700 L525 700 L525 290 C525 210 465 150 395 150 L395 150 Z M195 855 C195 810 235 770 280 770 C325 770 365 810 365 855 C365 900 325 940 280 940 C235 940 195 900 195 855 L195 855 Z M425 855 C425 810 465 770 510 770 C555 770 595 810 595 855 C595 900 555 940 510 940 C465 940 425 900 425 855 L425 855 Z " />
<glyph glyph-name="Yacute" unicode="&#xdd;" horiz-adv-x="690" d="M485 700 L345 430 L205 700 L0 700 L250 250 L250 0 L440 0 L440 250 L690 700 L485 700 Z M275 780 L420 780 L540 941 L360 941 L275 780 Z " />
<glyph glyph-name="Thorn" unicode="&#xde;" horiz-adv-x="705" d="M80 720 L80 -20 L270 -20 L270 115 L405 115 C560 115 665 220 665 360 C665 500 560 605 405 605 L270 605 L270 720 L80 720 Z M395 435 C440 435 475 400 475 360 C475 320 440 285 395 285 L270 285 L270 435 L395 435 Z " />
<glyph glyph-name="germandbls" unicode="&#xdf;" horiz-adv-x="625" d="M460 385 C460 385 535 425 535 520 C535 620 445 710 305 710 C151 710 60 619 60 485 L60 0 L230 0 L230 485 C230 530 260 560 300 560 C340 560 370 530 370 495 C370 465 340 435 300 435 L290 435 L290 290 L335 290 C375 290 405 260 405 220 C405 185 375 155 335 155 L290 155 L290 0 L334 0 C490 0 585 95 585 210 C585 340 460 385 460 385 L460 385 Z " />
<glyph glyph-name="agrave" unicode="&#xe0;" horiz-adv-x="550" d="M485 0 L485 304 C485 410 394 500 260 500 C122 500 55 405 55 405 L140 315 C140 315 179 365 245 365 C294 365 315 338 315 315 L175 285 C80 265 25 210 25 130 C25 55 90 -10 185 -10 C270 -10 315 55 315 55 L315 0 L485 0 Z M240 120 C210 120 195 135 195 160 C195 180 215 200 240 205 L315 220 L315 205 C315 155 280 120 240 120 L240 120 Z M275 716 L95 716 L215 555 L360 555 L275 716 Z " />
<glyph glyph-name="aacute" unicode="&#xe1;" horiz-adv-x="550" d="M485 0 L485 304 C485 410 394 500 260 500 C122 500 55 405 55 405 L140 315 C140 315 179 365 245 365 C294 365 315 338 315 315 L175 285 C80 265 25 210 25 130 C25 55 90 -10 185 -10 C270 -10 315 55 315 55 L315 0 L485 0 Z M240 120 C210 120 195 135 195 160 C195 180 215 200 240 205 L315 220 L315 205 C315 155 280 120 240 120 L240 120 Z M200 555 L345 555 L465 716 L285 716 L200 555 Z " />
<glyph glyph-name="acircumflex" unicode="&#xe2;" horiz-adv-x="550" d="M485 0 L485 304 C485 410 394 500 260 500 C122 500 55 405 55 405 L140 315 C140 315 179 365 245 365 C294 365 315 338 315 315 L175 285 C80 265 25 210 25 130 C25 55 90 -10 185 -10 C270 -10 315 55 315 55 L315 0 L485 0 Z M240 120 C210 120 195 135 195 160 C195 180 215 200 240 205 L315 220 L315 205 C315 155 280 120 240 120 L240 120 Z M325 555 L480 555 L350 715 L200 715 L70 555 L225 555 L275 625 L325 555 Z " />
<glyph glyph-name="atilde" unicode="&#xe3;" horiz-adv-x="550" d="M485 0 L485 304 C485 410 394 500 260 500 C122 500 55 405 55 405 L140 315 C140 315 179 365 245 365 C294 365 315 338 315 315 L175 285 C80 265 25 210 25 130 C25 55 90 -10 185 -10 C270 -10 315 55 315 55 L315 0 L485 0 Z M240 120 C210 120 195 135 195 160 C195 180 215 200 240 205 L315 220 L315 205 C315 155 280 120 240 120 L240 120 Z M240 595 C275 595 295 545 360 545 C420 545 470 595 470 715 L365 715 C365 680 350 665 330 665 C295 665 275 715 210 715 C150 715 100 665 100 545 L205 545 C205 580 220 595 240 595 L240 595 Z " />
<glyph glyph-name="adieresis" unicode="&#xe4;" horiz-adv-x="550" d="M485 0 L485 304 C485 410 394 500 260 500 C122 500 55 405 55 405 L140 315 C140 315 179 365 245 365 C294 365 315 338 315 315 L175 285 C80 265 25 210 25 130 C25 55 90 -10 185 -10 C270 -10 315 55 315 55 L315 0 L485 0 Z M240 120 C210 120 195 135 195 160 C195 180 215 200 240 205 L315 220 L315 205 C315 155 280 120 240 120 L240 120 Z M80 630 C80 585 120 545 165 545 C210 545 250 585 250 630 C250 675 210 715 165 715 C120 715 80 675 80 630 L80 630 Z M310 630 C310 585 350 545 395 545 C440 545 480 585 480 630 C480 675 440 715 395 715 C350 715 310 675 310 630 L310 630 Z " />
<glyph glyph-name="aring" unicode="&#xe5;" horiz-adv-x="550" d="M485 0 L485 304 C485 410 394 500 260 500 C122 500 55 405 55 405 L140 315 C140 315 179 365 245 365 C294 365 315 338 315 315 L175 285 C80 265 25 210 25 130 C25 55 90 -10 185 -10 C270 -10 315 55 315 55 L315 0 L485 0 Z M240 120 C210 120 195 135 195 160 C195 180 215 200 240 205 L315 220 L315 205 C315 155 280 120 240 120 L240 120 Z M245 655 C245 680 260 695 285 695 C310 695 325 680 325 655 C325 630 310 615 285 615 C260 615 245 630 245 655 L245 655 Z M415 655 C415 720 360 775 285 775 C210 775 155 720 155 655 C155 590 210 535 285 535 C360 535 415 590 415 655 L415 655 Z " />
<glyph glyph-name="ae" unicode="&#xe6;" horiz-adv-x="870" d="M255 500 C125 500 60 405 60 405 L145 315 C145 315 185 365 250 365 C300 365 325 340 325 305 L230 295 C85 280 25 220 25 135 C25 60 95 -10 210 -10 C345 -10 405 75 405 75 C405 75 470 -10 590 -10 C714 -10 795 65 795 65 L720 175 C720 175 675 125 610 125 C545 125 500 170 495 200 L825 200 C825 200 835 220 835 255 C835 390 725 500 585 500 C473 500 410 425 410 425 C410 425 357 500 255 500 L255 500 Z M580 370 C625 370 660 335 665 295 L490 295 C500 336 535 370 580 370 L580 370 Z M235 120 C205 120 185 140 185 156 C185 180 205 202 250 205 L320 210 C320 156 285 120 235 120 L235 120 Z " />
<glyph glyph-name="ccedilla" unicode="&#xe7;" horiz-adv-x="540" d="M30 245 C30 127 121 21 244 -4 L210 -80 L240 -115 C240 -115 250 -110 265 -110 C285 -110 295 -120 295 -135 C295 -150 285 -160 260 -160 C225 -160 195 -130 195 -130 L155 -195 C155 -195 205 -245 280 -245 C360 -245 405 -200 405 -140 C405 -50 300 -45 300 -45 L319 -9 C446 -1 510 90 510 90 L410 195 C410 195 375 140 310 140 C250 140 205 185 205 245 C205 305 250 350 310 350 C375 350 410 295 410 295 L510 400 C510 400 440 500 300 500 C150 500 30 380 30 245 L30 245 Z " />
<glyph glyph-name="egrave" unicode="&#xe8;" horiz-adv-x="580" d="M540 200 C540 200 545 220 545 255 C545 390 435 500 290 500 C145 500 30 385 30 245 C30 105 145 -10 300 -10 C430 -10 505 65 505 65 L430 175 C430 175 390 125 320 125 C250 125 210 165 205 200 L540 200 Z M290 370 C335 370 365 340 375 300 L205 300 C215 340 245 370 290 370 L290 370 Z M290 716 L110 716 L230 555 L375 555 L290 716 Z " />
<glyph glyph-name="eacute" unicode="&#xe9;" horiz-adv-x="580" d="M540 200 C540 200 545 220 545 255 C545 390 435 500 290 500 C145 500 30 385 30 245 C30 105 145 -10 300 -10 C430 -10 505 65 505 65 L430 175 C430 175 390 125 320 125 C250 125 210 165 205 200 L540 200 Z M290 370 C335 370 365 340 375 300 L205 300 C215 340 245 370 290 370 L290 370 Z M220 555 L365 555 L485 716 L305 716 L220 555 Z " />
<glyph glyph-name="ecircumflex" unicode="&#xea;" horiz-adv-x="580" d="M540 200 C540 200 545 220 545 255 C545 390 435 500 290 500 C145 500 30 385 30 245 C30 105 145 -10 300 -10 C430 -10 505 65 505 65 L430 175 C430 175 390 125 320 125 C250 125 210 165 205 200 L540 200 Z M290 370 C335 370 365 340 375 300 L205 300 C215 340 245 370 290 370 L290 370 Z M340 555 L495 555 L365 715 L215 715 L85 555 L240 555 L290 625 L340 555 Z " />
<glyph glyph-name="edieresis" unicode="&#xeb;" horiz-adv-x="580" d="M540 200 C540 200 545 220 545 255 C545 390 435 500 290 500 C145 500 30 385 30 245 C30 105 145 -10 300 -10 C430 -10 505 65 505 65 L430 175 C430 175 390 125 320 125 C250 125 210 165 205 200 L540 200 Z M290 370 C335 370 365 340 375 300 L205 300 C215 340 245 370 290 370 L290 370 Z M90 630 C90 585 130 545 175 545 C220 545 260 585 260 630 C260 675 220 715 175 715 C130 715 90 675 90 630 L90 630 Z M320 630 C320 585 360 545 405 545 C450 545 490 585 490 630 C490 675 450 715 405 715 C360 715 320 675 320 630 L320 630 Z " />
<glyph glyph-name="igrave" unicode="&#xec;" horiz-adv-x="300" d="M135 716 L-45 716 L75 555 L220 555 L135 716 Z M230 490 L60 490 L60 0 L230 0 L230 490 Z " />
<glyph glyph-name="iacute" unicode="&#xed;" horiz-adv-x="300" d="M70 555 L215 555 L335 716 L155 716 L70 555 Z M230 490 L60 490 L60 0 L230 0 L230 490 Z " />
<glyph glyph-name="icircumflex" unicode="&#xee;" horiz-adv-x="300" d="M230 490 L60 490 L60 0 L230 0 L230 490 Z M195 555 L350 555 L220 715 L70 715 L-60 555 L95 555 L145 625 L195 555 Z " />
<glyph glyph-name="idieresis" unicode="&#xef;" horiz-adv-x="300" d="M-55 630 C-55 585 -15 545 30 545 C75 545 115 585 115 630 C115 675 75 715 30 715 C-15 715 -55 675 -55 630 L-55 630 Z M175 630 C175 585 215 545 260 545 C305 545 345 585 345 630 C345 675 305 715 260 715 C215 715 175 675 175 630 L175 630 Z M230 490 L60 490 L60 0 L230 0 L230 490 Z " />
<glyph glyph-name="eth" unicode="&#xf0;" horiz-adv-x="620" d="M170 515 L285 570 C285 570 350 515 375 450 L370 450 C370 450 345 470 280 470 C130 470 25 365 25 230 C25 95 130 -10 295 -10 C465 -10 570 95 570 263 C570 490 410 630 410 630 L515 675 L440 750 L335 700 C335 700 295 740 240 770 L110 710 C170 680 210 645 210 645 L100 590 L170 515 Z M390 230 C390 175 350 135 295 135 C240 135 200 175 200 230 C200 285 240 325 295 325 C350 325 390 285 390 230 L390 230 Z " />
<glyph glyph-name="ntilde" unicode="&#xf1;" horiz-adv-x="610" d="M225 490 L55 490 L55 0 L225 0 L225 245 C225 305 260 340 305 340 C345 340 375 310 375 260 L375 0 L545 0 L545 290 C545 417 469 500 365 500 C275 500 225 430 225 430 L225 490 Z M260 595 C295 595 315 545 380 545 C440 545 490 595 490 715 L385 715 C385 680 370 665 350 665 C315 665 295 715 230 715 C170 715 120 665 120 545 L225 545 C225 580 240 595 260 595 L260 595 Z " />
<glyph glyph-name="ograve" unicode="&#xf2;" horiz-adv-x="610" d="M205 245 C205 305 250 350 300 350 C350 350 395 305 395 245 C395 185 350 140 300 140 C250 140 205 185 205 245 L205 245 Z M570 245 C570 380 450 500 300 500 C150 500 30 380 30 245 C30 110 150 -10 300 -10 C450 -10 570 110 570 245 L570 245 Z M290 716 L110 716 L230 555 L375 555 L290 716 Z " />
<glyph glyph-name="oacute" unicode="&#xf3;" horiz-adv-x="610" d="M205 245 C205 305 250 350 300 350 C350 350 395 305 395 245 C395 185 350 140 300 140 C250 140 205 185 205 245 L205 245 Z M570 245 C570 380 450 500 300 500 C150 500 30 380 30 245 C30 110 150 -10 300 -10 C450 -10 570 110 570 245 L570 245 Z M225 555 L370 555 L490 716 L310 716 L225 555 Z " />
<glyph glyph-name="ocircumflex" unicode="&#xf4;" horiz-adv-x="610" d="M205 245 C205 305 250 350 300 350 C350 350 395 305 395 245 C395 185 350 140 300 140 C250 140 205 185 205 245 L205 245 Z M570 245 C570 380 450 500 300 500 C150 500 30 380 30 245 C30 110 150 -10 300 -10 C450 -10 570 110 570 245 L570 245 Z M350 555 L505 555 L375 715 L225 715 L95 555 L250 555 L300 625 L350 555 Z " />
<glyph glyph-name="otilde" unicode="&#xf5;" horiz-adv-x="610" d="M205 245 C205 305 250 350 300 350 C350 350 395 305 395 245 C395 185 350 140 300 140 C250 140 205 185 205 245 L205 245 Z M570 245 C570 380 450 500 300 500 C150 500 30 380 30 245 C30 110 150 -10 300 -10 C450 -10 570 110 570 245 L570 245 Z M255 595 C290 595 310 545 375 545 C435 545 485 595 485 715 L380 715 C380 680 365 665 345 665 C310 665 290 715 225 715 C165 715 115 665 115 545 L220 545 C220 580 235 595 255 595 L255 595 Z " />
<glyph glyph-name="odieresis" unicode="&#xf6;" horiz-adv-x="610" d="M205 245 C205 305 250 350 300 350 C350 350 395 305 395 245 C395 185 350 140 300 140 C250 140 205 185 205 245 L205 245 Z M570 245 C570 380 450 500 300 500 C150 500 30 380 30 245 C30 110 150 -10 300 -10 C450 -10 570 110 570 245 L570 245 Z M100 630 C100 585 140 545 185 545 C230 545 270 585 270 630 C270 675 230 715 185 715 C140 715 100 675 100 630 L100 630 Z M330 630 C330 585 370 545 415 545 C460 545 500 585 500 630 C500 675 460 715 415 715 C370 715 330 675 330 630 L330 630 Z " />
<glyph glyph-name="divide" unicode="&#xf7;" horiz-adv-x="530" d="M495 355 L35 355 L35 235 L495 235 L495 355 Z M170 485 C170 440 210 400 265 400 C320 400 360 440 360 485 C360 530 320 570 265 570 C210 570 170 530 170 485 L170 485 Z M170 105 C170 60 210 20 265 20 C320 20 360 60 360 105 C360 150 320 190 265 190 C210 190 170 150 170 105 L170 105 Z " />
<glyph glyph-name="oslash" unicode="&#xf8;" horiz-adv-x="610" d="M300 500 C150 500 30 380 30 245 C30 150 80 100 80 100 L25 40 L105 -40 L165 25 C165 25 205 -10 300 -10 C450 -10 570 110 570 245 C570 340 520 390 520 390 L575 450 L495 530 L435 465 C435 465 395 500 300 500 L300 500 Z M395 245 C395 185 350 140 300 140 C285 140 280 145 280 145 L395 260 L395 245 Z M205 230 L205 245 C205 305 250 350 300 350 C315 350 320 345 320 345 L205 230 Z " />
<glyph glyph-name="ugrave" unicode="&#xf9;" horiz-adv-x="615" d="M375 0 L545 0 L545 490 L375 490 L375 240 C375 185 340 150 295 150 C255 150 225 180 225 225 L225 490 L55 490 L55 195 C55 70 135 -10 240 -10 C330 -10 375 55 375 55 L375 0 Z M290 716 L110 716 L230 555 L375 555 L290 716 Z " />
<glyph glyph-name="uacute" unicode="&#xfa;" horiz-adv-x="615" d="M375 0 L545 0 L545 490 L375 490 L375 240 C375 185 340 150 295 150 C255 150 225 180 225 225 L225 490 L55 490 L55 195 C55 70 135 -10 240 -10 C330 -10 375 55 375 55 L375 0 Z M220 555 L365 555 L485 716 L305 716 L220 555 Z " />
<glyph glyph-name="ucircumflex" unicode="&#xfb;" horiz-adv-x="615" d="M375 0 L545 0 L545 490 L375 490 L375 240 C375 185 340 150 295 150 C255 150 225 180 225 225 L225 490 L55 490 L55 195 C55 70 135 -10 240 -10 C330 -10 375 55 375 55 L375 0 Z M345 555 L500 555 L370 715 L220 715 L90 555 L245 555 L295 625 L345 555 Z " />
<glyph glyph-name="udieresis" unicode="&#xfc;" horiz-adv-x="615" d="M375 0 L545 0 L545 490 L375 490 L375 240 C375 185 340 150 295 150 C255 150 225 180 225 225 L225 490 L55 490 L55 195 C55 70 135 -10 240 -10 C330 -10 375 55 375 55 L375 0 Z M95 630 C95 585 135 545 180 545 C225 545 265 585 265 630 C265 675 225 715 180 715 C135 715 95 675 95 630 L95 630 Z M325 630 C325 585 365 545 410 545 C455 545 495 585 495 630 C495 675 455 715 410 715 C365 715 325 675 325 630 L325 630 Z " />
<glyph glyph-name="yacute" unicode="&#xfd;" horiz-adv-x="540" d="M165 -10 C155 -30 130 -55 90 -55 C60 -55 40 -45 40 -45 L40 -195 C40 -195 80 -210 135 -210 C230 -210 295 -145 350 0 L535 490 L355 490 L265 205 L175 490 L-5 490 L175 10 L165 -10 Z M195 555 L340 555 L460 716 L280 716 L195 555 Z " />
<glyph glyph-name="thorn" unicode="&#xfe;" horiz-adv-x="640" d="M235 245 C235 305 280 350 330 350 C380 350 425 305 425 245 C425 185 380 140 330 140 C280 140 235 185 235 245 L235 245 Z M235 60 C235 60 280 -10 375 -10 C495 -10 600 95 600 245 C600 395 495 500 375 500 C280 500 235 430 235 430 L235 700 L65 700 L65 -210 L235 -210 L235 60 Z " />
<glyph glyph-name="ydieresis" unicode="&#xff;" horiz-adv-x="540" d="M165 -10 C155 -30 130 -55 90 -55 C60 -55 40 -45 40 -45 L40 -195 C40 -195 80 -210 135 -210 C230 -210 295 -145 350 0 L535 490 L355 490 L265 205 L175 490 L-5 490 L175 10 L165 -10 Z M65 630 C65 585 105 545 150 545 C195 545 235 585 235 630 C235 675 195 715 150 715 C105 715 65 675 65 630 L65 630 Z M295 630 C295 585 335 545 380 545 C425 545 465 585 465 630 C465 675 425 715 380 715 C335 715 295 675 295 630 L295 630 Z " />
<glyph glyph-name="Amacron" unicode="&#x100;" horiz-adv-x="740" d="M435 300 L305 300 L370 505 L435 300 Z M485 150 L535 0 L740 0 L475 700 L265 700 L0 0 L205 0 L255 150 L485 150 Z M535 935 L205 935 L205 805 L535 805 L535 935 Z " />
<glyph glyph-name="amacron" unicode="&#x101;" horiz-adv-x="550" d="M485 0 L485 304 C485 410 394 500 260 500 C122 500 55 405 55 405 L140 315 C140 315 179 365 245 365 C294 365 315 338 315 315 L175 285 C80 265 25 210 25 130 C25 55 90 -10 185 -10 C270 -10 315 55 315 55 L315 0 L485 0 Z M240 120 C210 120 195 135 195 160 C195 180 215 200 240 205 L315 220 L315 205 C315 155 280 120 240 120 L240 120 Z M450 715 L120 715 L120 585 L450 585 L450 715 Z " />
<glyph glyph-name="Abreve" unicode="&#x102;" horiz-adv-x="740" d="M435 300 L305 300 L370 505 L435 300 Z M485 150 L535 0 L740 0 L475 700 L265 700 L0 0 L205 0 L255 150 L485 150 Z M370 780 C470 780 540 850 540 940 L420 940 C420 910 400 890 370 890 C340 890 320 910 320 940 L200 940 C200 850 270 780 370 780 L370 780 Z " />
<glyph glyph-name="abreve" unicode="&#x103;" horiz-adv-x="550" d="M485 0 L485 304 C485 410 394 500 260 500 C122 500 55 405 55 405 L140 315 C140 315 179 365 245 365 C294 365 315 338 315 315 L175 285 C80 265 25 210 25 130 C25 55 90 -10 185 -10 C270 -10 315 55 315 55 L315 0 L485 0 Z M240 120 C210 120 195 135 195 160 C195 180 215 200 240 205 L315 220 L315 205 C315 155 280 120 240 120 L240 120 Z M280 555 C380 555 450 625 450 715 L330 715 C330 685 310 665 280 665 C250 665 230 685 230 715 L110 715 C110 625 180 555 280 555 L280 555 Z " />
<glyph glyph-name="Aogonek" unicode="&#x104;" horiz-adv-x="740" d="M535 0 C535 0 460 -50 460 -125 C460 -185 510 -235 580 -235 C635 -235 670 -215 670 -215 L670 -125 C670 -125 650 -140 620 -140 C595 -140 580 -125 580 -100 C580 -50 610 0 610 0 L740 0 L475 700 L265 700 L0 0 L205 0 L255 150 L485 150 L535 0 Z M435 300 L305 300 L370 505 L435 300 Z " />
<glyph glyph-name="aogonek" unicode="&#x105;" horiz-adv-x="550" d="M485 0 L485 304 C485 410 394 500 260 500 C122 500 55 405 55 405 L140 315 C140 315 179 365 245 365 C294 365 315 338 315 315 L175 285 C80 265 25 210 25 130 C25 55 90 -10 185 -10 C270 -10 315 55 315 55 L315 0 C315 0 240 -50 240 -125 C240 -185 290 -235 360 -235 C415 -235 450 -215 450 -215 L450 -125 C450 -125 430 -140 400 -140 C375 -140 360 -125 360 -100 C360 -50 390 0 390 0 L485 0 Z M240 120 C210 120 195 135 195 160 C195 180 215 200 240 205 L315 220 L315 205 C315 155 280 120 240 120 L240 120 Z " />
<glyph glyph-name="Cacute" unicode="&#x106;" horiz-adv-x="750" d="M230 350 C230 465 315 550 430 550 C545 550 610 460 610 460 L725 580 C725 580 630 720 430 720 C210 720 40 550 40 350 C40 150 210 -20 430 -20 C635 -20 730 120 730 120 L620 240 C620 240 550 150 430 150 C315 150 230 235 230 350 L230 350 Z M340 780 L485 780 L605 941 L425 941 L340 780 Z " />
<glyph glyph-name="cacute" unicode="&#x107;" horiz-adv-x="540" d="M30 245 C30 110 150 -10 300 -10 C440 -10 510 90 510 90 L410 195 C410 195 375 140 310 140 C250 140 205 185 205 245 C205 305 250 350 310 350 C375 350 410 295 410 295 L510 400 C510 400 440 500 300 500 C150 500 30 380 30 245 L30 245 Z M215 555 L360 555 L480 716 L300 716 L215 555 Z " />
<glyph glyph-name="Ccircumflex" unicode="&#x108;" horiz-adv-x="750" d="M230 350 C230 465 315 550 430 550 C545 550 610 460 610 460 L725 580 C725 580 630 720 430 720 C210 720 40 550 40 350 C40 150 210 -20 430 -20 C635 -20 730 120 730 120 L620 240 C620 240 550 150 430 150 C315 150 230 235 230 350 L230 350 Z M465 780 L620 780 L490 940 L340 940 L210 780 L365 780 L415 850 L465 780 Z " />
<glyph glyph-name="ccircumflex" unicode="&#x109;" horiz-adv-x="540" d="M30 245 C30 110 150 -10 300 -10 C440 -10 510 90 510 90 L410 195 C410 195 375 140 310 140 C250 140 205 185 205 245 C205 305 250 350 310 350 C375 350 410 295 410 295 L510 400 C510 400 440 500 300 500 C150 500 30 380 30 245 L30 245 Z M340 555 L495 555 L365 715 L215 715 L85 555 L240 555 L290 625 L340 555 Z " />
<glyph glyph-name="Ccaron" unicode="&#x10c;" horiz-adv-x="750" d="M230 350 C230 465 315 550 430 550 C545 550 610 460 610 460 L725 580 C725 580 630 720 430 720 C210 720 40 550 40 350 C40 150 210 -20 430 -20 C635 -20 730 120 730 120 L620 240 C620 240 550 150 430 150 C315 150 230 235 230 350 L230 350 Z M420 870 L370 940 L215 940 L345 780 L495 780 L625 940 L470 940 L420 870 Z " />
<glyph glyph-name="ccaron" unicode="&#x10d;" horiz-adv-x="540" d="M30 245 C30 110 150 -10 300 -10 C440 -10 510 90 510 90 L410 195 C410 195 375 140 310 140 C250 140 205 185 205 245 C205 305 250 350 310 350 C375 350 410 295 410 295 L510 400 C510 400 440 500 300 500 C150 500 30 380 30 245 L30 245 Z M290 645 L240 715 L85 715 L215 555 L365 555 L495 715 L340 715 L290 645 Z " />
<glyph glyph-name="Dcaron" unicode="&#x10e;" horiz-adv-x="760" d="M80 700 L80 0 L350 0 C565 0 720 155 720 350 C720 545 565 700 350 700 L80 700 Z M350 530 C455 530 530 455 530 350 C530 245 445 170 350 170 L270 170 L270 530 L350 530 Z M380 870 L330 940 L175 940 L305 780 L455 780 L585 940 L430 940 L380 870 Z " />
<glyph glyph-name="dcaron" unicode="&#x10f;" horiz-adv-x="720" d="M395 245 C395 185 350 140 300 140 C250 140 205 185 205 245 C205 305 250 350 300 350 C350 350 395 305 395 245 L395 245 Z M395 430 C395 430 350 500 255 500 C135 500 30 395 30 245 C30 95 135 -10 255 -10 C350 -10 395 60 395 60 L395 0 L565 0 L565 700 L395 700 L395 430 Z M590 540 L725 540 L800 700 L640 700 L590 540 Z " />
<glyph glyph-name="Dcroat" unicode="&#x110;" horiz-adv-x="780" d="M100 700 L100 420 L25 420 L25 280 L100 280 L100 0 L370 0 C585 0 740 155 740 350 C740 545 585 700 370 700 L100 700 Z M370 530 C475 530 550 455 550 350 C550 245 465 170 370 170 L290 170 L290 280 L405 280 L405 420 L290 420 L290 530 L370 530 Z " />
<glyph glyph-name="dcroat" unicode="&#x111;" horiz-adv-x="630" d="M275 490 L380 490 L380 395 C380 395 335 460 240 460 C125 460 25 360 25 225 C25 90 125 -10 240 -10 C335 -10 380 55 380 55 L380 0 L550 0 L550 490 L625 490 L625 635 L550 635 L550 700 L380 700 L380 635 L275 635 L275 490 Z M290 130 C240 130 200 170 200 225 C200 280 240 320 290 320 C340 320 380 280 380 225 C380 170 340 130 290 130 L290 130 Z " />
<glyph glyph-name="Emacron" unicode="&#x112;" horiz-adv-x="670" d="M270 160 L270 280 L540 280 L540 430 L270 430 L270 540 L620 540 L620 700 L80 700 L80 0 L630 0 L630 160 L270 160 Z M520 935 L190 935 L190 805 L520 805 L520 935 Z " />
<glyph glyph-name="emacron" unicode="&#x113;" horiz-adv-x="580" d="M540 200 C540 200 545 220 545 255 C545 390 435 500 290 500 C145 500 30 385 30 245 C30 105 145 -10 300 -10 C430 -10 505 65 505 65 L430 175 C430 175 390 125 320 125 C250 125 210 165 205 200 L540 200 Z M290 370 C335 370 365 340 375 300 L205 300 C215 340 245 370 290 370 L290 370 Z M455 705 L125 705 L125 575 L455 575 L455 705 Z " />
<glyph glyph-name="Edotaccent" unicode="&#x116;" horiz-adv-x="670" d="M270 160 L270 280 L540 280 L540 430 L270 430 L270 540 L620 540 L620 700 L80 700 L80 0 L630 0 L630 160 L270 160 Z M460 860 C460 910 420 950 365 950 C310 950 270 910 270 860 C270 810 310 770 365 770 C420 770 460 810 460 860 L460 860 Z " />
<glyph glyph-name="edotaccent" unicode="&#x117;" horiz-adv-x="580" d="M540 200 C540 200 545 220 545 255 C545 390 435 500 290 500 C145 500 30 385 30 245 C30 105 145 -10 300 -10 C430 -10 505 65 505 65 L430 175 C430 175 390 125 320 125 C250 125 210 165 205 200 L540 200 Z M290 370 C335 370 365 340 375 300 L205 300 C215 340 245 370 290 370 L290 370 Z M390 641 C390 691 350 731 295 731 C240 731 200 691 200 641 C200 591 240 551 295 551 C350 551 390 591 390 641 L390 641 Z " />
<glyph glyph-name="Eogonek" unicode="&#x118;" horiz-adv-x="670" d="M555 0 C555 0 480 -50 480 -125 C480 -185 530 -235 600 -235 C655 -235 690 -215 690 -215 L690 -125 C690 -125 670 -140 640 -140 C615 -140 600 -125 600 -100 C600 -50 630 0 630 0 L630 160 L270 160 L270 280 L540 280 L540 430 L270 430 L270 540 L620 540 L620 700 L80 700 L80 0 L555 0 Z " />
<glyph glyph-name="eogonek" unicode="&#x119;" horiz-adv-x="580" d="M540 200 C540 200 545 220 545 255 C545 390 435 500 290 500 C145 500 30 385 30 245 C30 116 128 8 265 -8 C244 -24 200 -67 200 -125 C200 -185 250 -235 320 -235 C375 -235 410 -215 410 -215 L410 -125 C410 -125 390 -140 360 -140 C335 -140 320 -125 320 -100 C320 -60 338 -21 346 -7 C447 7 505 65 505 65 L430 175 C430 175 390 125 320 125 C250 125 210 165 205 200 L540 200 Z M290 370 C335 370 365 340 375 300 L205 300 C215 340 245 370 290 370 L290 370 Z " />
<glyph glyph-name="Ecaron" unicode="&#x11a;" horiz-adv-x="670" d="M270 160 L270 280 L540 280 L540 430 L270 430 L270 540 L620 540 L620 700 L80 700 L80 0 L630 0 L630 160 L270 160 Z M355 870 L305 940 L150 940 L280 780 L430 780 L560 940 L405 940 L355 870 Z " />
<glyph glyph-name="ecaron" unicode="&#x11b;" horiz-adv-x="580" d="M540 200 C540 200 545 220 545 255 C545 390 435 500 290 500 C145 500 30 385 30 245 C30 105 145 -10 300 -10 C430 -10 505 65 505 65 L430 175 C430 175 390 125 320 125 C250 125 210 165 205 200 L540 200 Z M290 370 C335 370 365 340 375 300 L205 300 C215 340 245 370 290 370 L290 370 Z M290 645 L240 715 L85 715 L215 555 L365 555 L495 715 L340 715 L290 645 Z " />
<glyph glyph-name="Gcircumflex" unicode="&#x11c;" horiz-adv-x="810" d="M430 -20 C630 -20 740 120 740 120 L740 390 L440 390 L440 270 L550 270 L550 195 C550 195 510 150 430 150 C315 150 230 235 230 350 C230 465 315 550 430 550 C545 550 610 460 610 460 L725 580 C725 580 630 720 430 720 C210 720 40 550 40 350 C40 150 210 -20 430 -20 L430 -20 Z M455 760 L610 760 L480 920 L330 920 L200 760 L355 760 L405 830 L455 760 Z " />
<glyph glyph-name="gcircumflex" unicode="&#x11d;" horiz-adv-x="620" d="M385 55 C385 -15 335 -65 260 -65 C180 -65 140 -10 140 -10 L45 -105 C45 -105 119 -210 275 -210 C435 -210 555 -90 555 55 L555 490 L385 490 L385 430 C385 430 330 500 240 500 C135 500 30 395 30 260 C30 125 135 20 240 20 C330 20 385 90 385 90 L385 55 Z M205 260 C205 310 245 350 295 350 C345 350 385 310 385 258 C385 210 345 170 295 170 C245 170 205 210 205 260 L205 260 Z M360 550 L515 550 L385 710 L235 710 L105 550 L260 550 L310 620 L360 550 Z " />
<glyph glyph-name="Gbreve" unicode="&#x11e;" horiz-adv-x="810" d="M430 -20 C630 -20 740 120 740 120 L740 390 L440 390 L440 270 L550 270 L550 195 C550 195 510 150 430 150 C315 150 230 235 230 350 C230 465 315 550 430 550 C545 550 610 460 610 460 L725 580 C725 580 630 720 430 720 C210 720 40 550 40 350 C40 150 210 -20 430 -20 L430 -20 Z M420 780 C520 780 590 850 590 940 L470 940 C470 910 450 890 420 890 C390 890 370 910 370 940 L250 940 C250 850 320 780 420 780 L420 780 Z " />
<glyph glyph-name="gbreve" unicode="&#x11f;" horiz-adv-x="620" d="M385 55 C385 -15 335 -65 260 -65 C180 -65 140 -10 140 -10 L45 -105 C45 -105 119 -210 275 -210 C435 -210 555 -90 555 55 L555 490 L385 490 L385 430 C385 430 330 500 240 500 C135 500 30 395 30 260 C30 125 135 20 240 20 C330 20 385 90 385 90 L385 55 Z M205 260 C205 310 245 350 295 350 C345 350 385 310 385 258 C385 210 345 170 295 170 C245 170 205 210 205 260 L205 260 Z M305 555 C405 555 475 625 475 715 L355 715 C355 685 335 665 305 665 C275 665 255 685 255 715 L135 715 C135 625 205 555 305 555 L305 555 Z " />
<glyph glyph-name="Gcommaaccent" unicode="&#x122;" horiz-adv-x="810" d="M430 -20 C630 -20 740 120 740 120 L740 390 L440 390 L440 270 L550 270 L550 195 C550 195 510 150 430 150 C315 150 230 235 230 350 C230 465 315 550 430 550 C545 550 610 460 610 460 L725 580 C725 580 630 720 430 720 C210 720 40 550 40 350 C40 150 210 -20 430 -20 L430 -20 Z M295 -240 L430 -240 L505 -80 L345 -80 L295 -240 Z " />
<glyph glyph-name="gcommaaccent" unicode="&#x123;" horiz-adv-x="620" d="M385 55 C385 -15 335 -65 260 -65 C180 -65 140 -10 140 -10 L45 -105 C45 -105 119 -210 275 -210 C435 -210 555 -90 555 55 L555 490 L385 490 L385 430 C385 430 330 500 240 500 C135 500 30 395 30 260 C30 125 135 20 240 20 C330 20 385 90 385 90 L385 55 Z M205 260 C205 310 245 350 295 350 C345 350 385 310 385 258 C385 210 345 170 295 170 C245 170 205 210 205 260 L205 260 Z M425 715 L288 715 L215 555 L375 555 L425 715 Z " />
<glyph glyph-name="Hcircumflex" unicode="&#x124;" horiz-adv-x="795" d="M715 700 L525 700 L525 440 L270 440 L270 700 L80 700 L80 0 L270 0 L270 270 L525 270 L525 0 L715 0 L715 700 Z M445 760 L600 760 L470 920 L320 920 L190 760 L345 760 L395 830 L445 760 Z " />
<glyph glyph-name="hcircumflex" unicode="&#x125;" horiz-adv-x="615" d="M230 700 L60 700 L60 0 L230 0 L230 245 C230 305 265 340 310 340 C350 340 380 310 380 260 L380 0 L550 0 L550 290 C550 417 474 500 370 500 C280 500 230 430 230 430 L230 700 Z M355 760 L510 760 L380 920 L230 920 L100 760 L255 760 L305 830 L355 760 Z " />
<glyph glyph-name="Imacron" unicode="&#x12a;" horiz-adv-x="350" d="M80 0 L270 0 L270 700 L80 700 L80 0 Z M340 935 L10 935 L10 805 L340 805 L340 935 Z " />
<glyph glyph-name="imacron" unicode="&#x12b;" horiz-adv-x="300" d="M310 705 L-20 705 L-20 575 L310 575 L310 705 Z M230 490 L60 490 L60 0 L230 0 L230 490 Z " />
<glyph glyph-name="Ibreve" unicode="&#x12c;" horiz-adv-x="350" d="M80 0 L270 0 L270 700 L80 700 L80 0 Z M175 760 C275 760 345 830 345 920 L225 920 C225 890 205 870 175 870 C145 870 125 890 125 920 L5 920 C5 830 75 760 175 760 L175 760 Z " />
<glyph glyph-name="ibreve" unicode="&#x12d;" horiz-adv-x="300" d="M230 490 L60 490 L60 0 L230 0 L230 490 Z M150 550 C250 550 320 620 320 710 L200 710 C200 680 180 660 150 660 C120 660 100 680 100 710 L-20 710 C-20 620 50 550 150 550 L150 550 Z " />
<glyph glyph-name="Iogonek" unicode="&#x12e;" horiz-adv-x="350" d="M5 -125 C5 -185 55 -235 125 -235 C180 -235 215 -215 215 -215 L215 -125 C215 -125 195 -140 165 -140 C140 -140 125 -125 125 -100 C125 -50 155 0 155 0 L270 0 L270 700 L80 700 L80 0 C80 0 5 -50 5 -125 L5 -125 Z " />
<glyph glyph-name="iogonek" unicode="&#x12f;" horiz-adv-x="300" d="M60 0 C60 0 -15 -50 -15 -125 C-15 -185 35 -235 105 -235 C160 -235 195 -215 195 -215 L195 -125 C195 -125 175 -140 145 -140 C120 -140 105 -125 105 -100 C105 -50 135 0 135 0 L230 0 L230 490 L60 490 L60 0 Z M240 635 C240 685 200 725 145 725 C90 725 50 685 50 635 C50 585 90 545 145 545 C200 545 240 585 240 635 L240 635 Z " />
<glyph glyph-name="Idotaccent" unicode="&#x130;" horiz-adv-x="350" d="M80 0 L270 0 L270 700 L80 700 L80 0 Z M275 860 C275 910 235 950 180 950 C125 950 85 910 85 860 C85 810 125 770 180 770 C235 770 275 810 275 860 L275 860 Z " />
<glyph glyph-name="dotlessi" unicode="&#x131;" horiz-adv-x="300" d="M230 490 L60 490 L60 0 L230 0 L230 490 Z " />
<glyph glyph-name="i_j" unicode="&#x133;" horiz-adv-x="605" d="M365 150 C365 150 340 135 305 135 C260 135 230 165 230 205 L230 490 L60 490 L60 200 C60 75 140 -5 260 -5 C322 -5 365 15 365 15 C365 -50 345 -70 295 -70 C275 -70 255 -60 255 -60 L255 -195 C255 -195 300 -210 355 -210 C475 -210 535 -150 535 -25 L535 490 L365 490 L365 150 Z M240 635 C240 685 200 725 145 725 C90 725 50 685 50 635 C50 585 90 545 145 545 C200 545 240 585 240 635 L240 635 Z M545 635 C545 685 505 725 450 725 C395 725 355 685 355 635 C355 585 395 545 450 545 C505 545 545 585 545 635 L545 635 Z " />
<glyph glyph-name="Jcircumflex" unicode="&#x134;" horiz-adv-x="525" d="M260 700 L260 240 C260 185 225 150 180 150 C130 150 105 185 105 185 L-10 70 C-10 70 60 -20 195 -20 C345 -20 450 85 450 240 L450 700 L260 700 Z M405 760 L560 760 L430 920 L280 920 L150 760 L305 760 L355 830 L405 760 Z " />
<glyph glyph-name="jcircumflex" unicode="&#x135;" horiz-adv-x="300" d="M60 0 C60 -30 35 -55 5 -55 C-20 -55 -45 -45 -45 -45 L-45 -195 C-45 -195 -5 -210 55 -210 C160 -210 230 -140 230 -25 L230 490 L60 490 L60 0 Z M200 550 L355 550 L225 710 L75 710 L-55 550 L100 550 L150 620 L200 550 Z " />
<glyph glyph-name="Kcommaaccent" unicode="&#x136;" horiz-adv-x="730" d="M345 265 L520 0 L740 0 L470 410 L720 700 L500 700 L270 430 L270 700 L80 700 L80 0 L270 0 L270 180 L345 265 Z M265 -240 L400 -240 L475 -80 L315 -80 L265 -240 Z " />
<glyph glyph-name="kcommaaccent" unicode="&#x137;" horiz-adv-x="575" d="M390 280 L570 490 L375 490 L230 320 L230 700 L60 700 L60 0 L230 0 L230 125 L275 175 L390 0 L575 0 L390 280 Z M180 -240 L315 -240 L390 -80 L230 -80 L180 -240 Z " />
<glyph glyph-name="Lacute" unicode="&#x139;" horiz-adv-x="600" d="M580 0 L580 170 L270 170 L270 700 L80 700 L80 0 L580 0 Z M110 780 L255 780 L375 941 L195 941 L110 780 Z " />
<glyph glyph-name="lacute" unicode="&#x13a;" horiz-adv-x="300" d="M230 700 L60 700 L60 0 L230 0 L230 700 Z M80 780 L225 780 L345 941 L165 941 L80 780 Z " />
<glyph glyph-name="Lcommaaccent" unicode="&#x13b;" horiz-adv-x="600" d="M580 0 L580 170 L270 170 L270 700 L80 700 L80 0 L580 0 Z M210 -240 L345 -240 L420 -80 L260 -80 L210 -240 Z " />
<glyph glyph-name="lcommaaccent" unicode="&#x13c;" horiz-adv-x="300" d="M230 700 L60 700 L60 0 L230 0 L230 700 Z M15 -240 L150 -240 L225 -80 L65 -80 L15 -240 Z " />
<glyph glyph-name="Lcaron" unicode="&#x13d;" horiz-adv-x="600" d="M580 0 L580 170 L270 170 L270 700 L80 700 L80 0 L580 0 Z M315 540 L450 540 L525 700 L365 700 L315 540 Z " />
<glyph glyph-name="lcaron" unicode="&#x13e;" horiz-adv-x="390" d="M230 700 L60 700 L60 0 L230 0 L230 700 Z M260 540 L395 540 L470 700 L310 700 L260 540 Z " />
<glyph glyph-name="Ldot" unicode="&#x13f;" horiz-adv-x="600" d="M580 0 L580 170 L270 170 L270 700 L80 700 L80 0 L580 0 Z M340 410 C340 360 380 320 435 320 C490 320 530 360 530 410 C530 460 490 500 435 500 C380 500 340 460 340 410 L340 410 Z " />
<glyph glyph-name="ldot" unicode="&#x140;" horiz-adv-x="495" d="M230 700 L60 700 L60 0 L230 0 L230 700 Z M280 260 C280 210 320 170 375 170 C430 170 470 210 470 260 C470 310 430 350 375 350 C320 350 280 310 280 260 L280 260 Z " />
<glyph glyph-name="Lslash" unicode="&#x141;" horiz-adv-x="660" d="M640 0 L640 170 L330 170 L330 310 L485 395 L405 540 L330 500 L330 700 L140 700 L140 400 L-15 315 L65 170 L140 210 L140 0 L640 0 Z " />
<glyph glyph-name="lslash" unicode="&#x142;" horiz-adv-x="400" d="M280 700 L110 700 L110 390 L-35 305 L40 175 L110 215 L110 0 L280 0 L280 315 L430 405 L355 535 L280 490 L280 700 Z " />
<glyph glyph-name="Nacute" unicode="&#x143;" horiz-adv-x="815" d="M545 700 L545 310 L245 700 L80 700 L80 0 L270 0 L270 390 L571 0 L735 0 L735 700 L545 700 Z M335 780 L480 780 L600 941 L420 941 L335 780 Z " />
<glyph glyph-name="nacute" unicode="&#x144;" horiz-adv-x="610" d="M225 490 L55 490 L55 0 L225 0 L225 245 C225 305 260 340 305 340 C345 340 375 310 375 260 L375 0 L545 0 L545 290 C545 417 469 500 365 500 C275 500 225 430 225 430 L225 490 Z M230 555 L375 555 L495 716 L315 716 L230 555 Z " />
<glyph glyph-name="Ncommaaccent" unicode="&#x145;" horiz-adv-x="815" d="M545 700 L545 310 L245 700 L80 700 L80 0 L270 0 L270 390 L571 0 L735 0 L735 700 L545 700 Z M295 -240 L430 -240 L505 -80 L345 -80 L295 -240 Z " />
<glyph glyph-name="ncommaaccent" unicode="&#x146;" horiz-adv-x="610" d="M225 490 L55 490 L55 0 L225 0 L225 245 C225 305 260 340 305 340 C345 340 375 310 375 260 L375 0 L545 0 L545 290 C545 417 469 500 365 500 C275 500 225 430 225 430 L225 490 Z M170 -240 L305 -240 L380 -80 L220 -80 L170 -240 Z " />
<glyph glyph-name="Ncaron" unicode="&#x147;" horiz-adv-x="815" d="M545 700 L545 310 L245 700 L80 700 L80 0 L270 0 L270 390 L571 0 L735 0 L735 700 L545 700 Z M410 870 L360 940 L205 940 L335 780 L485 780 L615 940 L460 940 L410 870 Z " />
<glyph glyph-name="ncaron" unicode="&#x148;" horiz-adv-x="610" d="M225 490 L55 490 L55 0 L225 0 L225 245 C225 305 260 340 305 340 C345 340 375 310 375 260 L375 0 L545 0 L545 290 C545 417 469 500 365 500 C275 500 225 430 225 430 L225 490 Z M300 645 L250 715 L95 715 L225 555 L375 555 L505 715 L350 715 L300 645 Z " />
<glyph glyph-name="napostrophe" unicode="&#x149;" horiz-adv-x="675" d="M290 490 L120 490 L120 0 L290 0 L290 245 C290 305 325 340 370 340 C410 340 440 310 440 260 L440 0 L610 0 L610 290 C610 417 534 500 430 500 C340 500 290 430 290 430 L290 490 Z M-40 520 L95 520 L170 680 L10 680 L-40 520 Z " />
<glyph glyph-name="Omacron" unicode="&#x14c;" horiz-adv-x="860" d="M235 350 C235 465 320 550 430 550 C540 550 625 465 625 350 C625 235 540 150 430 150 C320 150 235 235 235 350 L235 350 Z M820 350 C820 550 650 720 430 720 C210 720 40 550 40 350 C40 150 210 -20 430 -20 C650 -20 820 150 820 350 L820 350 Z M595 935 L265 935 L265 805 L595 805 L595 935 Z " />
<glyph glyph-name="omacron" unicode="&#x14d;" horiz-adv-x="610" d="M205 245 C205 305 250 350 300 350 C350 350 395 305 395 245 C395 185 350 140 300 140 C250 140 205 185 205 245 L205 245 Z M570 245 C570 380 450 500 300 500 C150 500 30 380 30 245 C30 110 150 -10 300 -10 C450 -10 570 110 570 245 L570 245 Z M465 705 L135 705 L135 575 L465 575 L465 705 Z " />
<glyph glyph-name="Obreve" unicode="&#x14e;" horiz-adv-x="860" d="M235 350 C235 465 320 550 430 550 C540 550 625 465 625 350 C625 235 540 150 430 150 C320 150 235 235 235 350 L235 350 Z M820 350 C820 550 650 720 430 720 C210 720 40 550 40 350 C40 150 210 -20 430 -20 C650 -20 820 150 820 350 L820 350 Z M430 760 C530 760 600 830 600 920 L480 920 C480 890 460 870 430 870 C400 870 380 890 380 920 L260 920 C260 830 330 760 430 760 L430 760 Z " />
<glyph glyph-name="obreve" unicode="&#x14f;" horiz-adv-x="610" d="M205 245 C205 305 250 350 300 350 C350 350 395 305 395 245 C395 185 350 140 300 140 C250 140 205 185 205 245 L205 245 Z M570 245 C570 380 450 500 300 500 C150 500 30 380 30 245 C30 110 150 -10 300 -10 C450 -10 570 110 570 245 L570 245 Z M305 550 C405 550 475 620 475 710 L355 710 C355 680 335 660 305 660 C275 660 255 680 255 710 L135 710 C135 620 205 550 305 550 L305 550 Z " />
<glyph glyph-name="Ohungarumlaut" unicode="&#x150;" horiz-adv-x="860" d="M235 350 C235 465 320 550 430 550 C540 550 625 465 625 350 C625 235 540 150 430 150 C320 150 235 235 235 350 L235 350 Z M820 350 C820 550 650 720 430 720 C210 720 40 550 40 350 C40 150 210 -20 430 -20 C650 -20 820 150 820 350 L820 350 Z M260 780 L385 780 L510 940 L350 940 L260 780 Z M470 780 L595 780 L720 940 L560 940 L470 780 Z " />
<glyph glyph-name="ohungarumlaut" unicode="&#x151;" horiz-adv-x="610" d="M205 245 C205 305 250 350 300 350 C350 350 395 305 395 245 C395 185 350 140 300 140 C250 140 205 185 205 245 L205 245 Z M570 245 C570 380 450 500 300 500 C150 500 30 380 30 245 C30 110 150 -10 300 -10 C450 -10 570 110 570 245 L570 245 Z M130 555 L255 555 L380 715 L220 715 L130 555 Z M340 555 L465 555 L590 715 L430 715 L340 555 Z " />
<glyph glyph-name="OE" unicode="&#x152;" horiz-adv-x="1015" d="M655 160 L655 280 L885 280 L885 430 L655 430 L655 540 L965 540 L965 700 L415 700 C201 700 40 540 40 350 C40 160 200 0 415 0 L975 0 L975 160 L655 160 Z M230 350 C230 455 305 530 435 530 L465 530 L465 170 L435 170 C305 170 230 245 230 350 L230 350 Z " />
<glyph glyph-name="oe" unicode="&#x153;" horiz-adv-x="940" d="M295 500 C150 500 30 380 30 245 C30 110 150 -10 295 -10 C415 -10 475 65 475 65 C475 65 535 -10 660 -10 C790 -10 865 65 865 65 L790 175 C790 175 750 125 680 125 C610 125 570 165 565 200 L900 200 C900 200 905 220 905 255 C905 390 795 500 650 500 C535 500 475 425 475 425 C475 425 405 500 295 500 L295 500 Z M295 140 C250 140 205 185 205 245 C205 305 250 350 295 350 C340 350 385 305 385 245 C385 185 340 140 295 140 L295 140 Z M650 370 C695 370 725 340 735 300 L565 300 C575 340 605 370 650 370 L650 370 Z " />
<glyph glyph-name="Racute" unicode="&#x154;" horiz-adv-x="720" d="M80 0 L270 0 L270 220 L370 220 L490 0 L690 0 L545 255 C545 255 665 310 665 460 C665 595 560 700 410 700 L80 700 L80 0 Z M475 460 C475 420 445 390 400 390 L270 390 L270 530 L400 530 C445 530 475 500 475 460 L475 460 Z M285 780 L430 780 L550 941 L370 941 L285 780 Z " />
<glyph glyph-name="racute" unicode="&#x155;" horiz-adv-x="395" d="M380 320 L380 495 L360 495 C270 495 225 430 225 430 L225 490 L55 490 L55 0 L225 0 L225 210 C225 290 265 330 330 330 C360 330 380 320 380 320 L380 320 Z M140 555 L285 555 L405 716 L225 716 L140 555 Z " />
<glyph glyph-name="Rcommaaccent" unicode="&#x156;" horiz-adv-x="720" d="M80 0 L270 0 L270 220 L370 220 L490 0 L690 0 L545 255 C545 255 665 310 665 460 C665 595 560 700 410 700 L80 700 L80 0 Z M475 460 C475 420 445 390 400 390 L270 390 L270 530 L400 530 C445 530 475 500 475 460 L475 460 Z M245 -240 L380 -240 L455 -80 L295 -80 L245 -240 Z " />
<glyph glyph-name="rcommaaccent" unicode="&#x157;" horiz-adv-x="395" d="M380 320 L380 495 L360 495 C270 495 225 430 225 430 L225 490 L55 490 L55 0 L225 0 L225 210 C225 290 265 330 330 330 C360 330 380 320 380 320 L380 320 Z M10 -240 L145 -240 L220 -80 L60 -80 L10 -240 Z " />
<glyph glyph-name="Rcaron" unicode="&#x158;" horiz-adv-x="720" d="M80 0 L270 0 L270 220 L370 220 L490 0 L690 0 L545 255 C545 255 665 310 665 460 C665 595 560 700 410 700 L80 700 L80 0 Z M475 460 C475 420 445 390 400 390 L270 390 L270 530 L400 530 C445 530 475 500 475 460 L475 460 Z M360 870 L310 940 L155 940 L285 780 L435 780 L565 940 L410 940 L360 870 Z " />
<glyph glyph-name="rcaron" unicode="&#x159;" horiz-adv-x="395" d="M380 320 L380 495 L360 495 C270 495 225 430 225 430 L225 490 L55 490 L55 0 L225 0 L225 210 C225 290 265 330 330 330 C360 330 380 320 380 320 L380 320 Z M215 645 L165 715 L10 715 L140 555 L290 555 L420 715 L265 715 L215 645 Z " />
<glyph glyph-name="Sacute" unicode="&#x15a;" horiz-adv-x="610" d="M370 215 C370 175 335 140 280 140 C190 140 130 215 130 215 L20 100 C20 100 115 -20 300 -20 C475 -20 580 85 580 210 C580 455 255 405 255 500 C255 530 285 560 330 560 C399 560 445 505 445 505 L555 620 C555 620 480 720 310 720 C150 720 45 615 45 505 C45 260 370 310 370 215 L370 215 Z M235 780 L380 780 L500 941 L320 941 L235 780 Z " />
<glyph glyph-name="sacute" unicode="&#x15b;" horiz-adv-x="470" d="M435 425 C435 425 370 500 240 500 C105 500 30 425 30 340 C30 180 235 200 235 155 C235 140 220 125 190 125 C130 125 95 175 95 175 L10 85 C10 85 75 -10 230 -10 C365 -10 440 65 440 150 C440 310 235 290 235 335 C235 350 250 365 280 365 C320 365 350 335 350 335 L435 425 Z M152 555 L297 555 L417 716 L237 716 L152 555 Z " />
<glyph glyph-name="Scircumflex" unicode="&#x15c;" horiz-adv-x="610" d="M370 215 C370 175 335 140 280 140 C190 140 130 215 130 215 L20 100 C20 100 115 -20 300 -20 C475 -20 580 85 580 210 C580 455 255 405 255 500 C255 530 285 560 330 560 C399 560 445 505 445 505 L555 620 C555 620 480 720 310 720 C150 720 45 615 45 505 C45 260 370 310 370 215 L370 215 Z M355 760 L510 760 L380 920 L230 920 L100 760 L255 760 L305 830 L355 760 Z " />
<glyph glyph-name="scircumflex" unicode="&#x15d;" horiz-adv-x="470" d="M435 425 C435 425 370 500 240 500 C105 500 30 425 30 340 C30 180 235 200 235 155 C235 140 220 125 190 125 C130 125 95 175 95 175 L10 85 C10 85 75 -10 230 -10 C365 -10 440 65 440 150 C440 310 235 290 235 335 C235 350 250 365 280 365 C320 365 350 335 350 335 L435 425 Z M285 550 L440 550 L310 710 L160 710 L30 550 L185 550 L235 620 L285 550 Z " />
<glyph glyph-name="Scedilla" unicode="&#x15e;" horiz-adv-x="610" d="M370 215 C370 175 335 140 280 140 C190 140 130 215 130 215 L20 100 C20 100 100 -2 258 -18 L230 -80 L260 -115 C260 -115 270 -110 285 -110 C305 -110 315 -120 315 -135 C315 -150 305 -160 280 -160 C245 -160 215 -130 215 -130 L175 -195 C175 -195 225 -245 300 -245 C380 -245 425 -200 425 -140 C425 -50 320 -45 320 -45 L334 -18 C488 -5 580 93 580 210 C580 455 255 405 255 500 C255 530 285 560 330 560 C399 560 445 505 445 505 L555 620 C555 620 480 720 310 720 C150 720 45 615 45 505 C45 260 370 310 370 215 L370 215 Z " />
<glyph glyph-name="scedilla" unicode="&#x15f;" horiz-adv-x="470" d="M440 150 C440 310 235 290 235 335 C235 350 250 365 280 365 C320 365 350 335 350 335 L435 425 C435 425 370 500 240 500 C105 500 30 425 30 340 C30 180 235 200 235 155 C235 140 220 125 190 125 C130 125 95 175 95 175 L10 85 C10 85 65 5 185 -5 L150 -80 L180 -115 C180 -115 190 -110 205 -110 C225 -110 235 -120 235 -135 C235 -150 225 -160 200 -160 C165 -160 135 -130 135 -130 L95 -195 C95 -195 145 -245 220 -245 C300 -245 345 -200 345 -140 C345 -50 240 -45 240 -45 L260 -10 C375 0 440 70 440 150 L440 150 Z " />
<glyph glyph-name="Scaron" unicode="&#x160;" horiz-adv-x="610" d="M370 215 C370 175 335 140 280 140 C190 140 130 215 130 215 L20 100 C20 100 115 -20 300 -20 C475 -20 580 85 580 210 C580 455 255 405 255 500 C255 530 285 560 330 560 C399 560 445 505 445 505 L555 620 C555 620 480 720 310 720 C150 720 45 615 45 505 C45 260 370 310 370 215 L370 215 Z M310 870 L260 940 L105 940 L235 780 L385 780 L515 940 L360 940 L310 870 Z " />
<glyph glyph-name="scaron" unicode="&#x161;" horiz-adv-x="470" d="M435 425 C435 425 370 500 240 500 C105 500 30 425 30 340 C30 180 235 200 235 155 C235 140 220 125 190 125 C130 125 95 175 95 175 L10 85 C10 85 75 -10 230 -10 C365 -10 440 65 440 150 C440 310 235 290 235 335 C235 350 250 365 280 365 C320 365 350 335 350 335 L435 425 Z M234 645 L184 715 L29 715 L159 555 L309 555 L439 715 L284 715 L234 645 Z " />
<glyph glyph-name="Tcommaaccent" unicode="&#x162;" horiz-adv-x="620" d="M20 700 L20 530 L215 530 L215 0 L405 0 L405 530 L600 530 L600 700 L20 700 Z M175 -240 L310 -240 L385 -80 L225 -80 L175 -240 Z " />
<glyph glyph-name="tcommaaccent" unicode="&#x163;" horiz-adv-x="425" d="M115 545 C115 505 90 480 55 480 L20 480 L20 330 L95 330 L95 180 C95 55 160 -10 270 -10 C325 -10 370 5 370 5 L370 150 C370 150 348 140 320 140 C288 140 265 158 265 190 L265 330 L365 330 L365 480 L265 480 L265 630 L115 630 L115 545 Z M110 -240 L245 -240 L320 -80 L160 -80 L110 -240 Z " />
<glyph glyph-name="Tcaron" unicode="&#x164;" horiz-adv-x="620" d="M20 700 L20 530 L215 530 L215 0 L405 0 L405 530 L600 530 L600 700 L20 700 Z M305 870 L255 940 L100 940 L230 780 L380 780 L510 940 L355 940 L305 870 Z " />
<glyph glyph-name="tcaron" unicode="&#x165;" horiz-adv-x="455" d="M115 545 C115 505 90 480 55 480 L20 480 L20 330 L95 330 L95 180 C95 55 160 -10 270 -10 C325 -10 370 5 370 5 L370 150 C370 150 348 140 320 140 C288 140 265 158 265 190 L265 330 L365 330 L365 480 L265 480 L265 630 L115 630 L115 545 Z M325 540 L460 540 L535 700 L375 700 L325 540 Z " />
<glyph glyph-name="Umacron" unicode="&#x16a;" horiz-adv-x="790" d="M395 150 C325 150 265 210 265 290 L265 700 L75 700 L75 290 C75 115 210 -20 395 -20 C580 -20 715 115 715 290 L715 700 L525 700 L525 290 C525 210 465 150 395 150 L395 150 Z M560 935 L230 935 L230 805 L560 805 L560 935 Z " />
<glyph glyph-name="umacron" unicode="&#x16b;" horiz-adv-x="615" d="M375 0 L545 0 L545 490 L375 490 L375 240 C375 185 340 150 295 150 C255 150 225 180 225 225 L225 490 L55 490 L55 195 C55 70 135 -10 240 -10 C330 -10 375 55 375 55 L375 0 Z M465 705 L135 705 L135 575 L465 575 L465 705 Z " />
<glyph glyph-name="Ubreve" unicode="&#x16c;" horiz-adv-x="790" d="M395 150 C325 150 265 210 265 290 L265 700 L75 700 L75 290 C75 115 210 -20 395 -20 C580 -20 715 115 715 290 L715 700 L525 700 L525 290 C525 210 465 150 395 150 L395 150 Z M395 760 C495 760 565 830 565 920 L445 920 C445 890 425 870 395 870 C365 870 345 890 345 920 L225 920 C225 830 295 760 395 760 L395 760 Z " />
<glyph glyph-name="ubreve" unicode="&#x16d;" horiz-adv-x="615" d="M375 0 L545 0 L545 490 L375 490 L375 240 C375 185 340 150 295 150 C255 150 225 180 225 225 L225 490 L55 490 L55 195 C55 70 135 -10 240 -10 C330 -10 375 55 375 55 L375 0 Z M307 550 C407 550 477 620 477 710 L357 710 C357 680 337 660 307 660 C277 660 257 680 257 710 L137 710 C137 620 207 550 307 550 L307 550 Z " />
<glyph glyph-name="Uring" unicode="&#x16e;" horiz-adv-x="790" d="M395 150 C325 150 265 210 265 290 L265 700 L75 700 L75 290 C75 115 210 -20 395 -20 C580 -20 715 115 715 290 L715 700 L525 700 L525 290 C525 210 465 150 395 150 L395 150 Z M355 875 C355 900 370 915 395 915 C420 915 435 900 435 875 C435 850 420 835 395 835 C370 835 355 850 355 875 L355 875 Z M525 875 C525 940 470 995 395 995 C320 995 265 940 265 875 C265 810 320 755 395 755 C470 755 525 810 525 875 L525 875 Z " />
<glyph glyph-name="uring" unicode="&#x16f;" horiz-adv-x="615" d="M375 0 L545 0 L545 490 L375 490 L375 240 C375 185 340 150 295 150 C255 150 225 180 225 225 L225 490 L55 490 L55 195 C55 70 135 -10 240 -10 C330 -10 375 55 375 55 L375 0 Z M260 655 C260 680 275 695 300 695 C325 695 340 680 340 655 C340 630 325 615 300 615 C275 615 260 630 260 655 L260 655 Z M430 655 C430 720 375 775 300 775 C225 775 170 720 170 655 C170 590 225 535 300 535 C375 535 430 590 430 655 L430 655 Z " />
<glyph glyph-name="Uhungarumlaut" unicode="&#x170;" horiz-adv-x="790" d="M395 150 C325 150 265 210 265 290 L265 700 L75 700 L75 290 C75 115 210 -20 395 -20 C580 -20 715 115 715 290 L715 700 L525 700 L525 290 C525 210 465 150 395 150 L395 150 Z M225 780 L350 780 L475 940 L315 940 L225 780 Z M435 780 L560 780 L685 940 L525 940 L435 780 Z " />
<glyph glyph-name="uhungarumlaut" unicode="&#x171;" horiz-adv-x="615" d="M375 0 L545 0 L545 490 L375 490 L375 240 C375 185 340 150 295 150 C255 150 225 180 225 225 L225 490 L55 490 L55 195 C55 70 135 -10 240 -10 C330 -10 375 55 375 55 L375 0 Z M125 555 L250 555 L375 715 L215 715 L125 555 Z M335 555 L460 555 L585 715 L425 715 L335 555 Z " />
<glyph glyph-name="Uogonek" unicode="&#x172;" horiz-adv-x="790" d="M395 150 C325 150 265 210 265 290 L265 700 L75 700 L75 290 C75 125 194 -3 362 -18 C340 -39 310 -77 310 -125 C310 -185 360 -235 430 -235 C485 -235 520 -215 520 -215 L520 -125 C520 -125 500 -140 470 -140 C445 -140 430 -125 430 -100 C430 -66 442 -34 451 -15 C607 9 715 133 715 290 L715 700 L525 700 L525 290 C525 210 465 150 395 150 L395 150 Z " />
<glyph glyph-name="uogonek" unicode="&#x173;" horiz-adv-x="615" d="M375 0 C375 0 300 -50 300 -125 C300 -185 350 -235 420 -235 C475 -235 510 -215 510 -215 L510 -125 C510 -125 490 -140 460 -140 C435 -140 420 -125 420 -100 C420 -50 450 0 450 0 L545 0 L545 490 L375 490 L375 240 C375 185 340 150 295 150 C255 150 225 180 225 225 L225 490 L55 490 L55 195 C55 70 135 -10 240 -10 C330 -10 375 55 375 55 L375 0 Z " />
<glyph glyph-name="Wcircumflex" unicode="&#x174;" horiz-adv-x="1080" d="M540 405 L670 0 L840 0 L1070 700 L865 700 L745 275 L620 700 L460 700 L335 275 L215 700 L10 700 L240 0 L410 0 L540 405 Z M590 760 L745 760 L615 920 L465 920 L335 760 L490 760 L540 830 L590 760 Z " />
<glyph glyph-name="wcircumflex" unicode="&#x175;" horiz-adv-x="790" d="M330 490 L250 240 L170 490 L-5 490 L165 0 L305 0 L390 240 L475 0 L615 0 L785 490 L610 490 L530 240 L450 490 L330 490 Z M445 550 L600 550 L470 710 L320 710 L190 550 L345 550 L395 620 L445 550 Z " />
<glyph glyph-name="Ycircumflex" unicode="&#x176;" horiz-adv-x="690" d="M485 700 L345 430 L205 700 L0 700 L250 250 L250 0 L440 0 L440 250 L690 700 L485 700 Z M395 760 L550 760 L420 920 L270 920 L140 760 L295 760 L345 830 L395 760 Z " />
<glyph glyph-name="ycircumflex" unicode="&#x177;" horiz-adv-x="540" d="M165 -10 C155 -30 130 -55 90 -55 C60 -55 40 -45 40 -45 L40 -195 C40 -195 80 -210 135 -210 C230 -210 295 -145 350 0 L535 490 L355 490 L265 205 L175 490 L-5 490 L175 10 L165 -10 Z M320 550 L475 550 L345 710 L195 710 L65 550 L220 550 L270 620 L320 550 Z " />
<glyph glyph-name="Ydieresis" unicode="&#x178;" horiz-adv-x="690" d="M485 700 L345 430 L205 700 L0 700 L250 250 L250 0 L440 0 L440 250 L690 700 L485 700 Z M145 855 C145 810 185 770 230 770 C275 770 315 810 315 855 C315 900 275 940 230 940 C185 940 145 900 145 855 L145 855 Z M375 855 C375 810 415 770 460 770 C505 770 545 810 545 855 C545 900 505 940 460 940 C415 940 375 900 375 855 L375 855 Z " />
<glyph glyph-name="Zacute" unicode="&#x179;" horiz-adv-x="660" d="M355 530 L45 170 L45 0 L615 0 L615 170 L295 170 L605 530 L605 700 L60 700 L60 530 L355 530 Z M255 780 L400 780 L520 941 L340 941 L255 780 Z " />
<glyph glyph-name="zacute" unicode="&#x17a;" horiz-adv-x="510" d="M460 490 L40 490 L40 340 L240 340 L30 150 L30 0 L470 0 L470 150 L250 150 L460 340 L460 490 Z M175 555 L320 555 L440 716 L260 716 L175 555 Z " />
<glyph glyph-name="Zdotaccent" unicode="&#x17b;" horiz-adv-x="660" d="M355 530 L45 170 L45 0 L615 0 L615 170 L295 170 L605 530 L605 700 L60 700 L60 530 L355 530 Z M425 860 C425 910 385 950 330 950 C275 950 235 910 235 860 C235 810 275 770 330 770 C385 770 425 810 425 860 L425 860 Z " />
<glyph glyph-name="zdotaccent" unicode="&#x17c;" horiz-adv-x="510" d="M460 490 L40 490 L40 340 L240 340 L30 150 L30 0 L470 0 L470 150 L250 150 L460 340 L460 490 Z M345 635 C345 685 305 725 250 725 C195 725 155 685 155 635 C155 585 195 545 250 545 C305 545 345 585 345 635 L345 635 Z " />
<glyph glyph-name="Zcaron" unicode="&#x17d;" horiz-adv-x="660" d="M355 530 L45 170 L45 0 L615 0 L615 170 L295 170 L605 530 L605 700 L60 700 L60 530 L355 530 Z M325 870 L275 940 L120 940 L250 780 L400 780 L530 940 L375 940 L325 870 Z " />
<glyph glyph-name="zcaron" unicode="&#x17e;" horiz-adv-x="510" d="M460 490 L40 490 L40 340 L240 340 L30 150 L30 0 L470 0 L470 150 L250 150 L460 340 L460 490 Z M245 645 L195 715 L40 715 L170 555 L320 555 L450 715 L295 715 L245 645 Z " />
<glyph glyph-name="florin" unicode="&#x192;" horiz-adv-x="415" d="M320 515 C325 545 345 565 385 565 C415 565 435 555 435 555 L435 700 C435 700 395 715 345 715 C225 715 181 670 155 535 L135 430 L50 430 L50 280 L110 280 L55 -10 C49 -40 30 -60 -10 -60 C-40 -60 -60 -50 -60 -50 L-60 -195 C-60 -195 -20 -210 30 -210 C150 -210 194 -165 220 -30 L280 280 L395 280 L395 430 L305 430 L320 515 Z " />
<glyph glyph-name="Scommaaccent" unicode="&#x218;" horiz-adv-x="610" d="M370 215 C370 175 335 140 280 140 C190 140 130 215 130 215 L20 100 C20 100 115 -20 300 -20 C475 -20 580 85 580 210 C580 455 255 405 255 500 C255 530 285 560 330 560 C399 560 445 505 445 505 L555 620 C555 620 480 720 310 720 C150 720 45 615 45 505 C45 260 370 310 370 215 L370 215 Z M180 -240 L315 -240 L390 -80 L230 -80 L180 -240 Z " />
<glyph glyph-name="scommaaccent" unicode="&#x219;" horiz-adv-x="470" d="M435 425 C435 425 370 500 240 500 C105 500 30 425 30 340 C30 180 235 200 235 155 C235 140 220 125 190 125 C130 125 95 175 95 175 L10 85 C10 85 75 -10 230 -10 C365 -10 440 65 440 150 C440 310 235 290 235 335 C235 350 250 365 280 365 C320 365 350 335 350 335 L435 425 Z M107 -240 L242 -240 L317 -80 L157 -80 L107 -240 Z " />
<glyph glyph-name="uni021A" unicode="&#x21a;" horiz-adv-x="620" d="M20 700 L20 530 L215 530 L215 0 L405 0 L405 530 L600 530 L600 700 L20 700 Z M175 -240 L310 -240 L385 -80 L225 -80 L175 -240 Z " />
<glyph glyph-name="uni021B" unicode="&#x21b;" horiz-adv-x="425" d="M115 545 C115 505 90 480 55 480 L20 480 L20 330 L95 330 L95 180 C95 55 160 -10 270 -10 C325 -10 370 5 370 5 L370 150 C370 150 348 140 320 140 C288 140 265 158 265 190 L265 330 L365 330 L365 480 L265 480 L265 630 L115 630 L115 545 Z M110 -240 L245 -240 L320 -80 L160 -80 L110 -240 Z " />
<glyph glyph-name="afii57929" unicode="&#x2bc;" horiz-adv-x="270" d="M30 550 L165 550 L240 710 L80 710 L30 550 Z " />
<glyph glyph-name="circumflex" unicode="&#x2c6;" horiz-adv-x="470" d="M285 550 L440 550 L310 710 L160 710 L30 550 L185 550 L235 620 L285 550 Z " />
<glyph glyph-name="caron" unicode="&#x2c7;" horiz-adv-x="470" d="M235 640 L185 710 L30 710 L160 550 L310 550 L440 710 L285 710 L235 640 Z " />
<glyph glyph-name="breve" unicode="&#x2d8;" horiz-adv-x="400" d="M200 550 C300 550 370 620 370 710 L250 710 C250 680 230 660 200 660 C170 660 150 680 150 710 L30 710 C30 620 100 550 200 550 L200 550 Z " />
<glyph glyph-name="dotaccent" unicode="&#x2d9;" horiz-adv-x="250" d="M220 640 C220 690 180 730 125 730 C70 730 30 690 30 640 C30 590 70 550 125 550 C180 550 220 590 220 640 L220 640 Z " />
<glyph glyph-name="ring" unicode="&#x2da;" horiz-adv-x="320" d="M120 610 C120 635 135 650 160 650 C185 650 200 635 200 610 C200 585 185 570 160 570 C135 570 120 585 120 610 L120 610 Z M290 610 C290 675 235 730 160 730 C85 730 30 675 30 610 C30 545 85 490 160 490 C235 490 290 545 290 610 L290 610 Z " />
<glyph glyph-name="ogonek" unicode="&#x2db;" horiz-adv-x="270" d="M105 0 C105 0 30 -50 30 -125 C30 -185 80 -235 150 -235 C205 -235 240 -215 240 -215 L240 -125 C240 -125 220 -140 190 -140 C165 -140 150 -125 150 -100 C150 -50 180 0 180 0 L105 0 Z " />
<glyph glyph-name="tilde" unicode="&#x2dc;" horiz-adv-x="430" d="M170 600 C205 600 225 550 290 550 C350 550 400 600 400 720 L295 720 C295 685 280 670 260 670 C225 670 205 720 140 720 C80 720 30 670 30 550 L135 550 C135 585 150 600 170 600 L170 600 Z " />
<glyph glyph-name="hungarumlaut" unicode="&#x2dd;" horiz-adv-x="520" d="M30 550 L155 550 L280 710 L120 710 L30 550 Z M240 550 L365 550 L490 710 L330 710 L240 550 Z " />
<glyph glyph-name="afii10023" unicode="&#x401;" horiz-adv-x="670" d="M270 160 L270 280 L540 280 L540 430 L270 430 L270 540 L620 540 L620 700 L80 700 L80 0 L630 0 L630 160 L270 160 Z M153 860 C153 815 193 775 238 775 C283 775 323 815 323 860 C323 905 283 945 238 945 C193 945 153 905 153 860 L153 860 Z M383 860 C383 815 423 775 468 775 C513 775 553 815 553 860 C553 905 513 945 468 945 C423 945 383 905 383 860 L383 860 Z " />
<glyph glyph-name="afii10051" unicode="&#x402;" horiz-adv-x="755" d="M475 455 C395 455 345 415 345 415 L345 530 L492 530 L492 700 L0 700 L0 530 L155 530 L155 0 L345 0 L345 194 C345 255 380 290 440 290 C500 290 530 260 530 220 C530 175 500 145 435 145 L435 -20 L475 -20 C630 -20 725 75 725 220 C725 360 630 455 475 455 L475 455 Z " />
<glyph glyph-name="afii10052" unicode="&#x403;" horiz-adv-x="590" d="M255 780 L400 780 L520 941 L340 941 L255 780 Z M80 0 L270 0 L270 530 L580 530 L580 700 L80 700 L80 0 Z " />
<glyph glyph-name="afii10053" unicode="&#x404;" horiz-adv-x="750" d="M430 720 C209 720 40 550 40 350 C40 150 210 -20 430 -20 C635 -20 730 120 730 120 L620 240 C620 240 550 150 430 150 C330 150 270 210 245 270 L520 270 L520 430 L245 430 C270 490 330 550 430 550 C545 550 610 460 610 460 L725 580 C725 580 630 720 430 720 L430 720 Z " />
<glyph glyph-name="afii10054" unicode="&#x405;" horiz-adv-x="610" d="M370 215 C370 175 335 140 280 140 C190 140 130 215 130 215 L20 100 C20 100 115 -20 300 -20 C475 -20 580 85 580 210 C580 455 255 405 255 500 C255 530 285 560 330 560 C399 560 445 505 445 505 L555 620 C555 620 480 720 310 720 C150 720 45 615 45 505 C45 260 370 310 370 215 L370 215 Z " />
<glyph glyph-name="afii10055" unicode="&#x406;" horiz-adv-x="350" d="M80 0 L270 0 L270 700 L80 700 L80 0 Z " />
<glyph glyph-name="afii10056" unicode="&#x407;" horiz-adv-x="350" d="M80 0 L270 0 L270 700 L80 700 L80 0 Z M-25 845 C-25 800 15 760 60 760 C105 760 145 800 145 845 C145 890 105 930 60 930 C15 930 -25 890 -25 845 L-25 845 Z M205 845 C205 800 245 760 290 760 C335 760 375 800 375 845 C375 890 335 930 290 930 C245 930 205 890 205 845 L205 845 Z " />
<glyph glyph-name="afii10057" unicode="&#x408;" horiz-adv-x="525" d="M260 700 L260 240 C260 185 225 150 180 150 C130 150 105 185 105 185 L-10 70 C-10 70 60 -20 195 -20 C345 -20 450 85 450 240 L450 700 L260 700 Z " />
<glyph glyph-name="afii10058" unicode="&#x409;" horiz-adv-x="1100" d="M800 0 C955 0 1060 105 1060 245 C1060 385 955 490 800 490 L680 490 L680 700 L160 700 L160 479 C160 215 110 165 45 165 C25 165 0 175 0 175 L0 0 C0 0 44 -20 100 -20 C245 -20 350 85 350 480 L350 530 L490 530 L490 0 L800 0 Z M680 170 L680 320 L790 320 C835 320 870 285 870 245 C870 205 835 170 790 170 L680 170 Z " />
<glyph glyph-name="afii10059" unicode="&#x40a;" horiz-adv-x="1115" d="M815 0 C970 0 1075 105 1075 245 C1075 385 970 490 815 490 L700 490 L700 700 L510 700 L510 480 L270 480 L270 700 L80 700 L80 0 L270 0 L270 310 L510 310 L510 0 L815 0 Z M700 170 L700 320 L805 320 C850 320 885 285 885 245 C885 205 850 170 805 170 L700 170 Z " />
<glyph glyph-name="afii10060" unicode="&#x40b;" horiz-adv-x="780" d="M535 195 L535 0 L725 0 L725 190 C725 370 640 455 475 455 C395 455 345 415 345 415 L345 530 L495 530 L495 700 L0 700 L0 530 L155 530 L155 0 L345 0 L345 215 C345 245 385 285 440 285 C495 285 535 245 535 195 L535 195 Z " />
<glyph glyph-name="afii10061" unicode="&#x40c;" horiz-adv-x="730" d="M345 265 L520 0 L740 0 L470 410 L720 700 L500 700 L270 430 L270 700 L80 700 L80 0 L270 0 L270 180 L345 265 Z M310 780 L455 780 L575 941 L395 941 L310 780 Z " />
<glyph glyph-name="afii10062" unicode="&#x40e;" horiz-adv-x="650" d="M334 775 C439 775 509 845 509 940 L389 940 C389 905 369 885 334 885 C299 885 279 905 279 940 L159 940 C159 845 229 775 334 775 L334 775 Z M205 700 L0 700 L245 240 L235 220 C224 198 190 160 130 160 C95 160 70 170 70 170 L70 5 C70 5 105 -10 160 -10 C280 -10 365 75 415 180 L660 700 L455 700 L340 415 L205 700 Z " />
<glyph glyph-name="afii10145" unicode="&#x40f;" horiz-adv-x="790" d="M710 700 L520 700 L520 170 L270 170 L270 700 L80 700 L80 0 L300 0 L300 -140 L490 -140 L490 0 L710 0 L710 700 Z " />
<glyph glyph-name="afii10017" unicode="&#x410;" horiz-adv-x="740" d="M435 300 L305 300 L370 505 L435 300 Z M485 150 L535 0 L740 0 L475 700 L265 700 L0 0 L205 0 L255 150 L485 150 Z " />
<glyph glyph-name="afii10018" unicode="&#x411;" horiz-adv-x="695" d="M270 160 L270 290 L395 290 C435 290 465 263 465 225 C465 188 433 160 395 160 L270 160 Z M405 0 C560 0 655 105 655 225 C655 345 560 450 405 450 L270 450 L270 540 L590 540 L590 700 L80 700 L80 0 L405 0 Z " />
<glyph glyph-name="afii10019" unicode="&#x412;" horiz-adv-x="710" d="M415 0 C570 0 670 100 670 205 C670 330 545 370 545 370 C545 370 635 410 635 515 C635 610 545 700 395 700 L80 700 L80 0 L415 0 Z M270 150 L270 290 L400 290 C445 290 475 260 475 220 C475 180 445 150 400 150 L270 150 Z M375 550 C415 550 440 525 440 490 C440 455 416 430 375 430 L270 430 L270 550 L375 550 Z " />
<glyph glyph-name="afii10020" unicode="&#x413;" horiz-adv-x="590" d="M80 0 L270 0 L270 530 L580 530 L580 700 L80 700 L80 0 Z " />
<glyph glyph-name="afii10021" unicode="&#x414;" horiz-adv-x="760" d="M0 170 L0 -140 L190 -140 L190 0 L550 0 L550 -140 L740 -140 L740 170 L660 170 L660 700 L140 700 L140 480 C140 260 40 170 40 170 L0 170 Z M330 480 L330 530 L470 530 L470 170 L230 170 C230 170 330 260 330 480 L330 480 Z " />
<glyph glyph-name="afii10022" unicode="&#x415;" horiz-adv-x="670" d="M270 160 L270 280 L540 280 L540 430 L270 430 L270 540 L620 540 L620 700 L80 700 L80 0 L630 0 L630 160 L270 160 Z " />
<glyph glyph-name="afii10024" unicode="&#x416;" horiz-adv-x="1060" d="M435 0 L625 0 L625 209 L675 265 L850 0 L1070 0 L800 410 L1050 700 L830 700 L625 460 L625 700 L435 700 L435 460 L230 700 L10 700 L260 410 L-10 0 L210 0 L385 265 L435 209 L435 0 Z " />
<glyph glyph-name="afii10025" unicode="&#x417;" horiz-adv-x="625" d="M460 370 C460 370 565 400 565 520 C565 620 465 720 300 720 C120 720 35 615 35 615 L145 500 C145 500 195 550 270 550 C335 550 360 525 360 496 C360 465 335 440 275 440 L195 440 L195 280 L285 280 C355 280 380 255 380 220 C380 185 345 150 275 150 C185 150 120 215 120 215 L10 100 C10 100 115 -20 300 -20 C485 -20 585 80 585 195 C585 330 460 370 460 370 L460 370 Z " />
<glyph glyph-name="afii10026" unicode="&#x418;" horiz-adv-x="815" d="M80 700 L80 0 L244 0 L545 390 L545 0 L735 0 L735 700 L570 700 L270 310 L270 700 L80 700 Z " />
<glyph glyph-name="afii10027" unicode="&#x419;" horiz-adv-x="815" d="M410 775 C515 775 585 845 585 940 L465 940 C465 905 445 885 410 885 C375 885 355 905 355 940 L235 940 C235 845 305 775 410 775 L410 775 Z M80 700 L80 0 L244 0 L545 390 L545 0 L735 0 L735 700 L570 700 L270 310 L270 700 L80 700 Z " />
<glyph glyph-name="afii10028" unicode="&#x41a;" horiz-adv-x="730" d="M345 265 L520 0 L740 0 L470 410 L720 700 L500 700 L270 430 L270 700 L80 700 L80 0 L270 0 L270 180 L345 265 Z " />
<glyph glyph-name="afii10029" unicode="&#x41b;" horiz-adv-x="780" d="M700 700 L160 700 L160 479 C160 215 110 165 45 165 C25 165 0 175 0 175 L0 0 C0 0 44 -20 100 -20 C245 -20 350 85 350 480 L350 530 L510 530 L510 0 L700 0 L700 700 Z " />
<glyph glyph-name="afii10030" unicode="&#x41c;" horiz-adv-x="930" d="M465 170 L660 415 L660 0 L850 0 L850 700 L680 700 L465 425 L250 700 L80 700 L80 0 L270 0 L270 415 L465 170 Z " />
<glyph glyph-name="afii10031" unicode="&#x41d;" horiz-adv-x="795" d="M715 700 L525 700 L525 440 L270 440 L270 700 L80 700 L80 0 L270 0 L270 270 L525 270 L525 0 L715 0 L715 700 Z " />
<glyph glyph-name="afii10032" unicode="&#x41e;" horiz-adv-x="860" d="M235 350 C235 465 320 550 430 550 C540 550 625 465 625 350 C625 235 540 150 430 150 C320 150 235 235 235 350 L235 350 Z M820 350 C820 550 650 720 430 720 C210 720 40 550 40 350 C40 150 210 -20 430 -20 C650 -20 820 150 820 350 L820 350 Z " />
<glyph glyph-name="afii10033" unicode="&#x41f;" horiz-adv-x="785" d="M705 700 L80 700 L80 0 L270 0 L270 530 L515 530 L515 0 L705 0 L705 700 Z " />
<glyph glyph-name="afii10034" unicode="&#x420;" horiz-adv-x="695" d="M80 700 L80 0 L270 0 L270 210 L395 210 C550 210 655 315 655 455 C655 595 550 700 395 700 L80 700 Z M385 530 C430 530 465 495 465 455 C465 415 430 380 385 380 L270 380 L270 530 L385 530 Z " />
<glyph glyph-name="afii10035" unicode="&#x421;" horiz-adv-x="750" d="M230 350 C230 465 315 550 430 550 C545 550 610 460 610 460 L725 580 C725 580 630 720 430 720 C210 720 40 550 40 350 C40 150 210 -20 430 -20 C635 -20 730 120 730 120 L620 240 C620 240 550 150 430 150 C315 150 230 235 230 350 L230 350 Z " />
<glyph glyph-name="afii10036" unicode="&#x422;" horiz-adv-x="620" d="M20 700 L20 530 L215 530 L215 0 L405 0 L405 530 L600 530 L600 700 L20 700 Z " />
<glyph glyph-name="afii10037" unicode="&#x423;" horiz-adv-x="650" d="M205 700 L0 700 L245 240 L235 220 C224 198 190 160 130 160 C95 160 70 170 70 170 L70 5 C70 5 105 -10 160 -10 C280 -10 365 75 415 180 L660 700 L455 700 L340 415 L205 700 Z " />
<glyph glyph-name="afii10038" unicode="&#x424;" horiz-adv-x="900" d="M225 360 C225 435 275 485 355 490 L355 230 C275 235 225 285 225 360 L225 360 Z M545 -20 L545 70 C735 75 865 205 865 360 C865 515 735 645 545 650 L545 725 L355 725 L355 650 C165 645 35 515 35 360 C35 205 165 75 355 70 L355 -20 L545 -20 Z M675 360 C675 285 625 235 545 230 L545 490 C625 485 675 435 675 360 L675 360 Z " />
<glyph glyph-name="afii10039" unicode="&#x425;" horiz-adv-x="710" d="M355 235 L495 0 L705 0 L475 365 L685 700 L475 700 L355 495 L235 700 L25 700 L235 365 L5 0 L215 0 L355 235 Z " />
<glyph glyph-name="afii10040" unicode="&#x426;" horiz-adv-x="800" d="M80 0 L585 0 L585 -140 L775 -140 L775 170 L695 170 L695 700 L505 700 L505 170 L270 170 L270 700 L80 700 L80 0 Z " />
<glyph glyph-name="afii10041" unicode="&#x427;" horiz-adv-x="750" d="M260 700 L70 700 L70 485 C70 305 170 205 330 205 C415 205 480 235 480 235 L480 0 L670 0 L670 700 L480 700 L480 410 C480 410 435 375 367 375 C302 375 260 417 260 485 L260 700 Z " />
<glyph glyph-name="afii10042" unicode="&#x428;" horiz-adv-x="1080" d="M1000 700 L810 700 L810 170 L635 170 L635 700 L445 700 L445 170 L270 170 L270 700 L80 700 L80 0 L1000 0 L1000 700 Z " />
<glyph glyph-name="afii10043" unicode="&#x429;" horiz-adv-x="1105" d="M1000 700 L810 700 L810 170 L635 170 L635 700 L445 700 L445 170 L270 170 L270 700 L80 700 L80 0 L890 0 L890 -139 L1080 -139 L1080 170 L1000 170 L1000 700 Z " />
<glyph glyph-name="afii10044" unicode="&#x42a;" horiz-adv-x="760" d="M460 0 C615 0 720 105 720 245 C720 385 615 490 460 490 L345 490 L345 700 L0 700 L0 530 L155 530 L155 0 L460 0 Z M345 170 L345 320 L450 320 C495 320 530 285 530 245 C530 205 495 170 450 170 L345 170 Z " />
<glyph glyph-name="afii10045" unicode="&#x42b;" horiz-adv-x="985" d="M905 700 L715 700 L715 0 L905 0 L905 700 Z M385 0 C540 0 645 105 645 245 C645 385 540 490 385 490 L270 490 L270 700 L80 700 L80 0 L385 0 Z M270 170 L270 320 L375 320 C420 320 455 285 455 245 C455 205 420 170 375 170 L270 170 Z " />
<glyph glyph-name="afii10046" unicode="&#x42c;" horiz-adv-x="695" d="M395 0 C550 0 655 105 655 245 C655 385 550 490 395 490 L270 490 L270 700 L80 700 L80 0 L395 0 Z M270 170 L270 320 L385 320 C430 320 465 285 465 245 C465 205 430 170 385 170 L270 170 Z " />
<glyph glyph-name="afii10047" unicode="&#x42d;" horiz-adv-x="750" d="M320 720 C120 720 25 580 25 580 L140 460 C140 460 205 550 320 550 C420 550 480 490 505 430 L230 430 L230 270 L505 270 C480 210 420 150 320 150 C200 150 130 240 130 240 L20 120 C20 120 115 -20 320 -20 C540 -20 710 150 710 350 C710 550 541 720 320 720 L320 720 Z " />
<glyph glyph-name="afii10048" unicode="&#x42e;" horiz-adv-x="1105" d="M875 350 C875 230 795 150 705 150 C615 150 535 230 535 350 C535 470 615 550 705 550 C795 550 875 470 875 350 L875 350 Z M355 270 C390 110 520 -20 705 -20 C905 -20 1065 140 1065 350 C1065 560 905 720 705 720 C520 720 390 590 355 440 L270 440 L270 700 L80 700 L80 0 L270 0 L270 270 L355 270 Z " />
<glyph glyph-name="afii10049" unicode="&#x42f;" horiz-adv-x="720" d="M640 700 L310 700 C160 700 55 595 55 460 C55 310 175 255 175 255 L30 0 L230 0 L350 220 L450 220 L450 0 L640 0 L640 700 Z M245 460 C245 500 275 530 320 530 L450 530 L450 390 L320 390 C275 390 245 420 245 460 L245 460 Z " />
<glyph glyph-name="afii10065" unicode="&#x430;" horiz-adv-x="550" d="M485 0 L485 304 C485 410 394 500 260 500 C122 500 55 405 55 405 L140 315 C140 315 179 365 245 365 C294 365 315 338 315 315 L175 285 C80 265 25 210 25 130 C25 55 90 -10 185 -10 C270 -10 315 55 315 55 L315 0 L485 0 Z M240 120 C210 120 195 135 195 160 C195 180 215 200 240 205 L315 220 L315 205 C315 155 280 120 240 120 L240 120 Z " />
<glyph glyph-name="afii10066" unicode="&#x431;" horiz-adv-x="605" d="M565 230 C565 363 460 470 335 470 C254 470 200 415 200 415 C210 470 270 530 350 550 C490 585 539 614 539 614 L462 743 C462 743 400 711 285 685 C130 650 35 555 35 310 C35 105 150 -10 310 -10 C460 -10 565 95 565 230 L565 230 Z M220 230 C220 280 260 320 305 320 C350 320 390 280 390 230 C390 180 350 140 305 140 C260 140 220 180 220 230 L220 230 Z " />
<glyph glyph-name="afii10067" unicode="&#x432;" horiz-adv-x="555" d="M55 490 L55 0 L325 0 C454 0 515 65 515 145 C515 230 430 255 430 255 C430 255 495 280 495 355 C495 425 430 490 315 490 L55 490 Z M305 200 C330 200 345 185 345 160 C345 135 330 120 305 120 L225 120 L225 200 L305 200 Z M330 335 C330 315 315 300 295 300 L225 300 L225 370 L295 370 C315 370 330 354 330 335 L330 335 Z " />
<glyph glyph-name="afii10068" unicode="&#x433;" horiz-adv-x="450" d="M435 490 L55 490 L55 0 L225 0 L225 330 L435 330 L435 490 Z " />
<glyph glyph-name="afii10069" unicode="&#x434;" horiz-adv-x="590" d="M-5 150 L-5 -110 L165 -110 L165 0 L395 0 L395 -110 L565 -110 L565 150 L504 150 L504 490 L100 490 L100 377 C100 220 25 150 25 150 L-5 150 Z M250 340 L335 340 L335 150 L195 150 C195 150 250 209 250 340 L250 340 Z " />
<glyph glyph-name="afii10070" unicode="&#x435;" horiz-adv-x="580" d="M540 200 C540 200 545 220 545 255 C545 390 435 500 290 500 C145 500 30 385 30 245 C30 105 145 -10 300 -10 C430 -10 505 65 505 65 L430 175 C430 175 390 125 320 125 C250 125 210 165 205 200 L540 200 Z M290 370 C335 370 365 340 375 300 L205 300 C215 340 245 370 290 370 L290 370 Z " />
<glyph glyph-name="afii10072" unicode="&#x436;" horiz-adv-x="820" d="M320 0 L490 0 L490 141 L520 175 L635 0 L820 0 L635 280 L815 490 L620 490 L490 335 L490 490 L320 490 L320 335 L190 490 L-5 490 L175 280 L-10 0 L175 0 L290 175 L320 141 L320 0 Z " />
<glyph glyph-name="afii10073" unicode="&#x437;" horiz-adv-x="475" d="M425 355 C425 425 350 500 225 500 C85 500 20 425 20 425 L105 335 C105 335 145 365 195 365 C225 365 240 350 240 335 C240 320 225 305 195 305 L150 305 L150 194 L195 194 C235 194 250 180 250 160 C250 140 235 125 195 125 C125 125 90 175 90 175 L5 85 C5 85 70 -10 225 -10 C360 -10 435 65 435 135 C435 230 340 250 340 250 C340 250 425 270 425 355 L425 355 Z " />
<glyph glyph-name="afii10074" unicode="&#x438;" horiz-adv-x="610" d="M400 490 L225 260 L225 490 L55 490 L55 0 L200 0 L375 230 L375 0 L545 0 L545 490 L400 490 Z " />
<glyph glyph-name="afii10075" unicode="&#x439;" horiz-adv-x="610" d="M300 550 C400 550 470 620 470 710 L350 710 C350 680 330 660 300 660 C270 660 250 680 250 710 L130 710 C130 620 200 550 300 550 L300 550 Z M400 490 L225 260 L225 490 L55 490 L55 0 L200 0 L375 230 L375 0 L545 0 L545 490 L400 490 Z " />
<glyph glyph-name="afii10076" unicode="&#x43a;" horiz-adv-x="570" d="M565 490 L370 490 L225 320 L225 490 L55 490 L55 0 L225 0 L225 125 L270 175 L385 0 L570 0 L385 280 L565 490 Z " />
<glyph glyph-name="afii10077" unicode="&#x43b;" horiz-adv-x="590" d="M105 490 L105 375 C105 175 75 145 25 145 C10 145 -5 150 -5 150 L-5 0 C-5 0 30 -15 75 -15 C185 -15 260 60 260 340 L355 340 L355 0 L525 0 L525 490 L105 490 Z " />
<glyph glyph-name="afii10078" unicode="&#x43c;" horiz-adv-x="680" d="M335 110 L445 250 L445 0 L615 0 L615 490 L470 490 L335 320 L200 490 L55 490 L55 0 L225 0 L225 250 L335 110 Z " />
<glyph glyph-name="afii10079" unicode="&#x43d;" horiz-adv-x="605" d="M225 170 L370 170 L370 0 L540 0 L540 490 L370 490 L370 320 L225 320 L225 490 L55 490 L55 0 L225 0 L225 170 Z " />
<glyph glyph-name="afii10080" unicode="&#x43e;" horiz-adv-x="610" d="M205 245 C205 305 250 350 300 350 C350 350 395 305 395 245 C395 185 350 140 300 140 C250 140 205 185 205 245 L205 245 Z M570 245 C570 380 450 500 300 500 C150 500 30 380 30 245 C30 110 150 -10 300 -10 C450 -10 570 110 570 245 L570 245 Z " />
<glyph glyph-name="afii10081" unicode="&#x43f;" horiz-adv-x="605" d="M225 340 L370 340 L370 0 L540 0 L540 490 L55 490 L55 0 L225 0 L225 340 Z " />
<glyph glyph-name="afii10082" unicode="&#x440;" horiz-adv-x="630" d="M225 245 C225 305 270 350 320 350 C370 350 415 305 415 245 C415 185 370 140 320 140 C270 140 225 185 225 245 L225 245 Z M225 60 C225 60 270 -10 365 -10 C485 -10 590 95 590 245 C590 395 485 500 365 500 C270 500 225 430 225 430 L225 490 L55 490 L55 -210 L225 -210 L225 60 Z " />
<glyph glyph-name="afii10083" unicode="&#x441;" horiz-adv-x="540" d="M30 245 C30 110 150 -10 300 -10 C440 -10 510 90 510 90 L410 195 C410 195 375 140 310 140 C250 140 205 185 205 245 C205 305 250 350 310 350 C375 350 410 295 410 295 L510 400 C510 400 440 500 300 500 C150 500 30 380 30 245 L30 245 Z " />
<glyph glyph-name="afii10084" unicode="&#x442;" horiz-adv-x="490" d="M10 330 L155 330 L155 0 L325 0 L325 330 L470 330 L470 490 L10 490 L10 330 Z " />
<glyph glyph-name="afii10085" unicode="&#x443;" horiz-adv-x="540" d="M165 -10 C155 -30 130 -55 90 -55 C60 -55 40 -45 40 -45 L40 -195 C40 -195 80 -210 135 -210 C230 -210 295 -145 350 0 L535 490 L355 490 L265 205 L175 490 L-5 490 L175 10 L165 -10 Z " />
<glyph glyph-name="afii10086" unicode="&#x444;" horiz-adv-x="780" d="M470 -210 L470 -20 C625 -10 740 105 740 240 C740 375 625 490 470 500 L470 700 L300 700 L300 500 C145 490 30 375 30 240 C30 105 145 -10 300 -20 L300 -210 L470 -210 Z M470 350 C530 345 570 305 570 240 C570 175 530 135 470 130 L470 350 Z M300 130 C240 135 200 176 200 240 C200 306 240 345 300 350 L300 130 Z " />
<glyph glyph-name="afii10087" unicode="&#x445;" horiz-adv-x="530" d="M260 140 L345 0 L525 0 L370 250 L515 490 L330 490 L260 360 L190 490 L5 490 L150 250 L-5 0 L175 0 L260 140 Z " />
<glyph glyph-name="afii10088" unicode="&#x446;" horiz-adv-x="610" d="M55 0 L415 0 L415 -110 L585 -110 L585 150 L520 150 L520 490 L350 490 L350 150 L225 150 L225 490 L55 490 L55 0 Z " />
<glyph glyph-name="afii10089" unicode="&#x447;" horiz-adv-x="570" d="M335 0 L505 0 L505 490 L335 490 L335 295 C335 295 315 275 275 275 C240 275 215 300 215 335 L215 490 L45 490 L45 315 C45 195 120 120 230 120 C289 120 335 148 335 148 L335 0 Z " />
<glyph glyph-name="afii10090" unicode="&#x448;" horiz-adv-x="830" d="M55 0 L765 0 L765 490 L595 490 L595 150 L495 150 L495 490 L325 490 L325 150 L225 150 L225 490 L55 490 L55 0 Z " />
<glyph glyph-name="afii10091" unicode="&#x449;" horiz-adv-x="855" d="M55 0 L660 0 L660 -110 L830 -110 L830 150 L765 150 L765 490 L595 490 L595 150 L495 150 L495 490 L325 490 L325 150 L225 150 L225 490 L55 490 L55 0 Z " />
<glyph glyph-name="afii10092" unicode="&#x44a;" horiz-adv-x="580" d="M545 175 C545 275 470 350 345 350 L280 350 L280 490 L5 490 L5 330 L110 330 L110 0 L345 0 C470 0 545 75 545 175 L545 175 Z M280 130 L280 220 L330 220 C355 220 375 200 375 175 C375 150 355 130 330 130 L280 130 Z " />
<glyph glyph-name="afii10093" unicode="&#x44b;" horiz-adv-x="780" d="M715 490 L545 490 L545 0 L715 0 L715 490 Z M225 130 L225 220 L275 220 C300 220 320 200 320 175 C320 150 300 130 275 130 L225 130 Z M490 175 C490 275 415 350 290 350 L225 350 L225 490 L55 490 L55 0 L290 0 C415 0 490 75 490 175 L490 175 Z " />
<glyph glyph-name="afii10094" unicode="&#x44c;" horiz-adv-x="535" d="M225 130 L225 220 L285 220 C310 220 330 200 330 175 C330 150 310 130 285 130 L225 130 Z M500 175 C500 275 425 350 300 350 L225 350 L225 490 L55 490 L55 0 L300 0 C425 0 500 75 500 175 L500 175 Z " />
<glyph glyph-name="afii10095" unicode="&#x44d;" horiz-adv-x="540" d="M500 245 C500 380 380 500 230 500 C90 500 20 400 20 400 L110 305 C110 305 155 360 220 360 C295 360 321 300 321 300 L155 300 L155 190 L321 190 C321 190 295 130 220 130 C155 130 110 185 110 185 L20 90 C20 90 90 -10 230 -10 C380 -10 500 110 500 245 L500 245 Z " />
<glyph glyph-name="afii10096" unicode="&#x44e;" horiz-adv-x="830" d="M790 245 C790 385 675 500 530 500 C400 500 315 415 280 320 L225 320 L225 490 L55 490 L55 0 L225 0 L225 170 L280 170 C315 75 400 -10 530 -10 C675 -10 790 105 790 245 L790 245 Z M620 245 C620 185 575 140 530 140 C485 140 440 185 440 245 C440 305 485 350 530 350 C575 350 620 305 620 245 L620 245 Z " />
<glyph glyph-name="afii10097" unicode="&#x44f;" horiz-adv-x="555" d="M240 490 C120 490 40 410 40 315 C40 210 125 170 125 170 L20 0 L195 0 L280 140 L320 140 L320 0 L490 0 L490 490 L240 490 Z M320 360 L320 270 L260 270 C231 270 210 286 210 315 C210 344 231 360 260 360 L320 360 Z " />
<glyph glyph-name="afii10071" unicode="&#x451;" horiz-adv-x="580" d="M540 200 C540 200 545 220 545 255 C545 390 435 500 290 500 C145 500 30 385 30 245 C30 105 145 -10 300 -10 C430 -10 505 65 505 65 L430 175 C430 175 390 125 320 125 C250 125 210 165 205 200 L540 200 Z M290 370 C335 370 365 340 375 300 L205 300 C215 340 245 370 290 370 L290 370 Z M88 635 C88 590 128 550 173 550 C218 550 258 590 258 635 C258 680 218 720 173 720 C128 720 88 680 88 635 L88 635 Z M318 635 C318 590 358 550 403 550 C448 550 488 590 488 635 C488 680 448 720 403 720 C358 720 318 680 318 635 L318 635 Z " />
<glyph glyph-name="afii10099" unicode="&#x452;" horiz-adv-x="610" d="M240 700 L70 700 L70 635 L-5 635 L-5 485 L70 485 L70 0 L240 0 L240 195 C240 255 275 290 325 290 C365 290 390 265 390 225 C390 170 360 140 305 140 L305 -20 C475 -20 560 65 560 230 C560 367 484 450 380 450 C290 450 240 380 240 380 L240 485 L345 485 L345 635 L240 635 L240 700 Z " />
<glyph glyph-name="afii10100" unicode="&#x453;" horiz-adv-x="450" d="M165 550 L310 550 L430 711 L250 711 L165 550 Z M435 490 L55 490 L55 0 L225 0 L225 330 L435 330 L435 490 Z " />
<glyph glyph-name="afii10101" unicode="&#x454;" horiz-adv-x="545" d="M30 245 C30 110 150 -10 300 -10 C440 -10 515 90 515 90 L425 180 C425 180 390 120 310 120 C235 120 205 190 205 190 L375 190 L375 300 L205 300 C205 300 235 370 310 370 C390 370 425 310 425 310 L510 400 C510 400 440 500 300 500 C150 500 30 380 30 245 L30 245 Z " />
<glyph glyph-name="afii10102" unicode="&#x455;" horiz-adv-x="470" d="M435 425 C435 425 370 500 240 500 C105 500 30 425 30 340 C30 180 235 200 235 155 C235 140 220 125 190 125 C130 125 95 175 95 175 L10 85 C10 85 75 -10 230 -10 C365 -10 440 65 440 150 C440 310 235 290 235 335 C235 350 250 365 280 365 C320 365 350 335 350 335 L435 425 Z " />
<glyph glyph-name="afii10103" unicode="&#x456;" horiz-adv-x="300" d="M230 490 L60 490 L60 0 L230 0 L230 490 Z M240 635 C240 685 200 725 145 725 C90 725 50 685 50 635 C50 585 90 545 145 545 C200 545 240 585 240 635 L240 635 Z " />
<glyph glyph-name="afii10104" unicode="&#x457;" horiz-adv-x="320" d="M-45 630 C-45 585 -5 545 40 545 C85 545 125 585 125 630 C125 675 85 715 40 715 C-5 715 -45 675 -45 630 L-45 630 Z M185 630 C185 585 225 545 270 545 C315 545 355 585 355 630 C355 675 315 715 270 715 C225 715 185 675 185 630 L185 630 Z M240 490 L70 490 L70 0 L240 0 L240 490 Z " />
<glyph glyph-name="afii10105" unicode="&#x458;" horiz-adv-x="300" d="M60 0 C60 -30 35 -55 5 -55 C-20 -55 -45 -45 -45 -45 L-45 -195 C-45 -195 -5 -210 55 -210 C160 -210 230 -140 230 -25 L230 490 L60 490 L60 0 Z M240 635 C240 685 200 725 145 725 C90 725 50 685 50 635 C50 585 90 545 145 545 C200 545 240 585 240 635 L240 635 Z " />
<glyph glyph-name="afii10106" unicode="&#x459;" horiz-adv-x="820" d="M785 170 C785 270 715 340 585 340 L515 340 L515 490 L105 490 L105 375 C105 175 75 145 25 145 C10 145 -5 150 -5 150 L-5 0 C-5 0 30 -15 75 -15 C185 -15 260 60 260 340 L345 340 L345 0 L585 0 C715 0 785 70 785 170 L785 170 Z M515 130 L515 210 L570 210 C600 210 615 195 615 170 C615 145 600 130 570 130 L515 130 Z " />
<glyph glyph-name="afii10107" unicode="&#x45a;" horiz-adv-x="830" d="M795 170 C795 270 725 340 595 340 L525 340 L525 490 L355 490 L355 340 L225 340 L225 490 L55 490 L55 0 L225 0 L225 190 L355 190 L355 0 L595 0 C725 0 795 70 795 170 L795 170 Z M525 130 L525 210 L580 210 C610 210 625 195 625 170 C625 145 610 130 580 130 L525 130 Z " />
<glyph glyph-name="afii10108" unicode="&#x45b;" horiz-adv-x="625" d="M240 700 L70 700 L70 635 L-5 635 L-5 485 L70 485 L70 0 L240 0 L240 195 C240 255 275 290 320 290 C360 290 390 260 390 210 L390 0 L560 0 L560 240 C560 367 484 450 380 450 C290 450 240 380 240 380 L240 485 L345 485 L345 635 L240 635 L240 700 Z " />
<glyph glyph-name="afii10109" unicode="&#x45c;" horiz-adv-x="570" d="M220 550 L365 550 L485 711 L305 711 L220 550 Z M565 490 L370 490 L225 320 L225 490 L55 490 L55 0 L225 0 L225 125 L270 175 L385 0 L570 0 L385 280 L565 490 Z " />
<glyph glyph-name="afii10110" unicode="&#x45e;" horiz-adv-x="540" d="M165 -10 C155 -30 130 -55 90 -55 C60 -55 40 -45 40 -45 L40 -195 C40 -195 80 -210 135 -210 C230 -210 295 -145 350 0 L535 490 L355 490 L265 205 L175 490 L-5 490 L175 10 L165 -10 Z M265 550 C365 550 435 620 435 710 L315 710 C315 680 295 660 265 660 C235 660 215 680 215 710 L95 710 C95 620 165 550 265 550 L265 550 Z " />
<glyph glyph-name="afii10193" unicode="&#x45f;" horiz-adv-x="600" d="M225 490 L55 490 L55 0 L210 0 L210 -110 L380 -110 L380 0 L535 0 L535 490 L365 490 L365 150 L225 150 L225 490 Z " />
<glyph glyph-name="afii10050" unicode="&#x490;" horiz-adv-x="590" d="M80 0 L270 0 L270 530 L580 530 L580 830 L400 830 L400 700 L80 700 L80 0 Z " />
<glyph glyph-name="afii10098" unicode="&#x491;" horiz-adv-x="450" d="M435 330 L435 590 L270 590 L270 490 L55 490 L55 0 L225 0 L225 330 L435 330 Z " />
<glyph glyph-name="Wgrave" unicode="&#x1e80;" horiz-adv-x="1080" d="M540 405 L670 0 L840 0 L1070 700 L865 700 L745 275 L620 700 L460 700 L335 275 L215 700 L10 700 L240 0 L410 0 L540 405 Z M587 921 L407 921 L527 760 L672 760 L587 921 Z " />
<glyph glyph-name="wgrave" unicode="&#x1e81;" horiz-adv-x="790" d="M330 490 L250 240 L170 490 L-5 490 L165 0 L305 0 L390 240 L475 0 L615 0 L785 490 L610 490 L530 240 L450 490 L330 490 Z M442 711 L262 711 L382 550 L527 550 L442 711 Z " />
<glyph glyph-name="Wacute" unicode="&#x1e82;" horiz-adv-x="1080" d="M540 405 L670 0 L840 0 L1070 700 L865 700 L745 275 L620 700 L460 700 L335 275 L215 700 L10 700 L240 0 L410 0 L540 405 Z M407 760 L552 760 L672 921 L492 921 L407 760 Z " />
<glyph glyph-name="wacute" unicode="&#x1e83;" horiz-adv-x="790" d="M330 490 L250 240 L170 490 L-5 490 L165 0 L305 0 L390 240 L475 0 L615 0 L785 490 L610 490 L530 240 L450 490 L330 490 Z M262 550 L407 550 L527 711 L347 711 L262 550 Z " />
<glyph glyph-name="Wdieresis" unicode="&#x1e84;" horiz-adv-x="1080" d="M540 405 L670 0 L840 0 L1070 700 L865 700 L745 275 L620 700 L460 700 L335 275 L215 700 L10 700 L240 0 L410 0 L540 405 Z M340 845 C340 800 380 760 425 760 C470 760 510 800 510 845 C510 890 470 930 425 930 C380 930 340 890 340 845 L340 845 Z M570 845 C570 800 610 760 655 760 C700 760 740 800 740 845 C740 890 700 930 655 930 C610 930 570 890 570 845 L570 845 Z " />
<glyph glyph-name="wdieresis" unicode="&#x1e85;" horiz-adv-x="790" d="M330 490 L250 240 L170 490 L-5 490 L165 0 L305 0 L390 240 L475 0 L615 0 L785 490 L610 490 L530 240 L450 490 L330 490 Z M195 635 C195 590 235 550 280 550 C325 550 365 590 365 635 C365 680 325 720 280 720 C235 720 195 680 195 635 L195 635 Z M425 635 C425 590 465 550 510 550 C555 550 595 590 595 635 C595 680 555 720 510 720 C465 720 425 680 425 635 L425 635 Z " />
<glyph glyph-name="uni1E9E" unicode="&#x1e9e;" horiz-adv-x="695" d="M510 405 L615 545 L615 700 L335 700 C179 700 75 595 75 460 L75 0 L265 0 L265 455 C265 505 300 540 350 540 L425 540 L335 420 L335 295 L375 295 C425 295 455 265 455 220 C455 175 425 145 375 145 L335 145 L335 0 L400 0 C554 0 655 103 655 215 C655 370 510 405 510 405 L510 405 Z " />
<glyph glyph-name="endash" unicode="&#x2013;" horiz-adv-x="520" d="M485 365 L35 365 L35 225 L485 225 L485 365 Z " />
<glyph glyph-name="emdash" unicode="&#x2014;" horiz-adv-x="760" d="M725 365 L35 365 L35 225 L725 225 L725 365 Z " />
<glyph glyph-name="quoteleft" unicode="&#x2018;" horiz-adv-x="290" d="M160 415 L270 660 L165 720 L20 495 L160 415 Z " />
<glyph glyph-name="quoteright" unicode="&#x2019;" horiz-adv-x="290" d="M130 720 L20 475 L125 415 L270 640 L130 720 Z " />
<glyph glyph-name="quotesinglbase" unicode="&#x201a;" horiz-adv-x="285" d="M110 170 L-5 -70 L105 -130 L245 90 L110 170 Z " />
<glyph glyph-name="quotedblleft" unicode="&#x201c;" horiz-adv-x="500" d="M150 420 L260 665 L165 720 L20 495 L150 420 Z M370 420 L480 665 L385 720 L240 495 L370 420 Z " />
<glyph glyph-name="quotedblright" unicode="&#x201d;" horiz-adv-x="500" d="M350 720 L240 475 L335 420 L480 645 L350 720 Z M130 720 L20 475 L115 420 L260 645 L130 720 Z " />
<glyph glyph-name="quotedblbase" unicode="&#x201e;" horiz-adv-x="490" d="M320 170 L210 -75 L305 -130 L450 95 L320 170 Z M100 170 L-10 -75 L85 -130 L230 95 L100 170 Z " />
<glyph glyph-name="dagger" unicode="&#x2020;" horiz-adv-x="485" d="M170 575 L50 575 L50 445 L170 445 L170 140 L315 140 L315 445 L435 445 L435 575 L315 575 L315 700 L170 700 L170 575 Z " />
<glyph glyph-name="daggerdbl" unicode="&#x2021;" horiz-adv-x="485" d="M170 590 L50 590 L50 460 L170 460 L170 380 L50 380 L50 250 L170 250 L170 140 L315 140 L315 250 L435 250 L435 380 L315 380 L315 460 L435 460 L435 590 L315 590 L315 700 L170 700 L170 590 Z " />
<glyph glyph-name="bullet" unicode="&#x2022;" horiz-adv-x="440" d="M355 240 C355 315 295 375 220 375 C145 375 85 315 85 240 C85 165 145 105 220 105 C295 105 355 165 355 240 L355 240 Z " />
<glyph glyph-name="ellipsis" unicode="&#x2026;" horiz-adv-x="830" d="M320 80 C320 30 360 -10 415 -10 C470 -10 510 30 510 80 C510 130 470 170 415 170 C360 170 320 130 320 80 L320 80 Z M600 80 C600 30 640 -10 695 -10 C750 -10 790 30 790 80 C790 130 750 170 695 170 C640 170 600 130 600 80 L600 80 Z M40 80 C40 30 80 -10 135 -10 C190 -10 230 30 230 80 C230 130 190 170 135 170 C80 170 40 130 40 80 L40 80 Z " />
<glyph glyph-name="perthousand" unicode="&#x2030;" horiz-adv-x="1250" d="M130 0 L290 0 L730 700 L570 700 L130 0 Z M145 545 C145 580 170 605 205 605 C240 605 265 580 265 545 C265 510 240 485 205 485 C170 485 145 510 145 545 L145 545 Z M385 545 C385 635 305 715 205 715 C105 715 25 635 25 545 C25 455 105 375 205 375 C305 375 385 455 385 545 L385 545 Z M590 155 C590 190 615 215 650 215 C685 215 710 190 710 155 C710 120 685 95 650 95 C615 95 590 120 590 155 L590 155 Z M830 155 C830 245 750 325 650 325 C550 325 470 245 470 155 C470 65 550 -15 650 -15 C750 -15 830 65 830 155 L830 155 Z M985 155 C985 190 1010 215 1045 215 C1080 215 1105 190 1105 155 C1105 120 1080 95 1045 95 C1010 95 985 120 985 155 L985 155 Z M1225 155 C1225 245 1145 325 1045 325 C945 325 865 245 865 155 C865 65 945 -15 1045 -15 C1145 -15 1225 65 1225 155 L1225 155 Z " />
<glyph glyph-name="guilsinglleft" unicode="&#x2039;" horiz-adv-x="370" d="M335 420 L165 420 L35 240 L165 60 L335 60 L205 240 L335 420 Z " />
<glyph glyph-name="guilsinglright" unicode="&#x203a;" horiz-adv-x="370" d="M165 240 L35 60 L205 60 L335 240 L205 420 L35 420 L165 240 Z " />
<glyph glyph-name="fraction" unicode="&#x2044;" horiz-adv-x="235" d="M-180 0 L-20 0 L415 700 L255 700 L-180 0 Z " />
<glyph glyph-name="zerosuperior" unicode="&#x2070;" horiz-adv-x="380" d="M140 620 C140 675 165 700 190 700 C215 700 240 675 240 620 C240 565 215 540 190 540 C165 540 140 565 140 620 L140 620 Z M355 620 C355 735 285 805 190 805 C95 805 25 735 25 620 C25 505 95 435 190 435 C285 435 355 505 355 620 L355 620 Z " />
<glyph glyph-name="foursuperior" unicode="&#x2074;" horiz-adv-x="340" d="M285 800 L170 800 L15 600 L15 505 L170 505 L170 440 L285 440 L285 505 L320 505 L320 605 L285 605 L285 800 Z M115 600 L175 680 L175 600 L115 600 Z " />
<glyph glyph-name="fivesuperior" unicode="&#x2075;" horiz-adv-x="325" d="M195 675 C170 675 155 670 155 670 L160 710 L285 710 L285 800 L60 800 L35 595 L105 595 C105 595 120 605 140 605 C165 605 180 590 180 565 C180 545 165 530 140 530 C95 530 70 555 70 555 L10 490 C10 490 51 435 160 435 C255 435 310 490 310 565 C310 625 260 675 195 675 L195 675 Z " />
<glyph glyph-name="sixsuperior" unicode="&#x2076;" horiz-adv-x="325" d="M275 800 L150 800 L45 660 C45 660 15 625 15 570 C15 495 75 435 165 435 C255 435 315 495 315 570 C315 640 270 685 205 700 L275 800 Z M205 570 C205 545 190 530 165 530 C140 530 125 545 125 570 C125 595 140 610 165 610 C190 610 205 595 205 570 L205 570 Z " />
<glyph glyph-name="sevensuperior" unicode="&#x2077;" horiz-adv-x="300" d="M10 800 L10 690 L165 690 L50 440 L170 440 L285 690 L285 800 L10 800 Z " />
<glyph glyph-name="eightsuperior" unicode="&#x2078;" horiz-adv-x="330" d="M165 530 C140 530 125 545 125 560 C125 575 140 590 165 590 C190 590 205 575 205 560 C205 545 190 530 165 530 L165 530 Z M165 665 C145 665 135 675 135 690 C135 705 145 715 165 715 C185 715 195 705 195 690 C195 675 185 665 165 665 L165 665 Z M165 435 C270 435 320 485 320 545 C320 610 250 630 250 630 C250 630 305 650 305 705 C305 760 260 805 165 805 C70 805 25 760 25 705 C25 650 80 630 80 630 C80 630 10 610 10 545 C10 485 60 435 165 435 L165 435 Z " />
<glyph glyph-name="ninesuperior" unicode="&#x2079;" horiz-adv-x="325" d="M50 440 L175 440 L280 580 C280 580 310 615 310 670 C310 745 250 805 160 805 C70 805 10 745 10 670 C10 600 55 555 120 540 L50 440 Z M120 670 C120 695 135 710 160 710 C185 710 200 695 200 670 C200 645 185 630 160 630 C135 630 120 645 120 670 L120 670 Z " />
<glyph glyph-name="zeroinferior" unicode="&#x2080;" horiz-adv-x="380" d="M140 80 C140 135 165 160 190 160 C215 160 240 135 240 80 C240 25 215 0 190 0 C165 0 140 25 140 80 L140 80 Z M355 80 C355 195 285 265 190 265 C95 265 25 195 25 80 C25 -35 95 -105 190 -105 C285 -105 355 -35 355 80 L355 80 Z " />
<glyph glyph-name="oneinferior" unicode="&#x2081;" horiz-adv-x="240" d="M95 260 C95 260 70 215 20 210 L20 125 L80 125 L80 -100 L200 -100 L200 260 L95 260 Z " />
<glyph glyph-name="twoinferior" unicode="&#x2082;" horiz-adv-x="340" d="M310 150 C310 215 260 265 170 265 C55 265 25 167 25 167 L115 130 C115 130 130 160 155 160 C174 160 185 150 185 135 C185 80 30 70 30 -100 L305 -100 L305 5 L185 5 C220 40 310 70 310 150 L310 150 Z " />
<glyph glyph-name="threeinferior" unicode="&#x2083;" horiz-adv-x="345" d="M255 90 C255 90 305 110 305 165 C305 215 255 265 168 265 C69 265 30 210 30 210 L90 145 C90 145 115 175 145 175 C170 175 180 165 180 150 C180 140 170 130 145 130 L110 130 L110 50 L145 50 C180 50 190 40 190 20 C190 5 175 -10 155 -10 C110 -10 80 25 80 25 L20 -40 C20 -40 60 -105 170 -105 C260 -105 315 -50 315 10 C315 75 255 90 255 90 L255 90 Z " />
<glyph glyph-name="fourinferior" unicode="&#x2084;" horiz-adv-x="340" d="M285 260 L170 260 L15 60 L15 -35 L170 -35 L170 -100 L285 -100 L285 -35 L320 -35 L320 65 L285 65 L285 260 Z M115 60 L175 140 L175 60 L115 60 Z " />
<glyph glyph-name="fiveinferior" unicode="&#x2085;" horiz-adv-x="325" d="M195 135 C170 135 155 130 155 130 L160 170 L285 170 L285 260 L60 260 L35 55 L105 55 C105 55 120 65 140 65 C165 65 180 50 180 25 C180 5 165 -10 140 -10 C95 -10 70 15 70 15 L10 -50 C10 -50 51 -105 160 -105 C255 -105 310 -50 310 25 C310 85 260 135 195 135 L195 135 Z " />
<glyph glyph-name="sixinferior" unicode="&#x2086;" horiz-adv-x="325" d="M275 260 L150 260 L45 120 C45 120 15 85 15 30 C15 -45 75 -105 165 -105 C255 -105 315 -45 315 30 C315 100 270 145 205 160 L275 260 Z M205 30 C205 5 190 -10 165 -10 C140 -10 125 5 125 30 C125 55 140 70 165 70 C190 70 205 55 205 30 L205 30 Z " />
<glyph glyph-name="seveninferior" unicode="&#x2087;" horiz-adv-x="300" d="M10 260 L10 150 L165 150 L50 -100 L170 -100 L285 150 L285 260 L10 260 Z " />
<glyph glyph-name="eightinferior" unicode="&#x2088;" horiz-adv-x="330" d="M165 -10 C140 -10 125 5 125 20 C125 35 140 50 165 50 C190 50 205 35 205 20 C205 5 190 -10 165 -10 L165 -10 Z M165 125 C145 125 135 135 135 150 C135 165 145 175 165 175 C185 175 195 165 195 150 C195 135 185 125 165 125 L165 125 Z M165 -105 C270 -105 320 -55 320 5 C320 70 250 90 250 90 C250 90 305 110 305 165 C305 220 260 265 165 265 C70 265 25 220 25 165 C25 110 80 90 80 90 C80 90 10 70 10 5 C10 -55 60 -105 165 -105 L165 -105 Z " />
<glyph glyph-name="nineinferior" unicode="&#x2089;" horiz-adv-x="325" d="M50 -100 L175 -100 L280 40 C280 40 310 75 310 130 C310 205 250 265 160 265 C70 265 10 205 10 130 C10 60 55 15 120 0 L50 -100 Z M120 130 C120 155 135 170 160 170 C185 170 200 155 200 130 C200 105 185 90 160 90 C135 90 120 105 120 130 L120 130 Z " />
<glyph glyph-name="Euro" unicode="&#x20ac;" horiz-adv-x="755" d="M490 220 L490 320 L295 320 L295 380 L490 380 L490 480 L325 480 C325 480 370 560 480 560 C570 560 625 495 625 495 L730 605 C730 605 650 720 470 720 C220 720 120 480 120 480 L30 480 L30 380 L105 380 L105 320 L30 320 L30 220 L120 220 C120 220 220 -20 470 -20 C650 -20 730 100 730 100 L625 210 C625 210 570 140 480 140 C370 140 325 220 325 220 L490 220 Z " />
<glyph glyph-name="uni20B4" unicode="&#x20b4;" horiz-adv-x="660" d="M40 380 L620 380 L620 480 L575 480 L575 505 C575 615 470 720 310 720 C140 720 70 615 70 615 L170 514 C170 514 221 560 290 560 C335 560 365 530 365 500 C365 485 360 480 360 480 L40 480 L40 380 Z M620 320 L40 320 L40 220 L85 220 L85 195 C85 85 190 -20 350 -20 C520 -20 590 85 590 85 L490 186 C490 186 439 140 370 140 C325 140 295 170 295 200 C295 215 300 220 300 220 L620 220 L620 320 Z " />
<glyph glyph-name="uni20BD" unicode="&#x20bd;" horiz-adv-x="720" d="M305 400 L305 540 L420 540 C465 540 495 510 495 470 C495 430 465 400 420 400 L305 400 Z M427 265 C590 265 685 360 685 480 C685 600 585 700 425 700 L115 700 L115 400 L45 400 L45 265 L115 265 L115 220 L45 220 L45 85 L115 85 L115 0 L305 0 L305 85 L505 85 L505 220 L305 220 L305 265 L427 265 Z " />
<glyph glyph-name="afii61352" unicode="&#x2116;" horiz-adv-x="1195" d="M1150 150 L810 150 L810 0 L1150 0 L1150 150 Z M545 700 L545 310 L245 700 L80 700 L80 0 L270 0 L270 390 L571 0 L735 0 L735 700 L545 700 Z M920 390 C920 425 945 450 980 450 C1015 450 1040 425 1040 390 C1040 355 1015 330 980 330 C945 330 920 355 920 390 L920 390 Z M1160 390 C1160 480 1080 560 980 560 C880 560 800 480 800 390 C800 300 880 220 980 220 C1080 220 1160 300 1160 390 L1160 390 Z " />
<glyph glyph-name="trademark" unicode="&#x2122;" horiz-adv-x="765" d="M525 435 L605 535 L605 380 L720 380 L720 700 L615 700 L525 585 L435 700 L330 700 L330 380 L445 380 L445 535 L525 435 Z M10 590 L95 590 L95 380 L210 380 L210 590 L293 590 L293 700 L10 700 L10 590 Z " />
<glyph glyph-name="arrowleft" unicode="&#x2190;" horiz-adv-x="1000" d="M915 270 L915 390 L315 390 L445 520 L360 605 L85 330 L360 55 L445 140 L315 270 L915 270 Z " />
<glyph glyph-name="arrowup" unicode="&#x2191;" horiz-adv-x="1000" d="M560 535 L690 405 L775 490 L500 765 L225 490 L310 405 L440 535 L440 -65 L560 -65 L560 535 Z " />
<glyph glyph-name="arrowright" unicode="&#x2192;" horiz-adv-x="1000" d="M685 270 L555 140 L640 55 L915 330 L640 605 L555 520 L685 390 L85 390 L85 270 L685 270 Z " />
<glyph glyph-name="arrowdown" unicode="&#x2193;" horiz-adv-x="1000" d="M560 765 L440 765 L440 165 L310 295 L225 210 L500 -65 L775 210 L690 295 L560 165 L560 765 Z " />
<glyph glyph-name="arrowboth" unicode="&#x2194;" horiz-adv-x="1000" d="M685 270 L555 140 L640 55 L915 330 L640 605 L555 520 L685 390 L315 390 L445 520 L360 605 L85 330 L360 55 L445 140 L315 270 L685 270 Z " />
<glyph glyph-name="arrowupdn" unicode="&#x2195;" horiz-adv-x="1000" d="M560 535 L690 405 L775 490 L500 765 L225 490 L310 405 L440 535 L440 165 L310 295 L225 210 L500 -65 L775 210 L690 295 L560 165 L560 535 Z " />
<glyph glyph-name="uni2196" unicode="&#x2196;" horiz-adv-x="1000" d="M390 525 L575 525 L575 645 L185 645 L185 255 L305 255 L305 440 L730 15 L815 100 L390 525 Z " />
<glyph glyph-name="uni2197" unicode="&#x2197;" horiz-adv-x="1000" d="M185 100 L270 15 L695 440 L695 255 L815 255 L815 645 L425 645 L425 525 L610 525 L185 100 Z " />
<glyph glyph-name="uni2198" unicode="&#x2198;" horiz-adv-x="1000" d="M610 135 L425 135 L425 15 L815 15 L815 405 L695 405 L695 220 L270 645 L185 560 L610 135 Z " />
<glyph glyph-name="uni2199" unicode="&#x2199;" horiz-adv-x="1000" d="M815 560 L730 645 L305 220 L305 405 L185 405 L185 15 L575 15 L575 135 L390 135 L815 560 Z " />
<glyph glyph-name="minus" unicode="&#x2212;" horiz-adv-x="535" d="M500 370 L35 370 L35 220 L500 220 L500 370 Z " />
<glyph glyph-name="approxequal" unicode="&#x2248;" horiz-adv-x="580" d="M220 355 C285 355 310 300 400 300 C520 300 555 415 555 415 L445 495 C445 495 415 445 360 445 C295 445 270 500 180 500 C60 500 25 385 25 385 L135 305 C135 305 165 355 220 355 L220 355 Z M220 145 C285 145 310 90 400 90 C520 90 555 205 555 205 L445 285 C445 285 415 235 360 235 C295 235 270 290 180 290 C60 290 25 175 25 175 L135 95 C135 95 165 145 220 145 L220 145 Z " />
<glyph glyph-name="notequal" unicode="&#x2260;" horiz-adv-x="495" d="M35 330 L185 330 L155 260 L35 260 L35 120 L100 120 L70 40 L225 40 L255 120 L460 120 L460 260 L310 260 L340 330 L460 330 L460 470 L395 470 L425 550 L270 550 L240 470 L35 470 L35 330 Z " />
<glyph glyph-name="lessequal" unicode="&#x2264;" horiz-adv-x="520" d="M250 385 L485 470 L485 615 L35 435 L35 335 L485 155 L485 300 L250 385 Z M35 0 L485 0 L485 130 L35 130 L35 0 Z " />
<glyph glyph-name="greaterequal" unicode="&#x2265;" horiz-adv-x="520" d="M35 300 L35 155 L485 335 L485 435 L35 615 L35 470 L270 385 L35 300 Z M485 130 L35 130 L35 0 L485 0 L485 130 Z " />
<glyph glyph-name="uni2460" unicode="&#x2460;" horiz-adv-x="1000" d="M500 810 C240 810 40 610 40 350 C40 90 240 -110 500 -110 C760 -110 960 90 960 350 C960 610 760 810 500 810 L500 810 Z M500 690 C690 690 840 540 840 350 C840 160 690 10 500 10 C310 10 160 160 160 350 C160 540 310 690 500 690 L500 690 Z M475 560 C475 560 450 500 380 490 L380 420 L465 420 L465 140 L585 140 L585 560 L475 560 Z " />
<glyph glyph-name="uni2461" unicode="&#x2461;" horiz-adv-x="1000" d="M655 140 L655 245 L500 245 C530 295 660 325 660 435 C660 505 597 570 500 570 C370 570 335 465 335 465 L435 420 C435 420 450 460 490 460 C515 460 530 445 530 425 C530 360 335 340 335 140 L655 140 Z M500 690 C690 690 840 540 840 350 C840 160 690 10 500 10 C310 10 160 160 160 350 C160 540 310 690 500 690 L500 690 Z M500 810 C240 810 40 610 40 350 C40 90 240 -110 500 -110 C760 -110 960 90 960 350 C960 610 760 810 500 810 L500 810 Z " />
<glyph glyph-name="uni2462" unicode="&#x2462;" horiz-adv-x="1000" d="M655 450 C655 510 595 570 500 570 C395 570 350 515 350 515 L415 445 C415 445 445 470 485 470 C510 470 525 455 525 435 C525 415 510 400 482 400 L440 400 L440 310 L485 310 C525 310 540 295 540 270 C540 250 520 230 485 230 C435 230 400 270 400 270 L335 200 C335 200 390 130 495 130 C605 130 665 190 665 260 C665 335 595 355 595 355 C595 355 655 380 655 450 L655 450 Z M500 690 C690 690 840 540 840 350 C840 160 690 10 500 10 C310 10 160 160 160 350 C160 540 310 690 500 690 L500 690 Z M500 810 C240 810 40 610 40 350 C40 90 240 -110 500 -110 C760 -110 960 90 960 350 C960 610 760 810 500 810 L500 810 Z " />
<glyph glyph-name="uni2463" unicode="&#x2463;" horiz-adv-x="1000" d="M615 305 L615 560 L495 560 L310 310 L310 205 L495 205 L495 140 L615 140 L615 205 L660 205 L660 305 L615 305 Z M495 305 L420 305 L495 410 L495 305 Z M500 690 C690 690 840 540 840 350 C840 160 690 10 500 10 C310 10 160 160 160 350 C160 540 310 690 500 690 L500 690 Z M500 810 C240 810 40 610 40 350 C40 90 240 -110 500 -110 C760 -110 960 90 960 350 C960 610 760 810 500 810 L500 810 Z " />
<glyph glyph-name="uni2464" unicode="&#x2464;" horiz-adv-x="1000" d="M530 415 C495 415 475 405 475 405 L480 460 L645 460 L645 560 L375 560 L355 325 L435 305 C435 305 460 325 495 325 C530 325 545 310 545 280 C545 250 530 235 495 235 C450 235 410 270 410 270 L340 200 C340 200 390 130 500 130 C605 130 670 195 670 275 C670 355 610 415 530 415 L530 415 Z M500 690 C690 690 840 540 840 350 C840 160 690 10 500 10 C310 10 160 160 160 350 C160 540 310 690 500 690 L500 690 Z M500 810 C240 810 40 610 40 350 C40 90 240 -110 500 -110 C760 -110 960 90 960 350 C960 610 760 810 500 810 L500 810 Z " />
<glyph glyph-name="uni2465" unicode="&#x2465;" horiz-adv-x="1000" d="M610 560 L485 560 L370 390 C370 390 325 335 325 280 C325 200 395 130 500 130 C605 130 675 200 675 280 C675 355 610 420 525 430 L610 560 Z M550 280 C550 250 530 230 500 230 C470 230 450 250 450 280 C450 310 470 330 500 330 C530 330 550 310 550 280 L550 280 Z M500 690 C690 690 840 540 840 350 C840 160 690 10 500 10 C310 10 160 160 160 350 C160 540 310 690 500 690 L500 690 Z M500 810 C240 810 40 610 40 350 C40 90 240 -110 500 -110 C760 -110 960 90 960 350 C960 610 760 810 500 810 L500 810 Z " />
<glyph glyph-name="uni2466" unicode="&#x2466;" horiz-adv-x="1000" d="M365 560 L365 460 L545 460 L385 140 L500 140 L665 470 L665 560 L365 560 Z M500 690 C690 690 840 540 840 350 C840 160 690 10 500 10 C310 10 160 160 160 350 C160 540 310 690 500 690 L500 690 Z M500 810 C240 810 40 610 40 350 C40 90 240 -110 500 -110 C760 -110 960 90 960 350 C960 610 760 810 500 810 L500 810 Z " />
<glyph glyph-name="uni2467" unicode="&#x2467;" horiz-adv-x="1000" d="M500 400 C475 400 455 420 455 440 C455 460 475 480 500 480 C525 480 545 460 545 440 C545 420 525 400 500 400 L500 400 Z M500 225 C470 225 450 245 450 270 C450 295 470 315 500 315 C530 315 550 295 550 270 C550 245 530 225 500 225 L500 225 Z M500 690 C690 690 840 540 840 350 C840 160 690 10 500 10 C310 10 160 160 160 350 C160 540 310 690 500 690 L500 690 Z M500 130 C610 130 670 190 670 260 C670 340 595 360 595 360 C595 360 655 380 655 450 C655 510 595 570 500 570 C405 570 345 510 345 450 C345 380 405 360 405 360 C405 360 330 340 330 260 C330 190 390 130 500 130 L500 130 Z M500 810 C240 810 40 610 40 350 C40 90 240 -110 500 -110 C760 -110 960 90 960 350 C960 610 760 810 500 810 L500 810 Z " />
<glyph glyph-name="uni2468" unicode="&#x2468;" horiz-adv-x="1000" d="M500 10 C310 10 160 160 160 350 C160 540 310 690 500 690 C690 690 840 540 840 350 C840 160 690 10 500 10 L500 10 Z M500 810 C240 810 40 610 40 350 C40 90 240 -110 500 -110 C760 -110 960 90 960 350 C960 610 760 810 500 810 L500 810 Z M390 140 L515 140 L630 310 C630 310 675 365 675 420 C675 500 605 570 500 570 C395 570 325 500 325 420 C325 345 390 280 475 270 L390 140 Z M450 420 C450 450 470 470 500 470 C530 470 550 450 550 420 C550 390 530 370 500 370 C470 370 450 390 450 420 L450 420 Z " />
<glyph glyph-name="uni24EA" unicode="&#x24ea;" horiz-adv-x="1000" d="M565 350 C565 265 535 235 500 235 C465 235 435 265 435 350 C435 435 465 465 500 465 C535 465 565 435 565 350 L565 350 Z M685 350 C685 485 600 570 500 570 C400 570 315 485 315 350 C315 215 400 130 500 130 C600 130 685 215 685 350 L685 350 Z M500 10 C310 10 160 160 160 350 C160 540 310 690 500 690 C690 690 840 540 840 350 C840 160 690 10 500 10 L500 10 Z M500 810 C240 810 40 610 40 350 C40 90 240 -110 500 -110 C760 -110 960 90 960 350 C960 610 760 810 500 810 L500 810 Z " />
<glyph glyph-name="uni24FF" unicode="&#x24ff;" horiz-adv-x="1000" d="M565 350 C565 435 535 465 500 465 C465 465 435 435 435 350 C435 265 465 235 500 235 C535 235 565 265 565 350 L565 350 Z M685 350 C685 215 600 130 500 130 C400 130 315 215 315 350 C315 485 400 570 500 570 C600 570 685 485 685 350 L685 350 Z M500 810 C240 810 40 610 40 350 C40 90 240 -110 500 -110 C760 -110 960 90 960 350 C960 610 760 810 500 810 L500 810 Z " />
<glyph glyph-name="uni2776" unicode="&#x2776;" horiz-adv-x="1000" d="M500 810 C240 810 40 610 40 350 C40 90 240 -110 500 -110 C760 -110 960 90 960 350 C960 610 760 810 500 810 L500 810 Z M585 560 L585 140 L465 140 L465 420 L380 420 L380 490 C450 500 475 560 475 560 L585 560 Z " />
<glyph glyph-name="uni2777" unicode="&#x2777;" horiz-adv-x="1000" d="M335 140 C335 340 530 360 530 425 C530 445 515 460 490 460 C450 460 435 420 435 420 L335 465 C335 465 370 570 500 570 C597 570 660 505 660 435 C660 325 530 295 500 245 L655 245 L655 140 L335 140 Z M500 810 C240 810 40 610 40 350 C40 90 240 -110 500 -110 C760 -110 960 90 960 350 C960 610 760 810 500 810 L500 810 Z " />
<glyph glyph-name="uni2778" unicode="&#x2778;" horiz-adv-x="1000" d="M655 450 C655 380 595 355 595 355 C595 355 665 335 665 260 C665 190 605 130 495 130 C390 130 335 200 335 200 L400 270 C400 270 435 230 485 230 C520 230 540 250 540 270 C540 295 525 310 485 310 L440 310 L440 400 L482 400 C510 400 525 415 525 435 C525 455 510 470 485 470 C445 470 415 445 415 445 L350 515 C350 515 395 570 500 570 C595 570 655 510 655 450 L655 450 Z M500 810 C240 810 40 610 40 350 C40 90 240 -110 500 -110 C760 -110 960 90 960 350 C960 610 760 810 500 810 L500 810 Z " />
<glyph glyph-name="uni2779" unicode="&#x2779;" horiz-adv-x="1000" d="M660 305 L660 205 L615 205 L615 140 L495 140 L495 205 L310 205 L310 310 L495 560 L615 560 L615 305 L660 305 Z M495 410 L420 305 L495 305 L495 410 Z M500 810 C240 810 40 610 40 350 C40 90 240 -110 500 -110 C760 -110 960 90 960 350 C960 610 760 810 500 810 L500 810 Z " />
<glyph glyph-name="uni277A" unicode="&#x277a;" horiz-adv-x="1000" d="M530 415 C610 415 670 355 670 275 C670 195 605 130 500 130 C390 130 340 200 340 200 L410 270 C410 270 450 235 495 235 C530 235 545 250 545 280 C545 310 530 325 495 325 C460 325 435 305 435 305 L355 325 L375 560 L645 560 L645 460 L480 460 L475 405 C475 405 495 415 530 415 L530 415 Z M500 810 C240 810 40 610 40 350 C40 90 240 -110 500 -110 C760 -110 960 90 960 350 C960 610 760 810 500 810 L500 810 Z " />
<glyph glyph-name="uni277B" unicode="&#x277b;" horiz-adv-x="1000" d="M525 430 C610 420 675 355 675 280 C675 200 605 130 500 130 C395 130 325 200 325 280 C325 335 370 390 370 390 L485 560 L610 560 L525 430 Z M550 280 C550 310 530 330 500 330 C470 330 450 310 450 280 C450 250 470 230 500 230 C530 230 550 250 550 280 L550 280 Z M500 810 C240 810 40 610 40 350 C40 90 240 -110 500 -110 C760 -110 960 90 960 350 C960 610 760 810 500 810 L500 810 Z " />
<glyph glyph-name="uni277C" unicode="&#x277c;" horiz-adv-x="1000" d="M665 560 L665 470 L500 140 L385 140 L545 460 L365 460 L365 560 L665 560 Z M500 810 C240 810 40 610 40 350 C40 90 240 -110 500 -110 C760 -110 960 90 960 350 C960 610 760 810 500 810 L500 810 Z " />
<glyph glyph-name="uni277D" unicode="&#x277d;" horiz-adv-x="1000" d="M500 400 C525 400 545 420 545 440 C545 460 525 480 500 480 C475 480 455 460 455 440 C455 420 475 400 500 400 L500 400 Z M500 225 C530 225 550 245 550 270 C550 295 530 315 500 315 C470 315 450 295 450 270 C450 245 470 225 500 225 L500 225 Z M500 130 C390 130 330 190 330 260 C330 340 405 360 405 360 C405 360 345 380 345 450 C345 510 405 570 500 570 C595 570 655 510 655 450 C655 380 595 360 595 360 C595 360 670 340 670 260 C670 190 610 130 500 130 L500 130 Z M500 810 C240 810 40 610 40 350 C40 90 240 -110 500 -110 C760 -110 960 90 960 350 C960 610 760 810 500 810 L500 810 Z " />
<glyph glyph-name="uni277E" unicode="&#x277e;" horiz-adv-x="1000" d="M475 270 C390 280 325 345 325 420 C325 500 395 570 500 570 C605 570 675 500 675 420 C675 365 630 310 630 310 L515 140 L390 140 L475 270 Z M450 420 C450 390 470 370 500 370 C530 370 550 390 550 420 C550 450 530 470 500 470 C470 470 450 450 450 420 L450 420 Z M500 -110 C760 -110 960 90 960 350 C960 610 760 810 500 810 C240 810 40 610 40 350 C40 90 240 -110 500 -110 L500 -110 Z " />
<glyph glyph-name="commaaccent" unicode="&#xf6c3;" horiz-adv-x="270" d="M30 -240 L165 -240 L240 -80 L80 -80 L30 -240 Z " />
<glyph glyph-name="cyrBreve" unicode="&#xf6d1;" horiz-adv-x="410" d="M205 775 C310 775 380 845 380 940 L260 940 C260 905 240 885 205 885 C170 885 150 905 150 940 L30 940 C30 845 100 775 205 775 L205 775 Z " />
<glyph glyph-name="cyrbreve" unicode="&#xf6d4;" horiz-adv-x="400" d="M200 550 C300 550 370 620 370 710 L250 710 C250 680 230 660 200 660 C170 660 150 680 150 710 L30 710 C30 620 100 550 200 550 L200 550 Z " />
<glyph glyph-name="zerooldstyle" unicode="&#xf730;" horiz-adv-x="660" d="M330 150 C275 150 235 190 235 245 C235 300 275 340 330 340 C385 340 425 300 425 245 C425 190 385 150 330 150 L330 150 Z M330 -20 C485 -20 610 100 610 245 C610 390 485 510 330 510 C175 510 50 390 50 245 C50 100 175 -20 330 -20 L330 -20 Z " />
<glyph glyph-name="oneoldstyle" unicode="&#xf731;" horiz-adv-x="415" d="M170 490 C170 490 130 410 30 395 L30 280 L145 280 L145 0 L335 0 L335 490 L170 490 Z " />
<glyph glyph-name="twooldstyle" unicode="&#xf732;" horiz-adv-x="550" d="M505 0 L505 140 L300 140 C330 190 510 180 510 344 C510 430 430 510 280 510 C95 510 30 385 30 385 L150 300 C150 300 196 370 270 370 C305 370 325 350 325 330 C325 250 30 280 30 0 L505 0 Z " />
<glyph glyph-name="threeoldstyle" unicode="&#xf733;" horiz-adv-x="590" d="M520 375 L520 490 L40 490 L40 330 L270 330 L120 170 L190 70 C190 70 215 80 260 80 C320 80 355 45 355 5 C355 -35 320 -70 260 -70 C175 -70 120 0 120 0 L10 -115 C10 -115 101 -230 285 -230 C450 -230 555 -125 555 5 C555 200 380 220 380 220 L520 375 Z " />
<glyph glyph-name="fouroldstyle" unicode="&#xf734;" horiz-adv-x="625" d="M530 140 L530 490 L320 490 L25 155 L25 0 L340 0 L340 -210 L530 -210 L530 0 L605 0 L605 140 L530 140 Z M340 140 L200 140 L340 300 L340 140 Z " />
<glyph glyph-name="fiveoldstyle" unicode="&#xf735;" horiz-adv-x="625" d="M360 250 C295 250 255 230 255 230 L265 330 L545 330 L545 490 L95 490 L70 90 L200 70 C200 70 230 110 290 110 C350 110 385 75 385 25 C385 -25 350 -60 285 -60 C205 -60 150 0 150 0 L40 -115 C40 -115 125 -230 310 -230 C475 -230 585 -120 585 20 C585 155 490 250 360 250 L360 250 Z " />
<glyph glyph-name="sixoldstyle" unicode="&#xf736;" horiz-adv-x="635" d="M495 700 L295 700 L105 410 C105 410 40 330 40 230 C40 95 155 -20 320 -20 C485 -20 600 95 600 230 C600 360 495 465 350 480 L495 700 Z M410 230 C410 180 370 140 320 140 C270 140 230 180 230 230 C230 280 270 320 320 320 C370 320 410 280 410 230 L410 230 Z " />
<glyph glyph-name="sevenoldstyle" unicode="&#xf737;" horiz-adv-x="555" d="M30 490 L30 320 L315 320 L65 -210 L265 -210 L525 340 L525 490 L30 490 Z " />
<glyph glyph-name="eightoldstyle" unicode="&#xf738;" horiz-adv-x="630" d="M315 140 C260 140 225 175 225 215 C225 255 260 290 315 290 C370 290 405 255 405 215 C405 175 370 140 315 140 L315 140 Z M315 440 C270 440 240 470 240 500 C240 530 270 560 315 560 C360 560 390 530 390 500 C390 470 360 440 315 440 L315 440 Z M315 -20 C485 -20 590 85 590 205 C590 325 480 375 480 375 C480 375 565 420 565 520 C565 620 465 720 315 720 C165 720 65 620 65 520 C65 420 150 375 150 375 C150 375 40 325 40 205 C40 85 145 -20 315 -20 L315 -20 Z " />
<glyph glyph-name="nineoldstyle" unicode="&#xf739;" horiz-adv-x="635" d="M140 -210 L340 -210 L530 80 C530 80 595 160 595 260 C595 395 480 510 315 510 C150 510 35 395 35 260 C35 130 140 25 285 10 L140 -210 Z M225 260 C225 310 265 350 315 350 C365 350 405 310 405 260 C405 210 365 170 315 170 C265 170 225 210 225 260 L225 260 Z " />
<glyph glyph-name="f_f" unicode="&#xfb00;" horiz-adv-x="720" d="M695 470 L590 470 L590 520 C590 550 610 570 645 570 C675 570 695 560 695 560 L695 705 C695 705 650 720 595 720 C485 720 420 655 420 530 L420 470 L255 470 L255 500 C255 530 275 550 310 550 C340 550 360 540 360 540 L360 685 C360 685 315 700 260 700 C150 700 85 635 85 510 L85 470 L20 470 L20 320 L85 320 L85 0 L255 0 L255 320 L420 320 L420 0 L590 0 L590 320 L695 320 L695 470 Z " />
<glyph glyph-name="uniFB01" unicode="&#xfb01;" horiz-adv-x="660" d="M590 470 L255 470 L255 510 C255 540 275 560 310 560 C340 560 360 550 360 550 L360 695 C360 695 315 710 260 710 C150 710 85 645 85 520 L85 470 L20 470 L20 320 L85 320 L85 0 L255 0 L255 320 L420 320 L420 0 L590 0 L590 470 Z M600 635 C600 685 560 725 505 725 C450 725 410 685 410 635 C410 585 450 545 505 545 C560 545 600 585 600 635 L600 635 Z " />
<glyph glyph-name="uniFB02" unicode="&#xfb02;" horiz-adv-x="665" d="M425 490 L425 0 L595 0 L595 490 C595 620 495 720 340 720 C185 720 85 620 85 470 L20 470 L20 320 L85 320 L85 0 L255 0 L255 320 L359 320 L359 470 L255 470 L255 490 C255 530 290 565 340 565 C390 565 425 530 425 490 L425 490 Z " />
<glyph glyph-name="f_f_i" unicode="&#xfb03;" horiz-adv-x="1000" d="M930 470 L590 470 L590 520 C590 550 610 570 645 570 C675 570 695 560 695 560 L695 705 C695 705 650 720 595 720 C485 720 420 655 420 530 L420 470 L255 470 L255 500 C255 530 275 550 310 550 C340 550 360 540 360 540 L360 685 C360 685 315 700 260 700 C150 700 85 635 85 510 L85 470 L20 470 L20 320 L85 320 L85 0 L255 0 L255 320 L420 320 L420 0 L590 0 L590 320 L760 320 L760 0 L930 0 L930 470 Z M940 635 C940 685 900 725 845 725 C790 725 750 685 750 635 C750 585 790 545 845 545 C900 545 940 585 940 635 L940 635 Z " />
<glyph glyph-name="s_t" unicode="&#xfb06;" horiz-adv-x="870" d="M425 425 C425 425 380 450 380 495 C380 540 410 570 460 570 C505 570 540 535 539 480 C539 480 475 480 475 480 L475 330 L540 330 L540 180 C540 55 605 -10 715 -10 C770 -10 815 5 815 5 L815 150 C815 150 793 140 765 140 C733 140 710 158 710 190 L710 330 L810 330 L810 480 L710 480 C710 625 605 720 460 720 C310 720 215 640 215 500 C110 500 30 420 30 340 C30 180 235 200 235 155 C235 140 220 125 190 125 C130 125 95 175 95 175 L10 85 C10 85 75 -10 230 -10 C365 -10 440 65 440 150 C440 310 235 290 235 335 C235 350 250 365 280 365 C320 365 345 340 345 340 L425 425 Z " />
</font>
</svg>
